<?xml version="1.0" encoding="UTF-8" standalone="no"?>
<svg
   xmlns:dc="http://purl.org/dc/elements/1.1/"
   xmlns:cc="http://creativecommons.org/ns#"
   xmlns:rdf="http://www.w3.org/1999/02/22-rdf-syntax-ns#"
   xmlns:svg="http://www.w3.org/2000/svg"
   xmlns="http://www.w3.org/2000/svg"
   id="svg8"
   version="1.1"
   viewBox="0 0 467.83105 401.98727"
   height="401.98727"
   width="467.83105">
  <defs
     id="defs2" />
  <metadata
     id="metadata5">
    <rdf:RDF>
      <cc:Work
         rdf:about="">
        <dc:format>image/svg+xml</dc:format>
        <dc:type
           rdf:resource="http://purl.org/dc/dcmitype/StillImage" />
        <dc:title></dc:title>
      </cc:Work>
    </rdf:RDF>
  </metadata>
  <g
     style="display:inline"
     transform="translate(-16.168953,-400)"
     id="Device">
    <path
       id="path4776"
       d="m 311.04395,476.07566 c 3.02297,2.70603 5.6584,10.20454 12.125,16.78661 7.67562,7.81268 15.79723,11.4209 17.25,14.5 1.45277,3.0791 4.3436,13.30151 6.08201,23.63224 2.08088,12.36588 3.91014,33.37614 3.16799,50.36776 -0.74215,16.99162 -4.92696,41.17485 -7.82549,53.25984 -2.89854,12.085 -8.94197,37.46413 -15.18815,56.6472 -11.39282,34.98926 -15.98921,41.84599 -18.48636,44.65546 -8.98794,10.11206 -28.22253,19.14144 -44.75,24.3125 -16.52747,5.17106 -42.91421,10.08579 -52.16421,3.83579 -9.25,-6.25 -21.76463,-18.87042 -35.87348,-43.80026 -8.81835,-15.58171 -16.07719,-30.35613 -17.6302,-37.02772 -0.18177,-0.78086 -1.49089,-8.31458 -2.2757,-17.52792 -0.78481,-9.21335 -3.56426,-34.50819 -4.10819,-52.7258 -0.54593,-18.2846 -0.6811,-57.92007 3.75536,-66.44227 0,0 -1.15624,-6.08317 -0.80269,-10.85614 0.13258,-2.20971 0.95227,-8.55534 4.93612,-26.56824 2.86224,-12.94153 8.06806,-29.82835 9.91299,-32.63747 4.02438,-6.12757 24.91051,-8.21668 38.875,-12.75 8.4338,-2.73788 31.21729,-9.7474 31.21729,-9.7474 l 10.06673,0.0719 c 0,0 20.20745,7.47311 29.51777,10.80936 9.16905,3.28563 27.78726,8.46404 27.78726,8.46404 l 0.086,7.00877 4.33969,0.3933 z"
       style="fill:#d3d3ce;fill-opacity:0.96808543;fill-rule:evenodd;stroke:#babdb6;stroke-width:3.00094485;stroke-linecap:butt;stroke-linejoin:miter;stroke-miterlimit:4;stroke-dasharray:none;stroke-opacity:1" />
    <path
       transform="translate(16.168953,400)"
       id="path4823"
       d="m 284.26072,257.82916 -3.41697,-0.38193 c 0,0 8.48946,-61.89132 10.13089,-93.04711 1.59315,-30.23938 -0.61042,-64.680094 -0.28888,-90.843481 0,0 -18.83877,-5.399917 -28.00782,-8.685547 C 253.3672,61.534856 233.1582,54.023438 233.1582,54.023438 h -2.65429 v 36.296874 c 6.01123,1.610705 10.35351,5.082948 10.35351,12.603518 l -0.0879,25.875 c 0,7.72285 -5.57149,10.39065 -10.26562,11.64844 v 7.6195 c 7.02785,0 11.31204,1.92153 11.31204,9.34615 v 30.90854 c 0,6.37637 -4.77074,8.07114 -11.31204,8.07114 v 16.62107 h -4.33399 V 196.3926 c -6.54611,0 -11.7739,-1.08449 -11.7739,-8.07114 v -30.90854 c 0,-7.51769 4.41852,-9.34615 11.7739,-9.34615 v -7.6195 c -4.98633,-1.61457 -9.62702,-3.28799 -9.97265,-11.64844 l -0.17579,-25.875 c 0.14132,-7.639291 4.65137,-11.130583 10.14844,-12.603518 V 54.023438 h -3.07811 c 0,0 -22.783,6.97501 -31.2168,9.71289 -13.96449,4.53332 -34.85062,6.62243 -38.875,12.75 -1.84493,2.80912 -7.04987,19.697142 -9.91211,32.638672 -3.98385,18.0129 -4.80492,24.35865 -4.9375,26.56836 -0.35355,4.77297 0.38755,10.58777 1.03711,12.46484 1.12032,3.23746 2.93933,5.36763 4.73047,7.42774 1.79115,2.0601 5.41485,6.31569 6.00781,10.24218 0.77914,5.15941 1.58279,17.99189 1.93164,29.67579 0.24832,8.31696 0.81632,41.58411 0.13672,54.60351 -0.29619,5.67436 -2.92776,13.29645 -3.92375,17.848 -1.29773,5.93043 -2.30309,15.11172 -2.04592,18.28673 0.43126,5.32425 1.17138,9.80749 2.87006,13.68949 0.91969,2.10178 1.50001,4.76009 10.31836,20.3418 14.10885,24.92984 26.62305,37.54883 35.87305,43.79883 9.25,6.25 35.63659,1.33512 52.16406,-3.83594 16.52747,-5.17106 35.76206,-14.20044 44.75,-24.3125 2.49715,-2.80947 7.09351,-9.66504 18.48633,-44.6543 6.24618,-19.18307 12.28896,-44.56148 15.1875,-56.64648 2.89853,-12.08499 7.08402,-36.2701 7.82617,-53.26172 0.74215,-16.99162 -1.08709,-38.00131 -3.16797,-50.36719 -1.73841,-10.33073 -4.62926,-20.55371 -6.08203,-23.63281 -1.45277,-3.0791 -9.57438,-6.68732 -17.25,-14.500002 -6.4666,-6.58207 -7.72703,-11.954126 -12.5,-16.285156 0.15263,30.339818 1.29199,58.443088 -0.255,87.822298 -2.07414,31.07314 -5.94662,62.55655 -9.98428,93.43069 z"
       style="fill:#eeeeec;fill-opacity:1;fill-rule:evenodd;stroke:#babdb6;stroke-width:2;stroke-linecap:butt;stroke-linejoin:miter;stroke-miterlimit:4;stroke-dasharray:none;stroke-opacity:0.95744683" />
    <path
       id="path4778"
       d="m 261.01992,512.35183 v 7.97553 l 3.83318,-3.83321 z"
       style="color:#000000;display:inline;overflow:visible;opacity:1;vector-effect:none;fill:#888a85;fill-opacity:1;stroke:none;stroke-width:1;stroke-linecap:butt;stroke-linejoin:bevel;stroke-miterlimit:4;stroke-dasharray:none;stroke-dashoffset:0;stroke-opacity:1;marker:none;marker-start:none;marker-mid:none;marker-end:none;paint-order:normal" />
    <path
       style="color:#000000;display:inline;overflow:visible;opacity:1;vector-effect:none;fill:#888a85;fill-opacity:1;stroke:none;stroke-width:1;stroke-linecap:butt;stroke-linejoin:bevel;stroke-miterlimit:4;stroke-dasharray:none;stroke-dashoffset:0;stroke-opacity:1;marker:none;marker-start:none;marker-mid:none;marker-end:none;paint-order:normal"
       d="m 227.19966,512.35183 v 7.97553 l -3.83318,-3.83321 z"
       id="path4801" />
    <rect
       style="color:#000000;overflow:visible;opacity:1;vector-effect:none;fill:#ffffff;fill-opacity:1;stroke:#babdb6;stroke-width:0.95555294;stroke-linecap:butt;stroke-linejoin:bevel;stroke-miterlimit:4;stroke-dasharray:none;stroke-dashoffset:0;stroke-opacity:1;marker:none;marker-start:none;marker-mid:none;marker-end:none;paint-order:normal"
       id="rect4803"
       width="18.780895"
       height="44.649994"
       x="235.21019"
       y="493.13071"
       rx="9.3904476"
       ry="9.3904476" />
    <path
       id="path872"
       d="m 152.03076,649.90593 c 0.24176,2.64474 0.19708,10.60456 0.62723,11.15122 0.37967,0.57993 3.88134,1.44689 4.88763,1.22122 0.88388,-0.70711 2.43918,-3.94493 2.43918,-4.65203 0,-0.70711 -0.36428,-7.72824 -0.71783,-9.5844 -0.35355,-1.85615 -0.77807,-5.04922 -1.24724,-5.14223 -0.48745,-0.0966 -1.78498,-0.1073 -2.20705,0.0214 -1.48561,0.45314 -4.18888,1.85367 -4.29988,2.06313 -0.0714,0.13468 0.3678,3.27889 0.51796,4.92169 z"
       style="fill:#ffffff;fill-opacity:1;fill-rule:evenodd;stroke:#babdb6;stroke-width:1px;stroke-linecap:butt;stroke-linejoin:miter;stroke-opacity:1" />
    <path
       id="path867"
       d="m 255.17104,570.04977 v -13.93462 c 0,-2.625 -1.72177,-3.92183 -3.84489,-4.48787 -0.99397,-0.265 -3.2768,-0.8125 -7.09469,-0.8125 -3.84551,0 -5.80056,0.44736 -6.93003,0.75 -2.78294,0.74569 -3.70234,1.80037 -3.82734,4.92537 v 13.68462 c 0,0.8228 0.29258,1.28789 0.94502,1.28789 l 19.59359,-0.0698 c 0.95885,0 1.15834,-0.33708 1.15834,-1.34313 z"
       style="fill:#ffffff;fill-opacity:1;fill-rule:evenodd;stroke:#babdb6;stroke-width:1.00157475;stroke-linecap:butt;stroke-linejoin:miter;stroke-miterlimit:4;stroke-dasharray:none;stroke-opacity:1" />
    <path
       style="fill:#ffffff;fill-opacity:1;fill-rule:evenodd;stroke:#babdb6;stroke-width:1.00157475;stroke-linecap:butt;stroke-linejoin:miter;stroke-miterlimit:4;stroke-dasharray:none;stroke-opacity:1"
       d="m 255.17104,574.66517 v 13.93462 c 0,2.625 -1.72177,3.92183 -3.84489,4.48787 -0.99397,0.265 -3.2768,0.8125 -7.09469,0.8125 -3.84551,0 -5.80056,-0.44736 -6.93003,-0.75 -2.78294,-0.74569 -3.70234,-1.80037 -3.82734,-4.92537 v -13.68462 c 0,-0.8228 0.29258,-1.28789 0.94502,-1.28789 l 19.59359,0.0698 c 0.95885,0 1.15834,0.33708 1.15834,1.34313 z"
       id="path881" />
    <path
       id="path887"
       d="m 252.32827,579.41003 v 10.62086 c 0,1.75766 -1.27059,2.62597 -2.83737,3.00499 -0.7335,0.17744 -2.41814,0.54402 -5.23557,0.54402 -2.83782,0 -4.28056,-0.29952 -5.11406,-0.50216 -2.05369,-0.49931 -2.73216,-1.2055 -2.82441,-3.29794 v -10.45347 c 0,-0.55092 0.21591,-0.86234 0.69737,-0.86234 l 14.45924,0.0468 c 0.7076,0 0.8548,0.22571 0.8548,0.89936 z"
       style="fill:#ffffff;fill-opacity:0.96808532;fill-rule:evenodd;stroke:#babdb6;stroke-width:1.00157475;stroke-linecap:butt;stroke-linejoin:miter;stroke-miterlimit:4;stroke-dasharray:none;stroke-opacity:1" />
    <path
       id="path862"
       d="m 155.96904,614.88464 c -0.43852,0.31315 -2.13808,1.3289 -2.57322,1.32073 -0.46971,-0.009 -3.99085,-1.4975 -4.29393,-2.09137 -0.34241,-0.67095 0.29542,-5.20041 0.0171,-8.32587 -0.30052,-3.375 -1.12185,-5.72855 -0.87185,-6.41605 0.25,-0.6875 2.41297,-1.63827 3.65219,-2.41606 1.10959,-0.69643 3.35058,-3.247 4.28125,-1.0625 0.3125,1 1.39883,11.56363 1.53125,16.21875 0.21859,2.47789 -1.30424,2.45922 -1.74281,2.77237 z"
       style="fill:#ffffff;fill-opacity:1;fill-rule:evenodd;stroke:#babdb6;stroke-width:1px;stroke-linecap:butt;stroke-linejoin:miter;stroke-opacity:1" />
    <path
       id="path860"
       d="m 159.98995,612.56965 c -0.29869,0.52457 -1.64959,1.26379 -2.75352,2.11741 -1.1172,-0.32223 -4.25116,-2.11539 -4.50134,-2.28423 -0.35169,-0.23736 -0.71227,-0.91235 -0.71075,-1.85306 0.20919,-2.56457 0.84062,-5.86001 0.9375,-8.8125 0.0665,-2.0262 -0.2824,-5.13804 -0.24555,-6.0769 0.0187,-0.47558 2.25991,-1.36895 2.86297,-1.52053 1.11635,-0.2806 2.79529,0.14534 3.375,2.53125 0,0.625 0.57008,10.00368 0.75758,10.94118 0.1582,1.78328 0.5768,4.43281 0.27811,4.95738 z"
       style="fill:#ffffff;fill-opacity:1;fill-rule:evenodd;stroke:#babdb6;stroke-width:1px;stroke-linecap:butt;stroke-linejoin:miter;stroke-opacity:1" />
    <path
       id="path864"
       d="m 150.64868,569.53664 c -0.97227,0.17678 -1.60273,0.91484 -1.80568,1.4048 -0.375,0.90533 -0.78527,5.10649 -0.77907,8.302 0.006,3.19551 0.54777,9.81685 1.29549,10.98626 0.75163,1.17514 2.15611,0.9257 2.80882,0.81694 0.3204,-0.0534 4.08545,-1.39532 4.50337,-1.81824 0.35522,-0.35946 0.65035,-1.20343 0.56197,-4.4738 -0.0884,-3.27037 0.13547,-7.61377 -0.86375,-11.2342 -0.37456,-1.35712 -0.82138,-3.60431 -1.88204,-3.78109 -1.06066,-0.17678 -3.83915,-0.20267 -3.83915,-0.20267 z"
       style="fill:#ffffff;fill-opacity:1;fill-rule:evenodd;stroke:#babdb6;stroke-width:1px;stroke-linecap:butt;stroke-linejoin:miter;stroke-opacity:1" />
    <path
       id="path866"
       d="m 157.7791,588.14239 c -0.90545,0.0334 -3.33111,0.78681 -3.81881,0.032 -0.4654,-6.50197 -1.96016,-12.75369 -3.97955,-19.14459 0,-0.35356 4.48116,-1.98874 5.45343,-1.37003 0.97228,0.61872 1.53738,1.86612 1.71415,3.72228 0.17678,1.85615 1.14905,8.75044 1.23744,10.96015 0.10856,3.16599 1.00004,3.05618 0.66291,4.552 -0.0934,0.41451 -0.70707,1.06066 -0.70707,1.06066 z"
       style="fill:#ffffff;fill-opacity:1;fill-rule:evenodd;stroke:#babdb6;stroke-width:1px;stroke-linecap:butt;stroke-linejoin:miter;stroke-opacity:1" />
    <path
       id="path870"
       d="m 152.23653,621.85009 c -0.37025,0.0388 -2.63526,1.08557 -2.65165,1.41422 -0.0225,0.45125 0.34423,4.5271 0.587,6.7838 0.24685,2.2945 0.7064,6.51902 0.88388,6.86656 0.14263,0.27929 2.56151,0.66736 3.79895,0.49058 0.61871,-0.0884 3.25964,-1.10929 3.48062,-1.50705 0.13257,-0.66291 0.83968,-1.29809 0.57452,-3.5078 -0.26517,-2.20971 -2.12132,-9.28077 -2.65165,-9.72272 -0.53033,-0.44194 -3.14014,-0.91005 -4.02167,-0.81759 z"
       style="fill:#ffffff;fill-opacity:1;fill-rule:evenodd;stroke:#babdb6;stroke-width:1px;stroke-linecap:butt;stroke-linejoin:miter;stroke-opacity:1" />
    <path
       id="path868"
       d="m 156.80461,619.31299 c -0.2923,0.0718 -4.49957,2.13774 -4.48375,2.40425 0.0375,0.63166 1.16044,3.86769 1.90479,6.44607 0.74435,2.57838 1.69625,8.39587 1.88296,8.65945 0.14932,0.2108 1.41199,0.28052 2.37595,0.17247 0.23063,-0.0259 1.19108,-0.60592 1.28935,-0.79408 0.37147,-0.71119 0.15326,-2.50488 0.18155,-3.00421 0.0433,-0.76372 0.60604,-6.01152 -0.0127,-8.13284 -0.52787,-1.58039 0.39983,-4.77844 -0.36096,-5.94668 -0.31421,-0.48249 -2.32989,0.0857 -2.77721,0.19557 z"
       style="fill:#ffffff;fill-opacity:1;fill-rule:evenodd;stroke:#babdb6;stroke-width:1px;stroke-linecap:butt;stroke-linejoin:miter;stroke-opacity:1" />
    <path
       id="path852"
       d="m 155.01188,564.70117 c -1.22101,0.65992 -3.21101,1.95213 -3.16682,2.70343 3.20273,5.86527 4.22195,17.24509 4.82529,18.02088 0.31092,0.56134 2.88553,1.217 3.18903,1.28201 0.33338,0.0714 3.04052,-0.86141 3.11725,-1.14276 0.30014,-1.10055 0.17519,-9.32431 -0.31028,-13.23941 -0.48547,-3.9151 -0.73281,-8.36523 -2.09673,-9.24861 -0.72237,-0.46786 -3.85977,0.70676 -5.55774,1.62446 z"
       style="fill:#ffffff;fill-opacity:0.95744683;fill-rule:evenodd;stroke:#babdb6;stroke-width:1px;stroke-linecap:butt;stroke-linejoin:miter;stroke-opacity:1" />
    <path
       id="path854"
       d="m 161.0752,612.89352 c -1.75146,-0.90041 -6.02565,-1.99442 -5.90721,-4.09362 0.14807,-1.61652 0.67966,-4.63044 0.92146,-6.95724 0.24802,-2.38666 0.36346,-6.1942 0.54236,-7.17807 0.125,-0.6875 1.83175,-2.88356 2.142,-3.13182 0.29103,-0.23288 3.65608,-1.59953 4.22568,-1.73105 0.23425,-0.0541 0.52046,0.22509 0.57349,0.81683 0.11414,1.27352 0.28347,12.80622 0.28347,14.36872 0,1.5625 -0.0632,5.04477 -0.1875,5.46875 -0.12425,0.42398 -2.59375,2.4375 -2.59375,2.4375 z"
       style="fill:#ffffff;fill-opacity:1;fill-rule:evenodd;stroke:#babdb6;stroke-width:1px;stroke-linecap:butt;stroke-linejoin:miter;stroke-opacity:1" />
    <path
       id="path856"
       d="m 162.21092,617.17213 c -0.21676,0.0818 -4.43013,2.60391 -5.01895,2.90744 -0.95102,0.49023 -1.37461,0.96809 -1.28596,1.51052 0.0751,0.45953 1.30806,5.01143 1.95266,7.20915 0.6446,2.19772 1.73776,7.1055 1.97032,7.20997 0.65066,0.29229 3.6023,0.22868 4.125,0.18398 0.59892,-0.0512 0.65742,-0.67477 0.68593,-1.66226 0.0145,-0.50077 -0.27144,-8.02491 -0.27144,-9.71241 0,-1.6875 0.008,-7.42018 -0.27589,-7.70353 -0.62435,-0.18501 -1.66317,0.0256 -1.88167,0.0571 z"
       style="fill:#ffffff;fill-opacity:1;fill-rule:evenodd;stroke:#babdb6;stroke-width:1px;stroke-linecap:butt;stroke-linejoin:miter;stroke-opacity:1" />
    <path
       style="fill:#ffffff;fill-opacity:1;fill-rule:evenodd;stroke:#babdb6;stroke-width:1px;stroke-linecap:butt;stroke-linejoin:miter;stroke-opacity:1"
       d="m 160.52275,641.65801 c -0.2903,0.0567 -0.80538,0.0126 -1.08638,0.19229 -0.58576,0.37464 -2.44976,1.54079 -2.75622,2.2763 -0.22097,0.53033 -0.36745,3.62392 -0.46561,5.44185 -0.21268,3.93889 -0.4984,11.27886 -0.26662,11.83088 0.23174,0.55202 2.84022,0.95436 3.68161,0.57582 0.84138,-0.37855 1.33784,-2.49961 1.38923,-3.3079 0.0409,-0.64309 0.60881,-16.15955 0.59321,-16.72225 -0.0123,-0.44215 -0.77485,-0.34835 -1.08922,-0.28699 z"
       id="path882" />
    <path
       id="path858"
       d="m 164.4699,640.64821 c -0.2903,0.0567 -1.38646,0.33802 -1.66746,0.51773 -0.58576,0.37464 -2.04102,1.53322 -2.34748,2.26873 -0.22097,0.53033 -0.27253,4.15878 -0.51516,6.22753 -0.46013,3.92326 -1.87028,11.53931 -1.78217,11.71568 0.0881,0.17637 2.57509,0.34659 2.96346,0.29961 0.38837,-0.047 3.03922,-1.91419 3.39882,-3.38838 0.24203,-0.99222 0.77147,-7.31279 0.8507,-11.86082 0.0493,-2.83127 -0.3055,-4.74594 -0.31149,-4.96184 -0.0123,-0.44215 -0.27485,-0.8796 -0.58922,-0.81824 z"
       style="fill:#ffffff;fill-opacity:1;fill-rule:evenodd;stroke:#babdb6;stroke-width:1px;stroke-linecap:butt;stroke-linejoin:miter;stroke-opacity:1" />
  </g>
  <g
     transform="translate(-16.168953)"
     style="display:inline"
     id="Buttons" />
  <g
     transform="translate(-16.168953)"
     style="display:inline"
     id="LEDs" />
</svg>
