<?xml version="1.0" encoding="UTF-8" standalone="no"?>
<!-- Created with Inkscape (http://www.inkscape.org/) -->

<svg
   xmlns:dc="http://purl.org/dc/elements/1.1/"
   xmlns:cc="http://creativecommons.org/ns#"
   xmlns:rdf="http://www.w3.org/1999/02/22-rdf-syntax-ns#"
   xmlns:svg="http://www.w3.org/2000/svg"
   xmlns="http://www.w3.org/2000/svg"
   xmlns:sodipodi="http://sodipodi.sourceforge.net/DTD/sodipodi-0.dtd"
   xmlns:inkscape="http://www.inkscape.org/namespaces/inkscape"
   width="467.83105"
   height="400.87393"
   viewBox="0 0 467.83105 400.87393"
   version="1.1"
   id="svg8"
   inkscape:version="0.92.2 2405546, 2018-03-11"
   sodipodi:docname="logitech-g600.svg"
   inkscape:export-filename="/home/gandalf3/Pictures/Vectors/gnome/logitech-g600.png"
   inkscape:export-xdpi="90"
   inkscape:export-ydpi="90">
  <defs
     id="defs2">
    <inkscape:path-effect
       effect="mirror_symmetry"
       start_point="-32.949221,642.84217"
       end_point="-32.949221,665.58085"
       center_point="-32.949221,654.21151"
       id="path-effect2141"
       is_visible="true"
       mode="free"
       discard_orig_path="false"
       fuse_paths="true"
       oposite_fuse="true" />
    <inkscape:path-effect
       effect="mirror_symmetry"
       start_point="162.36328,617.41819"
       end_point="162.36328,637.35007"
       center_point="162.36328,627.38413"
       id="path-effect2139"
       is_visible="true"
       mode="free"
       discard_orig_path="false"
       fuse_paths="true"
       oposite_fuse="true" />
    <inkscape:path-effect
       effect="mirror_symmetry"
       start_point="162.25916,592.64387"
       end_point="162.4674,612.52243"
       center_point="162.36328,602.58315"
       id="path-effect2133"
       is_visible="true"
       mode="free"
       discard_orig_path="false"
       fuse_paths="true"
       oposite_fuse="true" />
    <inkscape:path-effect
       effect="mirror_symmetry"
       start_point="162.23558,562.66726"
       end_point="162.49098,587.0472"
       center_point="162.36328,574.85723"
       id="path-effect2131"
       is_visible="true"
       mode="free"
       discard_orig_path="false"
       fuse_paths="true"
       oposite_fuse="true" />
  </defs>
  <sodipodi:namedview
     id="base"
     pagecolor="#ffffff"
     bordercolor="#666666"
     borderopacity="1.0"
     inkscape:pageopacity="0.0"
     inkscape:pageshadow="2"
     inkscape:zoom="1.8101934"
     inkscape:cx="115.30609"
     inkscape:cy="209.51699"
     inkscape:document-units="px"
     inkscape:current-layer="Device"
     inkscape:document-rotation="0"
     showgrid="false"
     units="px"
     borderlayer="true"
     inkscape:showpageshadow="false"
     inkscape:pagecheckerboard="false"
     showguides="false"
     inkscape:window-width="979"
     inkscape:window-height="1040"
     inkscape:window-x="1930"
     inkscape:window-y="26"
     inkscape:window-maximized="0"
     inkscape:snap-global="false"
     inkscape:guide-bbox="true"
     fit-margin-top="20"
     fit-margin-bottom="20"
     fit-margin-left="0"
     fit-margin-right="0"
     inkscape:snap-nodes="false"
     inkscape:snap-to-guides="true"
     inkscape:snap-others="false"
     inkscape:object-paths="false"
     inkscape:snap-bbox="false"
     inkscape:bbox-paths="false"
     inkscape:bbox-nodes="true"
     inkscape:snap-bbox-edge-midpoints="false"
     inkscape:snap-bbox-midpoints="false"
     inkscape:snap-intersection-paths="false"
     inkscape:snap-midpoints="false"
     inkscape:snap-center="true"
     inkscape:snap-text-baseline="true"
     inkscape:snap-object-midpoints="true"
     inkscape:snap-page="true"
     inkscape:object-nodes="true"
     inkscape:snap-smooth-nodes="false">
    <inkscape:grid
       type="xygrid"
       id="grid956"
       originx="-16.168953"
       originy="1.9872821" />
    <sodipodi:guide
       position="191,-202"
       orientation="-0.4357476,0.9000689"
       id="guide876"
       inkscape:locked="false" />
    <sodipodi:guide
       position="74.246211,186.89716"
       orientation="0.99203715,0.12594561"
       id="guide9296"
       inkscape:locked="false" />
    <sodipodi:guide
       position="69.031302,215.03781"
       orientation="-0.97973656,-0.20029045"
       id="guide9300"
       inkscape:locked="false"
       inkscape:label=""
       inkscape:color="rgb(0,0,255)" />
    <sodipodi:guide
       position="47.42035,209.96653"
       orientation="-0.99838975,-0.056726676"
       id="guide9302"
       inkscape:locked="false"
       inkscape:label=""
       inkscape:color="rgb(0,0,255)" />
    <sodipodi:guide
       position="-197.9899,526.08744"
       orientation="0,1"
       id="guide9378"
       inkscape:locked="false" />
    <sodipodi:guide
       position="178.19091,-60.811185"
       orientation="0.15776444,-0.98747678"
       id="guide879"
       inkscape:locked="false" />
    <sodipodi:guide
       position="146.19433,199.40412"
       orientation="1,0"
       id="guide2135"
       inkscape:locked="false" />
  </sodipodi:namedview>
  <metadata
     id="metadata5">
    <rdf:RDF>
      <cc:Work
         rdf:about="">
        <dc:format>image/svg+xml</dc:format>
        <dc:type
           rdf:resource="http://purl.org/dc/dcmitype/StillImage" />
        <dc:title />
      </cc:Work>
    </rdf:RDF>
  </metadata>
  <g
     inkscape:groupmode="layer"
     id="Device"
     inkscape:label="Device"
     transform="translate(-16.168953,-401.11334)"
     style="display:inline">
    <path
       style="fill:#d3d3ce;fill-opacity:0.96808543;fill-rule:evenodd;stroke:#babdb6;stroke-width:3.00094485;stroke-linecap:butt;stroke-linejoin:miter;stroke-miterlimit:4;stroke-dasharray:none;stroke-opacity:1"
       d="m 362.52481,476.07566 c 3.02297,2.70603 5.6584,10.20454 12.125,16.78661 7.67562,7.81268 15.79723,11.4209 17.25,14.5 1.45277,3.0791 4.3436,13.30151 6.08201,23.63224 2.08088,12.36588 3.91014,33.37614 3.16799,50.36776 -0.74215,16.99162 -4.92696,41.17485 -7.82549,53.25984 -2.89854,12.085 -8.94197,37.46413 -15.18815,56.6472 -11.39282,34.98926 -15.98921,41.84599 -18.48636,44.65546 -8.98794,10.11206 -28.22253,19.14144 -44.75,24.3125 -16.52747,5.17106 -42.91421,10.08579 -52.16421,3.83579 -9.25,-6.25 -21.76463,-18.87042 -35.87348,-43.80026 -8.81835,-15.58171 -16.07719,-30.35613 -17.6302,-37.02772 -0.18177,-0.78086 -1.49089,-8.31458 -2.2757,-17.52792 -0.78481,-9.21335 -0.38228,-34.00819 -0.92621,-52.2258 -0.54593,-18.2846 -2.80242,-56.6523 1.63404,-65.1745 0,0 -2.2169,-7.85094 -1.86335,-12.62391 0.13258,-2.20971 0.95227,-8.55534 4.93612,-26.56824 2.86224,-12.94153 8.06806,-29.82835 9.91299,-32.63747 4.02438,-6.12757 24.91051,-8.21668 38.875,-12.75 8.4338,-2.73788 27.97597,-8.87889 31.21729,-9.7474 2.86151,-0.76674 7.46115,-0.82707 10.06673,0.0719 3.17217,1.09445 20.20745,7.47311 29.51777,10.80936 9.16905,3.28563 27.78726,8.46404 27.78726,8.46404 l 0.086,7.00877 4.33969,0.3933 z"
       id="path4776"
       inkscape:connector-curvature="0"
       sodipodi:nodetypes="cszszzsszssscsccsssssscccc" />
    <path
       style="fill:#eeeeec;fill-opacity:1;fill-rule:evenodd;stroke:#babdb6;stroke-width:2;stroke-linecap:butt;stroke-linejoin:miter;stroke-miterlimit:4;stroke-dasharray:none;stroke-opacity:0.95744683"
       d="m 353.42971,657.82916 -3.41697,-0.38193 c 0,0 8.48946,-61.89132 10.13089,-93.04711 1.59315,-30.23938 -0.61042,-64.68009 -0.28888,-90.84348 0,0 -18.83877,-5.39992 -28.00782,-8.68555 -9.31074,-3.33623 -29.51974,-10.84765 -29.51974,-10.84765 h -2.65429 v 36.29687 c 6.01123,1.61071 10.35351,5.08295 10.35351,12.60352 l -0.0879,25.875 c 0,7.72285 -5.57149,10.39065 -10.26562,11.64844 v 8.63597 c 11.09371,0 11.13526,2.31927 11.13526,8.32968 v 30.90854 c 0,6.37637 -4.59396,8.07114 -11.13526,8.07114 v 16.62107 H 295.3389 V 596.3926 c -6.54611,0 -11.59712,-1.08449 -11.59712,-8.07114 v -30.90854 c 0,-6.19186 0.61782,-8.32968 11.59712,-8.32968 v -8.63597 c -4.98633,-1.61457 -9.62702,-3.28799 -9.97265,-11.64844 l -0.17579,-25.875 c 0.14132,-7.63929 4.65137,-11.13058 10.14844,-12.60352 v -36.29687 h -3.07811 c 0,0 -22.783,6.97501 -31.2168,9.71289 -13.96449,4.53332 -34.85062,6.62243 -38.875,12.75 -1.84493,2.80912 -7.04987,19.69714 -9.91211,32.63867 -3.98385,18.0129 -4.80492,24.35865 -4.9375,26.56836 -1.70941,12.19785 4.61002,20.46944 6.11854,30.13476 0.77914,5.15941 1.58279,17.99189 1.93164,29.67579 0.24832,8.31696 0.0663,42.58411 -0.61328,55.60351 -0.77777,16.45063 -5.54792,27.85559 0.30724,42.32422 0.91969,2.10178 4.50001,11.26009 13.31836,26.8418 14.10885,24.92984 26.62305,37.54883 35.87305,43.79883 9.25,6.25 35.63659,1.33512 52.16406,-3.83594 16.52747,-5.17106 35.76206,-14.20044 44.75,-24.3125 2.49715,-2.80947 7.09351,-9.66504 18.48633,-44.6543 6.24618,-19.18307 12.28896,-44.56148 15.1875,-56.64648 2.89853,-12.08499 7.08402,-36.2701 7.82617,-53.26172 0.74215,-16.99162 -1.08709,-38.00131 -3.16797,-50.36719 -1.73841,-10.33073 -4.62926,-20.55371 -6.08203,-23.63281 -1.45277,-3.0791 -9.57438,-6.68732 -17.25,-14.5 -6.4666,-6.58207 -7.72703,-11.95413 -12.5,-16.28516 0.15263,30.33982 1.29199,58.44309 -0.255,87.8223 -2.07414,31.07314 -5.94662,62.55655 -9.98428,93.43069 z"
       id="path4823"
       inkscape:connector-curvature="0"
       sodipodi:nodetypes="ccaccccccccccccccccccccccccscsccsccssssssssssccc" />
    <path
       style="opacity:1;fill:#eeeeec;fill-opacity:1;fill-rule:nonzero;stroke:none;stroke-width:5;stroke-linecap:square;stroke-linejoin:miter;stroke-miterlimit:4;stroke-dasharray:none;stroke-dashoffset:9.99999905;stroke-opacity:1;paint-order:normal"
       d="m 284.50391,53.910156 v 34.615235 c 2.79993,0.846 5.32775,2.078797 7.16797,4.091797 2.01094,2.199779 3.18554,5.240609 3.18554,9.193362 v 0.002 l -0.0879,25.87305 v 0.004 c -10e-4,4.09973 -1.54019,7.03111 -3.70312,8.98633 -1.94955,1.76233 -4.33456,2.70749 -6.5625,3.36328 v 7 c 4.84117,0.0729 7.77689,0.55548 9.41601,2.11719 0.88621,0.84435 1.32712,1.95378 1.52539,3.14258 0.19836,1.1888 0.19336,2.49624 0.19336,4 v 30.91015 c 0,0.99455 -0.12386,1.89776 -0.33984,2.72657 h 45.49414 c 0.98282,-9.82875 1.78529,-19.17808 2.18164,-26.70117 1.57411,-29.87793 -0.5598,-63.902311 -0.28516,-90.041021 -1.20742,-0.3466 -18.41399,-5.29215 -27.34961,-8.49414 -9.27321,-3.32278 -29.13115,-10.703463 -29.36132,-10.789063 z"
       id="button1"
       transform="translate(16.168953,401.11334)"
       inkscape:connector-curvature="0" />
    <path
       style="opacity:1;fill:#eeeeec;fill-opacity:1;fill-rule:nonzero;stroke:none;stroke-width:5;stroke-linecap:square;stroke-linejoin:miter;stroke-miterlimit:4;stroke-dasharray:none;stroke-dashoffset:9.99999905;stroke-opacity:1;paint-order:normal"
       d="m 348.53125,78.140625 c 0.20274,29.273155 1.21406,56.651105 -0.28906,85.197265 v 0.008 0.006 c -1.13665,17.02839 -2.82145,34.17251 -4.76758,51.26953 l 31.43945,30.1875 c 1.09941,-4.48701 2.04761,-8.44799 2.78711,-11.53125 2.87888,-12.00305 7.06203,-36.20306 7.79883,-53.07226 0.73746,-16.88415 -1.08826,-37.88054 -3.1543,-50.1582 -0.8631,-5.12915 -2.015,-10.24244 -3.1289,-14.44532 -1.1139,-4.20287 -2.21968,-7.54294 -2.87305,-8.92773 -0.48385,-1.0255 -2.79121,-2.81946 -5.9668,-5.08594 -3.1756,-2.266479 -7.18435,-5.161451 -11.09179,-9.138671 -5.64956,-5.75043 -7.52696,-10.472574 -10.75391,-14.308594 z"
       transform="translate(16.168953,401.11334)"
       id="button5"
       inkscape:connector-curvature="0" />
    <path
       style="color:#000000;display:inline;overflow:visible;opacity:1;vector-effect:none;fill:#888a85;fill-opacity:1;stroke:none;stroke-width:1;stroke-linecap:butt;stroke-linejoin:bevel;stroke-miterlimit:4;stroke-dasharray:none;stroke-dashoffset:0;stroke-opacity:1;marker:none;marker-start:none;marker-mid:none;marker-end:none;paint-order:normal"
       d="m 313.83245,512.35183 v 7.97553 l 3.83318,-3.83321 z"
       id="button4"
       inkscape:connector-curvature="0"
       inkscape:label="#path1146" />
    <path
       style="opacity:1;fill:#eeeeec;fill-opacity:1;fill-rule:nonzero;stroke:none;stroke-width:5;stroke-linecap:square;stroke-linejoin:miter;stroke-miterlimit:4;stroke-dasharray:none;stroke-dashoffset:9.99999905;stroke-opacity:1;paint-order:normal"
       d="m 276.24414,53.910156 c -0.2041,0.06249 -22.69138,6.947797 -31.05859,9.664063 -7.0786,2.29794 -15.80567,3.952265 -23.23438,5.796875 -3.71436,0.9223 -7.10255,1.892118 -9.76172,2.986328 -2.65917,1.09421 -4.55098,2.342513 -5.35351,3.564453 -0.32729,0.49833 -1.03707,2.101803 -1.82032,4.257813 -0.78323,2.156009 -1.69172,4.922659 -2.63281,8.005859 -1.88217,6.16639 -3.89503,13.607443 -5.31836,20.042973 -3.97941,17.99283 -4.78941,24.33452 -4.91406,26.4121 l -0.004,0.0391 -0.006,0.0391 c -1.65377,11.80086 4.55451,19.84194 6.11524,29.8418 v 0.002 0.004 c 0.70045,4.6383 1.37647,15.00633 1.77344,25.36914 h 66.86132 c -0.20242,-0.82316 -0.31835,-1.72663 -0.31835,-2.72657 v -30.91015 c 0,-1.5646 0.0298,-2.91299 0.28906,-4.12305 0.25923,-1.21006 0.79041,-2.30911 1.74023,-3.12305 1.75691,-1.50557 4.76419,-1.95047 9.56836,-2.01757 v -7.00391 c -2.27566,-0.74891 -4.55999,-1.57421 -6.40039,-3.25195 -2.02877,-1.84947 -3.39193,-4.69071 -3.57226,-9.05274 v -0.0176 l -0.17774,-25.90429 0.002,-0.0117 c 0.0742,-4.013521 1.3266,-7.074022 3.32618,-9.269532 1.81952,-1.997811 4.24144,-3.201541 6.82226,-3.994141 V 53.910156 h -1.92383 z"
       id="button0"
       inkscape:connector-curvature="0"
       transform="translate(16.168953,401.11334)" />
    <path
       inkscape:label="#path1146"
       inkscape:connector-curvature="0"
       id="button3"
       d="m 281.07469,512.35183 v 7.97553 l -3.83318,-3.83321 z"
       style="color:#000000;display:inline;overflow:visible;opacity:1;vector-effect:none;fill:#888a85;fill-opacity:1;stroke:none;stroke-width:1;stroke-linecap:butt;stroke-linejoin:bevel;stroke-miterlimit:4;stroke-dasharray:none;stroke-dashoffset:0;stroke-opacity:1;marker:none;marker-start:none;marker-mid:none;marker-end:none;paint-order:normal" />
    <rect
       inkscape:label="#rect932"
       ry="9.3904476"
       rx="9.3904476"
       y="493.13071"
       x="288.21024"
       height="44.649994"
       width="18.780895"
       id="button2"
       style="color:#000000;overflow:visible;opacity:1;vector-effect:none;fill:#ffffff;fill-opacity:1;stroke:#babdb6;stroke-width:0.95555294;stroke-linecap:butt;stroke-linejoin:bevel;stroke-miterlimit:4;stroke-dasharray:none;stroke-dashoffset:0;stroke-opacity:1;marker:none;marker-start:none;marker-mid:none;marker-end:none;paint-order:normal" />
    <path
       style="fill:#ffffff;fill-opacity:1;fill-rule:evenodd;stroke:#babdb6;stroke-width:1.00157475;stroke-linecap:butt;stroke-linejoin:miter;stroke-miterlimit:4;stroke-dasharray:none;stroke-opacity:1"
       d="m 308.17107,570.04977 v -14.86768 c 0,-3.32226 -2.53923,-3.17407 -10.93958,-3.17407 -8.40035,0 -10.75737,-0.17634 -10.75737,3.17407 v 14.99268 c 0,0.8228 0.29258,1.29021 0.94502,1.28789 l 19.59359,-0.0698 c 0.59119,-0.002 1.15834,-0.75189 1.15834,-1.34309 z"
       id="button6"
       inkscape:connector-curvature="0"
       sodipodi:nodetypes="sszsssss" />
    <path
       style="fill:#ffffff;fill-opacity:1;fill-rule:evenodd;stroke:#babdb6;stroke-width:1.00157475;stroke-linecap:butt;stroke-linejoin:miter;stroke-miterlimit:4;stroke-dasharray:none;stroke-opacity:1"
       d="m 271.25,172.13867 c -0.65244,0 -0.94531,0.46626 -0.94531,1.28906 v 13.6836 c 0.125,3.125 1.04518,4.18009 3.82812,4.92578 1.12947,0.30264 3.08418,0.75 6.92969,0.75 3.81789,0 6.10173,-0.5475 7.0957,-0.8125 2.12312,-0.56604 3.84375,-1.86328 3.84375,-4.48828 v -13.9336 c 0,-1.00605 -0.19935,-1.34375 -1.1582,-1.34375 z"
       id="button7"
       transform="translate(16.168953,401.11334)"
       inkscape:connector-curvature="0" />
    <g
       id="button7_display">
      <path
         style="fill:#ffffff;fill-opacity:1;fill-rule:evenodd;stroke:#babdb6;stroke-width:1.00157475;stroke-linecap:butt;stroke-linejoin:miter;stroke-miterlimit:4;stroke-dasharray:none;stroke-opacity:1"
         d="m 308.17107,574.66517 v 13.93462 c 0,2.625 -1.72177,3.92183 -3.84489,4.48787 -0.99397,0.265 -3.2768,0.8125 -7.09469,0.8125 -3.84551,0 -5.80056,-0.44736 -6.93003,-0.75 -2.78294,-0.74569 -3.70234,-1.80037 -3.82734,-4.92537 v -13.68462 c 0,-0.8228 0.29258,-1.28789 0.94502,-1.28789 l 19.59359,0.0698 c 0.95885,0 1.15834,0.33708 1.15834,1.34313 z"
         id="path881"
         inkscape:connector-curvature="0"
         sodipodi:nodetypes="ccsssccccc" />
      <path
         sodipodi:nodetypes="ccssscccccc"
         inkscape:connector-curvature="0"
         id="path887"
         d="m 305.94925,578.41236 v 11.44465 c 0,1.89399 -1.36914,2.82964 -3.05745,3.23806 -0.79039,0.19121 -2.6057,0.58622 -5.64165,0.58622 -3.05794,0 -4.61258,-0.32275 -5.51073,-0.54111 -2.21298,-0.53804 -2.94407,-1.299 -3.04348,-3.55374 v -11.26427 c 0,-0.59365 0.23266,-0.92923 0.75146,-0.92923 l 15.58075,0.0504 c 0.76248,0 0.9211,0.24322 0.9211,0.96912 z"
         style="fill:#ffffff;fill-opacity:0.96808543;fill-rule:evenodd;stroke:#babdb6;stroke-width:1.07756317;stroke-linecap:butt;stroke-linejoin:miter;stroke-miterlimit:4;stroke-dasharray:none;stroke-opacity:1" />
    </g>
    <path
       style="fill:#ffffff;fill-opacity:0.95744683;fill-rule:evenodd;stroke:#babdb6;stroke-width:1px;stroke-linecap:butt;stroke-linejoin:miter;stroke-opacity:1"
       d="m 200.24923,568.36356 4.38194,16.06189 c 0.13731,0.50331 0.96886,1.08051 1.80175,1.07101 l 4.97687,-0.0568 c 0,-4.59959 -0.79551,-19.47653 -1.85616,-21.33269 l -7.80182,0.91593 c -1.68398,0.69611 -1.84744,2.07658 -1.50258,3.34066 z"
       id="button8"
       inkscape:connector-curvature="0"
       sodipodi:nodetypes="ssscccs" />
    <path
       sodipodi:nodetypes="ssscccs"
       inkscape:connector-curvature="0"
       id="button9"
       d="m 200.24923,568.36356 4.38194,16.06189 c 0.13731,0.50331 0.96886,1.08051 1.80175,1.07101 l 4.97687,-0.0568 c 0,-4.59959 -0.79551,-19.47653 -1.85616,-21.33269 l -7.80182,0.91593 c -1.68398,0.69611 -1.84744,2.07658 -1.50258,3.34066 z"
       style="fill:#ffffff;fill-opacity:0.95744683;fill-rule:evenodd;stroke:#babdb6;stroke-width:1px;stroke-linecap:butt;stroke-linejoin:miter;stroke-opacity:1" />
    <path
       style="fill:#ffffff;fill-opacity:0.95744683;fill-rule:evenodd;stroke:#babdb6;stroke-width:1px;stroke-linecap:butt;stroke-linejoin:miter;stroke-opacity:1"
       d="m 200.24923,568.36356 4.38194,16.06189 c 0.13731,0.50331 0.96886,1.08051 1.80175,1.07101 l 4.97687,-0.0568 c 0,-4.59959 -0.79551,-19.47653 -1.85616,-21.33269 l -7.80182,0.91593 c -1.68398,0.69611 -1.84744,2.07658 -1.50258,3.34066 z"
       id="button10"
       inkscape:connector-curvature="0"
       sodipodi:nodetypes="ssscccs" />
    <path
       sodipodi:nodetypes="ssscccs"
       inkscape:connector-curvature="0"
       id="button11"
       d="m 201.70763,606.38285 2.92354,-16.06189 c 0.0934,-0.51328 0.96886,-1.08051 1.80175,-1.07101 l 4.97687,0.0568 v 21.86302 l -8.19958,-1.44626 c -1.68398,-0.69611 -1.73721,-2.05156 -1.50258,-3.34066 z"
       style="fill:#ffffff;fill-opacity:0.95744683;fill-rule:evenodd;stroke:#babdb6;stroke-width:1px;stroke-linecap:butt;stroke-linejoin:miter;stroke-opacity:1" />
    <path
       style="fill:#ffffff;fill-opacity:0.95744683;fill-rule:evenodd;stroke:#babdb6;stroke-width:1px;stroke-linecap:butt;stroke-linejoin:miter;stroke-opacity:1"
       d="m 201.70763,606.38285 2.92354,-16.06189 c 0.0934,-0.51328 0.96886,-1.08051 1.80175,-1.07101 l 4.97687,0.0568 v 21.86302 l -8.19958,-1.44626 c -1.68398,-0.69611 -1.73721,-2.05156 -1.50258,-3.34066 z"
       id="button12"
       inkscape:connector-curvature="0"
       sodipodi:nodetypes="ssscccs" />
    <path
       sodipodi:nodetypes="ssscccs"
       inkscape:connector-curvature="0"
       id="button13"
       d="m 201.70763,606.38285 2.92354,-16.06189 c 0.0934,-0.51328 0.96886,-1.08051 1.80175,-1.07101 l 4.97687,0.0568 v 21.86302 l -8.19958,-1.44626 c -1.68398,-0.69611 -1.73721,-2.05156 -1.50258,-3.34066 z"
       style="fill:#ffffff;fill-opacity:0.95744683;fill-rule:evenodd;stroke:#babdb6;stroke-width:1px;stroke-linecap:butt;stroke-linejoin:miter;stroke-opacity:1" />
    <path
       style="fill:#ffffff;fill-opacity:0.95744683;fill-rule:evenodd;stroke:#babdb6;stroke-width:1px;stroke-linecap:butt;stroke-linejoin:miter;stroke-opacity:1"
       d="m 201.66344,619.90775 2.96773,16.06189 c 0.0948,0.51302 0.96886,1.08051 1.80175,1.07101 l 4.97687,-0.0568 v -21.86302 l -8.24377,1.44626 c -1.68398,0.69611 -1.74064,2.05219 -1.50258,3.34066 z"
       id="button14"
       inkscape:connector-curvature="0"
       sodipodi:nodetypes="ssscccs" />
    <path
       sodipodi:nodetypes="ssscccs"
       inkscape:connector-curvature="0"
       id="button15"
       d="m 201.66344,619.90775 2.96773,16.06189 c 0.0948,0.51302 0.96886,1.08051 1.80175,1.07101 l 4.97687,-0.0568 v -21.86302 l -8.24377,1.44626 c -1.68398,0.69611 -1.74064,2.05219 -1.50258,3.34066 z"
       style="fill:#ffffff;fill-opacity:0.95744683;fill-rule:evenodd;stroke:#babdb6;stroke-width:1px;stroke-linecap:butt;stroke-linejoin:miter;stroke-opacity:1" />
    <path
       style="fill:#ffffff;fill-opacity:0.95744683;fill-rule:evenodd;stroke:#babdb6;stroke-width:1px;stroke-linecap:butt;stroke-linejoin:miter;stroke-opacity:1"
       d="m 201.66344,619.90775 2.96773,16.06189 c 0.0948,0.51302 0.96886,1.08051 1.80175,1.07101 l 4.97687,-0.0568 v -21.86302 l -8.24377,1.44626 c -1.68398,0.69611 -1.74064,2.05219 -1.50258,3.34066 z"
       id="button16"
       inkscape:connector-curvature="0"
       sodipodi:nodetypes="ssscccs" />
    <path
       sodipodi:nodetypes="csscccsc"
       inkscape:connector-curvature="0"
       id="button17"
       d="m 200.24923,657.92703 4.38194,-16.06189 c 0.13731,-0.50331 0.96886,-1.08051 1.80175,-1.07101 l 4.97687,0.0568 c 0,12.5754 -1.75,21.07013 -1.75,21.07013 l -7.90798,-0.65341 c -1.68398,-0.69611 -1.84744,-2.07658 -1.50258,-3.34066 z"
       style="fill:#ffffff;fill-opacity:0.95744683;fill-rule:evenodd;stroke:#babdb6;stroke-width:1px;stroke-linecap:butt;stroke-linejoin:miter;stroke-opacity:1" />
    <path
       style="fill:#ffffff;fill-opacity:0.95744683;fill-rule:evenodd;stroke:#babdb6;stroke-width:1px;stroke-linecap:butt;stroke-linejoin:miter;stroke-opacity:1"
       d="m 200.24923,657.92703 4.38194,-16.06189 c 0.13731,-0.50331 0.96886,-1.08051 1.80175,-1.07101 l 4.97687,0.0568 c 0,12.5754 -1.75,21.07013 -1.75,21.07013 l -7.90798,-0.65341 c -1.68398,-0.69611 -1.84744,-2.07658 -1.50258,-3.34066 z"
       id="button18"
       inkscape:connector-curvature="0"
       sodipodi:nodetypes="csscccsc" />
    <path
       sodipodi:nodetypes="csscccsc"
       inkscape:connector-curvature="0"
       id="button19"
       d="m 200.24923,657.92703 4.38194,-16.06189 c 0.13731,-0.50331 0.96886,-1.08051 1.80175,-1.07101 l 4.97687,0.0568 c 0,12.5754 -1.75,21.07013 -1.75,21.07013 l -7.90798,-0.65341 c -1.68398,-0.69611 -1.84744,-2.07658 -1.50258,-3.34066 z"
       style="fill:#ffffff;fill-opacity:0.95744683;fill-rule:evenodd;stroke:#babdb6;stroke-width:1px;stroke-linecap:butt;stroke-linejoin:miter;stroke-opacity:1" />
    <path
       style="opacity:1;fill:#d4d4ce;fill-opacity:0.96862745;fill-rule:nonzero;stroke:none;stroke-width:5;stroke-linecap:square;stroke-linejoin:miter;stroke-miterlimit:4;stroke-dasharray:none;stroke-dashoffset:9.99999905;stroke-opacity:1;paint-order:normal"
       d="m 208.08154,551.65631 c -0.70356,3.06428 -1.12225,7.33901 -1.34961,12.2793 l 3.0918,-0.36329 0.16601,0.28711 c 0.19728,0.34523 0.31204,0.79281 0.43946,1.40625 0.12742,0.61345 0.24649,1.37448 0.35937,2.2461 0.22576,1.74324 0.42565,3.9284 0.5918,6.19726 0.3323,4.53773 0.53125,9.40185 0.53125,11.73047 v 0.49414 l -5.26367,0.0606 c 0.0192,0.92289 0.0359,1.84069 0.0586,2.75976 l 5.20508,0.0586 v 22.95312 l -4.45313,-0.78515 c 0.0309,0.84126 0.0711,1.81954 0.0918,2.51172 0.0172,0.57477 0.028,1.18919 0.041,1.79101 l 4.32031,-0.75781 -0.002,22.95312 -4.02539,0.0469 c 0.007,0.93301 0.0131,1.86714 0.0195,2.78711 l 4.00781,0.0449 v 0.49414 c 0,12.62179 -1.75977,21.16992 -1.75977,21.16992 l -0.0898,0.4336 -1.78516,-0.14649 c 0.0573,1.2597 0.11851,2.46069 0.19922,3.40821 0.78481,9.21334 2.09362,16.74648 2.27539,17.52734 0.30473,1.30907 0.84091,2.94857 1.55469,4.82812 -1.2438,-5.2078 -1.2961,-10.14345 -0.88086,-15.14257 0.56446,-6.79558 1.94719,-13.72927 2.33203,-21.86914 v -0.002 -0.004 c 0.67533,-12.93747 0.85677,-47.301 0.61133,-55.52149 -0.34805,-11.65718 -1.16233,-24.53052 -1.91992,-29.55078 -0.74468,-4.77126 -2.7833,-9.32985 -4.36719,-14.32617 z"
       id="led0"
       inkscape:connector-curvature="0" />
  </g>
  <g
     inkscape:groupmode="layer"
     id="Buttons"
     inkscape:label="Buttons"
     style="display:inline"
     transform="translate(-16.168953,-1.1133461)"
     sodipodi:insensitive="true">
    <g
       id="button0-path">
      <path
         id="path2139"
         d="m 261.55409,81.980771 v 0 L 301.18092,42.354007 484,42.353863"
         style="fill:none;stroke:#888a85;stroke-width:1;stroke-linecap:round;stroke-miterlimit:4;stroke-dasharray:none;stroke-opacity:1"
         inkscape:connector-curvature="0" />
      <rect
         style="display:inline;opacity:1;fill:#2e3436;fill-opacity:1;fill-rule:nonzero;stroke:none;stroke-width:1;stroke-linecap:square;stroke-linejoin:miter;stroke-miterlimit:4;stroke-dasharray:none;stroke-dashoffset:9.99999905;stroke-opacity:1;paint-order:normal"
         id="rect1803"
         width="7.2257466"
         height="7.2257476"
         x="259.36246"
         y="76.891243" />
      <rect
         style="opacity:1;text-align:start;fill:none;fill-opacity:1;fill-rule:nonzero;stroke:none;stroke-width:5;stroke-linecap:square;stroke-linejoin:miter;stroke-miterlimit:4;stroke-dasharray:none;stroke-dashoffset:9.99999905;stroke-opacity:1;paint-order:normal"
         id="button0-leader"
         width="1"
         height="1"
         x="483"
         y="41.353863" />
    </g>
    <g
       id="button1-path">
      <path
         id="path2137"
         d="m 330.6512,80.309888 v 0 h 89.41281 L 432.18516,68.188743 H 484"
         style="fill:none;stroke:#888a85;stroke-width:1;stroke-linecap:round;stroke-miterlimit:4;stroke-dasharray:none;stroke-opacity:1"
         inkscape:connector-curvature="0" />
      <rect
         y="76.891243"
         x="328.4111"
         height="7.2257476"
         width="7.2257466"
         id="rect1801"
         style="display:inline;opacity:1;fill:#2e3436;fill-opacity:1;fill-rule:nonzero;stroke:none;stroke-width:1;stroke-linecap:square;stroke-linejoin:miter;stroke-miterlimit:4;stroke-dasharray:none;stroke-dashoffset:9.99999905;stroke-opacity:1;paint-order:normal" />
      <rect
         style="opacity:1;text-align:start;fill:none;fill-opacity:1;fill-rule:nonzero;stroke:none;stroke-width:5;stroke-linecap:square;stroke-linejoin:miter;stroke-miterlimit:4;stroke-dasharray:none;stroke-dashoffset:9.99999905;stroke-opacity:1;paint-order:normal"
         id="button1-leader"
         width="1"
         height="1"
         x="483"
         y="67.678299" />
    </g>
    <g
       id="button2-path">
      <path
         id="path2135"
         d="m 298.12179,116.26813 v 0 l 6.702,-6.70208 H 416.64243 L 432.18516,94.023408 H 484"
         style="fill:none;stroke:#888a85;stroke-width:1;stroke-linecap:round;stroke-miterlimit:4;stroke-dasharray:none;stroke-opacity:1"
         inkscape:connector-curvature="0" />
      <rect
         style="display:inline;opacity:1;fill:#2e3436;fill-opacity:1;fill-rule:nonzero;stroke:none;stroke-width:1;stroke-linecap:square;stroke-linejoin:miter;stroke-miterlimit:4;stroke-dasharray:none;stroke-dashoffset:9.99999905;stroke-opacity:1;paint-order:normal"
         id="rect1720"
         width="7.2257466"
         height="7.2257476"
         x="294.104"
         y="113.16031" />
      <rect
         style="opacity:1;text-align:start;fill:none;fill-opacity:1;fill-rule:nonzero;stroke:none;stroke-width:5;stroke-linecap:square;stroke-linejoin:miter;stroke-miterlimit:4;stroke-dasharray:none;stroke-dashoffset:9.99999905;stroke-opacity:1;paint-order:normal"
         id="button2-leader"
         width="1"
         height="1"
         x="483"
         y="93.512268" />
    </g>
    <g
       id="button3-path">
      <path
         id="path2133"
         d="m 269.39383,118.29445 v 0 8.89937 l 18.29178,18.29179 h 66.77587 l 77.72368,77.71738 H 484"
         style="fill:none;stroke:#888a85;stroke-width:1;stroke-linecap:round;stroke-miterlimit:4;stroke-dasharray:none;stroke-opacity:1"
         inkscape:connector-curvature="0" />
      <rect
         y="114.57023"
         x="265.98987"
         height="7.2257476"
         width="7.2257466"
         id="rect1797"
         style="display:inline;opacity:1;fill:#2e3436;fill-opacity:1;fill-rule:nonzero;stroke:none;stroke-width:1;stroke-linecap:square;stroke-linejoin:miter;stroke-miterlimit:4;stroke-dasharray:none;stroke-dashoffset:9.99999905;stroke-opacity:1;paint-order:normal" />
      <rect
         style="opacity:1;text-align:start;fill:none;fill-opacity:1;fill-rule:nonzero;stroke:none;stroke-width:5;stroke-linecap:square;stroke-linejoin:miter;stroke-miterlimit:4;stroke-dasharray:none;stroke-dashoffset:9.99999905;stroke-opacity:1;paint-order:normal"
         id="button3-leader"
         width="1"
         height="1"
         x="483"
         y="222.68628" />
    </g>
    <g
       id="button4-path"
       transform="translate(-0.15537014,0.24168689)">
      <path
         id="path2131"
         d="m 484,197.36207 v 0 h -51.81484 l -80.58541,-80.58544 h -25.18202"
         style="fill:none;stroke:#888a85;stroke-width:1;stroke-linecap:round;stroke-miterlimit:4;stroke-dasharray:none;stroke-opacity:1"
         inkscape:connector-curvature="0" />
      <rect
         style="display:inline;opacity:1;fill:#2e3436;fill-opacity:1;fill-rule:nonzero;stroke:none;stroke-width:1;stroke-linecap:square;stroke-linejoin:miter;stroke-miterlimit:4;stroke-dasharray:none;stroke-dashoffset:9.99999905;stroke-opacity:1;paint-order:normal"
         id="rect1799"
         width="7.2257466"
         height="7.2257476"
         x="322.53781"
         y="113.07195" />
      <rect
         y="196.82376"
         x="483"
         height="1"
         width="1"
         id="button4-leader"
         style="opacity:1;text-align:start;fill:none;fill-opacity:1;fill-rule:nonzero;stroke:none;stroke-width:5;stroke-linecap:square;stroke-linejoin:miter;stroke-miterlimit:4;stroke-dasharray:none;stroke-dashoffset:9.99999905;stroke-opacity:1;paint-order:normal" />
    </g>
    <g
       id="button5-path">
      <path
         id="curva_3D.Curve.052-2"
         d="m 377.06193,203.5959 v 0 L 432.18516,258.71915 484,258.71886"
         style="fill:none;stroke:#888a85;stroke-width:1;stroke-linecap:round;stroke-miterlimit:4;stroke-dasharray:none;stroke-opacity:1"
         inkscape:connector-curvature="0" />
      <rect
         y="199.98303"
         x="373.54919"
         height="7.2257476"
         width="7.2257466"
         id="rect1805"
         style="display:inline;opacity:1;fill:#2e3436;fill-opacity:1;fill-rule:nonzero;stroke:none;stroke-width:1;stroke-linecap:square;stroke-linejoin:miter;stroke-miterlimit:4;stroke-dasharray:none;stroke-dashoffset:9.99999905;stroke-opacity:1;paint-order:normal" />
      <rect
         style="opacity:1;text-align:start;fill:none;fill-opacity:1;fill-rule:nonzero;stroke:none;stroke-width:5;stroke-linecap:square;stroke-linejoin:miter;stroke-miterlimit:4;stroke-dasharray:none;stroke-dashoffset:9.99999905;stroke-opacity:1;paint-order:normal"
         id="button5-leader"
         width="1"
         height="1"
         x="483"
         y="258.21481" />
    </g>
    <g
       id="button6-path">
      <path
         id="path2125"
         d="m 299.19689,161.25335 v 0 L 432.18516,294.2415 H 484"
         style="fill:none;stroke:#888a85;stroke-width:1;stroke-linecap:round;stroke-miterlimit:4;stroke-dasharray:none;stroke-opacity:1"
         inkscape:connector-curvature="0" />
      <rect
         y="155.95151"
         x="293.88211"
         height="7.2257476"
         width="7.2257466"
         id="rect1789"
         style="display:inline;opacity:1;fill:#2e3436;fill-opacity:1;fill-rule:nonzero;stroke:none;stroke-width:1;stroke-linecap:square;stroke-linejoin:miter;stroke-miterlimit:4;stroke-dasharray:none;stroke-dashoffset:9.99999905;stroke-opacity:1;paint-order:normal" />
      <rect
         style="opacity:1;fill:none;fill-opacity:1;fill-rule:nonzero;stroke:none;stroke-width:5;stroke-linecap:square;stroke-linejoin:miter;stroke-miterlimit:4;stroke-dasharray:none;stroke-dashoffset:9.99999905;stroke-opacity:1;paint-order:normal;text-align:start"
         id="button6-leader"
         width="1"
         height="1"
         x="483"
         y="293.73129" />
    </g>
    <g
       id="button7-path">
      <path
         id="path2127"
         d="m 299.19689,187.08802 v 0 l 132.98827,132.98815 51.81484,7e-5"
         style="fill:none;stroke:#888a85;stroke-width:1;stroke-linecap:round;stroke-miterlimit:4;stroke-dasharray:none;stroke-opacity:1"
         inkscape:connector-curvature="0" />
      <rect
         style="display:inline;opacity:1;fill:#2e3436;fill-opacity:1;fill-rule:nonzero;stroke:none;stroke-width:1;stroke-linecap:square;stroke-linejoin:miter;stroke-miterlimit:4;stroke-dasharray:none;stroke-dashoffset:9.99999905;stroke-opacity:1;paint-order:normal"
         id="rect1791"
         width="7.2257466"
         height="7.2257476"
         x="293.88211"
         y="181.92424" />
      <rect
         style="opacity:1;fill:none;fill-opacity:1;fill-rule:nonzero;stroke:none;stroke-width:5;stroke-linecap:square;stroke-linejoin:miter;stroke-miterlimit:4;stroke-dasharray:none;stroke-dashoffset:9.99999905;stroke-opacity:1;paint-order:normal;text-align:start"
         id="button7-leader"
         width="1"
         height="1"
         x="483"
         y="319.56528" />
    </g>
    <g
       id="g1002">
      <path
         inkscape:connector-curvature="0"
         id="path2129"
         d="m 298.04486,138.51026 v 0 H 412.0853 l 20.09986,20.09985 H 484"
         style="fill:none;stroke:#888a85;stroke-width:1;stroke-linecap:round;stroke-miterlimit:4;stroke-dasharray:none;stroke-opacity:1" />
      <rect
         style="display:inline;opacity:1;fill:#2e3436;fill-opacity:1;fill-rule:nonzero;stroke:none;stroke-width:1;stroke-linecap:square;stroke-linejoin:miter;stroke-miterlimit:4;stroke-dasharray:none;stroke-dashoffset:9.99999905;stroke-opacity:1;paint-order:normal"
         id="rect1793"
         width="7.2257466"
         height="7.2257476"
         x="293.88211"
         y="134.95476" />
    </g>
    <g
       id="g2245">
      <path
         id="path2141"
         d="m 297.52521,94.288193 v 0 h 96.17272 l 38.48723,38.487247 H 484"
         style="fill:none;stroke:#888a85;stroke-width:1;stroke-linecap:round;stroke-miterlimit:4;stroke-dasharray:none;stroke-opacity:1"
         inkscape:connector-curvature="0" />
      <rect
         y="91.230339"
         x="293.88211"
         height="7.2257476"
         width="7.2257466"
         id="rect1795"
         style="display:inline;opacity:1;fill:#2e3436;fill-opacity:1;fill-rule:nonzero;stroke:none;stroke-width:1;stroke-linecap:square;stroke-linejoin:miter;stroke-miterlimit:4;stroke-dasharray:none;stroke-dashoffset:9.99999905;stroke-opacity:1;paint-order:normal" />
    </g>
    <g
       id="button8-path">
      <g
         id="g2171">
        <path
           inkscape:connector-curvature="0"
           style="fill:none;stroke:#888a85;stroke-width:1;stroke-linecap:round;stroke-miterlimit:4;stroke-dasharray:none;stroke-opacity:1"
           d="m 203.49457,176.44774 v 0 L 69.400762,42.353863 H 16.575719"
           id="path2157" />
        <rect
           style="display:inline;opacity:1;fill:#2e3436;fill-opacity:1;fill-rule:nonzero;stroke:none;stroke-width:1;stroke-linecap:square;stroke-linejoin:miter;stroke-miterlimit:4;stroke-dasharray:none;stroke-dashoffset:9.99999905;stroke-opacity:1;paint-order:normal"
           id="rect2167"
           width="7.2257466"
           height="7.2257476"
           x="200.32895"
           y="173.30757" />
      </g>
      <g
         aria-label="G9"
         transform="translate(0,-399.99999)"
         style="font-style:normal;font-variant:normal;font-weight:bold;font-stretch:normal;font-size:10.03525925px;line-height:6.27203655px;font-family:'Iosevka Nerd Font';-inkscape-font-specification:'Iosevka Nerd Font, Bold';font-variant-ligatures:normal;font-variant-caps:normal;font-variant-numeric:normal;font-feature-settings:normal;text-align:start;letter-spacing:0px;word-spacing:0px;writing-mode:lr-tb;text-anchor:start;display:inline;fill:#888a85;fill-opacity:1;stroke:none;stroke-width:0.25088146px;stroke-linecap:butt;stroke-linejoin:miter;stroke-opacity:1"
         id="text2053">
        <path
           d="m 19.450925,438.00597 v -3.16111 q 0,-0.7125 0.291022,-1.2243 0.250882,-0.43152 0.692433,-0.6824 0.481693,-0.28098 1.16409,-0.28098 0.682398,0 1.164091,0.28098 0.431516,0.25088 0.692432,0.69244 0.180635,0.31109 0.240847,0.66232 l -1.16409,0.27095 q -0.03011,-0.21074 -0.130459,-0.38134 -0.120423,-0.21074 -0.321128,-0.32112 -0.200705,-0.12043 -0.481693,-0.12043 -0.270952,0 -0.471657,0.12043 -0.19067,0.11038 -0.311093,0.32112 -0.160564,0.27096 -0.160564,0.66233 v 3.16111 q 0,0.40141 0.160564,0.67236 0.120423,0.21074 0.311093,0.32113 0.19067,0.11039 0.451587,0.11039 0.230811,0 0.40141,-0.10036 0.180635,-0.10035 0.301058,-0.30105 0.160564,-0.28099 0.160564,-0.70247 v -0.91321 h -0.852997 v -1.08381 h 2.057228 v 1.99702 q 0,0.73257 -0.301057,1.24437 -0.250882,0.43152 -0.672363,0.6824 -0.451586,0.26091 -1.093843,0.26091 -0.672362,0 -1.14402,-0.28098 -0.441551,-0.25088 -0.692433,-0.6824 -0.291022,-0.5118 -0.291022,-1.2243 z"
           style="fill:#888a85;fill-opacity:1;stroke-width:0.25088146px"
           id="path2379"
           inkscape:connector-curvature="0" />
        <path
           d="m 24.468555,435.31652 v -0.37131 q 0,-0.77271 0.311093,-1.31461 0.260916,-0.45159 0.702468,-0.70247 0.471657,-0.27095 1.113914,-0.27095 0.622186,0 1.083808,0.26091 0.451586,0.26092 0.712503,0.73258 0.351234,0.60211 0.351234,1.47518 v 2.40846 q 0,0.98346 -0.38134,1.63575 -0.291022,0.49173 -0.742609,0.76268 -0.451587,0.26091 -1.063737,0.26091 -0.602116,0 -1.053703,-0.26091 -0.461622,-0.26092 -0.752644,-0.76268 -0.160564,-0.28099 -0.250882,-0.61215 l 1.093844,-0.46162 q 0.06021,0.30105 0.19067,0.53186 0.150528,0.26092 0.361269,0.38134 0.180635,0.10036 0.411446,0.10036 0.220775,0 0.391375,-0.10036 0.200705,-0.12042 0.351234,-0.36127 0.240846,-0.42148 0.240846,-1.11391 v -0.32113 q -0.130458,0.13046 -0.291023,0.23081 -0.280987,0.16057 -0.692432,0.16057 -0.602116,0 -1.073773,-0.28099 -0.441552,-0.25088 -0.702468,-0.70247 -0.311093,-0.5419 -0.311093,-1.30458 z m 1.204231,0 q 0,0.47166 0.180634,0.77271 0.120423,0.21074 0.311093,0.32113 0.180635,0.10035 0.421481,0.11039 0.250882,0 0.451587,-0.11039 0.200705,-0.12042 0.331163,-0.3412 0.1706,-0.30105 0.1706,-0.75264 v -0.19067 q 0,-0.58205 -0.210741,-0.94332 -0.130458,-0.23081 -0.331163,-0.34119 -0.1706,-0.10036 -0.40141,-0.10036 -0.240847,0 -0.421481,0.11039 -0.200706,0.11039 -0.321129,0.33116 -0.180634,0.30106 -0.180634,0.76268 z"
           style="fill:#888a85;fill-opacity:1;stroke-width:0.25088146px"
           id="path2381"
           inkscape:connector-curvature="0" />
      </g>
      <rect
         style="opacity:1;fill:none;fill-opacity:1;fill-rule:nonzero;stroke:none;stroke-width:5;stroke-linecap:square;stroke-linejoin:miter;stroke-miterlimit:4;stroke-dasharray:none;stroke-dashoffset:9.99999905;stroke-opacity:1;paint-order:normal;text-align:end"
         id="button8-leader"
         width="1"
         height="1"
         x="16.57572"
         y="43.353863" />
    </g>
    <g
       id="button9-path">
      <g
         id="g2177">
        <path
           inkscape:connector-curvature="0"
           style="fill:none;stroke:#888a85;stroke-width:1;stroke-linecap:round;stroke-miterlimit:4;stroke-dasharray:none;stroke-opacity:1"
           d="m 203.37946,177.45245 v 0 H 178.66462 L 69.400762,68.188599 H 16.575719"
           id="path2155" />
        <rect
           style="display:inline;opacity:1;fill:#2e3436;fill-opacity:1;fill-rule:nonzero;stroke:none;stroke-width:1;stroke-linecap:square;stroke-linejoin:miter;stroke-miterlimit:4;stroke-dasharray:none;stroke-dashoffset:9.99999905;stroke-opacity:1;paint-order:normal"
           id="rect2173"
           width="7.2257466"
           height="7.2257476"
           x="200.32895"
           y="173.30757" />
      </g>
      <g
         aria-label="G10"
         transform="translate(0,-399.99999)"
         style="font-style:normal;font-variant:normal;font-weight:bold;font-stretch:normal;font-size:10.03525925px;line-height:6.27203655px;font-family:'Iosevka Nerd Font';-inkscape-font-specification:'Iosevka Nerd Font, Bold';font-variant-ligatures:normal;font-variant-caps:normal;font-variant-numeric:normal;font-feature-settings:normal;text-align:start;letter-spacing:0px;word-spacing:0px;writing-mode:lr-tb;text-anchor:start;display:inline;fill:#888a85;fill-opacity:1;stroke:none;stroke-width:0.25088146px;stroke-linecap:butt;stroke-linejoin:miter;stroke-opacity:1"
         id="text2057">
        <path
           d="m 19.450925,464.42104 v -3.16111 q 0,-0.7125 0.291022,-1.2243 0.250882,-0.43152 0.692433,-0.6824 0.481693,-0.28099 1.16409,-0.28099 0.682398,0 1.164091,0.28099 0.431516,0.25088 0.692432,0.69243 0.180635,0.3111 0.240847,0.66233 l -1.16409,0.27095 q -0.03011,-0.21074 -0.130459,-0.38134 -0.120423,-0.21074 -0.321128,-0.32112 -0.200705,-0.12043 -0.481693,-0.12043 -0.270952,0 -0.471657,0.12043 -0.19067,0.11038 -0.311093,0.32112 -0.160564,0.27096 -0.160564,0.66233 v 3.16111 q 0,0.40141 0.160564,0.67236 0.120423,0.21074 0.311093,0.32113 0.19067,0.11039 0.451587,0.11039 0.230811,0 0.40141,-0.10036 0.180635,-0.10035 0.301058,-0.30105 0.160564,-0.28099 0.160564,-0.70247 v -0.91321 h -0.852997 v -1.08381 h 2.057228 v 1.99702 q 0,0.73257 -0.301057,1.24437 -0.250882,0.43152 -0.672363,0.6824 -0.451586,0.26091 -1.093843,0.26091 -0.672362,0 -1.14402,-0.28098 -0.441551,-0.25088 -0.692433,-0.6824 -0.291022,-0.5118 -0.291022,-1.2243 z"
           style="fill:#888a85;fill-opacity:1;stroke-width:0.25088146px"
           id="path2384"
           inkscape:connector-curvature="0" />
        <path
           d="m 24.779648,460.31662 1.525359,-1.16409 h 1.204231 v 7.37591 h -1.204231 v -5.96094 l -0.802821,0.61215 z"
           style="fill:#888a85;fill-opacity:1;stroke-width:0.25088146px"
           id="path2386"
           inkscape:connector-curvature="0" />
        <path
           d="m 29.486184,464.32069 v -2.96041 c 0,-0.51514 0.103698,-0.95335 0.311093,-1.31462 0.173945,-0.30105 0.408101,-0.53521 0.702468,-0.70246 0.314439,-0.18064 0.689088,-0.27096 1.123949,-0.27096 0.434861,0 0.809511,0.0903 1.123949,0.27096 0.294368,0.16725 0.528524,0.40141 0.702469,0.70246 0.207395,0.36127 0.311093,0.79948 0.311093,1.31462 v 2.96041 c 0,0.51514 -0.103698,0.95334 -0.311093,1.31461 -0.173945,0.30106 -0.408101,0.53522 -0.702469,0.70247 -0.314438,0.18063 -0.689088,0.27095 -1.123949,0.27095 -0.434861,0 -0.80951,-0.0903 -1.123949,-0.27095 -0.294367,-0.16725 -0.528523,-0.40141 -0.702468,-0.70247 -0.207395,-0.36127 -0.311093,-0.79947 -0.311093,-1.31461 z m 1.254411,0.44155 c 0.02676,0.12042 0.0669,0.22746 0.120423,0.32113 0.08697,0.14718 0.19736,0.25757 0.331163,0.33116 0.127113,0.0736 0.270952,0.11039 0.431516,0.11039 0.167255,0 0.311094,-0.0368 0.431517,-0.11039 0.133803,-0.0736 0.244191,-0.18398 0.331163,-0.33116 0.113733,-0.20071 0.1706,-0.45493 0.1706,-0.76268 v -1.94684 l -0.05018,-1.45512 c -0.02676,-0.12042 -0.0669,-0.22746 -0.120423,-0.32113 -0.08697,-0.14718 -0.19736,-0.25757 -0.331163,-0.33116 -0.120423,-0.0736 -0.264262,-0.11039 -0.431517,-0.11039 -0.167254,0 -0.311093,0.0368 -0.431516,0.11039 -0.133803,0.0736 -0.244191,0.18398 -0.331163,0.33116 -0.113733,0.20071 -0.1706,0.45493 -0.1706,0.76268 v 1.94684 z"
           style="fill:#888a85;fill-opacity:1;stroke-width:0.25088146px"
           id="path2388"
           inkscape:connector-curvature="0"
           sodipodi:nodetypes="ssccsccssccsccscccsccsccccsccscc" />
      </g>
      <rect
         style="opacity:1;fill:none;fill-opacity:1;fill-rule:nonzero;stroke:none;stroke-width:5;stroke-linecap:square;stroke-linejoin:miter;stroke-miterlimit:4;stroke-dasharray:none;stroke-dashoffset:9.99999905;stroke-opacity:1;paint-order:normal;text-align:end"
         id="button9-leader"
         width="1"
         height="1"
         x="16.57572"
         y="69.188599" />
    </g>
    <g
       id="button10-path">
      <g
         id="g2181">
        <path
           inkscape:connector-curvature="0"
           style="fill:none;stroke:#888a85;stroke-width:1;stroke-linecap:round;stroke-miterlimit:4;stroke-dasharray:none;stroke-opacity:1"
           d="m 203.31627,177.45303 v 0 H 152.83053 L 69.400762,94.023192 H 16.575719"
           id="path2153" />
        <rect
           y="173.30757"
           x="200.32895"
           height="7.2257476"
           width="7.2257466"
           id="rect1787"
           style="display:inline;opacity:1;fill:#2e3436;fill-opacity:1;fill-rule:nonzero;stroke:none;stroke-width:1;stroke-linecap:square;stroke-linejoin:miter;stroke-miterlimit:4;stroke-dasharray:none;stroke-dashoffset:9.99999905;stroke-opacity:1;paint-order:normal" />
      </g>
      <g
         aria-label="G11"
         transform="translate(0,-399.99999)"
         style="font-style:normal;font-variant:normal;font-weight:bold;font-stretch:normal;font-size:10.03525925px;line-height:6.27203655px;font-family:'Iosevka Nerd Font';-inkscape-font-specification:'Iosevka Nerd Font, Bold';font-variant-ligatures:normal;font-variant-caps:normal;font-variant-numeric:normal;font-feature-settings:normal;text-align:start;letter-spacing:0px;word-spacing:0px;writing-mode:lr-tb;text-anchor:start;display:inline;fill:#888a85;fill-opacity:1;stroke:none;stroke-width:0.25088146px;stroke-linecap:butt;stroke-linejoin:miter;stroke-opacity:1"
         id="text2061">
        <path
           d="m 19.450925,490.25563 v -3.1611 q 0,-0.71251 0.291022,-1.22431 0.250882,-0.43151 0.692433,-0.68239 0.481693,-0.28099 1.16409,-0.28099 0.682398,0 1.164091,0.28099 0.431516,0.25088 0.692432,0.69243 0.180635,0.31109 0.240847,0.66233 l -1.16409,0.27095 q -0.03011,-0.21074 -0.130459,-0.38134 -0.120423,-0.21074 -0.321128,-0.32113 -0.200705,-0.12042 -0.481693,-0.12042 -0.270952,0 -0.471657,0.12042 -0.19067,0.11039 -0.311093,0.32113 -0.160564,0.27095 -0.160564,0.66233 v 3.1611 q 0,0.40141 0.160564,0.67237 0.120423,0.21074 0.311093,0.32112 0.19067,0.11039 0.451587,0.11039 0.230811,0 0.40141,-0.10035 0.180635,-0.10035 0.301058,-0.30106 0.160564,-0.28099 0.160564,-0.70247 v -0.91321 h -0.852997 v -1.0838 h 2.057228 v 1.99701 q 0,0.73258 -0.301057,1.24437 -0.250882,0.43152 -0.672363,0.6824 -0.451586,0.26092 -1.093843,0.26092 -0.672362,0 -1.14402,-0.28099 -0.441551,-0.25088 -0.692433,-0.6824 -0.291022,-0.51179 -0.291022,-1.2243 z"
           style="fill:#888a85;fill-opacity:1;stroke-width:0.25088146px"
           id="path2391"
           inkscape:connector-curvature="0" />
        <path
           d="m 24.779648,486.15121 1.525359,-1.16409 h 1.204231 v 7.37592 h -1.204231 v -5.96095 l -0.802821,0.61215 z"
           style="fill:#888a85;fill-opacity:1;stroke-width:0.25088146px"
           id="path2393"
           inkscape:connector-curvature="0" />
        <path
           d="m 29.797277,486.15121 1.52536,-1.16409 h 1.204231 v 7.37592 h -1.204231 v -5.96095 l -0.802821,0.61215 z"
           style="fill:#888a85;fill-opacity:1;stroke-width:0.25088146px"
           id="path2395"
           inkscape:connector-curvature="0" />
      </g>
      <rect
         style="opacity:1;fill:none;fill-opacity:1;fill-rule:nonzero;stroke:none;stroke-width:5;stroke-linecap:square;stroke-linejoin:miter;stroke-miterlimit:4;stroke-dasharray:none;stroke-dashoffset:9.99999905;stroke-opacity:1;paint-order:normal;text-align:end"
         id="button10-leader"
         width="1"
         height="1"
         x="16.57572"
         y="95.023193" />
    </g>
    <g
       id="button11-path">
      <g
         id="g2189">
        <path
           inkscape:connector-curvature="0"
           style="fill:none;stroke:#888a85;stroke-width:1;stroke-linecap:round;stroke-miterlimit:4;stroke-dasharray:none;stroke-opacity:1"
           d="m 204.41272,200.55947 v 0 h -49.11336 l -9.6562,-9.65627 H 121.07009 L 69.400762,139.23387 H 16.575719"
           id="path2163" />
        <rect
           style="display:inline;opacity:1;fill:#2e3436;fill-opacity:1;fill-rule:nonzero;stroke:none;stroke-width:1;stroke-linecap:square;stroke-linejoin:miter;stroke-miterlimit:4;stroke-dasharray:none;stroke-dashoffset:9.99999905;stroke-opacity:1;paint-order:normal"
           id="rect2185"
           width="7.2257466"
           height="7.2257476"
           x="200.32895"
           y="196.87056" />
      </g>
      <g
         aria-label="G12"
         transform="translate(0,-399.99999)"
         style="font-style:normal;font-variant:normal;font-weight:bold;font-stretch:normal;font-size:10.03525925px;line-height:6.27203655px;font-family:'Iosevka Nerd Font';-inkscape-font-specification:'Iosevka Nerd Font, Bold';font-variant-ligatures:normal;font-variant-caps:normal;font-variant-numeric:normal;font-feature-settings:normal;text-align:start;letter-spacing:0px;word-spacing:0px;writing-mode:lr-tb;text-anchor:start;display:inline;fill:#888a85;fill-opacity:1;stroke:none;stroke-width:0.25088146px;stroke-linecap:butt;stroke-linejoin:miter;stroke-opacity:1"
         id="text2065">
        <path
           d="m 19.450925,535.46633 v -3.16111 q 0,-0.7125 0.291022,-1.2243 0.250882,-0.43152 0.692433,-0.6824 0.481693,-0.28099 1.16409,-0.28099 0.682398,0 1.164091,0.28099 0.431516,0.25088 0.692432,0.69243 0.180635,0.3111 0.240847,0.66233 l -1.16409,0.27095 q -0.03011,-0.21074 -0.130459,-0.38134 -0.120423,-0.21074 -0.321128,-0.32113 -0.200705,-0.12042 -0.481693,-0.12042 -0.270952,0 -0.471657,0.12042 -0.19067,0.11039 -0.311093,0.32113 -0.160564,0.27095 -0.160564,0.66233 v 3.16111 q 0,0.40141 0.160564,0.67236 0.120423,0.21074 0.311093,0.32113 0.19067,0.11038 0.451587,0.11038 0.230811,0 0.40141,-0.10035 0.180635,-0.10035 0.301058,-0.30106 0.160564,-0.28098 0.160564,-0.70246 v -0.91321 h -0.852997 v -1.08381 h 2.057228 v 1.99702 q 0,0.73257 -0.301057,1.24437 -0.250882,0.43151 -0.672363,0.6824 -0.451586,0.26091 -1.093843,0.26091 -0.672362,0 -1.14402,-0.28098 -0.441551,-0.25089 -0.692433,-0.6824 -0.291022,-0.5118 -0.291022,-1.2243 z"
           style="fill:#888a85;fill-opacity:1;stroke-width:0.25088146px"
           id="path2398"
           inkscape:connector-curvature="0" />
        <path
           d="m 24.779648,531.3619 1.525359,-1.16409 h 1.204231 v 7.37592 h -1.204231 v -5.96094 l -0.802821,0.61215 z"
           style="fill:#888a85;fill-opacity:1;stroke-width:0.25088146px"
           id="path2400"
           inkscape:connector-curvature="0" />
        <path
           d="m 29.51629,531.75328 q 0.06021,-0.36127 0.240846,-0.67236 0.250882,-0.43152 0.682398,-0.6824 0.481692,-0.28099 1.154055,-0.28099 0.672362,0 1.154054,0.28099 0.431517,0.25088 0.682398,0.6824 0.291023,0.50176 0.291023,1.10388 0,0.59208 -0.331164,1.16409 -0.280987,0.49172 -1.113914,1.21426 -0.832926,0.72254 -1.133984,1.23434 -0.170599,0.29102 -0.260917,0.69243 h 2.799838 v 1.08381 h -4.114457 v -0.01 q 0,-1.42501 0.451587,-2.20776 0.341199,-0.59208 1.274478,-1.35476 0.76268,-0.63222 1.003526,-1.04367 0.220775,-0.39137 0.220775,-0.77271 0,-0.3111 -0.140493,-0.56198 -0.110388,-0.2007 -0.301058,-0.30106 -0.200705,-0.12042 -0.481692,-0.12042 -0.270952,0 -0.461622,0.11039 -0.19067,0.11039 -0.311093,0.32113 -0.100353,0.1706 -0.130459,0.38134 z"
           style="fill:#888a85;fill-opacity:1;stroke-width:0.25088146px"
           id="path2402"
           inkscape:connector-curvature="0" />
      </g>
      <rect
         style="opacity:1;fill:none;fill-opacity:1;fill-rule:nonzero;stroke:none;stroke-width:5;stroke-linecap:square;stroke-linejoin:miter;stroke-miterlimit:4;stroke-dasharray:none;stroke-dashoffset:9.99999905;stroke-opacity:1;paint-order:normal;text-align:end"
         id="button11-leader"
         width="1"
         height="1"
         x="16.57572"
         y="140.23387" />
    </g>
    <g
       id="button12-path">
      <g
         id="g2193">
        <path
           inkscape:connector-curvature="0"
           style="fill:none;stroke:#888a85;stroke-width:1;stroke-linecap:round;stroke-miterlimit:4;stroke-dasharray:none;stroke-opacity:1"
           d="m 204.41272,200.55947 v 0 h -49.11336 l -9.6562,-9.65627 H 121.14651 L 95.234995,190.90277 69.400762,165.06854 H 16.575719"
           id="path2161" />
        <rect
           y="196.87056"
           x="200.32895"
           height="7.2257476"
           width="7.2257466"
           id="rect2183"
           style="display:inline;opacity:1;fill:#2e3436;fill-opacity:1;fill-rule:nonzero;stroke:none;stroke-width:1;stroke-linecap:square;stroke-linejoin:miter;stroke-miterlimit:4;stroke-dasharray:none;stroke-dashoffset:9.99999905;stroke-opacity:1;paint-order:normal" />
      </g>
      <g
         aria-label="G13"
         transform="translate(0,-399.99999)"
         style="font-style:normal;font-variant:normal;font-weight:bold;font-stretch:normal;font-size:10.03525925px;line-height:6.27203655px;font-family:'Iosevka Nerd Font';-inkscape-font-specification:'Iosevka Nerd Font, Bold';font-variant-ligatures:normal;font-variant-caps:normal;font-variant-numeric:normal;font-feature-settings:normal;text-align:start;letter-spacing:0px;word-spacing:0px;writing-mode:lr-tb;text-anchor:start;display:inline;fill:#888a85;fill-opacity:1;stroke:none;stroke-width:0.25088146px;stroke-linecap:butt;stroke-linejoin:miter;stroke-opacity:1"
         id="text2069">
        <path
           d="m 19.865245,561.30098 v -3.1611 q 0,-0.71251 0.291022,-1.22431 0.250882,-0.43151 0.692433,-0.68239 0.481693,-0.28099 1.16409,-0.28099 0.682398,0 1.16409,0.28099 0.431517,0.25088 0.692433,0.69243 0.180635,0.31109 0.240847,0.66233 l -1.16409,0.27095 q -0.03011,-0.21074 -0.130459,-0.38134 -0.120423,-0.21074 -0.321128,-0.32113 -0.200705,-0.12042 -0.481693,-0.12042 -0.270952,0 -0.471657,0.12042 -0.19067,0.11039 -0.311093,0.32113 -0.160564,0.27095 -0.160564,0.66233 v 3.1611 q 0,0.40141 0.160564,0.67236 0.120423,0.21074 0.311093,0.32113 0.19067,0.11039 0.451587,0.11039 0.230811,0 0.40141,-0.10035 0.180635,-0.10035 0.301058,-0.30106 0.160564,-0.28099 0.160564,-0.70247 v -0.91321 h -0.852997 v -1.0838 h 2.057228 v 1.99701 q 0,0.73258 -0.301057,1.24437 -0.250882,0.43152 -0.672363,0.6824 -0.451587,0.26092 -1.093843,0.26092 -0.672362,0 -1.14402,-0.28099 -0.441551,-0.25088 -0.692433,-0.6824 -0.291022,-0.51179 -0.291022,-1.2243 z"
           style="fill:#888a85;fill-opacity:1;stroke-width:0.25088146px"
           id="path2405"
           inkscape:connector-curvature="0" />
        <path
           d="m 25.193968,557.19656 1.525359,-1.16409 h 1.204231 v 7.37592 h -1.204231 v -5.96095 l -0.802821,0.61215 z"
           style="fill:#888a85;fill-opacity:1;stroke-width:0.25088146px"
           id="path2407"
           inkscape:connector-curvature="0" />
        <path
           d="m 29.850328,561.85292 1.154055,-0.31109 q 0.04014,0.21074 0.140493,0.3713 0.130459,0.23081 0.351234,0.36127 0.220776,0.13046 0.521834,0.13046 0.59208,0 0.873067,-0.48169 0.160565,-0.28099 0.160565,-0.64226 0,-0.3412 -0.160565,-0.61215 -0.160564,-0.27095 -0.431516,-0.43152 -0.341199,-0.2007 -1.013561,-0.2007 v -1.08381 q 0.632221,0 0.943314,-0.18063 0.240847,-0.1405 0.371305,-0.36127 0.130458,-0.23081 0.130458,-0.49173 0,-0.27095 -0.120423,-0.49173 -0.100352,-0.18063 -0.280987,-0.28099 -0.19067,-0.11038 -0.451587,-0.11038 -0.491727,0 -0.722538,0.40141 -0.100353,0.1706 -0.120423,0.3713 l -1.184161,-0.22077 q 0.05018,-0.38134 0.240846,-0.71251 0.240846,-0.41144 0.662327,-0.65229 0.471658,-0.27095 1.123949,-0.27095 0.662328,0 1.123949,0.27095 0.411446,0.24085 0.662328,0.65229 0.280987,0.48169 0.270952,1.03363 0,0.4817 -0.230811,0.88311 -0.230811,0.40141 -0.652292,0.65229 -0.05018,0.0301 -0.100353,0.0502 0.09032,0.0401 0.160564,0.0803 0.461622,0.27095 0.722539,0.7125 0.260917,0.45159 0.260917,1.00353 0,0.64225 -0.311093,1.18416 -0.270952,0.46162 -0.722539,0.72254 -0.501763,0.29102 -1.204231,0.29102 -0.702468,0 -1.204231,-0.29102 -0.451587,-0.26092 -0.722539,-0.72254 -0.170599,-0.29103 -0.240846,-0.62219 z"
           style="fill:#888a85;fill-opacity:1;stroke-width:0.25088146px"
           id="path2409"
           inkscape:connector-curvature="0" />
      </g>
      <rect
         style="opacity:1;fill:none;fill-opacity:1;fill-rule:nonzero;stroke:none;stroke-width:5;stroke-linecap:square;stroke-linejoin:miter;stroke-miterlimit:4;stroke-dasharray:none;stroke-dashoffset:9.99999905;stroke-opacity:1;paint-order:normal;text-align:end"
         id="button12-leader"
         width="1"
         height="1"
         x="16.57572"
         y="166.06854" />
    </g>
    <g
       id="button13-path">
      <g
         id="g2197">
        <path
           inkscape:connector-curvature="0"
           style="fill:none;stroke:#888a85;stroke-width:1;stroke-linecap:round;stroke-miterlimit:4;stroke-dasharray:none;stroke-opacity:1"
           d="m 204.41272,200.55947 v 0 h -49.11336 l -9.6562,-9.65627 H 16.575719"
           id="path2159" />
        <rect
           style="display:inline;opacity:1;fill:#2e3436;fill-opacity:1;fill-rule:nonzero;stroke:none;stroke-width:1;stroke-linecap:square;stroke-linejoin:miter;stroke-miterlimit:4;stroke-dasharray:none;stroke-dashoffset:9.99999905;stroke-opacity:1;paint-order:normal"
           id="rect1785"
           width="7.2257466"
           height="7.2257476"
           x="200.32895"
           y="196.87056" />
      </g>
      <g
         aria-label="G14"
         transform="translate(0,-399.99999)"
         style="font-style:normal;font-variant:normal;font-weight:bold;font-stretch:normal;font-size:10.03525925px;line-height:6.27203655px;font-family:'Iosevka Nerd Font';-inkscape-font-specification:'Iosevka Nerd Font, Bold';font-variant-ligatures:normal;font-variant-caps:normal;font-variant-numeric:normal;font-feature-settings:normal;text-align:start;letter-spacing:0px;word-spacing:0px;writing-mode:lr-tb;text-anchor:start;display:inline;fill:#888a85;fill-opacity:1;stroke:none;stroke-width:0.25088146px;stroke-linecap:butt;stroke-linejoin:miter;stroke-opacity:1"
         id="text2073">
        <path
           d="m 19.450925,587.13564 v -3.16111 q 0,-0.7125 0.291022,-1.2243 0.250882,-0.43152 0.692433,-0.6824 0.481693,-0.28099 1.16409,-0.28099 0.682398,0 1.164091,0.28099 0.431516,0.25088 0.692432,0.69243 0.180635,0.3111 0.240847,0.66233 l -1.16409,0.27095 q -0.03011,-0.21074 -0.130459,-0.38134 -0.120423,-0.21074 -0.321128,-0.32112 -0.200705,-0.12043 -0.481693,-0.12043 -0.270952,0 -0.471657,0.12043 -0.19067,0.11038 -0.311093,0.32112 -0.160564,0.27096 -0.160564,0.66233 v 3.16111 q 0,0.40141 0.160564,0.67236 0.120423,0.21074 0.311093,0.32113 0.19067,0.11039 0.451587,0.11039 0.230811,0 0.40141,-0.10036 0.180635,-0.10035 0.301058,-0.30105 0.160564,-0.28099 0.160564,-0.70247 v -0.91321 h -0.852997 v -1.08381 h 2.057228 v 1.99702 q 0,0.73257 -0.301057,1.24437 -0.250882,0.43152 -0.672363,0.6824 -0.451586,0.26091 -1.093843,0.26091 -0.672362,0 -1.14402,-0.28098 -0.441551,-0.25088 -0.692433,-0.6824 -0.291022,-0.5118 -0.291022,-1.2243 z"
           style="fill:#888a85;fill-opacity:1;stroke-width:0.25088146px"
           id="path2412"
           inkscape:connector-curvature="0" />
        <path
           d="m 24.779648,583.03122 1.525359,-1.16409 h 1.204231 v 7.37591 h -1.204231 v -5.96094 l -0.802821,0.61215 z"
           style="fill:#888a85;fill-opacity:1;stroke-width:0.25088146px"
           id="path2414"
           inkscape:connector-curvature="0" />
        <path
           d="m 29.486184,587.37648 v -1.0838 l 1.997017,-4.42555 h 1.475183 v 4.42555 h 0.722539 v 1.0838 h -0.722539 v 1.86656 h -1.204231 v -1.86656 z m 1.174126,-1.0838 h 1.093843 v -2.40847 z"
           style="fill:#888a85;fill-opacity:1;stroke-width:0.25088146px"
           id="path2416"
           inkscape:connector-curvature="0" />
      </g>
      <rect
         style="opacity:1;fill:none;fill-opacity:1;fill-rule:nonzero;stroke:none;stroke-width:5;stroke-linecap:square;stroke-linejoin:miter;stroke-miterlimit:4;stroke-dasharray:none;stroke-dashoffset:9.99999905;stroke-opacity:1;paint-order:normal;text-align:end"
         id="button13-leader"
         width="1"
         height="1"
         x="16.57572"
         y="191.9032" />
    </g>
    <g
       id="button14-path">
      <g
         id="g2205">
        <path
           inkscape:connector-curvature="0"
           style="fill:none;stroke:#888a85;stroke-width:1;stroke-linecap:round;stroke-miterlimit:4;stroke-dasharray:none;stroke-opacity:1"
           d="m 204.41272,226.45762 v 0 h -49.11336 l -9.6562,9.65626 H 16.575719"
           id="path2147" />
        <rect
           y="222.72174"
           x="200.32895"
           height="7.2257476"
           width="7.2257466"
           id="rect2201"
           style="display:inline;opacity:1;fill:#2e3436;fill-opacity:1;fill-rule:nonzero;stroke:none;stroke-width:1;stroke-linecap:square;stroke-linejoin:miter;stroke-miterlimit:4;stroke-dasharray:none;stroke-dashoffset:9.99999905;stroke-opacity:1;paint-order:normal" />
      </g>
      <g
         aria-label="G15"
         transform="translate(0,-399.99999)"
         style="font-style:normal;font-variant:normal;font-weight:bold;font-stretch:normal;font-size:10.03525925px;line-height:6.27203655px;font-family:'Iosevka Nerd Font';-inkscape-font-specification:'Iosevka Nerd Font, Bold';font-variant-ligatures:normal;font-variant-caps:normal;font-variant-numeric:normal;font-feature-settings:normal;text-align:start;letter-spacing:0px;word-spacing:0px;writing-mode:lr-tb;text-anchor:start;display:inline;fill:#888a85;fill-opacity:1;stroke:none;stroke-width:0.25088146px;stroke-linecap:butt;stroke-linejoin:miter;stroke-opacity:1"
         id="text2077">
        <path
           d="m 19.450925,632.34633 v -3.16111 q 0,-0.7125 0.291022,-1.2243 0.250882,-0.43151 0.692433,-0.6824 0.481693,-0.28098 1.16409,-0.28098 0.682398,0 1.164091,0.28098 0.431516,0.25089 0.692432,0.69244 0.180635,0.31109 0.240847,0.66232 l -1.16409,0.27096 q -0.03011,-0.21074 -0.130459,-0.38134 -0.120423,-0.21074 -0.321128,-0.32113 -0.200705,-0.12042 -0.481693,-0.12042 -0.270952,0 -0.471657,0.12042 -0.19067,0.11039 -0.311093,0.32113 -0.160564,0.27095 -0.160564,0.66232 v 3.16111 q 0,0.40141 0.160564,0.67236 0.120423,0.21074 0.311093,0.32113 0.19067,0.11039 0.451587,0.11039 0.230811,0 0.40141,-0.10035 0.180635,-0.10036 0.301058,-0.30106 0.160564,-0.28099 0.160564,-0.70247 v -0.91321 h -0.852997 v -1.08381 h 2.057228 v 1.99702 q 0,0.73257 -0.301057,1.24437 -0.250882,0.43152 -0.672363,0.6824 -0.451586,0.26092 -1.093843,0.26092 -0.672362,0 -1.14402,-0.28099 -0.441551,-0.25088 -0.692433,-0.6824 -0.291022,-0.5118 -0.291022,-1.2243 z"
           style="fill:#888a85;fill-opacity:1;stroke-width:0.25088146px"
           id="path2419"
           inkscape:connector-curvature="0" />
        <path
           d="m 24.779648,628.24191 1.525359,-1.16409 h 1.204231 v 7.37592 h -1.204231 v -5.96095 l -0.802821,0.61215 z"
           style="fill:#888a85;fill-opacity:1;stroke-width:0.25088146px"
           id="path2421"
           inkscape:connector-curvature="0" />
        <path
           d="m 29.51629,632.89827 1.123949,-0.38134 q 0.05018,0.26092 0.170599,0.46162 0.140494,0.24085 0.351234,0.36127 0.19067,0.11039 0.431517,0.11039 0.240846,0 0.421481,-0.10035 0.200705,-0.12043 0.341198,-0.35124 0.200706,-0.35123 0.200706,-0.91321 0,-0.56197 -0.200706,-0.9132 -0.130458,-0.23082 -0.331163,-0.3412 -0.1706,-0.10036 -0.391375,-0.0903 -0.230811,0 -0.411446,0.10035 -0.200705,0.12043 -0.341199,0.35124 -0.09032,0.15052 -0.130458,0.33116 l -1.083808,-0.48169 v -3.96393 h 3.803363 v 1.08381 H 30.87105 v 1.61567 q 0.341199,-0.12042 0.76268,-0.12042 0.61215,0 1.073772,0.26092 0.441552,0.25088 0.712504,0.72254 0.341199,0.59208 0.341199,1.45511 0,0.853 -0.341199,1.43504 -0.270952,0.47166 -0.722539,0.73258 -0.471657,0.27095 -1.103878,0.27095 -0.632222,0 -1.103879,-0.27095 -0.451587,-0.26092 -0.722539,-0.73258 -0.170599,-0.29102 -0.250881,-0.63222 z"
           style="fill:#888a85;fill-opacity:1;stroke-width:0.25088146px"
           id="path2423"
           inkscape:connector-curvature="0" />
      </g>
      <rect
         style="opacity:1;fill:none;fill-opacity:1;fill-rule:nonzero;stroke:none;stroke-width:5;stroke-linecap:square;stroke-linejoin:miter;stroke-miterlimit:4;stroke-dasharray:none;stroke-dashoffset:9.99999905;stroke-opacity:1;paint-order:normal;text-align:end"
         id="button14-leader"
         width="1"
         height="1"
         x="16.57572"
         y="237.11388" />
    </g>
    <g
       id="button15-path">
      <g
         id="g2213">
        <path
           inkscape:connector-curvature="0"
           style="fill:none;stroke:#888a85;stroke-width:1;stroke-linecap:round;stroke-miterlimit:4;stroke-dasharray:none;stroke-opacity:1"
           d="m 204.41272,226.45762 v 0 h -49.11336 l -9.6562,9.65626 h -24.49665 l -25.911515,4.3e-4 -25.834233,25.83424 H 16.575719"
           id="path2149" />
        <rect
           y="222.72174"
           x="200.32895"
           height="7.2257476"
           width="7.2257466"
           id="rect1783"
           style="display:inline;opacity:1;fill:#2e3436;fill-opacity:1;fill-rule:nonzero;stroke:none;stroke-width:1;stroke-linecap:square;stroke-linejoin:miter;stroke-miterlimit:4;stroke-dasharray:none;stroke-dashoffset:9.99999905;stroke-opacity:1;paint-order:normal" />
      </g>
      <g
         aria-label="G16"
         transform="translate(0,-399.99999)"
         style="font-style:normal;font-variant:normal;font-weight:bold;font-stretch:normal;font-size:10.03525925px;line-height:6.27203655px;font-family:'Iosevka Nerd Font';-inkscape-font-specification:'Iosevka Nerd Font, Bold';font-variant-ligatures:normal;font-variant-caps:normal;font-variant-numeric:normal;font-feature-settings:normal;text-align:start;letter-spacing:0px;word-spacing:0px;writing-mode:lr-tb;text-anchor:start;display:inline;fill:#888a85;fill-opacity:1;stroke:none;stroke-width:0.25088146px;stroke-linecap:butt;stroke-linejoin:miter;stroke-opacity:1"
         id="text2081">
        <path
           d="m 19.450925,658.18099 v -3.16111 q 0,-0.7125 0.291022,-1.2243 0.250882,-0.43152 0.692433,-0.6824 0.481693,-0.28099 1.16409,-0.28099 0.682398,0 1.164091,0.28099 0.431516,0.25088 0.692432,0.69243 0.180635,0.3111 0.240847,0.66233 l -1.16409,0.27095 q -0.03011,-0.21074 -0.130459,-0.38134 -0.120423,-0.21074 -0.321128,-0.32113 -0.200705,-0.12042 -0.481693,-0.12042 -0.270952,0 -0.471657,0.12042 -0.19067,0.11039 -0.311093,0.32113 -0.160564,0.27095 -0.160564,0.66233 v 3.16111 q 0,0.40141 0.160564,0.67236 0.120423,0.21074 0.311093,0.32113 0.19067,0.11039 0.451587,0.11039 0.230811,0 0.40141,-0.10036 0.180635,-0.10035 0.301058,-0.30106 0.160564,-0.28098 0.160564,-0.70246 v -0.91321 h -0.852997 v -1.08381 h 2.057228 v 1.99702 q 0,0.73257 -0.301057,1.24437 -0.250882,0.43151 -0.672363,0.6824 -0.451586,0.26091 -1.093843,0.26091 -0.672362,0 -1.14402,-0.28098 -0.441551,-0.25089 -0.692433,-0.6824 -0.291022,-0.5118 -0.291022,-1.2243 z"
           style="fill:#888a85;fill-opacity:1;stroke-width:0.25088146px"
           id="path2426"
           inkscape:connector-curvature="0" />
        <path
           d="m 24.779648,654.07657 1.525359,-1.16409 h 1.204231 v 7.37591 h -1.204231 v -5.96094 l -0.802821,0.61215 z"
           style="fill:#888a85;fill-opacity:1;stroke-width:0.25088146px"
           id="path2428"
           inkscape:connector-curvature="0" />
        <path
           d="m 29.486184,658.08063 v -0.0201 q 0,-2.05722 0.742609,-3.34174 0.541904,-0.94331 1.455113,-1.46515 0.38134,-0.21074 0.78275,-0.34119 l 0.351234,1.03363 q -0.230811,0.0803 -0.431516,0.21074 -0.672362,0.39137 -1.083808,1.09384 -0.160564,0.27095 -0.280987,0.60212 0.280987,-0.0702 0.602115,-0.0702 0.652292,0 1.123949,0.27095 0.441552,0.25088 0.702469,0.70247 0.311093,0.5419 0.311093,1.31462 v 0.01 q 0,0.77272 -0.311093,1.31462 -0.260917,0.45159 -0.702469,0.70247 -0.471657,0.27095 -1.123949,0.27095 -0.652291,0 -1.123949,-0.27095 -0.441551,-0.25088 -0.702468,-0.70247 -0.311093,-0.5419 -0.311093,-1.31462 z m 1.204231,0 q 0,0.46163 0.1706,0.76268 0.130458,0.22078 0.331163,0.33117 0.19067,0.11039 0.431516,0.11039 0.250882,0 0.431517,-0.11039 0.200705,-0.11039 0.331163,-0.33117 0.1706,-0.30105 0.1706,-0.76268 v -0.01 q 0,-0.46162 -0.1706,-0.76268 -0.130458,-0.22078 -0.331163,-0.33116 -0.19067,-0.11039 -0.441552,-0.11039 -0.240846,0 -0.421481,0.11039 -0.200705,0.11038 -0.331163,0.33116 -0.1706,0.29102 -0.1706,0.76268 z"
           style="fill:#888a85;fill-opacity:1;stroke-width:0.25088146px"
           id="path2430"
           inkscape:connector-curvature="0" />
      </g>
      <rect
         style="opacity:1;fill:none;fill-opacity:1;fill-rule:nonzero;stroke:none;stroke-width:5;stroke-linecap:square;stroke-linejoin:miter;stroke-miterlimit:4;stroke-dasharray:none;stroke-dashoffset:9.99999905;stroke-opacity:1;paint-order:normal;text-align:end"
         id="button15-leader"
         width="1"
         height="1"
         x="16.57572"
         y="262.94855" />
    </g>
    <g
       id="button16-path">
      <g
         id="g2209">
        <path
           inkscape:connector-curvature="0"
           style="fill:none;stroke:#888a85;stroke-width:1;stroke-linecap:round;stroke-miterlimit:4;stroke-dasharray:none;stroke-opacity:1"
           d="m 204.41272,226.45762 v 0 h -49.11336 l -9.6562,9.65626 H 121.07009 L 69.400762,287.78321 H 16.575719"
           id="path2151" />
        <rect
           style="display:inline;opacity:1;fill:#2e3436;fill-opacity:1;fill-rule:nonzero;stroke:none;stroke-width:1;stroke-linecap:square;stroke-linejoin:miter;stroke-miterlimit:4;stroke-dasharray:none;stroke-dashoffset:9.99999905;stroke-opacity:1;paint-order:normal"
           id="rect2199"
           width="7.2257466"
           height="7.2257476"
           x="200.32895"
           y="222.72174" />
      </g>
      <g
         aria-label="G17"
         transform="translate(0,-399.99999)"
         style="font-style:normal;font-variant:normal;font-weight:bold;font-stretch:normal;font-size:10.03525925px;line-height:6.27203655px;font-family:'Iosevka Nerd Font';-inkscape-font-specification:'Iosevka Nerd Font, Bold';font-variant-ligatures:normal;font-variant-caps:normal;font-variant-numeric:normal;font-feature-settings:normal;text-align:start;letter-spacing:0px;word-spacing:0px;writing-mode:lr-tb;text-anchor:start;display:inline;fill:#888a85;fill-opacity:1;stroke:none;stroke-width:0.25088146px;stroke-linecap:butt;stroke-linejoin:miter;stroke-opacity:1"
         id="text2085">
        <path
           d="m 19.450925,684.01564 v -3.1611 q 0,-0.71251 0.291022,-1.22431 0.250882,-0.43151 0.692433,-0.68239 0.481693,-0.28099 1.16409,-0.28099 0.682398,0 1.164091,0.28099 0.431516,0.25088 0.692432,0.69243 0.180635,0.31109 0.240847,0.66233 l -1.16409,0.27095 q -0.03011,-0.21074 -0.130459,-0.38134 -0.120423,-0.21074 -0.321128,-0.32113 -0.200705,-0.12042 -0.481693,-0.12042 -0.270952,0 -0.471657,0.12042 -0.19067,0.11039 -0.311093,0.32113 -0.160564,0.27095 -0.160564,0.66233 v 3.1611 q 0,0.40141 0.160564,0.67236 0.120423,0.21075 0.311093,0.32113 0.19067,0.11039 0.451587,0.11039 0.230811,0 0.40141,-0.10035 0.180635,-0.10035 0.301058,-0.30106 0.160564,-0.28099 0.160564,-0.70247 v -0.91321 h -0.852997 v -1.0838 h 2.057228 v 1.99701 q 0,0.73258 -0.301057,1.24437 -0.250882,0.43152 -0.672363,0.6824 -0.451586,0.26092 -1.093843,0.26092 -0.672362,0 -1.14402,-0.28099 -0.441551,-0.25088 -0.692433,-0.6824 -0.291022,-0.51179 -0.291022,-1.2243 z"
           style="fill:#888a85;fill-opacity:1;stroke-width:0.25088146px"
           id="path2433"
           inkscape:connector-curvature="0" />
        <path
           d="m 24.779648,679.91122 1.525359,-1.16409 h 1.204231 v 7.37592 h -1.204231 v -5.96095 l -0.802821,0.61215 z"
           style="fill:#888a85;fill-opacity:1;stroke-width:0.25088146px"
           id="path2435"
           inkscape:connector-curvature="0" />
        <path
           d="m 29.566466,679.83094 v -1.08381 h 4.114457 v 1.08381 l -2.318145,6.29211 h -1.284514 l 2.30811,-6.29211 z"
           style="fill:#888a85;fill-opacity:1;stroke-width:0.25088146px"
           id="path2437"
           inkscape:connector-curvature="0" />
      </g>
      <rect
         style="opacity:1;fill:none;fill-opacity:1;fill-rule:nonzero;stroke:none;stroke-width:5;stroke-linecap:square;stroke-linejoin:miter;stroke-miterlimit:4;stroke-dasharray:none;stroke-dashoffset:9.99999905;stroke-opacity:1;paint-order:normal;text-align:end"
         id="button16-leader"
         width="1"
         height="1"
         x="16.57572"
         y="288.7832" />
    </g>
    <g
       id="button17-path">
      <g
         id="g2229">
        <path
           inkscape:connector-curvature="0"
           style="fill:none;stroke:#888a85;stroke-width:1;stroke-linecap:round;stroke-miterlimit:4;stroke-dasharray:none;stroke-opacity:1"
           d="m 203.31627,249.56406 v 0 H 152.83053 L 69.400762,332.99389 H 16.575719"
           id="path2165" />
        <rect
           y="246.28474"
           x="200.32895"
           height="7.2257476"
           width="7.2257466"
           id="rect2215"
           style="display:inline;opacity:1;fill:#2e3436;fill-opacity:1;fill-rule:nonzero;stroke:none;stroke-width:1;stroke-linecap:square;stroke-linejoin:miter;stroke-miterlimit:4;stroke-dasharray:none;stroke-dashoffset:9.99999905;stroke-opacity:1;paint-order:normal" />
      </g>
      <g
         aria-label="G18"
         transform="translate(0,-399.99999)"
         style="font-style:normal;font-variant:normal;font-weight:bold;font-stretch:normal;font-size:10.03525925px;line-height:6.27203655px;font-family:'Iosevka Nerd Font';-inkscape-font-specification:'Iosevka Nerd Font, Bold';font-variant-ligatures:normal;font-variant-caps:normal;font-variant-numeric:normal;font-feature-settings:normal;text-align:start;letter-spacing:0px;word-spacing:0px;writing-mode:lr-tb;text-anchor:start;display:inline;fill:#888a85;fill-opacity:1;stroke:none;stroke-width:0.25088146px;stroke-linecap:butt;stroke-linejoin:miter;stroke-opacity:1"
         id="text2089">
        <path
           d="m 19.450925,729.22634 v -3.16111 q 0,-0.7125 0.291022,-1.2243 0.250882,-0.43152 0.692433,-0.6824 0.481693,-0.28099 1.16409,-0.28099 0.682398,0 1.164091,0.28099 0.431516,0.25088 0.692432,0.69243 0.180635,0.3111 0.240847,0.66233 l -1.16409,0.27095 q -0.03011,-0.21074 -0.130459,-0.38134 -0.120423,-0.21074 -0.321128,-0.32113 -0.200705,-0.12042 -0.481693,-0.12042 -0.270952,0 -0.471657,0.12042 -0.19067,0.11039 -0.311093,0.32113 -0.160564,0.27095 -0.160564,0.66233 v 3.16111 q 0,0.40141 0.160564,0.67236 0.120423,0.21074 0.311093,0.32113 0.19067,0.11038 0.451587,0.11038 0.230811,0 0.40141,-0.10035 0.180635,-0.10035 0.301058,-0.30106 0.160564,-0.28098 0.160564,-0.70246 v -0.91321 h -0.852997 v -1.08381 h 2.057228 v 1.99702 q 0,0.73257 -0.301057,1.24437 -0.250882,0.43151 -0.672363,0.6824 -0.451586,0.26091 -1.093843,0.26091 -0.672362,0 -1.14402,-0.28098 -0.441551,-0.25089 -0.692433,-0.6824 -0.291022,-0.5118 -0.291022,-1.2243 z"
           style="fill:#888a85;fill-opacity:1;stroke-width:0.25088146px"
           id="path2440"
           inkscape:connector-curvature="0" />
        <path
           d="m 24.779648,725.12191 1.525359,-1.16409 h 1.204231 v 7.37592 h -1.204231 v -5.96094 l -0.802821,0.61215 z"
           style="fill:#888a85;fill-opacity:1;stroke-width:0.25088146px"
           id="path2442"
           inkscape:connector-curvature="0" />
        <path
           d="m 29.486184,729.3869 q 0,-0.5419 0.280987,-1.03363 0.260917,-0.45159 0.812856,-0.81286 -0.42148,-0.31109 -0.642256,-0.69243 -0.280987,-0.48169 -0.280987,-1.0236 0,-0.59208 0.270952,-1.0537 0.230811,-0.40141 0.632221,-0.64226 0.441551,-0.25088 1.063737,-0.25088 0.622186,0 1.063738,0.25088 0.40141,0.23082 0.632221,0.64226 0.270952,0.47166 0.270952,1.0537 0,0.54191 -0.280987,1.0236 -0.220776,0.38134 -0.642257,0.69243 0.55194,0.36127 0.812856,0.81286 0.280988,0.48169 0.280988,1.03363 0,0.59208 -0.280988,1.07377 -0.240846,0.42148 -0.672362,0.67237 -0.491728,0.28098 -1.184161,0.28098 -0.692432,0 -1.18416,-0.28098 -0.431516,-0.25089 -0.672363,-0.67237 -0.280987,-0.48169 -0.280987,-1.07377 z m 1.204231,0.01 q 0,0.28098 0.130459,0.51179 0.110388,0.19067 0.301057,0.30106 0.210741,0.12042 0.501763,0.12042 0.291023,0 0.501763,-0.12042 0.19067,-0.11039 0.301058,-0.30106 0.130459,-0.22077 0.130459,-0.51179 0,-0.29103 -0.150529,-0.56198 -0.200706,-0.35123 -0.722539,-0.65229 -0.03011,-0.01 -0.06021,-0.0301 -0.0301,0.0201 -0.06021,0.0301 -0.521834,0.30106 -0.722539,0.65229 -0.160564,0.27095 -0.150529,0.56198 z m 0.291023,-4.08436 q -0.120423,0.21075 -0.120423,0.50177 0,0.29102 0.150529,0.56197 0.180634,0.3111 0.61215,0.58205 0.431517,-0.27095 0.612151,-0.58205 0.160564,-0.27095 0.150529,-0.56197 0,-0.28099 -0.120423,-0.50177 -0.100353,-0.17059 -0.260917,-0.26091 -0.160564,-0.0903 -0.38134,-0.0903 -0.220775,0 -0.381339,0.0903 -0.160565,0.0903 -0.260917,0.26091 z"
           style="fill:#888a85;fill-opacity:1;stroke-width:0.25088146px"
           id="path2444"
           inkscape:connector-curvature="0" />
      </g>
      <rect
         style="opacity:1;fill:none;fill-opacity:1;fill-rule:nonzero;stroke:none;stroke-width:5;stroke-linecap:square;stroke-linejoin:miter;stroke-miterlimit:4;stroke-dasharray:none;stroke-dashoffset:9.99999905;stroke-opacity:1;paint-order:normal;text-align:end"
         id="button17-leader"
         width="1"
         height="1"
         x="16.57572"
         y="333.9939" />
    </g>
    <g
       id="button18-path">
      <g
         id="g2233">
        <path
           inkscape:connector-curvature="0"
           style="fill:none;stroke:#888a85;stroke-width:1;stroke-linecap:round;stroke-miterlimit:4;stroke-dasharray:none;stroke-opacity:1"
           d="m 203.37946,249.56463 v 0 H 178.66462 L 69.400762,358.82849 H 16.575719"
           id="path2143" />
        <rect
           style="display:inline;opacity:1;fill:#2e3436;fill-opacity:1;fill-rule:nonzero;stroke:none;stroke-width:1;stroke-linecap:square;stroke-linejoin:miter;stroke-miterlimit:4;stroke-dasharray:none;stroke-dashoffset:9.99999905;stroke-opacity:1;paint-order:normal"
           id="rect1781"
           width="7.2257466"
           height="7.2257476"
           x="200.32895"
           y="246.28474" />
      </g>
      <g
         aria-label="G19"
         transform="translate(0,-399.99999)"
         style="font-style:normal;font-variant:normal;font-weight:bold;font-stretch:normal;font-size:10.03525925px;line-height:6.27203655px;font-family:'Iosevka Nerd Font';-inkscape-font-specification:'Iosevka Nerd Font, Bold';font-variant-ligatures:normal;font-variant-caps:normal;font-variant-numeric:normal;font-feature-settings:normal;text-align:start;letter-spacing:0px;word-spacing:0px;writing-mode:lr-tb;text-anchor:start;display:inline;fill:#888a85;fill-opacity:1;stroke:none;stroke-width:0.25088146px;stroke-linecap:butt;stroke-linejoin:miter;stroke-opacity:1"
         id="text2093">
        <path
           d="m 19.450925,755.06093 v -3.16111 q 0,-0.7125 0.291022,-1.2243 0.250882,-0.43151 0.692433,-0.6824 0.481693,-0.28098 1.16409,-0.28098 0.682398,0 1.164091,0.28098 0.431516,0.25089 0.692432,0.69244 0.180635,0.31109 0.240847,0.66232 l -1.16409,0.27096 q -0.03011,-0.21074 -0.130459,-0.38134 -0.120423,-0.21074 -0.321128,-0.32113 -0.200705,-0.12042 -0.481693,-0.12042 -0.270952,0 -0.471657,0.12042 -0.19067,0.11039 -0.311093,0.32113 -0.160564,0.27095 -0.160564,0.66232 v 3.16111 q 0,0.40141 0.160564,0.67236 0.120423,0.21074 0.311093,0.32113 0.19067,0.11039 0.451587,0.11039 0.230811,0 0.40141,-0.10035 0.180635,-0.10036 0.301058,-0.30106 0.160564,-0.28099 0.160564,-0.70247 v -0.91321 h -0.852997 v -1.08381 h 2.057228 v 1.99702 q 0,0.73257 -0.301057,1.24437 -0.250882,0.43152 -0.672363,0.6824 -0.451586,0.26092 -1.093843,0.26092 -0.672362,0 -1.14402,-0.28099 -0.441551,-0.25088 -0.692433,-0.6824 -0.291022,-0.5118 -0.291022,-1.2243 z"
           style="fill:#888a85;fill-opacity:1;stroke-width:0.25088146px"
           id="path2447"
           inkscape:connector-curvature="0" />
        <path
           d="m 24.779648,750.95651 1.525359,-1.16409 h 1.204231 v 7.37591 h -1.204231 v -5.96094 l -0.802821,0.61215 z"
           style="fill:#888a85;fill-opacity:1;stroke-width:0.25088146px"
           id="path2449"
           inkscape:connector-curvature="0" />
        <path
           d="m 29.486184,752.37148 v -0.3713 q 0,-0.77272 0.311093,-1.31462 0.260917,-0.45159 0.702468,-0.70247 0.471658,-0.27095 1.113914,-0.27095 0.622186,0 1.083808,0.26091 0.451587,0.26092 0.712504,0.73258 0.351234,0.60211 0.351234,1.47518 v 2.40846 q 0,0.98346 -0.38134,1.63575 -0.291023,0.49173 -0.742609,0.76268 -0.451587,0.26092 -1.063738,0.26092 -0.602115,0 -1.053702,-0.26092 -0.461622,-0.26092 -0.752645,-0.76268 -0.160564,-0.28099 -0.250881,-0.61215 l 1.093843,-0.46162 q 0.06021,0.30106 0.19067,0.53187 0.150529,0.26091 0.361269,0.38134 0.180635,0.10035 0.411446,0.10035 0.220776,0 0.391375,-0.10035 0.200705,-0.12043 0.351234,-0.36127 0.240847,-0.42148 0.240847,-1.11392 v -0.32112 q -0.130459,0.13045 -0.291023,0.23081 -0.280987,0.16056 -0.692433,0.16056 -0.602115,0 -1.073773,-0.28099 -0.441551,-0.25088 -0.702468,-0.70247 -0.311093,-0.5419 -0.311093,-1.30458 z m 1.204231,0 q 0,0.47166 0.180635,0.77272 0.120423,0.21074 0.311093,0.32112 0.180635,0.10036 0.421481,0.11039 0.250881,0 0.451587,-0.11039 0.200705,-0.12042 0.331163,-0.34119 0.1706,-0.30106 0.1706,-0.75265 v -0.19067 q 0,-0.58204 -0.210741,-0.94331 -0.130458,-0.23081 -0.331163,-0.3412 -0.1706,-0.10035 -0.401411,-0.10035 -0.240846,0 -0.421481,0.11038 -0.200705,0.11039 -0.321128,0.33117 -0.180635,0.30105 -0.180635,0.76268 z"
           style="fill:#888a85;fill-opacity:1;stroke-width:0.25088146px"
           id="path2451"
           inkscape:connector-curvature="0" />
      </g>
      <rect
         style="opacity:1;fill:none;fill-opacity:1;fill-rule:nonzero;stroke:none;stroke-width:5;stroke-linecap:square;stroke-linejoin:miter;stroke-miterlimit:4;stroke-dasharray:none;stroke-dashoffset:9.99999905;stroke-opacity:1;paint-order:normal;text-align:end"
         id="button18-leader"
         width="1"
         height="1"
         x="16.57572"
         y="359.82849" />
    </g>
    <g
       id="button19-path">
      <g
         id="g2221">
        <path
           inkscape:connector-curvature="0"
           style="fill:none;stroke:#888a85;stroke-width:1;stroke-linecap:round;stroke-miterlimit:4;stroke-dasharray:none;stroke-opacity:1"
           d="m 203.49457,250.56935 v 0 L 69.400762,384.66322 H 16.575719"
           id="path2145" />
        <rect
           style="display:inline;opacity:1;fill:#2e3436;fill-opacity:1;fill-rule:nonzero;stroke:none;stroke-width:1;stroke-linecap:square;stroke-linejoin:miter;stroke-miterlimit:4;stroke-dasharray:none;stroke-dashoffset:9.99999905;stroke-opacity:1;paint-order:normal"
           id="rect2217"
           width="7.2257466"
           height="7.2257476"
           x="200.32895"
           y="246.28474" />
      </g>
      <g
         aria-label="G20"
         transform="translate(0,-399.99999)"
         style="font-style:normal;font-variant:normal;font-weight:bold;font-stretch:normal;font-size:10.03525925px;line-height:6.27203655px;font-family:'Iosevka Nerd Font';-inkscape-font-specification:'Iosevka Nerd Font, Bold';font-variant-ligatures:normal;font-variant-caps:normal;font-variant-numeric:normal;font-feature-settings:normal;text-align:start;letter-spacing:0px;word-spacing:0px;writing-mode:lr-tb;text-anchor:start;display:inline;fill:#888a85;fill-opacity:1;stroke:none;stroke-width:0.25088146px;stroke-linecap:butt;stroke-linejoin:miter;stroke-opacity:1"
         id="text2097">
        <path
           d="m 19.450925,780.89565 v -3.16111 q 0,-0.7125 0.291022,-1.2243 0.250882,-0.43152 0.692433,-0.6824 0.481693,-0.28099 1.16409,-0.28099 0.682398,0 1.164091,0.28099 0.431516,0.25088 0.692432,0.69243 0.180635,0.3111 0.240847,0.66233 l -1.16409,0.27095 q -0.03011,-0.21074 -0.130459,-0.38134 -0.120423,-0.21074 -0.321128,-0.32112 -0.200705,-0.12043 -0.481693,-0.12043 -0.270952,0 -0.471657,0.12043 -0.19067,0.11038 -0.311093,0.32112 -0.160564,0.27096 -0.160564,0.66233 v 3.16111 q 0,0.40141 0.160564,0.67236 0.120423,0.21074 0.311093,0.32113 0.19067,0.11039 0.451587,0.11039 0.230811,0 0.40141,-0.10036 0.180635,-0.10035 0.301058,-0.30105 0.160564,-0.28099 0.160564,-0.70247 v -0.91321 h -0.852997 v -1.08381 h 2.057228 v 1.99702 q 0,0.73257 -0.301057,1.24437 -0.250882,0.43152 -0.672363,0.6824 -0.451586,0.26091 -1.093843,0.26091 -0.672362,0 -1.14402,-0.28098 -0.441551,-0.25088 -0.692433,-0.6824 -0.291022,-0.5118 -0.291022,-1.2243 z"
           style="fill:#888a85;fill-opacity:1;stroke-width:0.25088146px"
           id="path2454"
           inkscape:connector-curvature="0" />
        <path
           d="m 24.49866,777.1826 q 0.06021,-0.36127 0.240847,-0.67236 0.250881,-0.43152 0.682397,-0.6824 0.481693,-0.28099 1.154055,-0.28099 0.672362,0 1.154055,0.28099 0.431516,0.25088 0.682397,0.6824 0.291023,0.50176 0.291023,1.10388 0,0.59208 -0.331164,1.16409 -0.280987,0.49173 -1.113913,1.21426 -0.832927,0.72254 -1.133985,1.23434 -0.170599,0.29102 -0.260916,0.69243 h 2.799837 v 1.08381 h -4.114456 v -0.01 q 0,-1.42501 0.451586,-2.20776 0.341199,-0.59208 1.274478,-1.35476 0.76268,-0.63222 1.003526,-1.04367 0.220776,-0.39137 0.220776,-0.77271 0,-0.3111 -0.140494,-0.56198 -0.110388,-0.2007 -0.301058,-0.30105 -0.200705,-0.12043 -0.481692,-0.12043 -0.270952,0 -0.461622,0.11039 -0.19067,0.11039 -0.311093,0.32113 -0.100353,0.1706 -0.130458,0.38134 z"
           style="fill:#888a85;fill-opacity:1;stroke-width:0.25088146px"
           id="path2456"
           inkscape:connector-curvature="0" />
        <path
           d="m 29.486184,780.79529 v -2.9604 c 0,-0.51514 0.103698,-0.95335 0.311093,-1.31462 0.173945,-0.30105 0.408101,-0.53521 0.702468,-0.70246 0.314439,-0.18064 0.689088,-0.27096 1.123949,-0.27096 0.434861,0 0.809511,0.0903 1.123949,0.27096 0.294368,0.16725 0.528524,0.40141 0.702469,0.70246 0.207395,0.36127 0.311093,0.79948 0.311093,1.31462 v 2.9604 c 0,0.51515 -0.103698,0.95335 -0.311093,1.31462 -0.173945,0.30106 -0.408101,0.53522 -0.702469,0.70247 -0.314438,0.18063 -0.689088,0.27095 -1.123949,0.27095 -0.434861,0 -0.80951,-0.0903 -1.123949,-0.27095 -0.294367,-0.16725 -0.528523,-0.40141 -0.702468,-0.70247 -0.207395,-0.36127 -0.311093,-0.79947 -0.311093,-1.31462 z m 3.020613,-3.40195 c -0.02676,-0.12042 -0.0669,-0.22746 -0.120423,-0.32113 -0.08697,-0.14718 -0.19736,-0.25757 -0.331163,-0.33116 -0.120423,-0.0736 -0.264262,-0.11039 -0.431517,-0.11039 -0.167254,0 -0.311093,0.0368 -0.431516,0.11039 -0.133803,0.0736 -0.244191,0.18398 -0.331163,0.33116 -0.113733,0.20071 -0.1706,0.45493 -0.1706,0.76268 v 1.94684 l 0.05018,1.45512 c 0.02676,0.12042 0.0669,0.22746 0.120423,0.32112 0.08697,0.14719 0.19736,0.25758 0.331163,0.33117 0.127113,0.0736 0.270952,0.11039 0.431516,0.11039 0.167255,0 0.311094,-0.0368 0.431517,-0.11039 0.133803,-0.0736 0.244191,-0.18398 0.331163,-0.33117 0.113733,-0.2007 0.1706,-0.45493 0.1706,-0.76268 v -1.94684 z"
           style="fill:#888a85;fill-opacity:1;stroke-width:0.25088146px"
           id="path2458"
           inkscape:connector-curvature="0"
           sodipodi:nodetypes="ssccsccssccsccscccsccsccccsccscc" />
      </g>
      <rect
         style="opacity:1;fill:none;fill-opacity:1;fill-rule:nonzero;stroke:none;stroke-width:5;stroke-linecap:square;stroke-linejoin:miter;stroke-miterlimit:4;stroke-dasharray:none;stroke-dashoffset:9.99999905;stroke-opacity:1;paint-order:normal;text-align:end"
         id="button19-leader"
         width="1"
         height="1"
         x="16.57572"
         y="385.66321" />
    </g>
  </g>
  <g
     inkscape:groupmode="layer"
     id="LEDs"
     inkscape:label="LEDs"
     style="display:inline"
     transform="translate(-16.168953,-1.1133461)"
     sodipodi:insensitive="true">
    <g
       id="led0-path"
       transform="translate(-16.572815,-1.8585309)">
      <path
         transform="translate(0,-400)"
         inkscape:connector-curvature="0"
         id="path1140"
         d="M 500.57282,613.49136 H 229.04915"
         style="display:inline;fill:none;fill-rule:evenodd;stroke:#888a85;stroke-width:1;stroke-linecap:butt;stroke-linejoin:miter;stroke-miterlimit:4;stroke-dasharray:none;stroke-opacity:1"
         sodipodi:nodetypes="cc" />
      <rect
         style="opacity:1;fill:#2e3436;fill-opacity:1;fill-rule:nonzero;stroke:none;stroke-width:1;stroke-linecap:square;stroke-linejoin:miter;stroke-miterlimit:4;stroke-dasharray:none;stroke-dashoffset:9.99999905;stroke-opacity:1;paint-order:normal"
         id="rect1145"
         width="7.2257466"
         height="7.2257476"
         x="225.54915"
         y="209.87848" />
    </g>
    <rect
       style="opacity:1;text-align:start;fill:none;fill-opacity:1;fill-rule:nonzero;stroke:none;stroke-width:5;stroke-linecap:square;stroke-linejoin:miter;stroke-miterlimit:4;stroke-dasharray:none;stroke-dashoffset:9.99999905;stroke-opacity:1;paint-order:normal"
       id="led0-leader"
       width="1"
       height="1"
       x="482.99994"
       y="210.63329" />
  </g>
</svg>
