<?xml version="1.0" encoding="UTF-8" standalone="no"?>
<!-- Created with Inkscape (http://www.inkscape.org/) -->

<svg
   xmlns:dc="http://purl.org/dc/elements/1.1/"
   xmlns:cc="http://creativecommons.org/ns#"
   xmlns:rdf="http://www.w3.org/1999/02/22-rdf-syntax-ns#"
   xmlns:svg="http://www.w3.org/2000/svg"
   xmlns="http://www.w3.org/2000/svg"
   xmlns:sodipodi="http://sodipodi.sourceforge.net/DTD/sodipodi-0.dtd"
   xmlns:inkscape="http://www.inkscape.org/namespaces/inkscape"
   width="467.83105"
   height="400.87393"
   viewBox="0 0 467.83105 400.87393"
   version="1.1"
   id="svg8"
   inkscape:version="0.92.2 2405546, 2018-03-11"
   sodipodi:docname="logitech-g600.svg"
   inkscape:export-filename="/home/gandalf3/Pictures/Vectors/gnome/logitech-g600.png"
   inkscape:export-xdpi="90"
   inkscape:export-ydpi="90">
  <defs
     id="defs2">
    <inkscape:path-effect
       effect="mirror_symmetry"
       start_point="-32.949221,642.84217"
       end_point="-32.949221,665.58085"
       center_point="-32.949221,654.21151"
       id="path-effect2141"
       is_visible="true"
       mode="free"
       discard_orig_path="false"
       fuse_paths="true"
       oposite_fuse="true" />
    <inkscape:path-effect
       effect="mirror_symmetry"
       start_point="162.36328,617.41819"
       end_point="162.36328,637.35007"
       center_point="162.36328,627.38413"
       id="path-effect2139"
       is_visible="true"
       mode="free"
       discard_orig_path="false"
       fuse_paths="true"
       oposite_fuse="true" />
    <inkscape:path-effect
       effect="mirror_symmetry"
       start_point="162.25916,592.64387"
       end_point="162.4674,612.52243"
       center_point="162.36328,602.58315"
       id="path-effect2133"
       is_visible="true"
       mode="free"
       discard_orig_path="false"
       fuse_paths="true"
       oposite_fuse="true" />
    <inkscape:path-effect
       effect="mirror_symmetry"
       start_point="162.23558,562.66726"
       end_point="162.49098,587.0472"
       center_point="162.36328,574.85723"
       id="path-effect2131"
       is_visible="true"
       mode="free"
       discard_orig_path="false"
       fuse_paths="true"
       oposite_fuse="true" />
    <inkscape:path-effect
       oposite_fuse="true"
       fuse_paths="true"
       discard_orig_path="false"
       mode="free"
       is_visible="true"
       id="path-effect2141-7"
       center_point="135.18361,672.00639"
       end_point="135.18361,688.50517"
       start_point="135.18361,655.50761"
       effect="mirror_symmetry" />
    <inkscape:path-effect
       oposite_fuse="true"
       fuse_paths="true"
       discard_orig_path="false"
       mode="free"
       is_visible="true"
       id="path-effect2139-5"
       center_point="162.36328,627.38413"
       end_point="162.36328,637.35007"
       start_point="162.36328,617.41819"
       effect="mirror_symmetry" />
    <inkscape:path-effect
       oposite_fuse="true"
       fuse_paths="true"
       discard_orig_path="false"
       mode="free"
       is_visible="true"
       id="path-effect2133-3"
       center_point="162.36328,602.58315"
       end_point="162.4674,612.52243"
       start_point="162.25916,592.64387"
       effect="mirror_symmetry" />
    <inkscape:path-effect
       oposite_fuse="true"
       fuse_paths="true"
       discard_orig_path="false"
       mode="free"
       is_visible="true"
       id="path-effect2131-5"
       center_point="162.36328,574.85723"
       end_point="162.49098,587.0472"
       start_point="162.23558,562.66726"
       effect="mirror_symmetry" />
  </defs>
  <sodipodi:namedview
     id="base"
     pagecolor="#ffffff"
     bordercolor="#666666"
     borderopacity="1.0"
     inkscape:pageopacity="0.0"
     inkscape:pageshadow="2"
     inkscape:zoom="3.1003913"
     inkscape:cx="128.19759"
     inkscape:cy="210.15126"
     inkscape:document-units="px"
     inkscape:current-layer="LEDs"
     inkscape:document-rotation="0"
     showgrid="false"
     units="px"
     borderlayer="true"
     inkscape:showpageshadow="false"
     inkscape:pagecheckerboard="false"
     showguides="false"
     inkscape:window-width="1920"
     inkscape:window-height="1080"
     inkscape:window-x="1920"
     inkscape:window-y="0"
     inkscape:window-maximized="0"
     inkscape:snap-global="true"
     inkscape:guide-bbox="true"
     fit-margin-top="20"
     fit-margin-bottom="20"
     fit-margin-left="0"
     fit-margin-right="0"
     inkscape:snap-nodes="true"
     inkscape:snap-to-guides="true"
     inkscape:snap-others="false"
     inkscape:object-paths="true"
     inkscape:snap-bbox="true"
     inkscape:bbox-paths="false"
     inkscape:bbox-nodes="false"
     inkscape:snap-bbox-edge-midpoints="false"
     inkscape:snap-bbox-midpoints="true"
     inkscape:snap-intersection-paths="true"
     inkscape:snap-midpoints="false"
     inkscape:snap-center="true"
     inkscape:snap-text-baseline="true"
     inkscape:snap-object-midpoints="true"
     inkscape:snap-page="true"
     inkscape:object-nodes="true"
     inkscape:snap-smooth-nodes="false">
    <inkscape:grid
       type="xygrid"
       id="grid956"
       originx="-16.168953"
       originy="1.9872821" />
    <sodipodi:guide
       position="384.37499,269.33811"
       orientation="0,1"
       id="guide1063"
       inkscape:locked="false" />
    <sodipodi:guide
       position="415.42968,285.42013"
       orientation="1,0"
       id="guide1065"
       inkscape:locked="false" />
    <sodipodi:guide
       position="364.87814,257.98348"
       orientation="0,1"
       id="guide1067"
       inkscape:locked="false" />
    <sodipodi:guide
       position="288.64319,257.98348"
       orientation="-0.70710678,-0.70710678"
       id="guide1069"
       inkscape:locked="false" />
    <sodipodi:guide
       position="290.80674,285.21409"
       orientation="1,0"
       id="guide1071"
       inkscape:locked="false" />
    <sodipodi:guide
       position="427.3024,188.37766"
       orientation="1,0"
       id="guide1077"
       inkscape:locked="false" />
    <sodipodi:guide
       position="290.70103,242.42289"
       orientation="0,1"
       id="guide1079"
       inkscape:locked="false" />
    <sodipodi:guide
       position="150.56881,253.87108"
       orientation="1,0"
       id="guide1083"
       inkscape:locked="false" />
    <sodipodi:guide
       position="87.315913,253.87108"
       orientation="1,0"
       id="guide1085"
       inkscape:locked="false" />
    <sodipodi:guide
       position="52.825143,363.33747"
       orientation="1,0"
       id="guide1087"
       inkscape:locked="false" />
    <sodipodi:guide
       position="119.01466,260.61287"
       orientation="1,0"
       id="guide1089"
       inkscape:locked="false" />
    <sodipodi:guide
       position="12.5,290.5"
       orientation="1,0"
       id="guide1101"
       inkscape:locked="false" />
    <sodipodi:guide
       position="137.09033,224.59479"
       orientation="0,1"
       id="guide1109"
       inkscape:locked="false" />
    <sodipodi:guide
       position="71.359374,152.375"
       orientation="0,1"
       id="guide1111"
       inkscape:locked="false" />
  </sodipodi:namedview>
  <metadata
     id="metadata5">
    <rdf:RDF>
      <cc:Work
         rdf:about="">
        <dc:format>image/svg+xml</dc:format>
        <dc:type
           rdf:resource="http://purl.org/dc/dcmitype/StillImage" />
        <dc:title />
      </cc:Work>
    </rdf:RDF>
  </metadata>
  <g
     inkscape:groupmode="layer"
     id="Device"
     inkscape:label="Device"
     transform="translate(-16.168953,-401.11334)"
     style="display:inline"
     sodipodi:insensitive="true">
    <path
       style="fill:#d3d3ce;fill-opacity:0.96808543;fill-rule:evenodd;stroke:#babdb6;stroke-width:3.00094485;stroke-linecap:butt;stroke-linejoin:miter;stroke-miterlimit:4;stroke-dasharray:none;stroke-opacity:1"
       d="m 373.4187,476.07566 c 3.02297,2.70603 5.6584,10.20454 12.125,16.78661 7.67562,7.81268 15.79723,11.4209 17.25,14.5 1.45277,3.0791 4.3436,13.30151 6.08201,23.63224 2.08088,12.36588 3.91014,33.37614 3.16799,50.36776 -0.74215,16.99162 -4.92696,41.17485 -7.82549,53.25984 -2.89854,12.085 -8.94197,37.46413 -15.18815,56.6472 -11.39282,34.98926 -15.98921,41.84599 -18.48636,44.65546 -8.98794,10.11206 -28.22253,19.14144 -44.75,24.3125 -16.52747,5.17106 -42.91421,10.08579 -52.16421,3.83579 -9.25,-6.25 -21.76463,-18.87042 -35.87348,-43.80026 -8.81835,-15.58171 -16.07719,-30.35613 -17.6302,-37.02772 -0.18177,-0.78086 -1.49089,-8.31458 -2.2757,-17.52792 -0.78481,-9.21335 -0.38228,-34.00819 -0.92621,-52.2258 -0.54593,-18.2846 -2.80242,-56.6523 1.63404,-65.1745 0,0 -2.2169,-7.85094 -1.86335,-12.62391 0.13258,-2.20971 0.95227,-8.55534 4.93612,-26.56824 2.86224,-12.94153 8.06806,-29.82835 9.91299,-32.63747 4.02438,-6.12757 24.91051,-8.21668 38.875,-12.75 8.4338,-2.73788 27.97597,-8.87889 31.21729,-9.7474 2.86151,-0.76674 7.46115,-0.82707 10.06673,0.0719 3.17217,1.09445 20.20745,7.47311 29.51777,10.80936 9.16905,3.28563 27.78726,8.46404 27.78726,8.46404 l 0.086,7.00877 4.33969,0.3933 z"
       id="path4776"
       inkscape:connector-curvature="0"
       sodipodi:nodetypes="cszszzsszssscsccsssssscccc" />
    <path
       style="fill:#eeeeec;fill-opacity:1;fill-rule:evenodd;stroke:#babdb6;stroke-width:2;stroke-linecap:butt;stroke-linejoin:miter;stroke-miterlimit:4;stroke-dasharray:none;stroke-opacity:0.95744683"
       d="m 362.80471,657.82916 -3.41697,-0.38193 c 0,0 8.48946,-61.89132 10.13089,-93.04711 1.59315,-30.23938 -0.61042,-64.68009 -0.28888,-90.84348 0,0 -18.83877,-5.39992 -28.00782,-8.68555 -9.31074,-3.33623 -29.51974,-10.84765 -29.51974,-10.84765 h -2.65429 v 36.29687 c 6.01123,1.61071 10.35351,5.08295 10.35351,12.60352 l -0.0879,25.875 c 0,7.72285 -5.57149,10.39065 -10.26562,11.64844 v 8.63597 c 11.09371,0 11.13526,2.31927 11.13526,8.32968 v 30.90854 c 0,6.37637 -4.59396,8.07114 -11.13526,8.07114 v 16.62107 H 304.7139 V 596.3926 c -6.54611,0 -11.59712,-1.08449 -11.59712,-8.07114 v -30.90854 c 0,-6.19186 0.61782,-8.32968 11.59712,-8.32968 v -8.63597 c -4.98633,-1.61457 -9.62702,-3.28799 -9.97265,-11.64844 l -0.17579,-25.875 c 0.14132,-7.63929 4.65137,-11.13058 10.14844,-12.60352 v -36.29687 h -3.07811 c 0,0 -22.783,6.97501 -31.2168,9.71289 -13.96449,4.53332 -34.85062,6.62243 -38.875,12.75 -1.84493,2.80912 -7.04987,19.69714 -9.91211,32.63867 -3.98385,18.0129 -4.80492,24.35865 -4.9375,26.56836 -1.70941,12.19785 4.61002,20.46944 6.11854,30.13476 0.77914,5.15941 1.58279,17.99189 1.93164,29.67579 0.24832,8.31696 0.0663,42.58411 -0.61328,55.60351 -0.77777,16.45063 -5.54792,27.85559 0.30724,42.32422 0.91969,2.10178 4.50001,11.26009 13.31836,26.8418 14.10885,24.92984 26.62305,37.54883 35.87305,43.79883 9.25,6.25 35.63659,1.33512 52.16406,-3.83594 16.52747,-5.17106 35.76206,-14.20044 44.75,-24.3125 2.49715,-2.80947 7.09351,-9.66504 18.48633,-44.6543 6.24618,-19.18307 12.28896,-44.56148 15.1875,-56.64648 2.89853,-12.08499 7.08402,-36.2701 7.82617,-53.26172 0.74215,-16.99162 -1.08709,-38.00131 -3.16797,-50.36719 -1.73841,-10.33073 -4.62926,-20.55371 -6.08203,-23.63281 -1.45277,-3.0791 -9.57438,-6.68732 -17.25,-14.5 -6.4666,-6.58207 -7.72703,-11.95413 -12.5,-16.28516 0.15263,30.33982 1.29199,58.44309 -0.255,87.8223 -2.07414,31.07314 -5.94662,62.55655 -9.98428,93.43069 z"
       id="path4823"
       inkscape:connector-curvature="0"
       sodipodi:nodetypes="ccaccccccccccccccccccccccccscsccsccssssssssssccc" />
    <path
       style="opacity:1;fill:#eeeeec;fill-opacity:1;fill-rule:nonzero;stroke:none;stroke-width:5;stroke-linecap:square;stroke-linejoin:miter;stroke-miterlimit:4;stroke-dasharray:none;stroke-dashoffset:9.99999905;stroke-opacity:1;paint-order:normal"
       d="m 310.04786,455.0235 v 34.61523 c 2.79993,0.846 5.32775,2.0788 7.16797,4.0918 2.01094,2.19978 3.18554,5.24061 3.18554,9.19336 v 0.002 l -0.0879,25.87305 v 0.004 c -10e-4,4.09973 -1.54019,7.03111 -3.70312,8.98633 -1.94955,1.76233 -4.33456,2.70749 -6.5625,3.36328 v 7 c 4.84117,0.0729 7.77689,0.55548 9.41601,2.11719 0.88621,0.84435 1.32712,1.95378 1.52539,3.14258 0.19836,1.1888 0.19336,2.49624 0.19336,4 v 30.91015 c 0,0.99455 -0.12386,1.89776 -0.33984,2.72657 h 45.49414 c 0.98282,-9.82875 1.78529,-19.17808 2.18164,-26.70117 1.57411,-29.87793 -0.5598,-63.90231 -0.28516,-90.04102 -1.20742,-0.3466 -18.41399,-5.29215 -27.34961,-8.49414 -9.27321,-3.32278 -29.13115,-10.70346 -29.36132,-10.78906 z"
       id="button1"
       inkscape:connector-curvature="0" />
    <path
       style="opacity:1;fill:#eeeeec;fill-opacity:1;fill-rule:nonzero;stroke:none;stroke-width:5;stroke-linecap:square;stroke-linejoin:miter;stroke-miterlimit:4;stroke-dasharray:none;stroke-dashoffset:9.99999905;stroke-opacity:1;paint-order:normal"
       d="m 374.0752,479.25396 c 0.20274,29.27316 1.21406,56.65111 -0.28906,85.19727 v 0.008 0.006 c -1.13665,17.02839 -2.82145,34.17251 -4.76758,51.26953 l 31.43945,30.1875 c 1.09941,-4.48701 2.04761,-8.44799 2.78711,-11.53125 2.87888,-12.00305 7.06203,-36.20306 7.79883,-53.07226 0.73746,-16.88415 -1.08826,-37.88054 -3.1543,-50.1582 -0.8631,-5.12915 -2.015,-10.24244 -3.1289,-14.44532 -1.1139,-4.20287 -2.21968,-7.54294 -2.87305,-8.92773 -0.48385,-1.0255 -2.79121,-2.81946 -5.9668,-5.08594 -3.1756,-2.26648 -7.18435,-5.16145 -11.09179,-9.13867 -5.64956,-5.75043 -7.52696,-10.47257 -10.75391,-14.30859 z"
       id="button5"
       inkscape:connector-curvature="0" />
    <path
       style="opacity:1;fill:#eeeeec;fill-opacity:1;fill-rule:nonzero;stroke:none;stroke-width:5;stroke-linecap:square;stroke-linejoin:miter;stroke-miterlimit:4;stroke-dasharray:none;stroke-dashoffset:9.99999905;stroke-opacity:1;paint-order:normal"
       d="m 301.78809,455.0235 c -0.2041,0.0625 -22.69138,6.94779 -31.05859,9.66406 -7.0786,2.29794 -15.80567,3.95226 -23.23438,5.79687 -3.71436,0.9223 -7.10255,1.89212 -9.76172,2.98633 -2.65917,1.09421 -4.55098,2.34251 -5.35351,3.56445 -0.32729,0.49833 -1.03707,2.10181 -1.82032,4.25782 -0.78323,2.15601 -1.69172,4.92266 -2.63281,8.00586 -1.88217,6.16639 -3.89503,13.60744 -5.31836,20.04297 -3.97941,17.99283 -4.78941,24.33452 -4.91406,26.4121 l -0.004,0.0391 -0.006,0.0391 c -1.65377,11.80086 4.55451,19.84194 6.11524,29.8418 v 0.002 0.004 c 0.70045,4.6383 1.37647,15.00633 1.77344,25.36914 h 66.86132 c -0.20242,-0.82316 -0.31835,-1.72663 -0.31835,-2.72657 v -30.91015 c 0,-1.5646 0.0298,-2.91299 0.28906,-4.12305 0.25923,-1.21006 0.79041,-2.30911 1.74023,-3.12305 1.75691,-1.50557 4.76419,-1.95047 9.56836,-2.01757 v -7.00391 c -2.27566,-0.74891 -4.55999,-1.57421 -6.40039,-3.25195 -2.02877,-1.84947 -3.39193,-4.69071 -3.57226,-9.05274 v -0.0176 l -0.17774,-25.90429 0.002,-0.0117 c 0.0742,-4.01352 1.3266,-7.07402 3.32618,-9.26953 1.81952,-1.99781 4.24144,-3.20154 6.82226,-3.99414 V 455.0235 h -1.92383 z"
       id="button0"
       inkscape:connector-curvature="0" />
    <rect
       inkscape:label="#rect932"
       ry="9.3904476"
       rx="9.3904476"
       y="493.13071"
       x="297.58524"
       height="44.649994"
       width="18.780895"
       id="button2"
       style="color:#000000;overflow:visible;opacity:1;vector-effect:none;fill:#ffffff;fill-opacity:1;stroke:#babdb6;stroke-width:0.95555294;stroke-linecap:butt;stroke-linejoin:bevel;stroke-miterlimit:4;stroke-dasharray:none;stroke-dashoffset:0;stroke-opacity:1;marker:none;marker-start:none;marker-mid:none;marker-end:none;paint-order:normal" />
    <path
       style="fill:#ffffff;fill-opacity:1;fill-rule:evenodd;stroke:#babdb6;stroke-width:1.00157475;stroke-linecap:butt;stroke-linejoin:miter;stroke-miterlimit:4;stroke-dasharray:none;stroke-opacity:1"
       d="m 317.54607,570.04977 v -14.86768 c 0,-3.32226 -2.53923,-3.17407 -10.93958,-3.17407 -8.40035,0 -10.75737,-0.17634 -10.75737,3.17407 v 14.99268 c 0,0.8228 0.29258,1.29021 0.94502,1.28789 l 19.59359,-0.0698 c 0.59119,-0.002 1.15834,-0.75189 1.15834,-1.34309 z"
       id="button7"
       inkscape:connector-curvature="0"
       sodipodi:nodetypes="sszsssss" />
    <path
       style="fill:#ffffff;fill-opacity:1;fill-rule:evenodd;stroke:#babdb6;stroke-width:1.00157475;stroke-linecap:butt;stroke-linejoin:miter;stroke-miterlimit:4;stroke-dasharray:none;stroke-opacity:1"
       d="m 296.79395,573.25201 c -0.65244,0 -0.94531,0.46626 -0.94531,1.28906 v 13.6836 c 0.125,3.125 1.04518,4.18009 3.82812,4.92578 1.12947,0.30264 3.08418,0.75 6.92969,0.75 3.81789,0 6.10173,-0.5475 7.0957,-0.8125 2.12312,-0.56604 3.84375,-1.86328 3.84375,-4.48828 v -13.9336 c 0,-1.00605 -0.19935,-1.34375 -1.1582,-1.34375 z"
       id="button6"
       inkscape:connector-curvature="0" />
    <g
       id="button6_display"
       transform="translate(9.375)">
      <path
         style="fill:#ffffff;fill-opacity:1;fill-rule:evenodd;stroke:#babdb6;stroke-width:1.00157475;stroke-linecap:butt;stroke-linejoin:miter;stroke-miterlimit:4;stroke-dasharray:none;stroke-opacity:1"
         d="m 308.17107,574.66517 v 13.93462 c 0,2.625 -1.72177,3.92183 -3.84489,4.48787 -0.99397,0.265 -3.2768,0.8125 -7.09469,0.8125 -3.84551,0 -5.80056,-0.44736 -6.93003,-0.75 -2.78294,-0.74569 -3.70234,-1.80037 -3.82734,-4.92537 v -13.68462 c 0,-0.8228 0.29258,-1.28789 0.94502,-1.28789 l 19.59359,0.0698 c 0.95885,0 1.15834,0.33708 1.15834,1.34313 z"
         id="path881"
         inkscape:connector-curvature="0"
         sodipodi:nodetypes="ccsssccccc" />
      <path
         sodipodi:nodetypes="ccssscccccc"
         inkscape:connector-curvature="0"
         id="path887"
         d="m 305.94925,578.41236 v 11.44465 c 0,1.89399 -1.36914,2.82964 -3.05745,3.23806 -0.79039,0.19121 -2.6057,0.58622 -5.64165,0.58622 -3.05794,0 -4.61258,-0.32275 -5.51073,-0.54111 -2.21298,-0.53804 -2.94407,-1.299 -3.04348,-3.55374 v -11.26427 c 0,-0.59365 0.23266,-0.92923 0.75146,-0.92923 l 15.58075,0.0504 c 0.76248,0 0.9211,0.24322 0.9211,0.96912 z"
         style="fill:#ffffff;fill-opacity:0.96808543;fill-rule:evenodd;stroke:#babdb6;stroke-width:1.07756317;stroke-linecap:butt;stroke-linejoin:miter;stroke-miterlimit:4;stroke-dasharray:none;stroke-opacity:1" />
    </g>
    <path
       style="fill:#ffffff;fill-opacity:0.95744683;fill-rule:evenodd;stroke:#babdb6;stroke-width:1px;stroke-linecap:butt;stroke-linejoin:miter;stroke-opacity:1"
       d="m 209.62423,568.36356 4.38194,16.06189 c 0.13731,0.50331 0.96886,1.08051 1.80175,1.07101 l 4.97687,-0.0568 c 0,-4.59959 -0.79551,-19.47653 -1.85616,-21.33269 l -7.80182,0.91593 c -1.68398,0.69611 -1.84744,2.07658 -1.50258,3.34066 z"
       id="path1034"
       inkscape:connector-curvature="0"
       sodipodi:nodetypes="ssscccs" />
    <path
       sodipodi:nodetypes="ssscccs"
       inkscape:connector-curvature="0"
       id="path1040"
       d="m 211.08263,606.38285 2.92354,-16.06189 c 0.0934,-0.51328 0.96886,-1.08051 1.80175,-1.07101 l 4.97687,0.0568 v 21.86302 l -8.19958,-1.44626 c -1.68398,-0.69611 -1.73721,-2.05156 -1.50258,-3.34066 z"
       style="fill:#ffffff;fill-opacity:0.95744683;fill-rule:evenodd;stroke:#babdb6;stroke-width:1px;stroke-linecap:butt;stroke-linejoin:miter;stroke-opacity:1" />
    <path
       style="fill:#ffffff;fill-opacity:0.95744683;fill-rule:evenodd;stroke:#babdb6;stroke-width:1px;stroke-linecap:butt;stroke-linejoin:miter;stroke-opacity:1"
       d="m 211.03844,619.90775 2.96773,16.06189 c 0.0948,0.51302 0.96886,1.08051 1.80175,1.07101 l 4.97687,-0.0568 v -21.86302 l -8.24377,1.44626 c -1.68398,0.69611 -1.74064,2.05219 -1.50258,3.34066 z"
       id="path1046"
       inkscape:connector-curvature="0"
       sodipodi:nodetypes="ssscccs" />
    <path
       sodipodi:nodetypes="csscccsc"
       inkscape:connector-curvature="0"
       id="path1052"
       d="m 209.62423,657.92703 4.38194,-16.06189 c 0.13731,-0.50331 0.96886,-1.08051 1.80175,-1.07101 l 4.97687,0.0568 c 0,12.5754 -1.75,21.07013 -1.75,21.07013 l -7.90798,-0.65341 c -1.68398,-0.69611 -1.84744,-2.07658 -1.50258,-3.34066 z"
       style="fill:#ffffff;fill-opacity:0.95744683;fill-rule:evenodd;stroke:#babdb6;stroke-width:1px;stroke-linecap:butt;stroke-linejoin:miter;stroke-opacity:1" />
    <path
       style="fill:#ffffff;fill-opacity:1;fill-rule:evenodd;stroke:#babdb6;stroke-width:0.91063297;stroke-linecap:butt;stroke-linejoin:miter;stroke-miterlimit:4;stroke-dasharray:none;stroke-opacity:1"
       d="m 115.88754,540.26219 c -4.80719,0.51565 -14.31496,3.6734 -21.42959,10.8135 -7.11462,7.1401 -10.45897,19.07742 -10.49068,20.94911 -0.0315,1.87171 1.62169,2.54594 3.50717,2.58156 l 27.61447,0.25899 c 1.56447,0.0296 2.10245,-0.63388 2.19024,-1.55013 l 2.05208,-31.1727 c 0.13612,-1.96151 -1.65745,-2.07195 -3.44369,-1.88033 z"
       id="button8"
       inkscape:connector-curvature="0" />
    <path
       style="fill:#ffffff;fill-opacity:1;fill-rule:evenodd;stroke:#babdb6;stroke-width:0.91063297;stroke-linecap:butt;stroke-linejoin:miter;stroke-miterlimit:4;stroke-dasharray:none;stroke-opacity:1"
       d="m 135.18361,575.03681 13.9245,-0.0548 c 0.95181,-0.006 1.91769,-0.64275 1.83538,-1.50171 l -2.08271,-31.55134 c -0.10579,-1.52411 -1.21573,-2.47425 -2.4445,-2.46754 l -11.23267,0.0614 -11.23267,-0.0614 c -1.22877,-0.007 -2.33871,0.94343 -2.4445,2.46754 l -2.08271,31.55134 c -0.0823,0.85896 0.88357,1.49571 1.83538,1.50171 z"
       id="button9"
       inkscape:connector-curvature="0" />
    <path
       style="fill:#ffffff;fill-opacity:1;fill-rule:evenodd;stroke:#babdb6;stroke-width:0.91063297;stroke-linecap:butt;stroke-linejoin:miter;stroke-miterlimit:4;stroke-dasharray:none;stroke-opacity:1"
       d="m 154.47968,540.26219 c 4.80719,0.51565 14.31496,3.6734 21.42959,10.8135 7.11462,7.1401 10.45897,19.07742 10.49068,20.94911 0.0315,1.87171 -1.62169,2.54594 -3.50717,2.58156 l -27.61447,0.25899 c -1.56447,0.0296 -2.10245,-0.63388 -2.19024,-1.55013 l -2.05208,-31.1727 c -0.13612,-1.96151 1.65745,-2.07195 3.44369,-1.88033 z"
       id="button10"
       inkscape:connector-curvature="0" />
    <path
       style="fill:#ffffff;fill-opacity:1;fill-rule:evenodd;stroke:#babdb6;stroke-width:0.91063297;stroke-linecap:butt;stroke-linejoin:miter;stroke-miterlimit:4;stroke-dasharray:none;stroke-opacity:1"
       d="m 85.82494,579.88024 c -2.16094,-0.0408 -4.32261,1.33038 -4.43564,3.19961 l -1.36888,22.63753 c -0.17186,2.84203 0.11,4.55771 4.49267,4.58243 l 29.4679,0.17168 c 1.37626,0.0247 1.98363,-0.70072 1.98862,-1.40478 l -0.0758,-27.28653 c -0.003,-1.01454 -0.53451,-1.73969 -2.14545,-1.74815 z"
       id="button11"
       inkscape:connector-curvature="0" />
    <path
       style="fill:#ffffff;fill-opacity:1;fill-rule:evenodd;stroke:#babdb6;stroke-width:0.91063297;stroke-linecap:butt;stroke-linejoin:miter;stroke-miterlimit:4;stroke-dasharray:none;stroke-opacity:1"
       d="m 135.18361,610.76445 15.07974,-0.18321 c 0.99312,-0.0116 1.81361,-0.51191 1.81675,-1.19446 l 0.0752,-27.03406 c 0.006,-1.26023 -0.61167,-2.22478 -2.65418,-2.18619 h -5e-5 l -14.31746,-0.0531 -14.31746,0.0531 h -5e-5 c -2.04251,-0.0386 -2.66018,0.92596 -2.65418,2.18619 l 0.0752,27.03406 c 0.003,0.68255 0.82363,1.18286 1.81675,1.19446 z"
       id="button12"
       inkscape:connector-curvature="0" />
    <path
       style="fill:#ffffff;fill-opacity:1;fill-rule:evenodd;stroke:#babdb6;stroke-width:0.91063297;stroke-linecap:butt;stroke-linejoin:miter;stroke-miterlimit:4;stroke-dasharray:none;stroke-opacity:1"
       d="m 184.54228,579.88024 c 2.16094,-0.0408 4.32261,1.33038 4.43564,3.19961 l 1.36888,22.63753 c 0.17186,2.84203 -0.11,4.55771 -4.49267,4.58243 l -29.4679,0.17168 c -1.37626,0.0247 -1.98363,-0.70072 -1.98862,-1.40478 l 0.0758,-27.28653 c 0.003,-1.01454 0.53451,-1.73969 2.14545,-1.74815 z"
       id="button13"
       inkscape:connector-curvature="0" />
    <path
       style="fill:#ffffff;fill-opacity:1;fill-rule:evenodd;stroke:#babdb6;stroke-width:0.91063297;stroke-linecap:butt;stroke-linejoin:miter;stroke-miterlimit:4;stroke-dasharray:none;stroke-opacity:1"
       d="M 80.50582,643.04662 79.37069,619.9328 c -0.24173,-2.48253 1.33364,-4.13562 4.89289,-4.07182 l 29.57569,0.0489 c 1.94508,0.0348 2.59435,1.17588 2.62067,2.70772 l 0.28732,26.82168 c 0.0101,0.5859 -0.67745,1.26303 -1.71098,1.24491 l -29.11335,-0.0398 c -4.17072,-0.073 -5.23962,-1.81604 -5.41711,-3.59787 z"
       id="button14"
       inkscape:connector-curvature="0" />
    <path
       style="fill:#ffffff;fill-opacity:1;fill-rule:evenodd;stroke:#babdb6;stroke-width:0.91063297;stroke-linecap:butt;stroke-linejoin:miter;stroke-miterlimit:4;stroke-dasharray:none;stroke-opacity:1"
       d="m 135.18361,646.89171 14.52026,-0.10891 c 0.99322,-0.007 1.58396,-0.88183 1.59477,-1.54896 l 0.25382,-26.4228 c 0,-1.65769 -1.45683,-2.75487 -3.18546,-2.75487 h -2e-5 l -13.18337,0.0687 -13.18337,-0.0687 h -2e-5 c -1.72863,0 -3.18546,1.09718 -3.18546,2.75487 l 0.25382,26.4228 c 0.0108,0.66713 0.60155,1.54196 1.59477,1.54896 z"
       id="button15"
       inkscape:connector-curvature="0" />
    <path
       style="fill:#ffffff;fill-opacity:1;fill-rule:evenodd;stroke:#babdb6;stroke-width:0.91063297;stroke-linecap:butt;stroke-linejoin:miter;stroke-miterlimit:4;stroke-dasharray:none;stroke-opacity:1"
       d="m 189.8614,643.04662 1.13513,-23.11382 c 0.24173,-2.48253 -1.33364,-4.13562 -4.89289,-4.07182 l -29.57569,0.0489 c -1.94508,0.0348 -2.59435,1.17588 -2.62067,2.70772 l -0.28732,26.82168 c -0.0101,0.5859 0.67745,1.26303 1.71098,1.24491 l 29.11335,-0.0398 c 4.17072,-0.073 5.23962,-1.81604 5.41711,-3.59787 z"
       id="button16"
       inkscape:connector-curvature="0" />
    <path
       style="fill:#ffffff;fill-opacity:1;fill-rule:evenodd;stroke:#babdb6;stroke-width:0.91063297;stroke-linecap:butt;stroke-linejoin:miter;stroke-miterlimit:4;stroke-dasharray:none;stroke-opacity:1"
       d="m 116.48518,685.17935 c -4.77115,-0.78167 -18.24679,-2.41108 -25.31793,-10.40346 -7.07116,-7.99239 -8.74824,-18.08146 -8.63646,-19.81545 0.11174,-1.73398 1.07559,-2.61519 2.96106,-2.58216 l 29.30706,0.0261 c 2.05074,0.0358 2.50413,0.83976 2.56363,1.65636 l 1.57605,28.79352 c 0.0961,1.9639 -0.68056,2.61555 -2.45341,2.32504 z"
       id="button17"
       inkscape:connector-curvature="0" />
    <path
       style="fill:#ffffff;fill-opacity:1;fill-rule:evenodd;stroke:#babdb6;stroke-width:0.91063297;stroke-linecap:butt;stroke-linejoin:miter;stroke-miterlimit:4;stroke-dasharray:none;stroke-opacity:1"
       d="m 135.18361,652.57963 13.80437,-0.0599 c 0.95179,-0.004 1.77573,0.31134 1.70695,1.10833 l -1.60072,29.8687 c -0.0884,1.52525 -1.61326,2.56485 -2.84205,2.56909 v -2e-5 l -11.06855,0.0382 -11.06855,-0.0382 v 2e-5 c -1.22879,-0.004 -2.75365,-1.04384 -2.84205,-2.56909 l -1.60072,-29.8687 c -0.0688,-0.79699 0.75516,-1.11233 1.70695,-1.10833 z"
       id="button18"
       inkscape:connector-curvature="0" />
    <path
       style="fill:#ffffff;fill-opacity:1;fill-rule:evenodd;stroke:#babdb6;stroke-width:0.91063297;stroke-linecap:butt;stroke-linejoin:miter;stroke-miterlimit:4;stroke-dasharray:none;stroke-opacity:1"
       d="m 153.88204,685.17935 c 4.77115,-0.78167 18.24679,-2.41108 25.31793,-10.40346 7.07116,-7.99239 8.74824,-18.08146 8.63646,-19.81545 -0.11174,-1.73398 -1.07559,-2.61519 -2.96106,-2.58216 l -29.30706,0.0261 c -2.05074,0.0358 -2.50413,0.83976 -2.56363,1.65636 l -1.57605,28.79352 c -0.0961,1.9639 0.68056,2.61555 2.45341,2.32504 z"
       id="button19"
       inkscape:connector-curvature="0" />
    <g
       id="led0">
      <g
         transform="matrix(1.4511635,0,0,1.4511635,182.99832,-277.36148)"
         aria-label="G9"
         style="font-style:normal;font-variant:normal;font-weight:bold;font-stretch:normal;font-size:10.03525925px;line-height:6.27203655px;font-family:'Iosevka Nerd Font';-inkscape-font-specification:'Iosevka Nerd Font, Bold';font-variant-ligatures:normal;font-variant-caps:normal;font-variant-numeric:normal;font-feature-settings:normal;text-align:start;letter-spacing:0px;word-spacing:0px;writing-mode:lr-tb;text-anchor:start;fill:#babdb6;fill-opacity:1;stroke:none;stroke-width:0.62751919;stroke-linecap:butt;stroke-linejoin:miter;stroke-miterlimit:4;stroke-dasharray:none;stroke-opacity:1"
         id="text9308">
        <path
           d="m -60.264331,579.04744 v -3.1611 q 0,-0.71251 0.291023,-1.22431 0.250881,-0.43151 0.692433,-0.68239 0.481692,-0.28099 1.16409,-0.28099 0.682397,0 1.16409,0.28099 0.431516,0.25088 0.692433,0.69243 0.180634,0.31109 0.240846,0.66233 l -1.16409,0.27095 q -0.03011,-0.21074 -0.130459,-0.38134 -0.120423,-0.21074 -0.321128,-0.32113 -0.200705,-0.12042 -0.481692,-0.12042 -0.270952,0 -0.471657,0.12042 -0.19067,0.11039 -0.311094,0.32113 -0.160564,0.27095 -0.160564,0.66233 v 3.1611 q 0,0.40141 0.160564,0.67236 0.120424,0.21074 0.311094,0.32113 0.190669,0.11039 0.451586,0.11039 0.230811,0 0.401411,-0.10035 0.180634,-0.10035 0.301057,-0.30106 0.160564,-0.28099 0.160564,-0.70247 v -0.91321 h -0.852997 v -1.0838 h 2.057229 v 1.99701 q 0,0.73258 -0.301058,1.24437 -0.250882,0.43152 -0.672363,0.6824 -0.451586,0.26092 -1.093843,0.26092 -0.672362,0 -1.144019,-0.28099 -0.441552,-0.25088 -0.692433,-0.6824 -0.291023,-0.51179 -0.291023,-1.2243 z"
           style="fill:#babdb6;fill-opacity:1;stroke-width:0.62751919;stroke-miterlimit:4;stroke-dasharray:none"
           id="path1176"
           inkscape:connector-curvature="0" />
        <path
           d="m -55.246701,576.35799 v -0.3713 q 0,-0.77272 0.311093,-1.31462 0.260917,-0.45159 0.702468,-0.70247 0.471657,-0.27095 1.113914,-0.27095 0.622186,0 1.083808,0.26092 0.451586,0.26091 0.712503,0.73257 0.351234,0.60211 0.351234,1.47518 v 2.40846 q 0,0.98346 -0.38134,1.63575 -0.291022,0.49173 -0.742609,0.76268 -0.451586,0.26092 -1.063737,0.26092 -0.602116,0 -1.053702,-0.26092 -0.461622,-0.26092 -0.752645,-0.76268 -0.160564,-0.28099 -0.250881,-0.61215 l 1.093843,-0.46162 q 0.06021,0.30106 0.19067,0.53187 0.150529,0.26091 0.361269,0.38134 0.180635,0.10035 0.411446,0.10035 0.220775,0 0.391375,-0.10035 0.200705,-0.12043 0.351234,-0.36127 0.240846,-0.42148 0.240846,-1.11392 v -0.32112 q -0.130458,0.13045 -0.291022,0.23081 -0.280988,0.16056 -0.692433,0.16056 -0.602116,0 -1.073773,-0.28099 -0.441551,-0.25088 -0.702468,-0.70246 -0.311093,-0.54191 -0.311093,-1.30459 z m 1.204231,0 q 0,0.47166 0.180635,0.77272 0.120423,0.21074 0.311093,0.32113 0.180634,0.10035 0.421481,0.11038 0.250881,0 0.451586,-0.11038 0.200705,-0.12043 0.331164,-0.3412 0.170599,-0.30106 0.170599,-0.75265 v -0.19067 q 0,-0.58204 -0.21074,-0.94331 -0.130459,-0.23081 -0.331164,-0.3412 -0.170599,-0.10035 -0.40141,-0.10035 -0.240846,0 -0.421481,0.11038 -0.200705,0.11039 -0.321128,0.33117 -0.180635,0.30106 -0.180635,0.76268 z"
           style="fill:#babdb6;fill-opacity:1;stroke-width:0.62751919;stroke-miterlimit:4;stroke-dasharray:none"
           id="path1178"
           inkscape:connector-curvature="0" />
      </g>
      <g
         transform="matrix(1.4511635,0,0,1.4511635,182.99832,-277.36148)"
         aria-label="G11"
         style="font-style:normal;font-variant:normal;font-weight:bold;font-stretch:normal;font-size:10.03525925px;line-height:6.27203655px;font-family:'Iosevka Nerd Font';-inkscape-font-specification:'Iosevka Nerd Font, Bold';font-variant-ligatures:normal;font-variant-caps:normal;font-variant-numeric:normal;font-feature-settings:normal;text-align:start;letter-spacing:0px;word-spacing:0px;writing-mode:lr-tb;text-anchor:start;fill:#babdb6;fill-opacity:1;stroke:none;stroke-width:0.62751919;stroke-linecap:butt;stroke-linejoin:miter;stroke-miterlimit:4;stroke-dasharray:none;stroke-opacity:1"
         id="text2158">
        <path
           d="m -17.484378,579.22426 v -3.16111 q 0,-0.7125 0.291023,-1.2243 0.250881,-0.43151 0.692433,-0.6824 0.481692,-0.28098 1.16409,-0.28098 0.682397,0 1.16409,0.28098 0.431516,0.25089 0.692433,0.69244 0.180634,0.31109 0.240846,0.66232 l -1.16409,0.27096 q -0.03011,-0.21074 -0.130459,-0.38134 -0.120423,-0.21074 -0.321128,-0.32113 -0.200705,-0.12042 -0.481692,-0.12042 -0.270952,0 -0.471657,0.12042 -0.19067,0.11039 -0.311094,0.32113 -0.160564,0.27095 -0.160564,0.66232 v 3.16111 q 0,0.40141 0.160564,0.67236 0.120424,0.21074 0.311094,0.32113 0.190669,0.11039 0.451586,0.11039 0.230811,0 0.401411,-0.10035 0.180634,-0.10036 0.301057,-0.30106 0.160564,-0.28099 0.160564,-0.70247 v -0.91321 h -0.852997 v -1.08381 h 2.057229 v 1.99702 q 0,0.73257 -0.301058,1.24437 -0.250882,0.43152 -0.672363,0.6824 -0.451586,0.26092 -1.093843,0.26092 -0.672362,0 -1.144019,-0.28099 -0.441552,-0.25088 -0.692433,-0.6824 -0.291023,-0.5118 -0.291023,-1.2243 z"
           style="fill:#babdb6;fill-opacity:1;stroke-width:0.62751919;stroke-miterlimit:4;stroke-dasharray:none"
           id="path1162"
           inkscape:connector-curvature="0" />
        <path
           d="m -12.155655,575.11984 1.525359,-1.16409 h 1.2042314 v 7.37592 h -1.2042314 v -5.96095 l -0.80282,0.61215 z"
           style="fill:#babdb6;fill-opacity:1;stroke-width:0.62751919;stroke-miterlimit:4;stroke-dasharray:none"
           id="path1164"
           inkscape:connector-curvature="0" />
        <path
           d="m -7.1380255,575.11984 1.5253594,-1.16409 h 1.2042311 v 7.37592 h -1.2042311 v -5.96095 l -0.8028207,0.61215 z"
           style="fill:#babdb6;fill-opacity:1;stroke-width:0.62751919;stroke-miterlimit:4;stroke-dasharray:none"
           id="path1166"
           inkscape:connector-curvature="0" />
      </g>
      <g
         transform="matrix(1.4511635,0,0,1.4511635,182.99832,-277.36148)"
         aria-label="G12"
         style="font-style:normal;font-variant:normal;font-weight:bold;font-stretch:normal;font-size:10.03525925px;line-height:6.27203655px;font-family:'Iosevka Nerd Font';-inkscape-font-specification:'Iosevka Nerd Font, Bold';font-variant-ligatures:normal;font-variant-caps:normal;font-variant-numeric:normal;font-feature-settings:normal;text-align:start;letter-spacing:0px;word-spacing:0px;writing-mode:lr-tb;text-anchor:start;fill:#babdb6;fill-opacity:1;stroke:none;stroke-width:0.62751919;stroke-linecap:butt;stroke-linejoin:miter;stroke-miterlimit:4;stroke-dasharray:none;stroke-opacity:1"
         id="text2162">
        <path
           d="m -64.153415,602.57418 v -3.16111 q 0,-0.7125 0.291023,-1.2243 0.250881,-0.43152 0.692433,-0.6824 0.481692,-0.28099 1.16409,-0.28099 0.682397,0 1.16409,0.28099 0.431516,0.25088 0.692433,0.69243 0.180634,0.3111 0.240846,0.66233 l -1.16409,0.27095 q -0.03011,-0.21074 -0.130458,-0.38134 -0.120424,-0.21074 -0.321129,-0.32113 -0.200705,-0.12042 -0.481692,-0.12042 -0.270952,0 -0.471657,0.12042 -0.19067,0.11039 -0.311093,0.32113 -0.160565,0.27095 -0.160565,0.66233 v 3.16111 q 0,0.40141 0.160565,0.67236 0.120423,0.21074 0.311093,0.32113 0.19067,0.11038 0.451586,0.11038 0.230811,0 0.401411,-0.10035 0.180634,-0.10035 0.301057,-0.30106 0.160565,-0.28098 0.160565,-0.70246 v -0.91321 h -0.852997 v -1.08381 h 2.057228 v 1.99702 q 0,0.73257 -0.301058,1.24437 -0.250882,0.43151 -0.672362,0.68239 -0.451587,0.26092 -1.093844,0.26092 -0.672362,0 -1.144019,-0.28099 -0.441552,-0.25088 -0.692433,-0.68239 -0.291023,-0.5118 -0.291023,-1.2243 z"
           style="fill:#babdb6;fill-opacity:1;stroke-width:0.62751919;stroke-miterlimit:4;stroke-dasharray:none"
           id="path1181"
           inkscape:connector-curvature="0" />
        <path
           d="m -58.824692,598.46975 1.525359,-1.16409 h 1.204232 v 7.37592 h -1.204232 v -5.96094 l -0.80282,0.61215 z"
           style="fill:#babdb6;fill-opacity:1;stroke-width:0.62751919;stroke-miterlimit:4;stroke-dasharray:none"
           id="path1183"
           inkscape:connector-curvature="0" />
        <path
           d="m -54.08805,598.86113 q 0.06021,-0.36127 0.240847,-0.67236 0.250881,-0.43152 0.682397,-0.6824 0.481693,-0.28099 1.154055,-0.28099 0.672362,0 1.154055,0.28099 0.431516,0.25088 0.682397,0.6824 0.291023,0.50176 0.291023,1.10388 0,0.59208 -0.331164,1.16409 -0.280987,0.49172 -1.113913,1.21426 -0.832927,0.72254 -1.133985,1.23434 -0.170599,0.29102 -0.260916,0.69243 h 2.799837 v 1.08381 h -4.114456 v -0.01 q 0,-1.425 0.451586,-2.20775 0.341199,-0.59208 1.274478,-1.35476 0.76268,-0.63222 1.003526,-1.04367 0.220776,-0.39137 0.220776,-0.77271 0,-0.3111 -0.140494,-0.56198 -0.110388,-0.2007 -0.301058,-0.30106 -0.200705,-0.12042 -0.481692,-0.12042 -0.270952,0 -0.461622,0.11039 -0.19067,0.11039 -0.311093,0.32113 -0.100353,0.1706 -0.130458,0.38134 z"
           style="fill:#babdb6;fill-opacity:1;stroke-width:0.62751919;stroke-miterlimit:4;stroke-dasharray:none"
           id="path1185"
           inkscape:connector-curvature="0" />
      </g>
      <g
         transform="matrix(1.4511635,0,0,1.4511635,182.99832,-277.36148)"
         aria-label="G13"
         style="font-style:normal;font-variant:normal;font-weight:bold;font-stretch:normal;font-size:10.03525925px;line-height:6.27203655px;font-family:'Iosevka Nerd Font';-inkscape-font-specification:'Iosevka Nerd Font, Bold';font-variant-ligatures:normal;font-variant-caps:normal;font-variant-numeric:normal;font-feature-settings:normal;text-align:start;letter-spacing:0px;word-spacing:0px;writing-mode:lr-tb;text-anchor:start;fill:#babdb6;fill-opacity:1;stroke:none;stroke-width:0.62751919;stroke-linecap:butt;stroke-linejoin:miter;stroke-miterlimit:4;stroke-dasharray:none;stroke-opacity:1"
         id="text2166">
        <path
           d="m -39.916858,602.57418 v -3.16111 q 0,-0.7125 0.291023,-1.2243 0.250881,-0.43152 0.692433,-0.6824 0.481692,-0.28099 1.16409,-0.28099 0.682397,0 1.16409,0.28099 0.431516,0.25088 0.692433,0.69243 0.180634,0.3111 0.240846,0.66233 l -1.16409,0.27095 q -0.03011,-0.21074 -0.130458,-0.38134 -0.120424,-0.21074 -0.321129,-0.32113 -0.200705,-0.12042 -0.481692,-0.12042 -0.270952,0 -0.471657,0.12042 -0.19067,0.11039 -0.311093,0.32113 -0.160565,0.27095 -0.160565,0.66233 v 3.16111 q 0,0.40141 0.160565,0.67236 0.120423,0.21074 0.311093,0.32113 0.19067,0.11038 0.451586,0.11038 0.230811,0 0.401411,-0.10035 0.180634,-0.10035 0.301057,-0.30106 0.160565,-0.28098 0.160565,-0.70246 v -0.91321 h -0.852997 v -1.08381 h 2.057228 v 1.99702 q 0,0.73257 -0.301058,1.24437 -0.250882,0.43151 -0.672362,0.68239 -0.451587,0.26092 -1.093844,0.26092 -0.672362,0 -1.144019,-0.28099 -0.441552,-0.25088 -0.692433,-0.68239 -0.291023,-0.5118 -0.291023,-1.2243 z"
           style="fill:#babdb6;fill-opacity:1;stroke-width:0.62751919;stroke-miterlimit:4;stroke-dasharray:none"
           id="path1188"
           inkscape:connector-curvature="0" />
        <path
           d="m -34.588135,598.46975 1.525359,-1.16409 h 1.204232 v 7.37592 h -1.204232 v -5.96094 l -0.80282,0.61215 z"
           style="fill:#babdb6;fill-opacity:1;stroke-width:0.62751919;stroke-miterlimit:4;stroke-dasharray:none"
           id="path1190"
           inkscape:connector-curvature="0" />
        <path
           d="m -29.931775,603.12611 1.154055,-0.31109 q 0.04014,0.21074 0.140494,0.37131 0.130458,0.23081 0.351234,0.36127 0.220776,0.13045 0.521833,0.13045 0.592081,0 0.873068,-0.48169 0.160564,-0.28099 0.160564,-0.64226 0,-0.34119 -0.160564,-0.61215 -0.160564,-0.27095 -0.431516,-0.43151 -0.341199,-0.20071 -1.013561,-0.20071 v -1.08381 q 0.632221,0 0.943314,-0.18063 0.240846,-0.14049 0.371304,-0.36127 0.130459,-0.23081 0.130459,-0.49173 0,-0.27095 -0.120423,-0.49172 -0.100353,-0.18064 -0.280988,-0.28099 -0.190669,-0.11039 -0.451586,-0.11039 -0.491728,0 -0.722539,0.40141 -0.100352,0.1706 -0.120423,0.3713 l -1.184161,-0.22077 q 0.05018,-0.38134 0.240847,-0.7125 0.240846,-0.41145 0.662327,-0.6523 0.471657,-0.27095 1.123949,-0.27095 0.662327,0 1.123949,0.27095 0.411445,0.24085 0.662327,0.6523 0.280987,0.48169 0.270952,1.03363 0,0.48169 -0.230811,0.8831 -0.230811,0.40141 -0.652292,0.65229 -0.05018,0.0301 -0.100352,0.0502 0.09032,0.0401 0.160564,0.0803 0.461622,0.27095 0.722538,0.7125 0.260917,0.45159 0.260917,1.00353 0,0.64226 -0.311093,1.18416 -0.270952,0.46162 -0.722539,0.72254 -0.501763,0.29102 -1.204231,0.29102 -0.702468,0 -1.204231,-0.29102 -0.451586,-0.26092 -0.722538,-0.72254 -0.1706,-0.29102 -0.240847,-0.62219 z"
           style="fill:#babdb6;fill-opacity:1;stroke-width:0.62751919;stroke-miterlimit:4;stroke-dasharray:none"
           id="path1192"
           inkscape:connector-curvature="0" />
      </g>
      <g
         transform="matrix(1.4511635,0,0,1.4511635,182.99832,-277.36148)"
         aria-label="G14"
         style="font-style:normal;font-variant:normal;font-weight:bold;font-stretch:normal;font-size:10.03525925px;line-height:6.27203655px;font-family:'Iosevka Nerd Font';-inkscape-font-specification:'Iosevka Nerd Font, Bold';font-variant-ligatures:normal;font-variant-caps:normal;font-variant-numeric:normal;font-feature-settings:normal;text-align:start;letter-spacing:0px;word-spacing:0px;writing-mode:lr-tb;text-anchor:start;fill:#babdb6;fill-opacity:1;stroke:none;stroke-width:0.62751919;stroke-linecap:butt;stroke-linejoin:miter;stroke-miterlimit:4;stroke-dasharray:none;stroke-opacity:1"
         id="text2170">
        <path
           d="m -15.539815,602.57418 v -3.16111 q 0,-0.7125 0.291023,-1.2243 0.250881,-0.43152 0.692433,-0.6824 0.481692,-0.28099 1.16409,-0.28099 0.682397,0 1.16409,0.28099 0.431516,0.25088 0.692433,0.69243 0.180634,0.3111 0.240846,0.66233 l -1.16409,0.27095 q -0.03011,-0.21074 -0.130459,-0.38134 -0.120423,-0.21074 -0.321128,-0.32113 -0.200705,-0.12042 -0.481692,-0.12042 -0.270952,0 -0.471658,0.12042 -0.19067,0.11039 -0.311093,0.32113 -0.160564,0.27095 -0.160564,0.66233 v 3.16111 q 0,0.40141 0.160564,0.67236 0.120423,0.21074 0.311093,0.32113 0.19067,0.11038 0.451587,0.11038 0.230811,0 0.40141,-0.10035 0.180635,-0.10035 0.301058,-0.30106 0.160564,-0.28098 0.160564,-0.70246 v -0.91321 h -0.852997 v -1.08381 h 2.057228 v 1.99702 q 0,0.73257 -0.301057,1.24437 -0.250882,0.43151 -0.672363,0.68239 -0.451586,0.26092 -1.093843,0.26092 -0.672362,0 -1.144019,-0.28099 -0.441552,-0.25088 -0.692433,-0.68239 -0.291023,-0.5118 -0.291023,-1.2243 z"
           style="fill:#babdb6;fill-opacity:1;stroke-width:0.62751919;stroke-miterlimit:4;stroke-dasharray:none"
           id="path1155"
           inkscape:connector-curvature="0" />
        <path
           d="m -10.211092,598.46975 1.5253592,-1.16409 h 1.2042311 v 7.37592 h -1.2042311 v -5.96094 l -0.8028207,0.61215 z"
           style="fill:#babdb6;fill-opacity:1;stroke-width:0.62751919;stroke-miterlimit:4;stroke-dasharray:none"
           id="path1157"
           inkscape:connector-curvature="0" />
        <path
           d="m -5.5045556,602.81502 v -1.08381 l 1.9970166,-4.42555 h 1.4751831 v 4.42555 h 0.7225386 v 1.08381 h -0.7225386 v 1.86656 H -3.236587 v -1.86656 z m 1.1741253,-1.08381 h 1.0938433 v -2.40846 z"
           style="fill:#babdb6;fill-opacity:1;stroke-width:0.62751919;stroke-miterlimit:4;stroke-dasharray:none"
           id="path1159"
           inkscape:connector-curvature="0" />
      </g>
      <g
         transform="matrix(1.4511635,0,0,1.4511635,182.99832,-277.36148)"
         aria-label="G15"
         style="font-style:normal;font-variant:normal;font-weight:bold;font-stretch:normal;font-size:10.03525925px;line-height:6.27203655px;font-family:'Iosevka Nerd Font';-inkscape-font-specification:'Iosevka Nerd Font, Bold';font-variant-ligatures:normal;font-variant-caps:normal;font-variant-numeric:normal;font-feature-settings:normal;text-align:start;letter-spacing:0px;word-spacing:0px;writing-mode:lr-tb;text-anchor:start;fill:#babdb6;fill-opacity:1;stroke:none;stroke-width:0.62751919;stroke-linecap:butt;stroke-linejoin:miter;stroke-miterlimit:4;stroke-dasharray:none;stroke-opacity:1"
         id="text2174">
        <path
           d="m -64.506976,628.01467 v -3.16111 q 0,-0.7125 0.291022,-1.2243 0.250882,-0.43152 0.692433,-0.6824 0.481693,-0.28099 1.16409,-0.28099 0.682398,0 1.164091,0.28099 0.431516,0.25088 0.692432,0.69243 0.180635,0.3111 0.240847,0.66233 l -1.16409,0.27095 q -0.03011,-0.21074 -0.130459,-0.38134 -0.120423,-0.21074 -0.321128,-0.32113 -0.200705,-0.12042 -0.481693,-0.12042 -0.270952,0 -0.471657,0.12042 -0.19067,0.11039 -0.311093,0.32113 -0.160564,0.27095 -0.160564,0.66233 v 3.16111 q 0,0.40141 0.160564,0.67236 0.120423,0.21074 0.311093,0.32113 0.19067,0.11038 0.451587,0.11038 0.230811,0 0.40141,-0.10035 0.180635,-0.10035 0.301058,-0.30106 0.160564,-0.28098 0.160564,-0.70246 v -0.91321 h -0.852997 v -1.08381 h 2.057228 v 1.99702 q 0,0.73257 -0.301057,1.24437 -0.250882,0.43151 -0.672363,0.6824 -0.451586,0.26091 -1.093843,0.26091 -0.672362,0 -1.14402,-0.28098 -0.441551,-0.25089 -0.692433,-0.6824 -0.291022,-0.5118 -0.291022,-1.2243 z"
           style="fill:#babdb6;fill-opacity:1;stroke-width:0.62751919;stroke-miterlimit:4;stroke-dasharray:none"
           id="path1134"
           inkscape:connector-curvature="0" />
        <path
           d="m -59.178253,623.91024 1.525359,-1.16409 h 1.204231 v 7.37592 h -1.204231 v -5.96094 l -0.802821,0.61215 z"
           style="fill:#babdb6;fill-opacity:1;stroke-width:0.62751919;stroke-miterlimit:4;stroke-dasharray:none"
           id="path1136"
           inkscape:connector-curvature="0" />
        <path
           d="m -54.441611,628.56661 1.123949,-0.38134 q 0.05018,0.26091 0.170599,0.46162 0.140494,0.24084 0.351234,0.36127 0.19067,0.11038 0.431517,0.11038 0.240846,0 0.421481,-0.10035 0.200705,-0.12042 0.341198,-0.35123 0.200706,-0.35124 0.200706,-0.91321 0,-0.56198 -0.200706,-0.91321 -0.130458,-0.23081 -0.331163,-0.3412 -0.1706,-0.10035 -0.391375,-0.0903 -0.230811,0 -0.411446,0.10036 -0.200705,0.12042 -0.341199,0.35123 -0.09032,0.15053 -0.130458,0.33116 l -1.083808,-0.48169 v -3.96393 h 3.803363 v 1.08381 h -2.599132 v 1.61568 q 0.341199,-0.12042 0.76268,-0.12042 0.61215,0 1.073772,0.26091 0.441552,0.25088 0.712504,0.72254 0.341199,0.59208 0.341199,1.45511 0,0.853 -0.341199,1.43505 -0.270952,0.47165 -0.722539,0.73257 -0.471657,0.27095 -1.103878,0.27095 -0.632222,0 -1.103879,-0.27095 -0.451587,-0.26092 -0.722539,-0.73257 -0.170599,-0.29103 -0.250881,-0.63222 z"
           style="fill:#babdb6;fill-opacity:1;stroke-width:0.62751919;stroke-miterlimit:4;stroke-dasharray:none"
           id="path1138"
           inkscape:connector-curvature="0" />
      </g>
      <g
         transform="matrix(1.4511635,0,0,1.4511635,182.99832,-277.36148)"
         aria-label="G16"
         style="font-style:normal;font-variant:normal;font-weight:bold;font-stretch:normal;font-size:10.03525925px;line-height:6.27203655px;font-family:'Iosevka Nerd Font';-inkscape-font-specification:'Iosevka Nerd Font, Bold';font-variant-ligatures:normal;font-variant-caps:normal;font-variant-numeric:normal;font-feature-settings:normal;text-align:start;letter-spacing:0px;word-spacing:0px;writing-mode:lr-tb;text-anchor:start;fill:#babdb6;fill-opacity:1;stroke:none;stroke-width:0.62751919;stroke-linecap:butt;stroke-linejoin:miter;stroke-miterlimit:4;stroke-dasharray:none;stroke-opacity:1"
         id="text2178">
        <path
           d="m -40.200168,628.01467 v -3.16111 q 0,-0.7125 0.291023,-1.2243 0.250881,-0.43152 0.692433,-0.6824 0.481692,-0.28099 1.16409,-0.28099 0.682398,0 1.16409,0.28099 0.431516,0.25088 0.692433,0.69243 0.180635,0.3111 0.240846,0.66233 l -1.16409,0.27095 q -0.03011,-0.21074 -0.130458,-0.38134 -0.120423,-0.21074 -0.321129,-0.32113 -0.200705,-0.12042 -0.481692,-0.12042 -0.270952,0 -0.471657,0.12042 -0.19067,0.11039 -0.311093,0.32113 -0.160564,0.27095 -0.160564,0.66233 v 3.16111 q 0,0.40141 0.160564,0.67236 0.120423,0.21074 0.311093,0.32113 0.19067,0.11038 0.451586,0.11038 0.230811,0 0.401411,-0.10035 0.180634,-0.10035 0.301058,-0.30106 0.160564,-0.28098 0.160564,-0.70246 v -0.91321 h -0.852997 v -1.08381 h 2.057228 v 1.99702 q 0,0.73257 -0.301058,1.24437 -0.250881,0.43151 -0.672362,0.6824 -0.451587,0.26091 -1.093844,0.26091 -0.672362,0 -1.144019,-0.28098 -0.441552,-0.25089 -0.692433,-0.6824 -0.291023,-0.5118 -0.291023,-1.2243 z"
           style="fill:#babdb6;fill-opacity:1;stroke-width:0.62751919;stroke-miterlimit:4;stroke-dasharray:none"
           id="path1141"
           inkscape:connector-curvature="0" />
        <path
           d="m -34.871445,623.91024 1.525359,-1.16409 h 1.204232 v 7.37592 h -1.204232 v -5.96094 l -0.80282,0.61215 z"
           style="fill:#babdb6;fill-opacity:1;stroke-width:0.62751919;stroke-miterlimit:4;stroke-dasharray:none"
           id="path1143"
           inkscape:connector-curvature="0" />
        <path
           d="m -30.164908,627.91431 v -0.0201 q 0,-2.05723 0.742609,-3.34174 0.541904,-0.94331 1.455112,-1.46515 0.38134,-0.21074 0.782751,-0.3412 l 0.351234,1.03364 q -0.230811,0.0803 -0.431516,0.21074 -0.672363,0.39137 -1.083808,1.09384 -0.160565,0.27095 -0.280988,0.60212 0.280988,-0.0703 0.602116,-0.0703 0.652292,0 1.123949,0.27095 0.441551,0.25088 0.702468,0.70247 0.311093,0.5419 0.311093,1.31462 v 0.01 q 0,0.77272 -0.311093,1.31462 -0.260917,0.45159 -0.702468,0.70247 -0.471657,0.27095 -1.123949,0.27095 -0.652292,0 -1.123949,-0.27095 -0.441552,-0.25088 -0.702468,-0.70247 -0.311093,-0.5419 -0.311093,-1.31462 z m 1.204231,0 q 0,0.46163 0.170599,0.76268 0.130459,0.22078 0.331164,0.33117 0.19067,0.11038 0.431516,0.11038 0.250881,0 0.431516,-0.11038 0.200705,-0.11039 0.331164,-0.33117 0.170599,-0.30105 0.170599,-0.76268 v -0.01 q 0,-0.46162 -0.170599,-0.76268 -0.130459,-0.22078 -0.331164,-0.33117 -0.19067,-0.11038 -0.441551,-0.11038 -0.240847,0 -0.421481,0.11038 -0.200705,0.11039 -0.331164,0.33117 -0.170599,0.29102 -0.170599,0.76268 z"
           style="fill:#babdb6;fill-opacity:1;stroke-width:0.62751919;stroke-miterlimit:4;stroke-dasharray:none"
           id="path1145"
           inkscape:connector-curvature="0" />
      </g>
      <g
         transform="matrix(1.4511635,0,0,1.4511635,182.99832,-277.36148)"
         aria-label="G17"
         style="font-style:normal;font-variant:normal;font-weight:bold;font-stretch:normal;font-size:10.03525925px;line-height:6.27203655px;font-family:'Iosevka Nerd Font';-inkscape-font-specification:'Iosevka Nerd Font, Bold';font-variant-ligatures:normal;font-variant-caps:normal;font-variant-numeric:normal;font-feature-settings:normal;text-align:start;letter-spacing:0px;word-spacing:0px;writing-mode:lr-tb;text-anchor:start;fill:#babdb6;fill-opacity:1;stroke:none;stroke-width:0.62751919;stroke-linecap:butt;stroke-linejoin:miter;stroke-miterlimit:4;stroke-dasharray:none;stroke-opacity:1"
         id="text2182">
        <path
           d="m -15.893374,628.01467 v -3.16111 q 0,-0.7125 0.291022,-1.2243 0.250882,-0.43152 0.692433,-0.6824 0.481692,-0.28099 1.16409,-0.28099 0.682398,0 1.16409,0.28099 0.431516,0.25088 0.692433,0.69243 0.180635,0.3111 0.240846,0.66233 l -1.16409,0.27095 q -0.03011,-0.21074 -0.130458,-0.38134 -0.120423,-0.21074 -0.321128,-0.32113 -0.200706,-0.12042 -0.481693,-0.12042 -0.270952,0 -0.471657,0.12042 -0.19067,0.11039 -0.311093,0.32113 -0.160564,0.27095 -0.160564,0.66233 v 3.16111 q 0,0.40141 0.160564,0.67236 0.120423,0.21074 0.311093,0.32113 0.19067,0.11038 0.451587,0.11038 0.230811,0 0.40141,-0.10035 0.180635,-0.10035 0.301058,-0.30106 0.160564,-0.28098 0.160564,-0.70246 v -0.91321 h -0.852997 v -1.08381 h 2.057228 v 1.99702 q 0,0.73257 -0.301058,1.24437 -0.250881,0.43151 -0.672362,0.6824 -0.451587,0.26091 -1.093843,0.26091 -0.672363,0 -1.14402,-0.28098 -0.441551,-0.25089 -0.692433,-0.6824 -0.291022,-0.5118 -0.291022,-1.2243 z"
           style="fill:#babdb6;fill-opacity:1;stroke-width:0.62751919;stroke-miterlimit:4;stroke-dasharray:none"
           id="path1148"
           inkscape:connector-curvature="0" />
        <path
           d="m -10.564652,623.91024 1.5253597,-1.16409 h 1.2042311 v 7.37592 h -1.2042311 v -5.96094 l -0.8028207,0.61215 z"
           style="fill:#babdb6;fill-opacity:1;stroke-width:0.62751919;stroke-miterlimit:4;stroke-dasharray:none"
           id="path1150"
           inkscape:connector-curvature="0" />
        <path
           d="m -5.777833,623.82996 v -1.08381 h 4.1144562 v 1.08381 l -2.3181448,6.29211 h -1.2845132 l 2.3081096,-6.29211 z"
           style="fill:#babdb6;fill-opacity:1;stroke-width:0.62751919;stroke-miterlimit:4;stroke-dasharray:none"
           id="path1152"
           inkscape:connector-curvature="0" />
      </g>
      <g
         transform="matrix(1.4511635,0,0,1.4511635,182.99832,-277.36148)"
         aria-label="G18"
         style="font-style:normal;font-variant:normal;font-weight:bold;font-stretch:normal;font-size:10.03525925px;line-height:6.27203655px;font-family:'Iosevka Nerd Font';-inkscape-font-specification:'Iosevka Nerd Font, Bold';font-variant-ligatures:normal;font-variant-caps:normal;font-variant-numeric:normal;font-feature-settings:normal;text-align:start;letter-spacing:0px;word-spacing:0px;writing-mode:lr-tb;text-anchor:start;fill:#babdb6;fill-opacity:1;stroke:none;stroke-width:0.62751919;stroke-linecap:butt;stroke-linejoin:miter;stroke-miterlimit:4;stroke-dasharray:none;stroke-opacity:1"
         id="text2186">
        <path
           d="m -62.20888,651.87953 v -3.1611 q 0,-0.71251 0.291022,-1.2243 0.250882,-0.43152 0.692433,-0.6824 0.481693,-0.28099 1.16409,-0.28099 0.682398,0 1.16409,0.28099 0.431516,0.25088 0.692433,0.69243 0.180635,0.31109 0.240846,0.66233 l -1.16409,0.27095 q -0.03011,-0.21074 -0.130458,-0.38134 -0.120423,-0.21074 -0.321128,-0.32113 -0.200706,-0.12042 -0.481693,-0.12042 -0.270952,0 -0.471657,0.12042 -0.19067,0.11039 -0.311093,0.32113 -0.160564,0.27095 -0.160564,0.66233 v 3.1611 q 0,0.40141 0.160564,0.67237 0.120423,0.21074 0.311093,0.32112 0.19067,0.11039 0.451587,0.11039 0.230811,0 0.40141,-0.10035 0.180635,-0.10035 0.301058,-0.30106 0.160564,-0.28099 0.160564,-0.70247 v -0.9132 h -0.852997 v -1.08381 h 2.057228 v 1.99701 q 0,0.73258 -0.301058,1.24438 -0.250881,0.43151 -0.672362,0.68239 -0.451587,0.26092 -1.093843,0.26092 -0.672363,0 -1.14402,-0.28099 -0.441551,-0.25088 -0.692433,-0.68239 -0.291022,-0.5118 -0.291022,-1.22431 z"
           style="fill:#babdb6;fill-opacity:1;stroke-width:0.62751919;stroke-miterlimit:4;stroke-dasharray:none"
           id="path1127"
           inkscape:connector-curvature="0" />
        <path
           d="m -56.880158,647.77511 1.52536,-1.16409 h 1.204231 v 7.37592 h -1.204231 v -5.96095 l -0.802821,0.61216 z"
           style="fill:#babdb6;fill-opacity:1;stroke-width:0.62751919;stroke-miterlimit:4;stroke-dasharray:none"
           id="path1129"
           inkscape:connector-curvature="0" />
        <path
           d="m -52.173621,652.0401 q 0,-0.54191 0.280987,-1.03363 0.260917,-0.45159 0.812856,-0.81286 -0.421481,-0.31109 -0.642256,-0.69243 -0.280988,-0.48169 -0.280988,-1.0236 0,-0.59208 0.270952,-1.0537 0.230811,-0.40141 0.632222,-0.64226 0.441551,-0.25088 1.063737,-0.25088 0.622186,0 1.063738,0.25088 0.40141,0.23081 0.632221,0.64226 0.270952,0.47166 0.270952,1.0537 0,0.54191 -0.280987,1.0236 -0.220776,0.38134 -0.642257,0.69243 0.551939,0.36127 0.812856,0.81286 0.280987,0.48169 0.280987,1.03363 0,0.59208 -0.280987,1.07377 -0.240846,0.42148 -0.672362,0.67236 -0.491728,0.28099 -1.184161,0.28099 -0.692433,0 -1.18416,-0.28099 -0.431517,-0.25088 -0.672363,-0.67236 -0.280987,-0.48169 -0.280987,-1.07377 z m 1.204231,0.01 q 0,0.28099 0.130458,0.5118 0.110388,0.19067 0.301058,0.30106 0.210741,0.12042 0.501763,0.12042 0.291023,0 0.501763,-0.12042 0.19067,-0.11039 0.301058,-0.30106 0.130458,-0.22077 0.130458,-0.5118 0,-0.29102 -0.150529,-0.56197 -0.200705,-0.35124 -0.722538,-0.65229 -0.03011,-0.01 -0.06021,-0.0301 -0.03011,0.0201 -0.06021,0.0301 -0.521834,0.30105 -0.722539,0.65229 -0.160564,0.27095 -0.150529,0.56197 z m 0.291023,-4.08435 q -0.120424,0.21074 -0.120424,0.50177 0,0.29102 0.150529,0.56197 0.180635,0.31109 0.612151,0.58205 0.431516,-0.27096 0.612151,-0.58205 0.160564,-0.27095 0.150529,-0.56197 0,-0.28099 -0.120423,-0.50177 -0.100353,-0.1706 -0.260917,-0.26091 -0.160564,-0.0903 -0.38134,-0.0903 -0.220776,0 -0.38134,0.0903 -0.160564,0.0903 -0.260916,0.26091 z"
           style="fill:#babdb6;fill-opacity:1;stroke-width:0.62751919;stroke-miterlimit:4;stroke-dasharray:none"
           id="path1131"
           inkscape:connector-curvature="0" />
      </g>
      <g
         transform="matrix(1.4511635,0,0,1.4511635,182.99832,-277.36148)"
         aria-label="G19"
         style="font-style:normal;font-variant:normal;font-weight:bold;font-stretch:normal;font-size:10.03525925px;line-height:6.27203655px;font-family:'Iosevka Nerd Font';-inkscape-font-specification:'Iosevka Nerd Font, Bold';font-variant-ligatures:normal;font-variant-caps:normal;font-variant-numeric:normal;font-feature-settings:normal;text-align:start;letter-spacing:0px;word-spacing:0px;writing-mode:lr-tb;text-anchor:start;fill:#babdb6;fill-opacity:1;stroke:none;stroke-width:0.62751919;stroke-linecap:butt;stroke-linejoin:miter;stroke-miterlimit:4;stroke-dasharray:none;stroke-opacity:1"
         id="text2190">
        <path
           d="m -40.023395,654.37953 v -3.1611 q 0,-0.71251 0.291023,-1.2243 0.250881,-0.43152 0.692433,-0.6824 0.481692,-0.28099 1.16409,-0.28099 0.682398,0 1.16409,0.28099 0.431516,0.25088 0.692433,0.69243 0.180635,0.31109 0.240846,0.66233 l -1.16409,0.27095 q -0.03011,-0.21074 -0.130458,-0.38134 -0.120423,-0.21074 -0.321129,-0.32113 -0.200705,-0.12042 -0.481692,-0.12042 -0.270952,0 -0.471657,0.12042 -0.19067,0.11039 -0.311093,0.32113 -0.160564,0.27095 -0.160564,0.66233 v 3.1611 q 0,0.40141 0.160564,0.67237 0.120423,0.21074 0.311093,0.32112 0.19067,0.11039 0.451586,0.11039 0.230811,0 0.401411,-0.10035 0.180634,-0.10035 0.301058,-0.30106 0.160564,-0.28099 0.160564,-0.70247 v -0.9132 h -0.852997 v -1.08381 h 2.057228 v 1.99701 q 0,0.73258 -0.301058,1.24438 -0.250881,0.43151 -0.672362,0.68239 -0.451587,0.26092 -1.093844,0.26092 -0.672362,0 -1.144019,-0.28099 -0.441552,-0.25088 -0.692433,-0.68239 -0.291023,-0.5118 -0.291023,-1.22431 z"
           style="fill:#babdb6;fill-opacity:1;stroke-width:0.62751919;stroke-miterlimit:4;stroke-dasharray:none"
           id="path1120"
           inkscape:connector-curvature="0" />
        <path
           d="m -34.694672,650.27511 1.52536,-1.16409 h 1.204231 v 7.37592 h -1.204231 v -5.96095 l -0.802821,0.61216 z"
           style="fill:#babdb6;fill-opacity:1;stroke-width:0.62751919;stroke-miterlimit:4;stroke-dasharray:none"
           id="path1122"
           inkscape:connector-curvature="0" />
        <path
           d="m -29.988135,651.69008 v -0.3713 q 0,-0.77271 0.311093,-1.31462 0.260917,-0.45159 0.702468,-0.70247 0.471657,-0.27095 1.113914,-0.27095 0.622186,0 1.083808,0.26092 0.451586,0.26091 0.712503,0.73257 0.351234,0.60212 0.351234,1.47518 v 2.40847 q 0,0.98345 -0.38134,1.63574 -0.291022,0.49173 -0.742609,0.76268 -0.451587,0.26092 -1.063737,0.26092 -0.602116,0 -1.053703,-0.26092 -0.461621,-0.26091 -0.752644,-0.76268 -0.160564,-0.28098 -0.250881,-0.61215 l 1.093843,-0.46162 q 0.06021,0.30106 0.19067,0.53187 0.150529,0.26092 0.361269,0.38134 0.180635,0.10035 0.411446,0.10035 0.220775,0 0.391375,-0.10035 0.200705,-0.12042 0.351234,-0.36127 0.240846,-0.42148 0.240846,-1.11391 v -0.32113 q -0.130458,0.13046 -0.291022,0.23081 -0.280988,0.16056 -0.692433,0.16056 -0.602116,0 -1.073773,-0.28098 -0.441551,-0.25089 -0.702468,-0.70247 -0.311093,-0.54191 -0.311093,-1.30459 z m 1.204231,0 q 0,0.47166 0.180635,0.77272 0.120423,0.21074 0.311093,0.32113 0.180634,0.10035 0.42148,0.11039 0.250882,0 0.451587,-0.11039 0.200705,-0.12043 0.331164,-0.3412 0.170599,-0.30106 0.170599,-0.75265 v -0.19067 q 0,-0.58204 -0.21074,-0.94331 -0.130459,-0.23081 -0.331164,-0.3412 -0.170599,-0.10035 -0.40141,-0.10035 -0.240847,0 -0.421481,0.11039 -0.200705,0.11038 -0.321128,0.33116 -0.180635,0.30106 -0.180635,0.76268 z"
           style="fill:#babdb6;fill-opacity:1;stroke-width:0.62751919;stroke-miterlimit:4;stroke-dasharray:none"
           id="path1124"
           inkscape:connector-curvature="0" />
      </g>
      <g
         transform="translate(0,399.99999)"
         id="g1255">
        <path
           d="m 157.1126,268.62231 v -4.58727 q 0,-1.03397 0.42232,-1.77666 0.36407,-0.62621 1.00483,-0.99028 0.69902,-0.40776 1.68929,-0.40776 0.99027,0 1.68928,0.40776 0.6262,0.36407 1.00484,1.00483 0.26213,0.45145 0.3495,0.96115 l -1.68928,0.39319 q -0.0437,-0.30581 -0.18932,-0.55338 -0.17475,-0.30582 -0.46601,-0.46601 -0.29125,-0.17475 -0.69901,-0.17475 -0.3932,0 -0.68445,0.17475 -0.2767,0.16019 -0.45145,0.46601 -0.23301,0.39319 -0.23301,0.96115 v 4.58727 q 0,0.58251 0.23301,0.97572 0.17475,0.30582 0.45145,0.466 0.27669,0.16019 0.65532,0.16019 0.33495,0 0.58251,-0.14562 0.26213,-0.14563 0.43689,-0.43689 0.233,-0.40776 0.233,-1.0194 v -1.3252 h -1.23783 v -1.57279 h 2.98537 v 2.89799 q 0,1.06309 -0.43688,1.8058 -0.36408,0.62619 -0.97571,0.99026 -0.65533,0.37864 -1.58735,0.37864 -0.97571,0 -1.66016,-0.40777 -0.64076,-0.36406 -1.00483,-0.99026 -0.42232,-0.7427 -0.42232,-1.77667 z"
           style="font-style:normal;font-variant:normal;font-weight:bold;font-stretch:normal;font-size:medium;line-height:6.27203655px;font-family:'Iosevka Nerd Font';-inkscape-font-specification:'Iosevka Nerd Font, Bold';font-variant-ligatures:normal;font-variant-caps:normal;font-variant-numeric:normal;font-feature-settings:normal;text-align:start;letter-spacing:0px;word-spacing:0px;writing-mode:lr-tb;text-anchor:start;fill:#babdb6;fill-opacity:1;stroke:none;stroke-width:0.91063297;stroke-linecap:butt;stroke-linejoin:miter;stroke-miterlimit:4;stroke-dasharray:none;stroke-opacity:1"
           id="path1113"
           inkscape:connector-curvature="0" />
        <path
           d="m 164.43769,263.23408 q 0.0874,-0.52426 0.3495,-0.9757 0.36407,-0.62621 0.99028,-0.99028 0.69901,-0.40776 1.67472,-0.40776 0.97571,0 1.67472,0.40776 0.6262,0.36407 0.99027,0.99028 0.42232,0.72813 0.42232,1.60189 0,0.85921 -0.48057,1.68929 -0.40776,0.71358 -1.61647,1.7621 -1.20871,1.04853 -1.6456,1.79123 -0.24757,0.42232 -0.37863,1.00483 h 4.06302 v 1.57279 h -5.97075 v -0.0145 q 0,-2.06791 0.65533,-3.20381 0.49513,-0.85921 1.84947,-1.96598 1.10678,-0.91747 1.45628,-1.51454 0.32039,-0.56795 0.32039,-1.12134 0,-0.45144 -0.20388,-0.81551 -0.16019,-0.29126 -0.43689,-0.43689 -0.29125,-0.17474 -0.69901,-0.17474 -0.3932,0 -0.66989,0.16019 -0.27669,0.16018 -0.45145,0.46601 -0.14563,0.24756 -0.18931,0.55337 z"
           style="font-style:normal;font-variant:normal;font-weight:bold;font-stretch:normal;font-size:medium;line-height:6.27203655px;font-family:'Iosevka Nerd Font';-inkscape-font-specification:'Iosevka Nerd Font, Bold';font-variant-ligatures:normal;font-variant-caps:normal;font-variant-numeric:normal;font-feature-settings:normal;text-align:start;letter-spacing:0px;word-spacing:0px;writing-mode:lr-tb;text-anchor:start;fill:#babdb6;fill-opacity:1;stroke:none;stroke-width:0.91063297;stroke-linecap:butt;stroke-linejoin:miter;stroke-miterlimit:4;stroke-dasharray:none;stroke-opacity:1"
           id="path1115"
           inkscape:connector-curvature="0" />
        <path
           sodipodi:nodetypes="ssccsccssccsccscccsccsccccsccscc"
           inkscape:connector-curvature="0"
           id="path220"
           style="font-style:normal;font-variant:normal;font-weight:bold;font-stretch:normal;font-size:medium;line-height:6.27203655px;font-family:'Iosevka Nerd Font';-inkscape-font-specification:'Iosevka Nerd Font, Bold';font-variant-ligatures:normal;font-variant-caps:normal;font-variant-numeric:normal;font-feature-settings:normal;text-align:start;letter-spacing:0px;word-spacing:0px;writing-mode:lr-tb;text-anchor:start;fill:#babdb6;fill-opacity:1;stroke:none;stroke-width:0.36408421px;stroke-linecap:butt;stroke-linejoin:miter;stroke-opacity:1"
           d="m 171.6754,268.47698 v -4.29619 c 0,-0.74758 0.15049,-1.38352 0.45146,-1.9078 0.25244,-0.43689 0.59225,-0.77671 1.01943,-1.01943 0.45633,-0.26215 1.00003,-0.39322 1.6311,-0.39322 0.63109,0 1.17478,0.13104 1.6311,0.39322 0.4272,0.24272 0.76701,0.58254 1.01945,1.01943 0.30096,0.52428 0.45146,1.16022 0.45146,1.9078 v 4.29619 c 0,0.7476 -0.1505,1.38352 -0.45146,1.90781 -0.25244,0.4369 -0.59225,0.77672 -1.01945,1.01943 -0.45632,0.26214 -1.00001,0.39321 -1.6311,0.39321 -0.63107,0 -1.17477,-0.13104 -1.6311,-0.39321 -0.42718,-0.24271 -0.76699,-0.58253 -1.01943,-1.01943 -0.30097,-0.52429 -0.45146,-1.16021 -0.45146,-1.90781 z m 4.38357,-4.93698 c -0.0389,-0.17475 -0.0971,-0.33009 -0.17476,-0.46603 -0.12625,-0.21358 -0.28641,-0.37379 -0.48058,-0.48058 -0.17477,-0.10681 -0.38351,-0.1602 -0.62624,-0.1602 -0.24271,0 -0.45145,0.0534 -0.62621,0.1602 -0.19419,0.10681 -0.35439,0.267 -0.48059,0.48058 -0.16506,0.29128 -0.24758,0.66021 -0.24758,1.10682 v 2.82529 l 0.0729,2.1117 c 0.0389,0.17476 0.0971,0.3301 0.17477,0.46602 0.12626,0.2136 0.28641,0.37381 0.48058,0.4806 0.18447,0.10681 0.39321,0.1602 0.62622,0.1602 0.24273,0 0.45147,-0.0534 0.62623,-0.1602 0.19417,-0.10681 0.35438,-0.267 0.48058,-0.4806 0.16506,-0.29126 0.24758,-0.66021 0.24758,-1.10682 v -2.82529 z" />
      </g>
      <g
         transform="translate(0,399.99999)"
         id="g1248">
        <path
           d="m 125.30261,160.10922 v -4.58727 q 0,-1.03397 0.42232,-1.77667 0.36407,-0.6262 1.00483,-0.99026 0.69902,-0.40777 1.68929,-0.40777 0.99027,0 1.68928,0.40777 0.6262,0.36406 1.00484,1.00483 0.26213,0.45144 0.3495,0.96115 l -1.68928,0.39319 q -0.0437,-0.30582 -0.18932,-0.55339 -0.17475,-0.30582 -0.46601,-0.46601 -0.29125,-0.17475 -0.69901,-0.17475 -0.3932,0 -0.68445,0.17475 -0.2767,0.16019 -0.45145,0.46601 -0.233,0.39319 -0.233,0.96115 v 4.58727 q 0,0.58251 0.233,0.97572 0.17475,0.30582 0.45145,0.466 0.27669,0.16019 0.65532,0.16019 0.33495,0 0.58252,-0.14562 0.26213,-0.14562 0.43688,-0.43689 0.233,-0.40776 0.233,-1.0194 v -1.32521 h -1.23783 v -1.57277 h 2.98537 v 2.89798 q 0,1.0631 -0.43688,1.80579 -0.36407,0.6262 -0.97571,0.99027 -0.65533,0.37864 -1.58735,0.37864 -0.9757,0 -1.66016,-0.40776 -0.64076,-0.36407 -1.00483,-0.99028 -0.42232,-0.74269 -0.42232,-1.77666 z"
           style="font-style:normal;font-variant:normal;font-weight:bold;font-stretch:normal;font-size:medium;line-height:6.27203655px;font-family:'Iosevka Nerd Font';-inkscape-font-specification:'Iosevka Nerd Font, Bold';font-variant-ligatures:normal;font-variant-caps:normal;font-variant-numeric:normal;font-feature-settings:normal;text-align:start;letter-spacing:0px;word-spacing:0px;writing-mode:lr-tb;text-anchor:start;fill:#babdb6;fill-opacity:1;stroke:none;stroke-width:0.91063297;stroke-linecap:butt;stroke-linejoin:miter;stroke-miterlimit:4;stroke-dasharray:none;stroke-opacity:1"
           id="path1169"
           inkscape:connector-curvature="0" />
        <path
           d="m 133.03546,154.15304 2.21354,-1.68929 h 1.74754 v 10.70367 H 135.249 v -8.65031 l -1.16502,0.88833 z"
           style="font-style:normal;font-variant:normal;font-weight:bold;font-stretch:normal;font-size:medium;line-height:6.27203655px;font-family:'Iosevka Nerd Font';-inkscape-font-specification:'Iosevka Nerd Font, Bold';font-variant-ligatures:normal;font-variant-caps:normal;font-variant-numeric:normal;font-feature-settings:normal;text-align:start;letter-spacing:0px;word-spacing:0px;writing-mode:lr-tb;text-anchor:start;fill:#babdb6;fill-opacity:1;stroke:none;stroke-width:0.91063297;stroke-linecap:butt;stroke-linejoin:miter;stroke-miterlimit:4;stroke-dasharray:none;stroke-opacity:1"
           id="path1171"
           inkscape:connector-curvature="0" />
        <path
           d="m 139.86541,159.96389 v -4.29619 c 0,-0.74758 0.15049,-1.38352 0.45146,-1.9078 0.25244,-0.43689 0.59225,-0.77671 1.01943,-1.01943 0.45633,-0.26215 1.00003,-0.39322 1.6311,-0.39322 0.63109,0 1.17478,0.13104 1.6311,0.39322 0.4272,0.24272 0.76701,0.58254 1.01945,1.01943 0.30096,0.52428 0.45146,1.16022 0.45146,1.9078 v 4.29619 c 0,0.7476 -0.1505,1.38352 -0.45146,1.90781 -0.25244,0.4369 -0.59225,0.77672 -1.01945,1.01943 -0.45632,0.26214 -1.00001,0.39321 -1.6311,0.39321 -0.63107,0 -1.17477,-0.13104 -1.6311,-0.39321 -0.42718,-0.24271 -0.76699,-0.58253 -1.01943,-1.01943 -0.30097,-0.52429 -0.45146,-1.16021 -0.45146,-1.90781 z m 4.38357,-4.93698 c -0.0389,-0.17475 -0.0971,-0.33009 -0.17476,-0.46603 -0.12625,-0.21358 -0.28641,-0.37379 -0.48058,-0.48058 -0.17477,-0.10681 -0.38351,-0.1602 -0.62624,-0.1602 -0.24271,0 -0.45145,0.0534 -0.62621,0.1602 -0.19419,0.10681 -0.35439,0.267 -0.48059,0.48058 -0.16506,0.29128 -0.24758,0.66021 -0.24758,1.10682 v 2.82529 l 0.0729,2.1117 c 0.0389,0.17476 0.0971,0.3301 0.17477,0.46602 0.12626,0.2136 0.28641,0.37381 0.48058,0.4806 0.18447,0.10681 0.39321,0.1602 0.62622,0.1602 0.24273,0 0.45147,-0.0534 0.62623,-0.1602 0.19417,-0.10681 0.35438,-0.267 0.48058,-0.4806 0.16506,-0.29126 0.24758,-0.66021 0.24758,-1.10682 v -2.82529 z"
           style="font-style:normal;font-variant:normal;font-weight:bold;font-stretch:normal;font-size:medium;line-height:6.27203655px;font-family:'Iosevka Nerd Font';-inkscape-font-specification:'Iosevka Nerd Font, Bold';font-variant-ligatures:normal;font-variant-caps:normal;font-variant-numeric:normal;font-feature-settings:normal;text-align:start;letter-spacing:0px;word-spacing:0px;writing-mode:lr-tb;text-anchor:start;fill:#babdb6;fill-opacity:1;stroke:none;stroke-width:0.36408421px;stroke-linecap:butt;stroke-linejoin:miter;stroke-opacity:1"
           id="path1195"
           inkscape:connector-curvature="0"
           sodipodi:nodetypes="ssccsccssccsccscccsccsccccsccscc" />
      </g>
    </g>
    <g
       id="button3">
      <path
         id="path1002"
         transform="translate(16.168953,401.11334)"
         d="m 290.80664,92.496094 c -4.94588,0 -8.91406,3.966229 -8.91406,8.912106 v 25.86914 c 0,4.94589 3.96818,8.91211 8.91406,8.91211 z"
         style="color:#000000;overflow:visible;opacity:1;vector-effect:none;fill:#ffffff;fill-opacity:1;stroke:none;stroke-width:0.95555294;stroke-linecap:butt;stroke-linejoin:bevel;stroke-miterlimit:4;stroke-dasharray:none;stroke-dashoffset:0;stroke-opacity:1;marker:none;marker-start:none;marker-mid:none;marker-end:none;paint-order:normal"
         inkscape:connector-curvature="0" />
      <path
         id="path1016"
         transform="translate(16.168953,401.11334)"
         d="m 274.78516,110.49805 a 0.24906273,0.24906273 0 0 0 -0.17383,0.0781 l -4.3086,4.6543 a 0.24906273,0.24906273 0 0 0 0.008,0.3457 l 4.30664,4.30664 a 0.24906273,0.24906273 0 0 0 0.40429,-0.27734 l -1.90429,-4.20899 1.9082,-4.55468 a 0.24906273,0.24906273 0 0 0 -0.24023,-0.34375 z"
         style="color:#000000;overflow:visible;opacity:1;vector-effect:none;fill:#888a85;fill-opacity:1;stroke:none;stroke-width:0.95555294;stroke-linecap:butt;stroke-linejoin:bevel;stroke-miterlimit:4;stroke-dasharray:none;stroke-dashoffset:0;stroke-opacity:1;marker:none;marker-start:none;marker-mid:none;marker-end:none;paint-order:normal"
         inkscape:connector-curvature="0" />
    </g>
    <g
       id="button4">
      <path
         id="path1010"
         transform="translate(16.168953,401.11334)"
         d="m 290.80664,92.496094 v 43.693356 c 4.94589,0 8.91211,-3.96622 8.91211,-8.91211 V 101.4082 c 0,-4.945877 -3.96622,-8.912106 -8.91211,-8.912106 z"
         style="color:#000000;overflow:visible;opacity:1;vector-effect:none;fill:#ffffff;fill-opacity:1;stroke:none;stroke-width:0.95555294;stroke-linecap:butt;stroke-linejoin:bevel;stroke-miterlimit:4;stroke-dasharray:none;stroke-dashoffset:0;stroke-opacity:1;marker:none;marker-start:none;marker-mid:none;marker-end:none;paint-order:normal"
         inkscape:connector-curvature="0" />
      <path
         id="path1018"
         d="m 306.69922,110.49805 a 0.24906273,0.24906273 0 0 0 -0.21484,0.34375 l 1.90624,4.55468 -1.90234,4.20899 a 0.24906273,0.24906273 0 0 0 0.40234,0.27734 l 4.3086,-4.30664 a 0.24906273,0.24906273 0 0 0 0.006,-0.3457 l -4.30664,-4.6543 a 0.24906273,0.24906273 0 0 0 -0.17578,-0.0781 0.24906273,0.24906273 0 0 0 -0.0234,0 z"
         style="color:#000000;overflow:visible;opacity:1;vector-effect:none;fill:#888a85;fill-opacity:1;stroke:none;stroke-width:0.95555294;stroke-linecap:butt;stroke-linejoin:bevel;stroke-miterlimit:4;stroke-dasharray:none;stroke-dashoffset:0;stroke-opacity:1;marker:none;marker-start:none;marker-mid:none;marker-end:none;paint-order:normal"
         inkscape:connector-curvature="0"
         transform="translate(16.168953,401.11334)" />
    </g>
  </g>
  <g
     inkscape:groupmode="layer"
     id="Buttons"
     inkscape:label="Buttons"
     style="display:inline"
     transform="translate(-16.168953,-1.1133461)"
     sodipodi:insensitive="true">
    <g
       id="button0-path"
       transform="translate(9.3749998)">
      <path
         id="path2139"
         d="M 474.62501,2.4496332 342.58718,2.4497772 258.12494,86.912022"
         style="fill:none;stroke:#888a85;stroke-width:1;stroke-linecap:butt;stroke-miterlimit:4;stroke-dasharray:none;stroke-opacity:1"
         inkscape:connector-curvature="0"
         sodipodi:nodetypes="ccc" />
      <rect
         style="display:inline;opacity:1;fill:#2e3436;fill-opacity:1;fill-rule:nonzero;stroke:none;stroke-width:1;stroke-linecap:square;stroke-linejoin:miter;stroke-miterlimit:4;stroke-dasharray:none;stroke-dashoffset:9.99999905;stroke-opacity:1;paint-order:normal"
         id="rect1803"
         width="7.2257466"
         height="7.2257476"
         x="255.31589"
         y="82.485825" />
      <rect
         style="text-align:start;opacity:1;fill:none;fill-opacity:1;fill-rule:nonzero;stroke:none;stroke-width:5;stroke-linecap:butt;stroke-linejoin:miter;stroke-miterlimit:4;stroke-dasharray:none;stroke-dashoffset:9.99999905;stroke-opacity:1;paint-order:normal"
         id="button0-leader"
         width="1"
         height="1"
         x="473.625"
         y="1.9497052" />
    </g>
    <g
       id="button1-path"
       transform="translate(9.3749998)">
      <path
         id="path2137"
         d="M 474.62501,38.649805 H 383.16173 L 334.69582,87.11572"
         style="fill:none;stroke:#888a85;stroke-width:1;stroke-linecap:butt;stroke-miterlimit:4;stroke-dasharray:none;stroke-opacity:1"
         inkscape:connector-curvature="0"
         sodipodi:nodetypes="ccc" />
      <rect
         y="82.485825"
         x="332.24747"
         height="7.2257476"
         width="7.2257466"
         id="rect1801"
         style="display:inline;opacity:1;fill:#2e3436;fill-opacity:1;fill-rule:nonzero;stroke:none;stroke-width:1;stroke-linecap:square;stroke-linejoin:miter;stroke-miterlimit:4;stroke-dasharray:none;stroke-dashoffset:9.99999905;stroke-opacity:1;paint-order:normal" />
      <rect
         style="text-align:start;opacity:1;fill:none;fill-opacity:1;fill-rule:nonzero;stroke:none;stroke-width:5;stroke-linecap:square;stroke-linejoin:miter;stroke-miterlimit:4;stroke-dasharray:none;stroke-dashoffset:9.99999905;stroke-opacity:1;paint-order:normal"
         id="button1-leader"
         width="1"
         height="1"
         x="473.625"
         y="38.149807" />
    </g>
    <g
       id="button2-path"
       transform="translate(9.3749998)">
      <path
         id="path2135"
         d="m 474.62501,74.849906 h -51.81484 l -25.96455,25.964554 h -83.14774 l -16.20851,16.2085"
         style="fill:none;stroke:#888a85;stroke-width:1;stroke-linecap:butt;stroke-miterlimit:4;stroke-dasharray:none;stroke-opacity:1"
         inkscape:connector-curvature="0"
         sodipodi:nodetypes="ccccc" />
      <rect
         style="display:inline;opacity:1;fill:#2e3436;fill-opacity:1;fill-rule:nonzero;stroke:none;stroke-width:1;stroke-linecap:square;stroke-linejoin:miter;stroke-miterlimit:4;stroke-dasharray:none;stroke-dashoffset:9.99999905;stroke-opacity:1;paint-order:normal"
         id="rect1720"
         width="7.2257466"
         height="7.2257476"
         x="293.98782"
         y="113.16031" />
      <rect
         style="text-align:start;opacity:1;fill:none;fill-opacity:1;fill-rule:nonzero;stroke:none;stroke-width:5;stroke-linecap:butt;stroke-linejoin:miter;stroke-miterlimit:4;stroke-dasharray:none;stroke-dashoffset:9.99999905;stroke-opacity:1;paint-order:normal"
         id="button2-leader"
         width="1"
         height="1"
         x="473.625"
         y="74.349907" />
    </g>
    <g
       id="button3-path"
       transform="translate(9.3749998)">
      <path
         id="path2133"
         d="m 474.62501,153.21473 h -52.59609 l -9.20777,-9.20777 h -116.0858 l -26.47859,-26.47859"
         style="fill:none;stroke:#888a85;stroke-width:1;stroke-linecap:butt;stroke-miterlimit:4;stroke-dasharray:none;stroke-opacity:1"
         inkscape:connector-curvature="0"
         sodipodi:nodetypes="ccccc" />
      <rect
         y="113.31364"
         x="265.98987"
         height="7.2257476"
         width="7.2257466"
         id="rect1797"
         style="display:inline;opacity:1;fill:#2e3436;fill-opacity:1;fill-rule:nonzero;stroke:none;stroke-width:1;stroke-linecap:square;stroke-linejoin:miter;stroke-miterlimit:4;stroke-dasharray:none;stroke-dashoffset:9.99999905;stroke-opacity:1;paint-order:normal" />
      <rect
         style="text-align:start;opacity:1;fill:none;fill-opacity:1;fill-rule:nonzero;stroke:none;stroke-width:5;stroke-linecap:butt;stroke-linejoin:miter;stroke-miterlimit:4;stroke-dasharray:none;stroke-dashoffset:9.99999905;stroke-opacity:1;paint-order:normal"
         id="button3-leader"
         width="1"
         height="1"
         x="473.625"
         y="152.71472" />
    </g>
    <g
       id="button4-path"
       transform="translate(9.2196297,0.24168689)">
      <path
         id="path2131"
         d="M 474.78038,116.82546 H 326.99094"
         style="fill:none;stroke:#888a85;stroke-width:1;stroke-linecap:butt;stroke-miterlimit:4;stroke-dasharray:none;stroke-opacity:1"
         inkscape:connector-curvature="0"
         sodipodi:nodetypes="cc" />
      <rect
         style="display:inline;opacity:1;fill:#2e3436;fill-opacity:1;fill-rule:nonzero;stroke:none;stroke-width:1;stroke-linecap:square;stroke-linejoin:miter;stroke-miterlimit:4;stroke-dasharray:none;stroke-dashoffset:9.99999905;stroke-opacity:1;paint-order:normal"
         id="rect1799"
         width="7.2257466"
         height="7.2257476"
         x="322.53781"
         y="113.07195" />
      <rect
         y="116.32545"
         x="473.78036"
         height="1"
         width="1"
         id="button4-leader"
         style="text-align:start;opacity:1;fill:none;fill-opacity:1;fill-rule:nonzero;stroke:none;stroke-width:5;stroke-linecap:square;stroke-linejoin:miter;stroke-miterlimit:4;stroke-dasharray:none;stroke-dashoffset:9.99999905;stroke-opacity:1;paint-order:normal" />
    </g>
    <g
       id="button5-path"
       transform="translate(12.965777,-10.982106)">
      <path
         id="curva_3D.Curve.052-2"
         d="m 471.03423,205.39703 -60.12242,2.9e-4 -32.00528,-32.00528"
         style="fill:none;stroke:#888a85;stroke-width:1;stroke-linecap:butt;stroke-miterlimit:4;stroke-dasharray:none;stroke-opacity:1"
         inkscape:connector-curvature="0"
         sodipodi:nodetypes="ccc" />
      <rect
         y="169.94836"
         x="375.50232"
         height="7.2257476"
         width="7.2257466"
         id="rect1805"
         style="display:inline;opacity:1;fill:#2e3436;fill-opacity:1;fill-rule:nonzero;stroke:none;stroke-width:1;stroke-linecap:square;stroke-linejoin:miter;stroke-miterlimit:4;stroke-dasharray:none;stroke-dashoffset:9.99999905;stroke-opacity:1;paint-order:normal" />
      <rect
         style="text-align:start;opacity:1;fill:none;fill-opacity:1;fill-rule:nonzero;stroke:none;stroke-width:5;stroke-linecap:butt;stroke-linejoin:miter;stroke-miterlimit:4;stroke-dasharray:none;stroke-dashoffset:9.99999905;stroke-opacity:1;paint-order:normal"
         id="button5-leader"
         width="1"
         height="1"
         x="470.03424"
         y="204.89717" />
    </g>
    <g
       id="button7-path"
       transform="translate(9.3749998)">
      <path
         id="path2125"
         d="M 474.62501,235.61517 H 422.81017 L 346.77434,159.57934 H 297.61426"
         style="fill:none;stroke:#888a85;stroke-width:1;stroke-linecap:butt;stroke-miterlimit:4;stroke-dasharray:none;stroke-opacity:1"
         inkscape:connector-curvature="0"
         sodipodi:nodetypes="cc" />
      <rect
         y="155.95151"
         x="293.88211"
         height="7.2257476"
         width="7.2257466"
         id="rect1789"
         style="display:inline;opacity:1;fill:#2e3436;fill-opacity:1;fill-rule:nonzero;stroke:none;stroke-width:1;stroke-linecap:square;stroke-linejoin:miter;stroke-miterlimit:4;stroke-dasharray:none;stroke-dashoffset:9.99999905;stroke-opacity:1;paint-order:normal" />
      <rect
         style="text-align:start;opacity:1;fill:none;fill-opacity:1;fill-rule:nonzero;stroke:none;stroke-width:5;stroke-linecap:square;stroke-linejoin:miter;stroke-miterlimit:4;stroke-dasharray:none;stroke-dashoffset:9.99999905;stroke-opacity:1;paint-order:normal"
         id="button7-leader"
         width="1"
         height="1"
         x="473.625"
         y="235.11517" />
    </g>
    <g
       id="button6-path"
       transform="translate(9.3749998)">
      <path
         id="path2127"
         d="m 474.62501,271.81531 -51.81484,-7e-5 -86.28147,-86.28147 h -38.96327"
         style="fill:none;stroke:#888a85;stroke-width:1;stroke-linecap:butt;stroke-miterlimit:4;stroke-dasharray:none;stroke-opacity:1"
         inkscape:connector-curvature="0"
         sodipodi:nodetypes="cc" />
      <rect
         style="display:inline;opacity:1;fill:#2e3436;fill-opacity:1;fill-rule:nonzero;stroke:none;stroke-width:1;stroke-linecap:square;stroke-linejoin:miter;stroke-miterlimit:4;stroke-dasharray:none;stroke-dashoffset:9.99999905;stroke-opacity:1;paint-order:normal"
         id="rect1791"
         width="7.2257466"
         height="7.2257476"
         x="293.88211"
         y="181.92424" />
      <rect
         style="text-align:start;opacity:1;fill:none;fill-opacity:1;fill-rule:nonzero;stroke:none;stroke-width:5;stroke-linecap:square;stroke-linejoin:miter;stroke-miterlimit:4;stroke-dasharray:none;stroke-dashoffset:9.99999905;stroke-opacity:1;paint-order:normal"
         id="button6-leader"
         width="1"
         height="1"
         x="473.625"
         y="271.31528" />
    </g>
    <g
       id="button8-path">
      <path
         inkscape:connector-curvature="0"
         style="display:inline;fill:none;stroke:#888a85;stroke-width:1;stroke-linecap:butt;stroke-miterlimit:4;stroke-dasharray:none;stroke-opacity:1"
         d="m 16.575719,42.353863 h 12.4999 l 74.815911,75.125547 v 70.56069"
         id="path2157"
         sodipodi:nodetypes="cccc"
         transform="translate(-0.406666,-39.904158)" />
      <rect
         style="text-align:end;opacity:1;fill:none;fill-opacity:1;fill-rule:nonzero;stroke:none;stroke-width:5;stroke-linecap:square;stroke-linejoin:miter;stroke-miterlimit:4;stroke-dasharray:none;stroke-dashoffset:9.99999905;stroke-opacity:1;paint-order:normal"
         id="button8-leader"
         width="1"
         height="1"
         x="16.169052"
         y="1.9497054" />
      <rect
         style="display:inline;opacity:1;fill:#2e3436;fill-opacity:1;fill-rule:nonzero;stroke:none;stroke-width:1;stroke-linecap:square;stroke-linejoin:miter;stroke-miterlimit:4;stroke-dasharray:none;stroke-dashoffset:9.99999905;stroke-opacity:1;paint-order:normal"
         id="rect162"
         width="7.2257466"
         height="7.2257476"
         x="99.871994"
         y="144.50333" />
    </g>
    <g
       id="button9-path">
      <path
         sodipodi:nodetypes="cc"
         id="path2155"
         d="m 16.169053,38.649805 h 12.4999 L 86.46269,96.443546 h 48.72092 v 45.106234"
         style="fill:none;stroke:#888a85;stroke-width:1;stroke-linecap:butt;stroke-miterlimit:4;stroke-dasharray:none;stroke-opacity:1"
         inkscape:connector-curvature="0" />
      <rect
         style="text-align:end;opacity:1;fill:none;fill-opacity:1;fill-rule:nonzero;stroke:none;stroke-width:5;stroke-linecap:square;stroke-linejoin:miter;stroke-miterlimit:4;stroke-dasharray:none;stroke-dashoffset:9.99999905;stroke-opacity:1;paint-order:normal"
         id="button9-leader"
         width="1"
         height="1"
         x="16.169052"
         y="38.149807" />
      <rect
         y="137.76154"
         x="131.57074"
         height="7.2257476"
         width="7.2257466"
         id="rect1035"
         style="display:inline;opacity:1;fill:#2e3436;fill-opacity:1;fill-rule:nonzero;stroke:none;stroke-width:1;stroke-linecap:square;stroke-linejoin:miter;stroke-miterlimit:4;stroke-dasharray:none;stroke-dashoffset:9.99999905;stroke-opacity:1;paint-order:normal" />
    </g>
    <g
       id="button10-path">
      <path
         sodipodi:nodetypes="cc"
         id="path2153"
         d="m 16.169053,74.849906 h 12.4999 l 40.325143,40.325144 h 97.743664 v 32.96089"
         style="fill:none;stroke:#888a85;stroke-width:1;stroke-linecap:butt;stroke-miterlimit:4;stroke-dasharray:none;stroke-opacity:1"
         inkscape:connector-curvature="0" />
      <rect
         style="text-align:end;opacity:1;fill:none;fill-opacity:1;fill-rule:nonzero;stroke:none;stroke-width:5;stroke-linecap:square;stroke-linejoin:miter;stroke-miterlimit:4;stroke-dasharray:none;stroke-dashoffset:9.99999905;stroke-opacity:1;paint-order:normal"
         id="button10-leader"
         width="1"
         height="1"
         x="16.169052"
         y="74.349953" />
      <rect
         style="display:inline;opacity:1;fill:#2e3436;fill-opacity:1;fill-rule:nonzero;stroke:none;stroke-width:1;stroke-linecap:square;stroke-linejoin:miter;stroke-miterlimit:4;stroke-dasharray:none;stroke-dashoffset:9.99999905;stroke-opacity:1;paint-order:normal"
         id="rect1037"
         width="7.2257466"
         height="7.2257476"
         x="163.12489"
         y="144.50333" />
    </g>
    <g
       id="button11-path">
      <path
         sodipodi:nodetypes="cccccc"
         id="path2163"
         d="m 16.169053,111.05006 h 12.4999 l 40.325143,40.32514 v 26.01729 h 26.35904 l 5.530214,5.53021"
         style="fill:none;stroke:#888a85;stroke-width:1;stroke-linecap:butt;stroke-miterlimit:4;stroke-dasharray:none;stroke-opacity:1"
         inkscape:connector-curvature="0" />
      <rect
         style="text-align:end;opacity:1;fill:none;fill-opacity:1;fill-rule:nonzero;stroke:none;stroke-width:5;stroke-linecap:square;stroke-linejoin:miter;stroke-miterlimit:4;stroke-dasharray:none;stroke-dashoffset:9.99999905;stroke-opacity:1;paint-order:normal"
         id="button11-leader"
         width="1"
         height="1"
         x="16.169052"
         y="110.55006" />
      <rect
         y="178.29239"
         x="99.871994"
         height="7.2257476"
         width="7.2257466"
         id="rect1041"
         style="display:inline;opacity:1;fill:#2e3436;fill-opacity:1;fill-rule:nonzero;stroke:none;stroke-width:1;stroke-linecap:square;stroke-linejoin:miter;stroke-miterlimit:4;stroke-dasharray:none;stroke-dashoffset:9.99999905;stroke-opacity:1;paint-order:normal" />
    </g>
    <g
       id="button12-path">
      <path
         sodipodi:nodetypes="cccccc"
         id="path2161"
         d="m 16.169053,147.25016 h 12.4999 l 17.950105,15.5 v 14.64233 h 80.630872 l 5.43563,5.43563"
         style="fill:none;stroke:#888a85;stroke-width:1;stroke-linecap:butt;stroke-miterlimit:4;stroke-dasharray:none;stroke-opacity:1"
         inkscape:connector-curvature="0" />
      <rect
         style="text-align:end;opacity:1;fill:none;fill-opacity:1;fill-rule:nonzero;stroke:none;stroke-width:5;stroke-linecap:square;stroke-linejoin:miter;stroke-miterlimit:4;stroke-dasharray:none;stroke-dashoffset:9.99999905;stroke-opacity:1;paint-order:normal"
         id="button12-leader"
         width="1"
         height="1"
         x="16.169052"
         y="146.75017" />
      <rect
         style="display:inline;opacity:1;fill:#2e3436;fill-opacity:1;fill-rule:nonzero;stroke:none;stroke-width:1;stroke-linecap:square;stroke-linejoin:miter;stroke-miterlimit:4;stroke-dasharray:none;stroke-dashoffset:9.99999905;stroke-opacity:1;paint-order:normal"
         id="rect1043"
         width="7.2257466"
         height="7.2257476"
         x="131.57074"
         y="178.29239" />
    </g>
    <g
       id="button13-path">
      <path
         sodipodi:nodetypes="ccccc"
         id="path2159"
         d="m 16.169053,183.45026 h 12.4999 l 6.057778,-6.05778 H 159.40227 l 4.68384,4.68385"
         style="fill:none;stroke:#888a85;stroke-width:1;stroke-linecap:butt;stroke-miterlimit:4;stroke-dasharray:none;stroke-opacity:1"
         inkscape:connector-curvature="0" />
      <rect
         style="text-align:end;opacity:1;fill:none;fill-opacity:1;fill-rule:nonzero;stroke:none;stroke-width:5;stroke-linecap:square;stroke-linejoin:miter;stroke-miterlimit:4;stroke-dasharray:none;stroke-dashoffset:9.99999905;stroke-opacity:1;paint-order:normal"
         id="button13-leader"
         width="1"
         height="1"
         x="16.169052"
         y="182.95027" />
      <rect
         y="178.29239"
         x="163.12489"
         height="7.2257476"
         width="7.2257466"
         id="rect1045"
         style="display:inline;opacity:1;fill:#2e3436;fill-opacity:1;fill-rule:nonzero;stroke:none;stroke-width:1;stroke-linecap:square;stroke-linejoin:miter;stroke-miterlimit:4;stroke-dasharray:none;stroke-dashoffset:9.99999905;stroke-opacity:1;paint-order:normal" />
    </g>
    <g
       id="button14-path">
      <path
         sodipodi:nodetypes="cccccc"
         id="path2147"
         d="m 16.169053,219.65037 h 12.4999 l 18.168455,18.16846 v 11.79345 h 49.340047 l 4.440905,-4.44092"
         style="fill:none;stroke:#888a85;stroke-width:1;stroke-linecap:butt;stroke-miterlimit:4;stroke-dasharray:none;stroke-opacity:1"
         inkscape:connector-curvature="0" />
      <rect
         style="text-align:end;opacity:1;fill:none;fill-opacity:1;fill-rule:nonzero;stroke:none;stroke-width:5;stroke-linecap:square;stroke-linejoin:miter;stroke-miterlimit:4;stroke-dasharray:none;stroke-dashoffset:9.99999905;stroke-opacity:1;paint-order:normal"
         id="button14-leader"
         width="1"
         height="1"
         x="16.169052"
         y="219.15038" />
      <rect
         style="display:inline;opacity:1;fill:#2e3436;fill-opacity:1;fill-rule:nonzero;stroke:none;stroke-width:1;stroke-linecap:square;stroke-linejoin:miter;stroke-miterlimit:4;stroke-dasharray:none;stroke-dashoffset:9.99999905;stroke-opacity:1;paint-order:normal"
         id="rect1047"
         width="7.2257466"
         height="7.2257476"
         x="99.871994"
         y="241.18301" />
    </g>
    <g
       id="button15-path">
      <path
         sodipodi:nodetypes="ccccc"
         id="path2149"
         d="m 16.169053,255.85047 h 12.4999 l 6.238195,-6.23819 h 92.322892 l 5.01466,-5.01467"
         style="fill:none;stroke:#888a85;stroke-width:1;stroke-linecap:butt;stroke-miterlimit:4;stroke-dasharray:none;stroke-opacity:1"
         inkscape:connector-curvature="0" />
      <rect
         style="text-align:end;opacity:1;fill:none;fill-opacity:1;fill-rule:nonzero;stroke:none;stroke-width:5;stroke-linecap:square;stroke-linejoin:miter;stroke-miterlimit:4;stroke-dasharray:none;stroke-dashoffset:9.99999905;stroke-opacity:1;paint-order:normal"
         id="button15-leader"
         width="1"
         height="1"
         x="16.169052"
         y="255.35048" />
      <rect
         y="241.18301"
         x="131.57074"
         height="7.2257476"
         width="7.2257466"
         id="rect1049"
         style="display:inline;opacity:1;fill:#2e3436;fill-opacity:1;fill-rule:nonzero;stroke:none;stroke-width:1;stroke-linecap:square;stroke-linejoin:miter;stroke-miterlimit:4;stroke-dasharray:none;stroke-dashoffset:9.99999905;stroke-opacity:1;paint-order:normal" />
    </g>
    <g
       id="button16-path">
      <path
         sodipodi:nodetypes="cccccc"
         id="path2151"
         d="m 16.169053,292.05059 h 12.4999 l 31.942971,-31.94297 v -10.49534 h 98.790346 l 4.30819,-4.30819"
         style="fill:none;stroke:#888a85;stroke-width:1;stroke-linecap:butt;stroke-miterlimit:4;stroke-dasharray:none;stroke-opacity:1"
         inkscape:connector-curvature="0" />
      <rect
         style="text-align:end;opacity:1;fill:none;fill-opacity:1;fill-rule:nonzero;stroke:none;stroke-width:5;stroke-linecap:square;stroke-linejoin:miter;stroke-miterlimit:4;stroke-dasharray:none;stroke-dashoffset:9.99999905;stroke-opacity:1;paint-order:normal"
         id="button16-leader"
         width="1"
         height="1"
         x="16.169052"
         y="291.55057" />
      <rect
         style="display:inline;opacity:1;fill:#2e3436;fill-opacity:1;fill-rule:nonzero;stroke:none;stroke-width:1;stroke-linecap:square;stroke-linejoin:miter;stroke-miterlimit:4;stroke-dasharray:none;stroke-dashoffset:9.99999905;stroke-opacity:1;paint-order:normal"
         id="rect1051"
         width="7.2257466"
         height="7.2257476"
         x="163.12489"
         y="241.18301" />
    </g>
    <g
       id="button17-path">
      <path
         sodipodi:nodetypes="cc"
         id="path2165"
         d="m 16.169053,328.25069 h 12.87351 l 31.194901,-31.1949 h 43.247396 v -17.19911"
         style="fill:none;stroke:#888a85;stroke-width:1;stroke-linecap:butt;stroke-miterlimit:4;stroke-dasharray:none;stroke-opacity:1"
         inkscape:connector-curvature="0" />
      <rect
         style="text-align:end;opacity:1;fill:none;fill-opacity:1;fill-rule:nonzero;stroke:none;stroke-width:5;stroke-linecap:square;stroke-linejoin:miter;stroke-miterlimit:4;stroke-dasharray:none;stroke-dashoffset:9.99999905;stroke-opacity:1;paint-order:normal"
         id="button17-leader"
         width="1"
         height="1"
         x="16.169052"
         y="327.7507" />
      <rect
         y="276.38397"
         x="99.871994"
         height="7.2257476"
         width="7.2257466"
         id="rect1053"
         style="display:inline;opacity:1;fill:#2e3436;fill-opacity:1;fill-rule:nonzero;stroke:none;stroke-width:1;stroke-linecap:square;stroke-linejoin:miter;stroke-miterlimit:4;stroke-dasharray:none;stroke-dashoffset:9.99999905;stroke-opacity:1;paint-order:normal" />
    </g>
    <g
       id="button18-path">
      <path
         sodipodi:nodetypes="cc"
         id="path2143"
         d="m 16.169053,364.45079 h 12.87351 l 52.60771,-52.60771 h 53.533337 v -27.94574"
         style="fill:none;stroke:#888a85;stroke-width:1;stroke-linecap:butt;stroke-miterlimit:4;stroke-dasharray:none;stroke-opacity:1"
         inkscape:connector-curvature="0" />
      <rect
         style="text-align:end;opacity:1;fill:none;fill-opacity:1;fill-rule:nonzero;stroke:none;stroke-width:5;stroke-linecap:square;stroke-linejoin:miter;stroke-miterlimit:4;stroke-dasharray:none;stroke-dashoffset:9.99999905;stroke-opacity:1;paint-order:normal"
         id="button18-leader"
         width="1"
         height="1"
         x="16.169052"
         y="363.95081" />
      <rect
         style="display:inline;opacity:1;fill:#2e3436;fill-opacity:1;fill-rule:nonzero;stroke:none;stroke-width:1;stroke-linecap:square;stroke-linejoin:miter;stroke-miterlimit:4;stroke-dasharray:none;stroke-dashoffset:9.99999905;stroke-opacity:1;paint-order:normal"
         id="rect1055"
         width="7.2257466"
         height="7.2257476"
         x="131.57074"
         y="280.74683" />
    </g>
    <g
       id="button19-path">
      <path
         sodipodi:nodetypes="cccccc"
         id="path2145"
         d="m 16.169053,400.65091 h 12.87351 l 74.442297,-74.4423 h 43.47403 19.77887 v -46.23888"
         style="fill:none;stroke:#888a85;stroke-width:1;stroke-linecap:butt;stroke-miterlimit:4;stroke-dasharray:none;stroke-opacity:1"
         inkscape:connector-curvature="0" />
      <rect
         style="text-align:end;opacity:1;fill:none;fill-opacity:1;fill-rule:nonzero;stroke:none;stroke-width:5;stroke-linecap:square;stroke-linejoin:miter;stroke-miterlimit:4;stroke-dasharray:none;stroke-dashoffset:9.99999905;stroke-opacity:1;paint-order:normal"
         id="button19-leader"
         width="1"
         height="1"
         x="16.169052"
         y="400.15091" />
      <rect
         y="276.38397"
         x="163.12489"
         height="7.2257476"
         width="7.2257466"
         id="rect1057"
         style="display:inline;opacity:1;fill:#2e3436;fill-opacity:1;fill-rule:nonzero;stroke:none;stroke-width:1;stroke-linecap:square;stroke-linejoin:miter;stroke-miterlimit:4;stroke-dasharray:none;stroke-dashoffset:9.99999905;stroke-opacity:1;paint-order:normal" />
    </g>
  </g>
  <g
     inkscape:groupmode="layer"
     id="LEDs"
     inkscape:label="LEDs"
     style="display:inline"
     transform="translate(-16.168953,-1.1133461)">
    <g
       id="led0-path"
       transform="translate(-227.87737,-0.70864333)">
      <path
         inkscape:connector-curvature="0"
         id="path1140"
         d="M 363.08924,213.9475 H 244.04632"
         style="display:inline;fill:none;fill-rule:evenodd;stroke:#888a85;stroke-width:1;stroke-linecap:butt;stroke-linejoin:miter;stroke-miterlimit:4;stroke-dasharray:none;stroke-opacity:1"
         sodipodi:nodetypes="cc" />
      <rect
         style="opacity:1;fill:#2e3436;fill-opacity:1;fill-rule:nonzero;stroke:none;stroke-width:1;stroke-linecap:square;stroke-linejoin:miter;stroke-miterlimit:4;stroke-dasharray:none;stroke-dashoffset:9.99999905;stroke-opacity:1;paint-order:normal"
         id="rect1145"
         width="7.2257466"
         height="7.2257476"
         x="359.44812"
         y="209.87848" />
    </g>
    <rect
       style="text-align:end;opacity:1;fill:none;fill-opacity:1;fill-rule:nonzero;stroke:none;stroke-width:5;stroke-linecap:square;stroke-linejoin:miter;stroke-miterlimit:4;stroke-dasharray:none;stroke-dashoffset:9.99999905;stroke-opacity:1;paint-order:normal"
       id="led0-leader"
       width="1"
       height="1"
       x="16.168953"
       y="212.73886" />
  </g>
</svg>
