<?xml version="1.0" encoding="UTF-8" standalone="no"?>
<!-- Created with Inkscape (http://www.inkscape.org/) -->

<svg
   xmlns:dc="http://purl.org/dc/elements/1.1/"
   xmlns:cc="http://creativecommons.org/ns#"
   xmlns:rdf="http://www.w3.org/1999/02/22-rdf-syntax-ns#"
   xmlns:svg="http://www.w3.org/2000/svg"
   xmlns="http://www.w3.org/2000/svg"
   xmlns:sodipodi="http://sodipodi.sourceforge.net/DTD/sodipodi-0.dtd"
   xmlns:inkscape="http://www.inkscape.org/namespaces/inkscape"
   width="490"
   height="490"
   viewBox="0 0 129.64583 129.64583"
   version="1.1"
   id="svg8"
   sodipodi:docname="steelseries-kinzu-v2.svg"
   inkscape:version="0.92.3 (2405546, 2018-03-11)">
  <defs
     id="defs2" />
  <sodipodi:namedview
     id="base"
     pagecolor="#ffffff"
     bordercolor="#666666"
     borderopacity="1.0"
     inkscape:pageopacity="0.0"
     inkscape:pageshadow="2"
     inkscape:zoom="128"
     inkscape:cx="1.394717"
     inkscape:cy="334.40624"
     inkscape:document-units="px"
     inkscape:current-layer="Buttons"
     inkscape:document-rotation="0"
     showgrid="false"
     showguides="false"
     inkscape:window-width="1920"
     inkscape:window-height="1163"
     inkscape:window-x="1920"
     inkscape:window-y="0"
     inkscape:window-maximized="1"
     showborder="true"
     inkscape:guide-bbox="true"
     units="px"
     inkscape:snap-global="false"
     inkscape:measure-start="0,0"
     inkscape:measure-end="0,0">
    <inkscape:grid
       type="xygrid"
       id="grid78" />
    <sodipodi:guide
       position="58.722772,112.40709"
       orientation="0,1"
       id="guide79"
       inkscape:locked="false" />
    <sodipodi:guide
       position="39.611923,100.54373"
       orientation="0,1"
       id="guide81"
       inkscape:locked="false" />
    <sodipodi:guide
       position="51.756014,88.614617"
       orientation="0,1"
       id="guide83"
       inkscape:locked="false" />
    <sodipodi:guide
       position="57.778386,76.729167"
       orientation="0,1"
       id="guide85"
       inkscape:locked="false" />
    <sodipodi:guide
       position="45.047078,64.795712"
       orientation="0,1"
       inkscape:locked="false"
       id="guide87" />
    <sodipodi:guide
       position="57.646696,52.899321"
       orientation="0,1"
       id="guide89"
       inkscape:locked="false" />
    <sodipodi:guide
       position="64.732676,142.09384"
       orientation="1,0"
       id="guide913"
       inkscape:locked="false" />
    <sodipodi:guide
       position="-45.462545,31.805073"
       orientation="0,1"
       inkscape:locked="false"
       id="guide944" />
  </sodipodi:namedview>
  <metadata
     id="metadata5">
    <rdf:RDF>
      <cc:Work
         rdf:about="">
        <dc:format>image/svg+xml</dc:format>
        <dc:type
           rdf:resource="http://purl.org/dc/dcmitype/StillImage" />
        <dc:title />
      </cc:Work>
    </rdf:RDF>
  </metadata>
  <g
     inkscape:groupmode="layer"
     id="Device"
     inkscape:label="Device"
     style="display:inline;opacity:1"
     transform="translate(0,-167.35416)">
    <path
       style="fill:#eeeeec;fill-opacity:1;fill-rule:evenodd;stroke:#babdb6;stroke-width:0.98636663;stroke-linecap:butt;stroke-linejoin:miter;stroke-miterlimit:4;stroke-dasharray:none;stroke-opacity:1"
       d="m 61.052601,173.57187 c -6.81302,0.0662 -11.972394,1.52136 -16.073435,3.37344 -2.88728,1.31189 -4.888218,3.54982 -6.680729,5.62239 -2.215885,3.43407 -2.38125,5.63618 -2.976562,8.86355 -0.919394,7.49385 -0.763027,14.47321 -0.79375,22.62187 -0.0441,2.92144 -0.104731,3.9908 -0.33073,6.28385 -0.132292,4.05143 -0.413412,7.82174 -0.79375,11.90625 l -0.859895,11.9724 -1.190625,16.27187 c -0.0248,0.94258 -10e-7,1.65364 0.198437,2.57969 0.171855,0.8399 0.352238,1.03153 0.463021,1.52135 0.595312,2.4033 0.529166,3.99631 1.785937,7.2099 2.116666,4.23333 3.604948,6.84609 6.746875,10.71562 3.858506,4.06797 6.928936,5.67685 11.575518,7.34219 4.293136,1.39044 7.919768,1.65835 12.633854,1.78594 0,0 8.340581,-0.39932 12.633718,-1.78976 4.646582,-1.66534 7.717012,-3.27422 11.575518,-7.34219 3.141927,-3.86953 4.630209,-6.48229 6.746875,-10.71562 1.256771,-3.21359 1.190625,-4.8066 1.785937,-7.2099 0.110783,-0.48982 0.291166,-0.68145 0.463021,-1.52135 0.198438,-0.92605 0.223237,-1.63711 0.198437,-2.57969 L 96.969648,244.2118 96.109753,232.2394 c -0.380338,-4.08451 -0.661458,-7.85482 -0.79375,-11.90625 -0.225999,-2.29305 -0.28663,-3.36241 -0.33073,-6.28385 -0.03072,-8.14866 0.125644,-15.12802 -0.79375,-22.62187 -0.595312,-3.22737 -0.760677,-5.42948 -2.976562,-8.86355 -1.792511,-2.07257 -3.793449,-4.3105 -6.680729,-5.62239 -4.101041,-1.85208 -9.260416,-3.30724 -16.073436,-3.37344"
       id="path926"
       inkscape:connector-curvature="0"
       sodipodi:nodetypes="ccccccccccccccccccccccccccccc" />
    <path
       style="fill:#eeeeec;fill-opacity:1;stroke:#babdb6;stroke-width:0.56091666;stroke-linecap:butt;stroke-linejoin:miter;stroke-miterlimit:4;stroke-dasharray:none;stroke-opacity:1"
       d="m 67.539008,213.39476 c 0.596076,-0.40461 0.976498,-1.09288 1.262849,-1.75395 0.59297,-1.36894 1.002146,-2.81668 1.345797,-4.2684 0.360294,-1.52203 0.585878,-3.07592 0.760677,-4.63021 0.233495,-2.07621 0.429791,-4.16174 0.463021,-6.25078 0.04814,-3.0267 0.02798,-6.06163 -0.219194,-9.0786 -0.12373,-1.51024 -0.256628,-3.03361 -0.631425,-4.50182 -0.572228,-2.24162 -1.647818,-4.33612 -2.198291,-6.58318 -0.216184,-0.88248 0.0049,-1.99996 -0.01156,-2.94772 -1.271665,3e-5 -4.766155,-0.0195 -7.137319,0.009 -0.0538,0.84704 0.04496,2.27487 -0.171222,3.15735 -0.550473,2.24706 -1.626063,4.34156 -2.198291,6.58318 -0.374797,1.46821 -0.507695,2.99158 -0.631425,4.50182 -0.247174,3.01697 -0.267336,6.0519 -0.219194,9.0786 0.03323,2.08904 0.229526,4.17457 0.463021,6.25078 0.174799,1.55428 0.400383,3.10818 0.760677,4.63021 0.343651,1.45172 0.752827,2.89946 1.345797,4.2684 0.286351,0.66107 0.666773,1.34934 1.262849,1.75395 0.754658,0.51225 1.678069,0.76673 2.876621,0.7559 1.213084,-0.011 2.121964,-0.46243 2.876622,-0.97468 z"
       id="path67"
       inkscape:connector-curvature="0"
       sodipodi:nodetypes="cssssassccssasssssssc" />
    <rect
       style="display:inline;opacity:1;fill:#d9dad7;fill-opacity:1;stroke:#babdb6;stroke-width:0.56091666;stroke-miterlimit:4;stroke-dasharray:none;stroke-opacity:1"
       id="button2"
       width="7.9137998"
       height="13.453473"
       x="60.725685"
       y="182.47507"
       ry="3.5612154"
       inkscape:label="#rect4615" />
    <path
       style="fill:#d9dad7;fill-opacity:1;stroke:#babdb6;stroke-width:0.52916664;stroke-linecap:butt;stroke-linejoin:miter;stroke-miterlimit:4;stroke-dasharray:none;stroke-opacity:1"
       d="m 63.166987,210.17431 c 0.413327,0.85333 0.912893,2.12412 1.659236,2.12129 0.787332,-0.0468 1.235565,-1.13423 1.730571,-2.10475 0.963186,-2.27407 1.866349,-4.95232 2.011204,-7.01582 -0.04511,-0.75357 -0.133324,-0.96262 -0.841899,-1.16931 H 62.16021 c -0.833415,0.11951 -1.319565,0.66897 -1.309621,1.44994 0.120828,1.81242 1.213354,4.50867 2.316398,6.71865 z"
       id="button3"
       inkscape:connector-curvature="0"
       sodipodi:nodetypes="cccccccc"
       inkscape:label="#path914" />
    <path
       style="fill:#d9dad7;fill-opacity:1;stroke:#babdb6;stroke-width:0.56091666;stroke-linecap:butt;stroke-linejoin:miter;stroke-miterlimit:4;stroke-dasharray:none;stroke-opacity:1"
       d="m 95.299608,220.25429 c 0,0 -2.993099,22.36809 -2.993099,33.61862 0,1.85752 0.06615,2.789 0.06615,4.72943 0,2.7249 -0.02687,3.50461 0.644922,5.02708 0.260631,0.59067 1.072687,1.52327 2.133203,1.88516 1.196295,0.23151 2.146396,-0.87485 2.844271,-2.0836 0.05512,-1.02526 0.110243,-2.05052 0.165364,-3.07578 z"
       id="path927"
       inkscape:connector-curvature="0"
       sodipodi:nodetypes="cssscccc" />
    <path
       style="fill:#eeeeec;fill-opacity:1;stroke:none;stroke-width:0.26458332px;stroke-linecap:butt;stroke-linejoin:miter;stroke-opacity:1"
       d="m 74.015046,179.00533 c -0.3698,5.3513 -0.7396,10.70261 -1.1094,16.05391 5.64679,2.60869 11.29357,5.21739 16.94036,7.82608 0.15918,-3.6955 0.31835,-7.391 0.47753,-11.0865 -1.11745,-3.10672 -2.2349,-6.21344 -3.35235,-9.32016 -4.31871,-1.15778 -8.63743,-2.31555 -12.95614,-3.47333 z"
       id="button1"
       inkscape:connector-curvature="0"
       inkscape:label="#path4486"
       sodipodi:nodetypes="cccccc" />
    <path
       style="fill:#eeeeec;fill-opacity:1;stroke:none;stroke-width:0.26458332px;stroke-linecap:butt;stroke-linejoin:miter;stroke-opacity:1"
       d="m 43.711955,183.42729 c -1.214,2.83542 -2.428,5.67083 -3.642,8.50625 0.367,3.65063 0.734,7.30126 1.101,10.95189 5.40711,-2.5672 10.81422,-5.13439 16.22133,-7.70159 -0.30702,-5.36162 -0.61405,-10.72324 -0.92107,-16.08486 -4.25309,1.44277 -8.50617,2.88554 -12.75926,4.32831 z"
       id="button0"
       inkscape:connector-curvature="0"
       inkscape:label="#path3664"
       sodipodi:nodetypes="cccccc" />
    <path
       style="display:inline;opacity:1;fill:#d9dad7;fill-opacity:1;stroke:#babdb6;stroke-width:0.56091666;stroke-linecap:butt;stroke-linejoin:miter;stroke-miterlimit:4;stroke-dasharray:none;stroke-opacity:1"
       d="m 34.320498,219.97553 c 0,0 2.9931,22.36809 2.9931,33.61862 0,1.85752 -0.0661,2.789 -0.0661,4.72943 0,2.7249 0.0269,3.50461 -0.64492,5.02708 -0.26064,0.59067 -1.07269,1.52327 -2.13321,1.88516 -1.19629,0.23151 -2.146392,-0.87485 -2.844272,-2.0836 -0.0551,-1.02526 -0.11024,-2.05052 -0.16536,-3.07578 z"
       id="path927-7"
       inkscape:connector-curvature="0"
       sodipodi:nodetypes="cssscccc" />
  </g>
  <g
     inkscape:groupmode="layer"
     id="Buttons"
     inkscape:label="Buttons"
     transform="translate(0,-2.6458338)"
     style="display:inline">
    <g
       transform="matrix(-0.29294531,0,0,0.26458333,70.19679,-40.717196)"
       style="display:inline"
       id="button0-path"
       inkscape:label="#g156">
      <path
         sodipodi:nodetypes="cc"
         style="color:#000000;overflow:visible;opacity:1;vector-effect:none;fill:none;fill-opacity:1;stroke:#888a85;stroke-width:1;stroke-linecap:square;stroke-linejoin:miter;stroke-miterlimit:4;stroke-dasharray:none;stroke-dashoffset:0;stroke-opacity:1;marker:none;marker-start:none;marker-mid:none;marker-end:none;paint-order:normal"
         d="m 81.663449,250.50576 157.960771,0.0352"
         id="path966"
         inkscape:connector-curvature="0" />
      <rect
         style="color:#000000;overflow:visible;opacity:1;vector-effect:none;fill:#2e3436;fill-opacity:1;stroke:none;stroke-width:2;stroke-linecap:square;stroke-linejoin:miter;stroke-miterlimit:4;stroke-dasharray:none;stroke-dashoffset:0;stroke-opacity:1;marker:none;marker-start:none;marker-mid:none;marker-end:none;paint-order:normal"
         id="rect976"
         width="6.999999"
         height="6.999999"
         x="79.083046"
         y="247.00577" />
      <rect
         y="250.00575"
         x="238.62422"
         height="1"
         width="1"
         id="button0-leader"
         style="color:#000000;text-align:end;overflow:visible;vector-effect:none;fill:#888a85;fill-opacity:1;stroke:none;stroke-linecap:round"
         inkscape:label="#rect875" />
    </g>
    <g
       transform="matrix(0.26458333,0,0,0.26458333,40.502648,-19.549003)"
       style="display:inline"
       id="button1-path"
       inkscape:label="#g146">
      <path
         style="color:#000000;overflow:visible;opacity:1;vector-effect:none;fill:none;fill-opacity:1;stroke:#888a85;stroke-width:0.99999994;stroke-linecap:square;stroke-linejoin:miter;stroke-miterlimit:4;stroke-dasharray:none;stroke-dashoffset:0;stroke-opacity:1;marker:none;marker-start:none;marker-mid:none;marker-end:none;paint-order:normal"
         d="m 336.91912,170.14213 -183.57514,0.36405"
         id="path51"
         inkscape:connector-curvature="0"
         sodipodi:nodetypes="cc" />
      <rect
         style="color:#000000;overflow:visible;opacity:1;vector-effect:none;fill:#2e3436;fill-opacity:1;stroke:none;stroke-width:2;stroke-linecap:square;stroke-linejoin:miter;stroke-miterlimit:4;stroke-dasharray:none;stroke-dashoffset:0;stroke-opacity:1;marker:none;marker-start:none;marker-mid:none;marker-end:none;paint-order:normal"
         id="rect53"
         width="6.999999"
         height="6.999999"
         x="149"
         y="167" />
      <rect
         y="169.75269"
         x="336.91913"
         height="1"
         width="1"
         id="button1-leader"
         style="color:#000000;text-align:start;overflow:visible;vector-effect:none;fill:#888a85;fill-opacity:1;stroke:none;stroke-linecap:round"
         inkscape:label="#rect871" />
    </g>
    <g
       transform="matrix(-0.2847136,0,0,0.26458333,87.493539,-7.2646706)"
       style="display:inline;opacity:1"
       id="button2-path"
       inkscape:label="#g151">
      <path
         sodipodi:nodetypes="ccc"
         inkscape:connector-curvature="0"
         id="path964-6"
         d="m 79.210952,122.6933 62.691188,68.76371 165.40155,1e-5"
         style="color:#000000;overflow:visible;opacity:1;vector-effect:none;fill:none;fill-opacity:1;stroke:#888a85;stroke-width:0.99999994;stroke-linecap:square;stroke-linejoin:miter;stroke-miterlimit:4;stroke-dasharray:none;stroke-dashoffset:0;stroke-opacity:1;marker:none;marker-start:none;marker-mid:none;marker-end:none;paint-order:normal" />
      <rect
         inkscape:label="#rect875"
         style="color:#000000;text-align:end;overflow:visible;vector-effect:none;fill:#888a85;fill-opacity:1;stroke:none;stroke-linecap:round"
         id="button2-leader"
         width="1"
         height="1"
         x="306.40533"
         y="190.93378" />
      <rect
         y="117.94263"
         x="76.303352"
         height="6.999999"
         width="6.999999"
         id="rect974-5"
         style="color:#000000;overflow:visible;opacity:1;vector-effect:none;fill:#2e3436;fill-opacity:1;stroke:none;stroke-width:2;stroke-linecap:square;stroke-linejoin:miter;stroke-miterlimit:4;stroke-dasharray:none;stroke-dashoffset:0;stroke-opacity:1;marker:none;marker-start:none;marker-mid:none;marker-end:none;paint-order:normal" />
    </g>
    <g
       transform="matrix(0.26458333,0,0,0.26458333,13.746167,-3.2430852)"
       style="display:inline"
       id="button3-path"
       inkscape:label="#g146">
      <path
         style="color:#000000;overflow:visible;opacity:1;vector-effect:none;fill:none;fill-opacity:1;stroke:#888a85;stroke-width:0.99999994;stroke-linecap:square;stroke-linejoin:miter;stroke-miterlimit:4;stroke-dasharray:none;stroke-dashoffset:0;stroke-opacity:1;marker:none;marker-start:none;marker-mid:none;marker-end:none;paint-order:normal"
         d="M 438.04598,178.25732 H 203.75439 l -10.41041,-7.75114"
         id="path51-1-9-6-0"
         inkscape:connector-curvature="0"
         sodipodi:nodetypes="ccc" />
      <rect
         style="color:#000000;overflow:visible;opacity:1;vector-effect:none;fill:#2e3436;fill-opacity:1;stroke:none;stroke-width:2;stroke-linecap:square;stroke-linejoin:miter;stroke-miterlimit:4;stroke-dasharray:none;stroke-dashoffset:0;stroke-opacity:1;marker:none;marker-start:none;marker-mid:none;marker-end:none;paint-order:normal"
         id="rect53-2-3-2-2"
         width="6.999999"
         height="6.999999"
         x="189"
         y="167" />
      <rect
         y="177.79317"
         x="438.04599"
         height="1"
         width="1"
         id="button3-leader"
         style="color:#000000;text-align:start;overflow:visible;vector-effect:none;fill:#888a85;fill-opacity:1;stroke:none;stroke-linecap:round"
         inkscape:label="#rect871" />
    </g>
  </g>
  <g
     inkscape:groupmode="layer"
     id="LEDs"
     inkscape:label="LEDs"
     transform="translate(0,-2.6458338)"
     style="display:none" />
</svg>
