<?xml version="1.0" encoding="UTF-8" standalone="no"?>
<svg
   xmlns:dc="http://purl.org/dc/elements/1.1/"
   xmlns:cc="http://creativecommons.org/ns#"
   xmlns:rdf="http://www.w3.org/1999/02/22-rdf-syntax-ns#"
   xmlns:svg="http://www.w3.org/2000/svg"
   xmlns="http://www.w3.org/2000/svg"
   xmlns:xlink="http://www.w3.org/1999/xlink"
   xmlns:sodipodi="http://sodipodi.sourceforge.net/DTD/sodipodi-0.dtd"
   xmlns:inkscape="http://www.inkscape.org/namespaces/inkscape"
   id="svg8"
   version="1.1"
   viewBox="0 0 198.4375 198.43751"
   height="750"
   width="750"
   sodipodi:docname="logitech-g300.svg"
   inkscape:version="0.92+devel 15739 custom">
  <sodipodi:namedview
     pagecolor="#ffffff"
     bordercolor="#666666"
     inkscape:document-rotation="0"
     borderopacity="1"
     objecttolerance="10"
     gridtolerance="10"
     guidetolerance="10"
     inkscape:pageopacity="0"
     inkscape:pageshadow="2"
     inkscape:window-width="1920"
     inkscape:window-height="1053"
     id="namedview127"
     showgrid="false"
     inkscape:zoom="0.90533333"
     inkscape:cx="375"
     inkscape:cy="375"
     inkscape:window-x="0"
     inkscape:window-y="0"
     inkscape:window-maximized="1"
     inkscape:current-layer="layer2" />
  <defs
     id="defs2">
    <linearGradient
       id="linearGradient7649">
      <stop
         style="stop-color:#f5f5f5;stop-opacity:1"
         offset="0"
         id="stop7643" />
      <stop
         id="stop7645"
         offset="0.42190266"
         style="stop-color:#030303;stop-opacity:1" />
      <stop
         style="stop-color:#ededed;stop-opacity:1"
         offset="1"
         id="stop7647" />
    </linearGradient>
    <linearGradient
       id="linearGradient5366-6">
      <stop
         id="stop5360"
         offset="0"
         style="stop-color:#f5f5f5;stop-opacity:1" />
      <stop
         style="stop-color:#030303;stop-opacity:1"
         offset="0.51176381"
         id="stop5362" />
      <stop
         id="stop5364"
         offset="1"
         style="stop-color:#ededed;stop-opacity:1" />
    </linearGradient>
    <linearGradient
       id="linearGradient4649">
      <stop
         style="stop-color:#000000;stop-opacity:1;"
         offset="0"
         id="stop4645" />
      <stop
         id="stop4651"
         offset="0.49026167"
         style="stop-color:#a2a2a2;stop-opacity:1" />
      <stop
         style="stop-color:#000000;stop-opacity:1"
         offset="1"
         id="stop4647" />
    </linearGradient>
    <linearGradient
       id="linearGradient4581-3">
      <stop
         id="stop4577"
         offset="0"
         style="stop-color:#000000;stop-opacity:1;" />
      <stop
         id="stop4579"
         offset="1"
         style="stop-color:#ececec;stop-opacity:1" />
    </linearGradient>
    <linearGradient
       gradientUnits="userSpaceOnUse"
       y2="43.886501"
       x2="111.31824"
       y1="50.580582"
       x1="106.2162"
       id="linearGradient6815-1"
       xlink:href="#linearGradient4581-3"
       gradientTransform="matrix(0.88930424,0,0,0.88930424,24.034848,15.217114)" />
    <linearGradient
       gradientUnits="userSpaceOnUse"
       y2="35.112171"
       x2="100.22734"
       y1="42.556988"
       x1="96.357521"
       id="linearGradient6645-6"
       xlink:href="#linearGradient4581-3"
       gradientTransform="matrix(0.88930424,0,0,0.88930424,24.034848,15.217114)" />
    <linearGradient
       gradientUnits="userSpaceOnUse"
       y2="73.771301"
       x2="50.455471"
       y1="83.415108"
       x1="40.34473"
       id="linearGradient5376-4"
       xlink:href="#linearGradient4581-3"
       gradientTransform="matrix(0.88930424,0,0,0.88930424,24.034848,15.217114)" />
    <linearGradient
       gradientUnits="userSpaceOnUse"
       y2="71.838379"
       x2="45.254807"
       y1="76.173668"
       x1="35.011879"
       id="linearGradient5354-5"
       xlink:href="#linearGradient4581-3"
       gradientTransform="matrix(0.88930424,0,0,0.88930424,24.034848,15.217114)" />
    <linearGradient
       y2="67.095848"
       x2="91.018227"
       y1="75.713417"
       x1="82.07766"
       gradientTransform="matrix(1.1187372,0,0,1.1567117,-4.7672285,-6.6331718)"
       gradientUnits="userSpaceOnUse"
       id="linearGradient5326-4"
       xlink:href="#linearGradient5366-6" />
    <linearGradient
       gradientTransform="matrix(0.99489774,0,0,1.0286686,19.795332,9.3182056)"
       y2="64.980942"
       x2="82.750046"
       y1="75.018211"
       x1="84.70034"
       gradientUnits="userSpaceOnUse"
       id="linearGradient5320-4"
       xlink:href="#linearGradient4581-3" />
    <linearGradient
       y2="63.717323"
       x2="77.788185"
       y1="73.272537"
       x1="79.893219"
       gradientUnits="userSpaceOnUse"
       id="linearGradient5336-7"
       xlink:href="#linearGradient4581-3"
       gradientTransform="matrix(0.88930424,0,0,0.88930424,24.034848,15.217114)" />
    <linearGradient
       gradientTransform="matrix(0.88930424,0,0,0.88930424,24.07419,15.177773)"
       gradientUnits="userSpaceOnUse"
       y2="43.694389"
       x2="69.186096"
       y1="185.06635"
       x1="148.15651"
       id="linearGradient4583-3"
       xlink:href="#linearGradient4581-3" />
    <linearGradient
       gradientUnits="userSpaceOnUse"
       y2="151.89273"
       x2="35.842487"
       y1="116.10757"
       x1="78.975082"
       id="linearGradient4608-6"
       xlink:href="#linearGradient4581-3"
       gradientTransform="matrix(0.88930424,0,0,0.88930424,24.034848,15.217114)" />
    <linearGradient
       gradientUnits="userSpaceOnUse"
       y2="105.68479"
       x2="160.22058"
       y1="113.20518"
       x1="149.38902"
       id="linearGradient4597-8"
       xlink:href="#linearGradient4581-3"
       gradientTransform="matrix(0.88930424,0,0,0.88930424,24.034848,15.217114)" />
    <linearGradient
       gradientTransform="translate(5.7351308,-2.1927033)"
       y2="57.257454"
       x2="79.269432"
       y1="64.032951"
       x1="70.218117"
       gradientUnits="userSpaceOnUse"
       id="linearGradient9255"
       xlink:href="#linearGradient4649" />
    <linearGradient
       gradientTransform="translate(5.7351308,-2.1927033)"
       y2="67.40316"
       x2="91.913757"
       y1="75.838074"
       x1="83.709564"
       gradientUnits="userSpaceOnUse"
       id="linearGradient9257"
       xlink:href="#linearGradient5366-6" />
    <linearGradient
       y2="76.867943"
       x2="49.128342"
       y1="84.263214"
       x1="40.247364"
       gradientTransform="translate(5.6466558,-1.9272773)"
       gradientUnits="userSpaceOnUse"
       id="linearGradient9259"
       xlink:href="#linearGradient7649" />
    <linearGradient
       gradientTransform="translate(5.7351308,-2.1927033)"
       y2="34.04863"
       x2="99.476608"
       y1="44.193058"
       x1="95.572289"
       gradientUnits="userSpaceOnUse"
       id="linearGradient9261"
       xlink:href="#linearGradient5366-6" />
    <linearGradient
       gradientTransform="translate(5.7351308,-2.1927033)"
       y2="43.886501"
       x2="111.31824"
       y1="50.580582"
       x1="106.2162"
       gradientUnits="userSpaceOnUse"
       id="linearGradient9263"
       xlink:href="#linearGradient5366-6" />
    <filter
       height="1.2728308"
       y="-0.13641544"
       width="1.1993906"
       x="-0.09969531"
       id="filter5257-2-0"
       style="color-interpolation-filters:sRGB">
      <feGaussianBlur
         id="feGaussianBlur5259-0-3"
         stdDeviation="0.67565569" />
    </filter>
    <filter
       height="1.0871989"
       y="-0.043599416"
       width="1.0766768"
       x="-0.038338386"
       id="filter8545-8-0"
       style="color-interpolation-filters:sRGB">
      <feGaussianBlur
         id="feGaussianBlur8547-4-9"
         stdDeviation="1.1009866" />
    </filter>
    <filter
       height="1.0289921"
       y="-0.014496"
       width="1.0568471"
       x="-0.028423529"
       id="filter8931-8-2"
       style="color-interpolation-filters:sRGB">
      <feGaussianBlur
         id="feGaussianBlur8933-6-5"
         stdDeviation="0.45344554" />
    </filter>
    <filter
       height="1.1508775"
       y="-0.075438753"
       width="1.1029657"
       x="-0.05148283"
       id="filter6058-3-9"
       style="color-interpolation-filters:sRGB">
      <feGaussianBlur
         id="feGaussianBlur6060-0-4"
         stdDeviation="0.210429" />
    </filter>
    <filter
       height="1.2033294"
       y="-0.10166474"
       width="1.1502416"
       x="-0.075120777"
       id="filter6114-7-6"
       style="color-interpolation-filters:sRGB">
      <feGaussianBlur
         id="feGaussianBlur6116-4-9"
         stdDeviation="0.36423808" />
    </filter>
    <linearGradient
       y2="66.854225"
       x2="48.142838"
       y1="77.964264"
       x1="30.665777"
       gradientTransform="matrix(0.70966437,0,0,0.65096738,8.52826,24.237011)"
       gradientUnits="userSpaceOnUse"
       id="linearGradient9265-2"
       xlink:href="#linearGradient5366-6" />
    <filter
       height="1.3214939"
       y="-0.16074698"
       width="1.2348779"
       x="-0.11743895"
       id="filter7639-5-2"
       style="color-interpolation-filters:sRGB">
      <feGaussianBlur
         id="feGaussianBlur7641-2-4"
         stdDeviation="0.487782" />
    </filter>
    <filter
       height="1.2302096"
       y="-0.11510481"
       width="1.1831484"
       x="-0.091574177"
       id="filter7247-3-4"
       style="color-interpolation-filters:sRGB">
      <feGaussianBlur
         id="feGaussianBlur7249-7-8"
         stdDeviation="0.41036213" />
    </filter>
    <filter
       height="1.2783537"
       y="-0.13917683"
       width="1.1930734"
       x="-0.096536696"
       id="filter8043-4-1"
       style="color-interpolation-filters:sRGB">
      <feGaussianBlur
         id="feGaussianBlur8045-7-2"
         stdDeviation="0.40736955" />
    </filter>
    <filter
       height="1.2202032"
       y="-0.11010158"
       width="1.1900181"
       x="-0.095008977"
       id="filter7107-0-8"
       style="color-interpolation-filters:sRGB">
      <feGaussianBlur
         id="feGaussianBlur7109-6-9"
         stdDeviation="0.60580599" />
    </filter>
    <marker
       style="overflow:visible"
       id="Arrow2Mstart-3"
       refX="0"
       refY="0"
       orient="auto">
      <path
         inkscape:connector-curvature="0"
         transform="scale(0.6)"
         d="M 8.7185878,4.0337352 -2.2072895,0.01601326 8.7185884,-4.0017078 c -1.7454984,2.3720609 -1.7354408,5.6174519 -6e-7,8.035443 z"
         style="fill:#000000;fill-opacity:1;fill-rule:evenodd;stroke:#000000;stroke-width:0.625;stroke-linejoin:round;stroke-opacity:1"
         id="path9385-6" />
    </marker>
    <marker
       orient="auto"
       refY="0"
       refX="0"
       id="marker9769-8"
       style="overflow:visible">
      <path
         inkscape:connector-curvature="0"
         id="path9767-0"
         style="fill:#000000;fill-opacity:1;fill-rule:evenodd;stroke:#000000;stroke-width:0.625;stroke-linejoin:round;stroke-opacity:1"
         d="M 8.7185878,4.0337352 -2.2072895,0.01601326 8.7185884,-4.0017078 c -1.7454984,2.3720609 -1.7354408,5.6174519 -6e-7,8.035443 z"
         transform="scale(0.6)" />
    </marker>
    <marker
       style="overflow:visible"
       id="marker10285-2"
       refX="0"
       refY="0"
       orient="auto">
      <path
         inkscape:connector-curvature="0"
         transform="scale(0.6)"
         d="M 8.7185878,4.0337352 -2.2072895,0.01601326 8.7185884,-4.0017078 c -1.7454984,2.3720609 -1.7354408,5.6174519 -6e-7,8.035443 z"
         style="fill:#000000;fill-opacity:1;fill-rule:evenodd;stroke:#000000;stroke-width:0.625;stroke-linejoin:round;stroke-opacity:1"
         id="path10283-1" />
    </marker>
    <marker
       orient="auto"
       refY="0"
       refX="0"
       id="marker10813-0"
       style="overflow:visible">
      <path
         inkscape:connector-curvature="0"
         id="path10811-5"
         style="fill:#000000;fill-opacity:1;fill-rule:evenodd;stroke:#000000;stroke-width:0.625;stroke-linejoin:round;stroke-opacity:1"
         d="M 8.7185878,4.0337352 -2.2072895,0.01601326 8.7185884,-4.0017078 c -1.7454984,2.3720609 -1.7354408,5.6174519 -6e-7,8.035443 z"
         transform="scale(0.6)" />
    </marker>
    <marker
       style="overflow:visible"
       id="marker11197-1"
       refX="0"
       refY="0"
       orient="auto">
      <path
         inkscape:connector-curvature="0"
         transform="scale(0.6)"
         d="M 8.7185878,4.0337352 -2.2072895,0.01601326 8.7185884,-4.0017078 c -1.7454984,2.3720609 -1.7354408,5.6174519 -6e-7,8.035443 z"
         style="fill:#000000;fill-opacity:1;fill-rule:evenodd;stroke:#000000;stroke-width:0.625;stroke-linejoin:round;stroke-opacity:1"
         id="path11195-1" />
    </marker>
    <marker
       orient="auto"
       refY="0"
       refX="0"
       id="marker11803-0"
       style="overflow:visible">
      <path
         inkscape:connector-curvature="0"
         id="path11801-8"
         style="fill:#000000;fill-opacity:1;fill-rule:evenodd;stroke:#000000;stroke-width:0.625;stroke-linejoin:round;stroke-opacity:1"
         d="M 8.7185878,4.0337352 -2.2072895,0.01601326 8.7185884,-4.0017078 c -1.7454984,2.3720609 -1.7354408,5.6174519 -6e-7,8.035443 z"
         transform="scale(0.6)" />
    </marker>
    <marker
       style="overflow:visible"
       id="marker12601-5"
       refX="0"
       refY="0"
       orient="auto">
      <path
         inkscape:connector-curvature="0"
         transform="scale(0.6)"
         d="M 8.7185878,4.0337352 -2.2072895,0.01601326 8.7185884,-4.0017078 c -1.7454984,2.3720609 -1.7354408,5.6174519 -6e-7,8.035443 z"
         style="fill:#000000;fill-opacity:1;fill-rule:evenodd;stroke:#000000;stroke-width:0.625;stroke-linejoin:round;stroke-opacity:1"
         id="path12599-0" />
    </marker>
    <marker
       orient="auto"
       refY="0"
       refX="0"
       id="marker13567-6"
       style="overflow:visible">
      <path
         inkscape:connector-curvature="0"
         id="path13565-4"
         style="fill:#000000;fill-opacity:1;fill-rule:evenodd;stroke:#000000;stroke-width:0.625;stroke-linejoin:round;stroke-opacity:1"
         d="M 8.7185878,4.0337352 -2.2072895,0.01601326 8.7185884,-4.0017078 c -1.7454984,2.3720609 -1.7354408,5.6174519 -6e-7,8.035443 z"
         transform="scale(0.6)" />
    </marker>
    <marker
       style="overflow:visible"
       id="marker14005-6"
       refX="0"
       refY="0"
       orient="auto">
      <path
         inkscape:connector-curvature="0"
         transform="scale(0.6)"
         d="M 8.7185878,4.0337352 -2.2072895,0.01601326 8.7185884,-4.0017078 c -1.7454984,2.3720609 -1.7354408,5.6174519 -6e-7,8.035443 z"
         style="fill:#000000;fill-opacity:1;fill-rule:evenodd;stroke:#000000;stroke-width:0.625;stroke-linejoin:round;stroke-opacity:1"
         id="path14003-2" />
    </marker>
  </defs>
  <metadata
     id="metadata5">
    <rdf:RDF>
      <cc:Work
         rdf:about="">
        <dc:format>image/svg+xml</dc:format>
        <dc:type
           rdf:resource="http://purl.org/dc/dcmitype/StillImage" />
        <dc:title></dc:title>
        <cc:license
           rdf:resource="https://opensource.org/licenses/MIT" />
      </cc:Work>
    </rdf:RDF>
  </metadata>
  <g
     inkscape:groupmode="layer"
     id="layer1"
     inkscape:label="Device">
    <g
       transform="translate(-3.0873728,3.6519886)"
       style="display:inline"
       id="layer8">
      <path
         inkscape:connector-curvature="0"
         id="path4589-9"
         d="m 149.10287,101.50117 c 0,0 -1.05786,0.16638 4.0148,1.53332 5.07266,1.36693 10.15226,5.82516 11.98533,8.1296 2.51392,2.40918 6.52051,10.23903 1.3879,14.00992 -5.13261,3.7709 -17.38803,-23.67284 -17.38803,-23.67284 z"
         style="display:inline;fill:url(#linearGradient4597-8);fill-opacity:1;stroke:none;stroke-width:0.23529507px;stroke-linecap:butt;stroke-linejoin:miter;stroke-opacity:1" />
      <path
         inkscape:connector-curvature="0"
         id="path4586-2"
         d="m 47.656799,72.245042 c 1.942356,-3.777983 8.589985,-9.41686 13.813269,-13.065406 1.567266,-1.09476 3.79326,0.642353 5.704413,0.594209 1.127681,-0.0284 10.73636,-5.504113 11.017493,-6.243426 0.368443,-0.968912 -1.255371,-2.707871 -0.294117,-3.095862 6.37104,-2.571549 13.117079,-5.313039 20.888587,-5.872484 7.771506,-0.559444 17.767586,3.500592 25.075636,9.269673 10.30308,8.133397 18.06398,20.559662 27.69019,44.80342 9.6262,24.243764 12.77467,23.651204 14.20078,23.532374 1.4261,-0.11884 3.83901,-6.01224 -1.15235,-11.47896 -4.99136,-5.46674 -10.07738,-7.18089 -10.07738,-7.18089 0,0 17.91418,5.69939 18.50838,29.46779 0.59422,23.76838 -8.00245,28.28016 -12.54438,31.28987 -6.51013,4.31394 -4.71386,3.59056 -17.00662,9.69133 -15.94321,7.91246 -51.426816,-6.03833 -58.795018,-14.4761 -7.368201,-8.43778 -3.725533,-14.73474 -8.122685,-26.2624 -4.397154,-11.52768 -20.55966,-35.414905 -20.55966,-35.414905 0,0 -7.654168,-11.693722 -9.136414,-18.370041 -0.343475,-1.547078 -1.15248,-3.410207 0.789876,-7.188192 z"
         style="display:inline;opacity:1;fill:#050501;fill-opacity:1;stroke:none;stroke-width:0.23529507px;stroke-linecap:butt;stroke-linejoin:miter;stroke-opacity:1" />
      <path
         inkscape:connector-curvature="0"
         id="path4600-6"
         d="m 103.98404,157.58344 c 5.34109,-2.28109 8.14446,-5.10628 7.17707,-8.95743 C 108.41973,137.71258 96.185717,130.62094 87.905188,122.36574 76.932121,111.42625 56.762426,97.598091 53.011756,91.654563 c 5.289391,8.443197 17.264869,25.694437 21.193431,34.101017 3.92856,8.40659 5.326392,10.83456 7.357476,22.20279 2.031081,11.36824 13.649194,13.51119 22.421377,9.62507 z"
         style="display:inline;fill:url(#linearGradient4608-6);fill-opacity:1;stroke:none;stroke-width:0.23529507px;stroke-linecap:butt;stroke-linejoin:miter;stroke-opacity:1" />
      <path
         inkscape:connector-curvature="0"
         transform="matrix(0.88930424,0,0,0.88930424,18.934572,17.167095)"
         id="path4630-6"
         d="m 71.205713,51.477546 c 1.791534,-0.716614 4.879796,-1.532756 8.88373,1.532757 4.003934,3.065513 5.458341,4.46734 5.067478,6.037182 -0.436294,1.752311 -4.660828,4.035215 -7.413534,3.597284 -2.752704,-0.43793 -8.10171,-4.348022 -8.602201,-6.162304 -0.500494,-1.814282 -0.06576,-4.152802 2.064527,-5.004919 z"
         style="display:inline;fill:url(#linearGradient9255);fill-opacity:1;stroke:none;stroke-width:0.26458332px;stroke-linecap:butt;stroke-linejoin:miter;stroke-opacity:1;filter:url(#filter5257-2-0)" />
      <path
         inkscape:connector-curvature="0"
         style="display:inline;opacity:1;fill:url(#linearGradient4583-3);fill-opacity:1;stroke:none;stroke-width:0.23529507px;stroke-linecap:butt;stroke-linejoin:miter;stroke-opacity:1"
         d="m 129.57912,64.421701 c -4.02561,0.627933 -7.50264,0.19394 -8.2263,-0.188069 -1.94545,-1.026962 -3.22816,-2.689304 -5.06731,-4.939595 -1.10426,-1.351113 -2.69039,-2.790981 -3.85765,-3.578251 -4.13658,-2.789973 -7.8692,-2.240708 -9.34964,-3.598119 -1.94376,-2.24103 2.30053,-6.127193 0.76519,-6.334074 -8.32641,-1.121952 -20.979676,3.315328 -22.783881,4.987519 -1.113028,1.031586 0.668263,4.430866 0.719191,5.697487 0.02332,0.580255 -1.705527,1.631637 -4.074122,2.882151 0.39358,0.162424 1.963716,1.31009 4.273294,3.132684 1.867629,-0.936312 4.414217,-0.433059 6.027162,0.154724 1.612943,0.587782 3.57968,1.73307 5.57957,3.798942 1.746528,1.804149 2.745617,3.586443 -0.372413,5.404756 1.010513,0.879362 2.037503,1.783111 3.070206,2.703609 2.578615,-1.314173 4.364533,-1.85557 5.641363,-0.707269 1.8246,1.640927 6.60886,6.409596 8.33059,8.081954 1.48441,1.44184 1.21288,3.210236 -1.31383,4.690652 3.82651,3.99094 6.90726,7.688805 8.37744,10.479682 0.13647,0.259046 -0.30588,0.242884 -0.38261,0.131916 -2.31626,-3.349976 -5.31611,-6.868647 -8.63094,-10.352564 -3.10741,2.202274 -5.34212,1.300996 -6.76368,-0.08526 -1.757879,-1.714218 -6.204391,-5.920059 -7.999085,-7.549923 -1.020934,-0.927168 -1.8553,-2.63953 2.172742,-4.305226 -1.095093,-0.962247 -2.148632,-1.91287 -3.209145,-2.816149 -1.193148,0.947677 -4.702692,1.417889 -6.165911,0.59061 -1.625289,-0.91891 -4.270282,-2.809047 -5.46815,-3.763177 -1.267292,-1.009429 -2.167667,-4.180695 0.275401,-6.048903 -2.488867,-1.9263 -4.051939,-3.072117 -4.148205,-3.138823 -0.825302,0.417497 -3.558598,1.774096 -4.587447,2.30064 -1.503726,0.769578 -4.317148,-0.128829 -5.848823,-0.433786 -1.905003,-0.379286 -4.371397,-0.893915 -5.171614,-0.541384 -2.942512,1.296312 -6.074862,4.787062 -8.627105,7.278119 -2.27056,2.216124 -3.521763,3.746314 -3.736697,6.714802 -0.0876,1.210002 9.706223,-0.641827 10.471747,1.794503 0.36497,1.161541 1.709726,4.925493 2.760199,6.256188 1.025689,1.2993 6.656463,5.179118 9.561507,7.524861 2.055757,1.659965 -2.9966,6.803736 -1.497747,7.784044 17.995826,11.769988 32.861033,21.509038 46.998083,34.211858 4.61386,4.14577 8.60721,8.94008 12.57325,13.71822 3.6281,3.8645 8.87124,2.06461 13.42541,0.24678 4.55417,-1.81783 9.50566,-5.04099 12.09212,-10.05164 1.09196,-4.90777 -0.92741,-9.90219 -2.05352,-14.73013 -2.66586,-11.42928 -6.6914,-22.533831 -11.06818,-33.423235 -2.55172,-6.348681 -6.66426,-14.637972 -8.82766,-18.531751 -2.16338,-3.89378 -2.18061,-4.119987 -3.8828,-5.44937 z"
         id="path3770-4" />
      <path
         inkscape:connector-curvature="0"
         transform="matrix(0.88930424,0,0,0.88930424,18.934572,17.167095)"
         id="path8359-9"
         d="m 40.682868,81.757779 c 3.273586,5.750891 24.13353,21.123631 33.089756,28.400561 25.480883,20.70322 25.657831,20.88018 35.832486,32.20501 C 102.5271,133.51581 92.647763,123.86601 76.072982,110.51225 59.4982,97.15848 51.445211,93.523393 40.682868,81.757779 Z"
         style="display:inline;fill:#f5f5f5;fill-opacity:1;stroke:none;stroke-width:0.26458332px;stroke-linecap:butt;stroke-linejoin:miter;stroke-opacity:1;filter:url(#filter8545-8-0)" />
      <path
         inkscape:connector-curvature="0"
         transform="matrix(0.88930424,0,0,0.88930424,18.934572,17.167095)"
         id="path8549-5"
         d="m 129.82819,55.373092 c -2.58325,-3.826262 -5.14432,-6.939375 -7.56369,-9.475619 -2.28354,-2.393862 -3.98129,-3.804147 -3.98129,-3.804147 0,0 1.65448,1.460826 3.88456,3.894587 2.38121,2.598695 4.8504,5.697508 7.4408,9.533472 3.54891,5.255969 6.40972,10.684166 8.63649,15.530661 1.81559,3.951587 4.40778,10.574633 7.03637,17.434214 1.93022,5.037132 3.49502,9.128949 5.15642,13.3596 2.21222,5.63347 3.94334,9.56558 3.94334,9.56558 0,0 -1.64429,-3.96377 -3.7867,-9.62597 -1.4885,-3.934163 -3.25603,-8.671722 -5.06561,-13.394034 -2.6288,-6.860149 -5.22395,-13.490882 -7.04302,-17.450028 -2.23109,-4.855899 -5.09901,-10.297918 -8.65767,-15.568316 z"
         style="display:inline;fill:#ffffff;fill-rule:nonzero;stroke:none;stroke-width:0.26499999;stroke-linecap:butt;stroke-linejoin:miter;stroke-miterlimit:4;stroke-dasharray:none;stroke-opacity:1;filter:url(#filter8931-8-2)" />
      <path
         inkscape:connector-curvature="0"
         style="display:inline;fill:url(#linearGradient5336-7);fill-opacity:1;stroke:none;stroke-width:0.23529507px;stroke-linecap:butt;stroke-linejoin:miter;stroke-opacity:1"
         d="m 97.053387,81.615705 c 0,0 5.472913,-3.257201 6.423383,-3.887711 0.203,-0.596085 0.15434,-0.700778 0.30827,-1.223197 -0.58011,-0.541244 -1.8937,-1.724806 -2.70251,-2.395301 -0.46484,-0.385345 -1.04865,-0.369782 -1.82756,-0.147241 -0.778907,0.222548 -2.622613,0.958746 -3.727624,1.780359 -0.522664,0.38862 -1.358448,3.035358 -1.045328,3.413581 1.125243,1.359188 2.571369,2.45951 2.571369,2.45951 z"
         id="path5296-0" />
      <path
         inkscape:connector-curvature="0"
         transform="matrix(0.88930424,0,0,0.88930424,18.934572,17.167095)"
         id="path5278-4"
         d="m 88.506185,70.391657 6.906011,-3.667918 c 0,0 -1.40906,-1.457741 -2.873019,-2.671336 -0.522702,-0.433311 -1.345071,-0.437931 -2.220932,-0.187686 -0.875861,0.250246 -2.949063,1.078084 -4.191619,2.001967 -0.587723,0.436992 -0.664906,1.2013 -0.312809,1.626601 1.265305,1.528374 2.692368,2.898372 2.692368,2.898372 z"
         style="display:inline;fill:url(#linearGradient9257);fill-opacity:1;stroke:none;stroke-width:0.26458332px;stroke-linecap:butt;stroke-linejoin:miter;stroke-opacity:1;filter:url(#filter6058-3-9)" />
      <path
         inkscape:connector-curvature="0"
         id="path5318-8"
         d="m 104.5717,87.70787 c 1.74059,0.303403 4.4547,-1.31763 5.32227,-2.271515 0.48844,-0.537038 0.18246,-2.498079 -0.0446,-3.083973 -0.32583,-0.84082 -2.70273,-3.386009 -3.60759,-4.161578 -0.52003,-0.445733 -1.72952,-0.344279 -2.60091,-0.08686 -0.8714,0.257421 -3.12875,1.665353 -4.364962,2.615721 -0.584724,0.449522 -1.019022,2.120132 -0.66872,2.557623 1.258848,1.572192 3.832542,4.058955 5.964492,4.43058 z"
         style="display:inline;fill:url(#linearGradient5320-4);fill-opacity:1;stroke:none;stroke-width:0.26766366px;stroke-linecap:butt;stroke-linejoin:miter;stroke-opacity:1" />
      <path
         inkscape:connector-curvature="0"
         transform="matrix(0.85398815,0,0,0.85065967,27.22295,18.060489)"
         style="display:inline;fill:url(#linearGradient5326-4);fill-opacity:1;stroke:none;stroke-width:0.30098099px;stroke-linecap:butt;stroke-linejoin:miter;stroke-opacity:1;filter:url(#filter6114-7-6)"
         d="m 89.122725,78.448498 c 2.074321,1.469692 5.596417,-0.677646 6.766776,-2.178891 1.170358,-1.501246 -2.030052,-4.474198 -3.449872,-5.457294 -1.898288,-1.314392 -4.503703,0.444651 -5.768422,1.404729 -0.657508,0.505474 -2.665663,1.436447 -2.05057,2.215942 2.274973,2.372244 2.427767,2.545822 4.502088,4.015514 z"
         id="path5322-7" />
      <path
         inkscape:connector-curvature="0"
         id="path5338-1"
         d="m 50.157089,76.970875 c 0.550769,1.967036 4.406159,8.025506 5.507701,8.261554 1.101541,0.236041 4.956931,-1.57363 5.271657,-2.203085 0.314726,-0.629451 -1.337585,-5.58638 -2.596488,-6.687919 -1.258902,-1.10154 -8.654959,-0.39341 -8.18287,0.62945 z"
         style="display:inline;fill:url(#linearGradient5354-5);fill-opacity:1;stroke:none;stroke-width:0.23529507px;stroke-linecap:butt;stroke-linejoin:miter;stroke-opacity:1" />
      <path
         inkscape:connector-curvature="0"
         transform="matrix(0.85287128,0,0,0.84325571,25.137301,18.710901)"
         style="display:inline;fill:url(#linearGradient9265-2);fill-opacity:1;stroke:none;stroke-width:0.17983267px;stroke-linecap:butt;stroke-linejoin:miter;stroke-opacity:1;filter:url(#filter7639-5-2)"
         d="m 30.96635,68.909681 c 0.439514,1.439863 3.781539,6.228542 4.660569,6.401327 0.879029,0.172783 5.017331,-1.328841 5.268482,-1.789598 0.251151,-0.460756 -1.509768,-4.266162 -2.514372,-5.072484 -1.004603,-0.806324 -7.791405,-0.287974 -7.414679,0.460755 z"
         id="path5356-7" />
      <path
         inkscape:connector-curvature="0"
         id="path5368-2"
         d="m 56.608968,86.648691 c 2.989894,3.304623 11.566172,11.487492 12.667713,11.330131 1.101538,-0.157363 2.832531,-4.327479 2.596486,-6.058474 -0.236044,-1.73099 -10.149905,-8.733638 -10.700675,-8.418915 -0.550771,0.314727 -4.406161,2.20308 -4.563524,3.147258 z"
         style="display:inline;opacity:1;fill:url(#linearGradient5376-4);fill-opacity:1;stroke:none;stroke-width:0.23529507px;stroke-linecap:butt;stroke-linejoin:miter;stroke-opacity:1" />
      <path
         inkscape:connector-curvature="0"
         transform="matrix(0.88930424,0,0,0.88930424,18.934572,17.167095)"
         style="display:inline;fill:url(#linearGradient9259);fill-opacity:1;stroke:none;stroke-width:0.26458332px;stroke-linecap:butt;stroke-linejoin:miter;stroke-opacity:1;filter:url(#filter7247-3-4)"
         d="m 44.773741,76.938558 c 4.034828,3.618886 10.678674,13.084069 11.917329,12.907119 1.238652,-0.176951 -1.03912,-9.347722 -1.341852,-9.671101 -0.806336,-0.861329 -7.3229,-5.671771 -7.942226,-5.31787 -0.619328,0.353901 -3.434524,1.363181 -2.633251,2.081852 z"
         id="path5378-7" />
      <path
         inkscape:connector-curvature="0"
         id="path6637-2"
         d="m 105.26368,45.64344 c 2.83744,-0.222544 12.75903,5.610037 11.73921,6.286889 -1.26669,0.840713 -3.82162,2.985881 -4.50651,2.614899 -4.0058,-2.169811 -8.93308,-1.938998 -9.13998,-3.167128 -0.2069,-1.228129 0.73892,-5.345207 1.90728,-5.73466 z"
         style="display:inline;fill:url(#linearGradient6645-6);fill-opacity:1;stroke:none;stroke-width:0.23529507px;stroke-linecap:butt;stroke-linejoin:miter;stroke-opacity:1" />
      <path
         inkscape:connector-curvature="0"
         transform="matrix(0.88930424,0,0,0.88930424,18.934572,17.167095)"
         style="display:inline;fill:url(#linearGradient9261);fill-opacity:1;stroke:none;stroke-width:0.26458332px;stroke-linecap:butt;stroke-linejoin:miter;stroke-opacity:1;filter:url(#filter8043-4-1)"
         d="m 97.700498,32.490138 c 3.066172,0.574471 9.403852,4.394314 8.383242,5.317726 -1.31379,1.188668 -1.16927,2.043757 -1.93941,1.626597 -4.504426,-2.439897 -6.166216,-0.866562 -6.398866,-2.247563 -0.232651,-1.381 -0.341868,-2.321618 -0.170093,-3.695777 z"
         id="path6647-2" />
      <path
         inkscape:connector-curvature="0"
         id="path6807-6"
         d="m 113.68441,54.868923 c 0.46393,-0.382114 3.70382,-2.910924 4.31772,-2.487335 0.61389,0.42359 8.53125,6.90077 10.74,10.564704 1.28208,2.126748 -6.39815,1.223998 -7.28834,0.611998 -0.89017,-0.611996 -8.87722,-7.776899 -7.76938,-8.689367 z"
         style="display:inline;fill:url(#linearGradient6815-1);fill-opacity:1;stroke:none;stroke-width:0.23529507px;stroke-linecap:butt;stroke-linejoin:miter;stroke-opacity:1" />
      <path
         inkscape:connector-curvature="0"
         transform="matrix(0.88930424,0,0,0.88930424,18.934572,17.167095)"
         style="display:inline;fill:url(#linearGradient9263);fill-opacity:1;stroke:none;stroke-width:0.26458332px;stroke-linecap:butt;stroke-linejoin:miter;stroke-opacity:1;filter:url(#filter7107-0-8)"
         d="m 107.9815,42.040847 c -0.5421,-0.403601 2.72714,-2.919358 3.41745,-2.443043 0.69031,0.476316 9.17292,7.516433 11.6566,11.636435 1.44167,2.391474 -6.81845,1.493981 -7.24444,0.356394 -0.58072,-1.550808 -6.33261,-8.435263 -7.82961,-9.549786 z"
         id="path6817-1" />
    </g>
  </g>
  <g
     inkscape:groupmode="layer"
     id="layer2"
     inkscape:label="Leaders">
    <text
       xml:space="preserve"
       style="font-style:normal;font-weight:normal;font-size:4.23333311px;line-height:1.25;font-family:sans-serif;letter-spacing:0px;word-spacing:0px;display:inline;fill:#000000;fill-opacity:1;stroke:none;stroke-width:0.26458332"
       x="23.282806"
       y="56.571674"
       id="text9269"><tspan
         id="tspan9267"
         x="23.282806"
         y="56.571674"
         style="stroke-width:0.26458332">Button 0</tspan></text>
    <text
       id="text9273"
       y="29.795361"
       x="86.34478"
       style="font-style:normal;font-weight:normal;font-size:4.23333311px;line-height:1.25;font-family:sans-serif;letter-spacing:0px;word-spacing:0px;display:inline;fill:#000000;fill-opacity:1;stroke:none;stroke-width:0.26458332"
       xml:space="preserve"><tspan
         style="stroke-width:0.26458332"
         y="29.795361"
         x="86.34478"
         id="tspan9271">Button 1</tspan><tspan
         style="stroke-width:0.26458332"
         y="35.087029"
         x="86.34478"
         id="tspan9275" /></text>
    <text
       xml:space="preserve"
       style="font-style:normal;font-weight:normal;font-size:4.23333311px;line-height:1.25;font-family:sans-serif;letter-spacing:0px;word-spacing:0px;display:inline;fill:#000000;fill-opacity:1;stroke:none;stroke-width:0.26458332"
       x="57.316246"
       y="31.296835"
       id="text9281"><tspan
         id="tspan9279"
         x="57.316246"
         y="31.296835"
         style="stroke-width:0.26458332">Button 2</tspan><tspan
         x="57.316246"
         y="36.588501"
         style="stroke-width:0.26458332"
         id="tspan9285" /></text>
    <text
       xml:space="preserve"
       style="font-style:normal;font-weight:normal;font-size:4.23333311px;line-height:1.25;font-family:sans-serif;letter-spacing:0px;word-spacing:0px;display:inline;fill:#000000;fill-opacity:1;stroke:none;stroke-width:0.26458332"
       x="119.37722"
       y="33.549049"
       id="text9327"><tspan
         id="tspan9325"
         x="119.37722"
         y="33.549049"
         style="stroke-width:0.26458332">Button 7</tspan></text>
    <text
       id="text9333"
       y="47.813061"
       x="140.64815"
       style="font-style:normal;font-weight:normal;font-size:4.23333311px;line-height:1.25;font-family:sans-serif;letter-spacing:0px;word-spacing:0px;display:inline;fill:#000000;fill-opacity:1;stroke:none;stroke-width:0.26458332"
       xml:space="preserve"><tspan
         style="stroke-width:0.26458332"
         y="47.813061"
         x="140.64815"
         id="tspan9329">Button 6</tspan><tspan
         style="stroke-width:0.26458332"
         y="53.104733"
         x="140.64815"
         id="tspan9331" /></text>
    <text
       xml:space="preserve"
       style="font-style:normal;font-weight:normal;font-size:4.23333311px;line-height:1.25;font-family:sans-serif;letter-spacing:0px;word-spacing:0px;display:inline;fill:#000000;fill-opacity:1;stroke:none;stroke-width:0.26458332"
       x="9.5192785"
       y="98.612984"
       id="text9339"><tspan
         id="tspan9335"
         x="9.5192785"
         y="98.612984"
         style="stroke-width:0.26458332">Button 5</tspan><tspan
         id="tspan9337"
         x="9.5192785"
         y="103.90463"
         style="stroke-width:0.26458332" /></text>
    <text
       id="text9345"
       y="114.12823"
       x="16.025673"
       style="font-style:normal;font-weight:normal;font-size:4.23333311px;line-height:1.25;font-family:sans-serif;letter-spacing:0px;word-spacing:0px;display:inline;fill:#000000;fill-opacity:1;stroke:none;stroke-width:0.26458332"
       xml:space="preserve"><tspan
         style="stroke-width:0.26458332"
         y="114.12823"
         x="16.025673"
         id="tspan9341">Button 4</tspan><tspan
         style="stroke-width:0.26458332"
         y="119.4199"
         x="16.025673"
         id="tspan9343" /></text>
    <text
       xml:space="preserve"
       style="font-style:normal;font-weight:normal;font-size:4.23333311px;line-height:1.25;font-family:sans-serif;letter-spacing:0px;word-spacing:0px;display:inline;fill:#000000;fill-opacity:1;stroke:none;stroke-width:0.26458332"
       x="145.15257"
       y="67.832733"
       id="text9351"><tspan
         id="tspan9347"
         x="145.15257"
         y="67.832733"
         style="stroke-width:0.26458332">Button 3</tspan><tspan
         id="tspan9349"
         x="145.15257"
         y="73.124397"
         style="stroke-width:0.26458332" /></text>
    <text
       id="text9357"
       y="82.847488"
       x="152.15945"
       style="font-style:normal;font-weight:normal;font-size:4.23333311px;line-height:1.25;font-family:sans-serif;letter-spacing:0px;word-spacing:0px;display:inline;fill:#000000;fill-opacity:1;stroke:none;stroke-width:0.26458332"
       xml:space="preserve"><tspan
         style="stroke-width:0.26458332"
         y="82.847488"
         x="152.15945"
         id="tspan9353">Button 8</tspan><tspan
         style="stroke-width:0.26458332"
         y="88.139153"
         x="152.15945"
         id="tspan9355" /></text>
    <path
       inkscape:connector-curvature="0"
       style="fill:none;stroke:#000000;stroke-width:0.76500005;stroke-linecap:butt;stroke-linejoin:miter;stroke-miterlimit:4;stroke-dasharray:none;stroke-opacity:1;marker-start:url(#Arrow2Mstart-3)"
       d="m 108.98515,81.306499 h 41.04031"
       id="path9359" />
    <path
       inkscape:connector-curvature="0"
       id="path9765"
       d="m 103.47974,76.051335 39.28859,-9.259097"
       style="fill:none;stroke:#000000;stroke-width:0.76500005;stroke-linecap:butt;stroke-linejoin:miter;stroke-miterlimit:4;stroke-dasharray:none;stroke-opacity:1;marker-start:url(#marker9769-8)" />
    <path
       inkscape:connector-curvature="0"
       style="fill:none;stroke:#000000;stroke-width:0.76500005;stroke-linecap:butt;stroke-linejoin:miter;stroke-miterlimit:4;stroke-dasharray:none;stroke-opacity:1;marker-start:url(#marker10285-2)"
       d="m 126.00187,57.783384 17.5172,-7.006883"
       id="path10281" />
    <path
       inkscape:connector-curvature="0"
       id="path10809"
       d="m 110.48663,48.023795 11.26105,-9.759589"
       style="fill:none;stroke:#000000;stroke-width:0.76500005;stroke-linecap:butt;stroke-linejoin:miter;stroke-miterlimit:4;stroke-dasharray:none;stroke-opacity:1;marker-start:url(#marker10813-0)" />
    <path
       inkscape:connector-curvature="0"
       style="fill:none;stroke:#000000;stroke-width:0.76500005;stroke-linecap:butt;stroke-linejoin:miter;stroke-miterlimit:4;stroke-dasharray:none;stroke-opacity:1;marker-start:url(#marker11197-1)"
       d="m 91.628348,53.885635 3.25318,-19.769426"
       id="path11193" />
    <path
       inkscape:connector-curvature="0"
       id="path11799"
       d="M 58.095398,70.902355 37.324968,59.140797"
       style="fill:none;stroke:#000000;stroke-width:0.76500005;stroke-linecap:butt;stroke-linejoin:miter;stroke-miterlimit:4;stroke-dasharray:none;stroke-opacity:1;marker-start:url(#marker11803-0)" />
    <path
       inkscape:connector-curvature="0"
       style="fill:none;stroke:#000000;stroke-width:0.76500005;stroke-linecap:butt;stroke-linejoin:miter;stroke-miterlimit:4;stroke-dasharray:none;stroke-opacity:1;marker-start:url(#marker12601-5)"
       d="m 42.079658,87.668829 -12.26207,8.508363"
       id="path12597" />
    <path
       inkscape:connector-curvature="0"
       id="path13563"
       d="m 49.587038,100.68162 -12.26207,8.50836"
       style="fill:none;stroke:#000000;stroke-width:0.76500005;stroke-linecap:butt;stroke-linejoin:miter;stroke-miterlimit:4;stroke-dasharray:none;stroke-opacity:1;marker-start:url(#marker13567-6)" />
    <path
       inkscape:connector-curvature="0"
       style="fill:none;stroke:#000000;stroke-width:0.76500005;stroke-linecap:butt;stroke-linejoin:miter;stroke-miterlimit:4;stroke-dasharray:none;stroke-opacity:1;marker-start:url(#marker14005-6)"
       d="M 83.620478,62.393995 69.856938,34.6167"
       id="path14001" />
  </g>
</svg>
