<svg class="ratbag-logo" xmlns="http://www.w3.org/2000/svg" viewBox="0 0 100 100">
  <path class="ratbag-bag"  d="M38.8 22.1a48.4 48.4 0 0 1 22.7 0s9-8.9 5-11.2c-6-3.2-3.9.8-16.3 3.5 15.5-7.5 5.4-5.7-16.3-3.5-5.3.5 5 11.2 5 11.2zm20.7 2.8c5.7 17.1-.8 4.7-2-.1-4 22.1-3.7 7.7-3-.6-5-.5-10.7-.4-15.7 1.3a47 47 0 0 0-17 32.7c0 13.3 5 7.9 28.4 7.9 28.8 0 28.4 5.4 28.4-7.9 0-9.8-9-25.9-19-33.3z" />
  <path class="ratbag-rats" fill="#fff"  d="M35.8 62.3c3.3 3.4-1 2.4-1.9.1-5.6 1.9-16.9.7-3.8-16.3.5-.4.6.5.4 1-4 6.8-7.5 15.5.3 13.2-1-8.2 3.2-14.1 6.8-19.7 1.1-1.4 2.3-4.3 2.8-5.5-3-2.1-.8-2 1.2-1.5 1.7-1.6 3.5-2.5 6.6-3 1.7 2.5-2.7 8.2-2.7 8.2 0 2.3.1 3.7.4 4.9 3 6.5 1.2 7.3-1.4 2.9-.3.1.3 2.6-1.4 7.9.5 5.9-2.5 7-2.5 7 7.3 2.2 1 3-1 .5-.8-.5-2.9-.1-3.8.3zm15-9c.1-1.7 1.4-4 1.8-.4 2 2.1 7.5-3.4 13.3-2.2 3.7.8 5 3.3 4.5 7.4 11.7 3.8 4.3 7.9-4.6 6.9 11.8-2.5 9.3-4.1 3.5-5-.4.8-4.6 1.6-5.5 1.5-3.9 1.5-6.7 2.2-3.2-.2l-4.5-.4c-3.9 2.8-2.9 2.4-1.7-.3-2-1.4-6 1.9-6.3-.1 0-.6 1.6-5.9 2.6-7.2z"/>
  <path class="ratbag-eyes"   d="M51 56.9c.6.4-1 1.2-1 1.2s.1-1.6 1-1.2zm-7-22.6c-.8-.4 1-1.2 1-1.2s-.3 1.7-1 1.2z"/>
  <path class="ratbag-logotype"  d="M81.3 89.3c-.6.9-2.3 1.1-2.7 0 0-1.3.6-2.5.5-3.8-.5.5-1 1.6-1.6 2.3-1 1-1.8 2.4-3.4 2.3-1.3-.2-2.8-.7-3.3-2-1.3-1.8-.8-4-.5-6 .7-2.8 2.6-5.3 5.2-6.7 1.3-.4 3.2-.2 4 1.2 0 2.3-1.5 4.9-3.8 4.9-2.6-.7 1.4-3 .7-4.2-1.4-.3-1.8 1.8-2.4 2.8-.8 2-1.5 4.3-1 6.4 1.6 3.5 5-2.8 2.5-1.4-1 .7-2.9 0-1.5-1.2 1-1 2.4-1.3 3.6-2.1 5.6-2.2 3.5.3 3.7 7.5zm-18.3-6c-.1.6 2-.1 2.3.3.4.4-.4-2.2-.6-2.6zm3.6-8c1.2 4.7 2 9 3.4 13.2-.2 1-1.6 1.7-2.6 1.5-1.4-1.2-.2-2.8-1.6-4-.3-.4-3.7-.5-3.8.5l-1.4 3.2c-.6.6-2.9.9-2.5-.4.5-1.4 1-2.8 1.8-4l3.4-9.6c.5-1.3 2.3-1.2 3.3-.4zm-10.5 9.5c-.4-.8-1.3-1.5-2.3-1.4-.8-.3-.6.5-.7 1 0 1.1-.2 2.2-.4 3.3 1-.3 1.9-1 2.7-1.7.4-.2.7-.7.7-1.2zm-6.3 5.8c-1.3 0-1.2-2 0-2 0-3.5.3-7 1-10.3.6-.7 1.6-1 2.4-1.2 1 .4 1 1.4.6 2.2-.4.9 0 1.4.8.7.8-.6 1-1.6 1-2.5-.8-1.9-4.3-.3-4.8-.4-1.2-.6.3-1.5 1-1.7.8-.4 1.7-.9 2.7-.7 1.2 0 2.7-.1 3.6 1 .8 1.2.1 2.8-.6 4-.3.7-1.6 1.3-1.7 1.8 6.4 1.1.8 9.4-6 9zm-1.6-13.4c-2.1.6-.9 3.4-1.4 5-.4 2.7-.9 5.5-.8 8.3-1.3 1.3-3.5-.3-2.9-2 0-2.8.1-5.7.6-8.5.4-1.2.6-2.9-1.1-2-2 .3-2.2-2.5 0-2.2 3 .2.7-3.6 2.5-4.8 1.8-1 3.6 1 2.5 2.7.1.5-.6 1.7.4 1.5 2-.8 2.4 3 .2 2zm-12.3 5.2c-1 .6.6 1.1 1 1.5 1 1 .2-.8 0-1.2-.9-1.7-.4-2-1-.3zm3-7.2l2 9.9c.3 1.5 1.6 3.7 0 4.7-1.4.8-2.4-.5-3.3-1.4-.9-.7-1.9-1.2-2.6-2.1-1-.3-1.9 2.8-2.9 3.8-.8 0-3 .2-1.8-1 .5-1.8 1.2-3.5 1.8-5.3-1.3-1 .3-2 1-2.6a52 52 0 0 0 2.4-5.6c.7-1 2.6-1.3 3.3-.4zm-16.4 2.9v2.4c1.6-.4 4-2.4 2.2-4-1.5-1.4-2.5 0-2.2 1.6zm6.7 3.3c2 1.2.6 3.8.5 5.6-.2 2-2.5 4.1-4.3 2.3-1.2-1.1-3.7-4.3-4.1-1-.5 2.5-3.3 1.7-2.8-.6.3-2.3 1-4.6 1.2-7-.3-2.4-1-4.8-.3-7.2 1-2.7 4.4-2.5 6.4-1.3 2.3.9 3.8 3.7 2.3 6-.5 2-3.1 3.1-3.7 4.6 1.2 2 3.6 2.9 3.4-.3.3-.5.8-1 1.4-1z" />

<!-- comment out style section to remove animated eyes-->
   <style>
  .ratbag-eyes{animation: color-cycle 5s linear infinite}
  @keyframes color-cycle{   
    20%{fill: #27A269}
    40%{fill: #E5A50B}
    60%{fill: #EE323A}
    80%{fill: #C061CA}}
</style>
</svg>
