<?xml version="1.0" encoding="UTF-8" standalone="no"?>
<svg
   xmlns:dc="http://purl.org/dc/elements/1.1/"
   xmlns:cc="http://creativecommons.org/ns#"
   xmlns:rdf="http://www.w3.org/1999/02/22-rdf-syntax-ns#"
   xmlns:svg="http://www.w3.org/2000/svg"
   xmlns="http://www.w3.org/2000/svg"
   xmlns:xlink="http://www.w3.org/1999/xlink"
   xmlns:sodipodi="http://sodipodi.sourceforge.net/DTD/sodipodi-0.dtd"
   xmlns:inkscape="http://www.inkscape.org/namespaces/inkscape"
   version="1.1"
   id="svg2"
   viewBox="0 0 750.00004 749.99998"
   height="750"
   width="750"
   sodipodi:docname="logitech-g700.svg"
   inkscape:version="0.92+devel 15739 custom">
  <sodipodi:namedview
     pagecolor="#ffffff"
     bordercolor="#666666"
     inkscape:document-rotation="0"
     borderopacity="1"
     objecttolerance="10"
     gridtolerance="10"
     guidetolerance="10"
     inkscape:pageopacity="0"
     inkscape:pageshadow="2"
     inkscape:window-width="1920"
     inkscape:window-height="1053"
     id="namedview88"
     showgrid="false"
     inkscape:zoom="0.90533333"
     inkscape:cx="346.93518"
     inkscape:cy="443.09175"
     inkscape:window-x="0"
     inkscape:window-y="0"
     inkscape:window-maximized="1"
     inkscape:current-layer="layer2" />
  <defs
     id="defs4">
    <linearGradient
       id="linearGradient4178">
      <stop
         id="stop4180"
         offset="0"
         style="stop-color:#000000;stop-opacity:1;" />
      <stop
         style="stop-color:#3b3b3b;stop-opacity:1;"
         offset="0.46853611"
         id="stop4182" />
      <stop
         style="stop-color:#777777;stop-opacity:1;"
         offset="0.81082952"
         id="stop4184" />
      <stop
         id="stop4186"
         offset="1"
         style="stop-color:#000000;stop-opacity:1;" />
    </linearGradient>
    <linearGradient
       id="linearGradient4168">
      <stop
         id="stop4170"
         offset="0"
         style="stop-color:#000000;stop-opacity:1;" />
      <stop
         style="stop-color:#3b3b3b;stop-opacity:1;"
         offset="0.646918"
         id="stop4172" />
      <stop
         style="stop-color:#777777;stop-opacity:1;"
         offset="0.76408035"
         id="stop4174" />
      <stop
         id="stop4176"
         offset="1"
         style="stop-color:#000000;stop-opacity:1;" />
    </linearGradient>
    <linearGradient
       id="linearGradient4140">
      <stop
         id="stop4142"
         offset="0"
         style="stop-color:#000000;stop-opacity:1;" />
      <stop
         style="stop-color:#3b3b3b;stop-opacity:1;"
         offset="0.5890528"
         id="stop4144" />
      <stop
         style="stop-color:#777777;stop-opacity:1;"
         offset="0.69403088"
         id="stop4146" />
      <stop
         id="stop4148"
         offset="1"
         style="stop-color:#000000;stop-opacity:1;" />
    </linearGradient>
    <linearGradient
       id="linearGradient4449">
      <stop
         style="stop-color:#000000;stop-opacity:1;"
         offset="0"
         id="stop4451" />
      <stop
         id="stop4059"
         offset="0.24691147"
         style="stop-color:#3b3b3b;stop-opacity:1;" />
      <stop
         id="stop4057"
         offset="0.84132797"
         style="stop-color:#777777;stop-opacity:1;" />
      <stop
         style="stop-color:#000000;stop-opacity:1;"
         offset="1"
         id="stop4453" />
    </linearGradient>
    <linearGradient
       xlink:href="#linearGradient4140"
       id="linearGradient4341"
       gradientUnits="userSpaceOnUse"
       gradientTransform="matrix(0.90362898,0,0,0.90362898,-215.04179,91.343846)"
       x1="-163.63844"
       y1="436.26642"
       x2="-149.68144"
       y2="436.82062" />
    <linearGradient
       xlink:href="#linearGradient4140"
       id="linearGradient4337"
       gradientUnits="userSpaceOnUse"
       x1="-163.63844"
       y1="436.26642"
       x2="-149.68144"
       y2="436.82062"
       gradientTransform="matrix(0.90362893,0,0,0.90362893,-103.0873,129.28418)" />
    <linearGradient
       xlink:href="#linearGradient4140"
       id="linearGradient4333"
       x1="-163.63844"
       y1="436.26642"
       x2="-149.68144"
       y2="436.82062"
       gradientUnits="userSpaceOnUse"
       gradientTransform="matrix(0.90362898,0,0,0.90362898,-22.571322,131.27538)" />
    <linearGradient
       xlink:href="#linearGradient4168"
       id="linearGradient4323"
       gradientUnits="userSpaceOnUse"
       gradientTransform="matrix(0.85216893,0,0,0.83973274,-48.549323,186.1497)"
       x1="-132.46301"
       y1="504.78024"
       x2="-119.38154"
       y2="504.78024" />
    <linearGradient
       xlink:href="#linearGradient4168"
       id="linearGradient4313"
       x1="-132.46301"
       y1="504.78024"
       x2="-119.38154"
       y2="504.78024"
       gradientUnits="userSpaceOnUse"
       gradientTransform="matrix(0.85216893,0,0,0.83973274,-48.549323,159.60561)" />
    <linearGradient
       gradientTransform="matrix(0.90362896,0,0,0.90362896,-41.502313,127.69091)"
       xlink:href="#linearGradient4449"
       id="linearGradient4301"
       x1="-145.78596"
       y1="432.15033"
       x2="-122.16097"
       y2="432.15033"
       gradientUnits="userSpaceOnUse" />
    <linearGradient
       gradientTransform="matrix(0.90362896,0,0,0.90362896,-41.502313,127.69091)"
       xlink:href="#linearGradient4140"
       id="linearGradient4250"
       x1="-230.66248"
       y1="606.3385"
       x2="-223.50301"
       y2="603.15649"
       gradientUnits="userSpaceOnUse" />
    <linearGradient
       gradientTransform="matrix(0.90362896,0,0,0.90362896,-41.502313,127.69091)"
       xlink:href="#linearGradient4140"
       id="linearGradient4232"
       x1="-252.37671"
       y1="530.60034"
       x2="-245.72574"
       y2="529.27454"
       gradientUnits="userSpaceOnUse" />
    <linearGradient
       xlink:href="#linearGradient4178"
       id="linearGradient4280"
       x1="-230.40521"
       y1="559.01239"
       x2="-17.91172"
       y2="553.01239"
       gradientUnits="userSpaceOnUse"
       gradientTransform="matrix(0.90362896,0,0,0.90362896,-41.502313,127.69091)" />
    <linearGradient
       gradientTransform="matrix(0.90362896,0,0,0.90362896,-513.90683,277.65974)"
       xlink:href="#linearGradient4449"
       id="linearGradient4258"
       x1="254.99973"
       y1="391.21637"
       x2="525.11023"
       y2="391.21637"
       gradientUnits="userSpaceOnUse" />
    <linearGradient
       xlink:href="#linearGradient4449"
       id="linearGradient4562-5"
       gradientUnits="userSpaceOnUse"
       gradientTransform="matrix(0,-1.6373289,1.6373289,0,528.49989,486.49736)"
       x1="31.968746"
       y1="18.546629"
       x2="31.968746"
       y2="29.577879" />
    <linearGradient
       xlink:href="#linearGradient4449"
       id="linearGradient4623-9"
       gradientUnits="userSpaceOnUse"
       gradientTransform="matrix(0,-1.6373292,-1.6373292,0,600.43366,540.51107)"
       x1="31.968746"
       y1="18.546629"
       x2="31.968746"
       y2="29.577879" />
  </defs>
  <metadata
     id="metadata7">
    <rdf:RDF>
      <cc:Work
         rdf:about="">
        <dc:format>image/svg+xml</dc:format>
        <dc:type
           rdf:resource="http://purl.org/dc/dcmitype/StillImage" />
        <dc:title></dc:title>
        <cc:license
           rdf:resource="https://opensource.org/licenses/MIT" />
      </cc:Work>
    </rdf:RDF>
  </metadata>
  <g
     inkscape:groupmode="layer"
     id="layer1"
     inkscape:label="Device">
    <g
       id="layer1-8"
       transform="matrix(1.066667,0,0,1.066667,557.63834,-227.02703)"
       style="display:inline">
      <path
         inkscape:connector-curvature="0"
         id="path4223"
         d="m -137.04318,824.53741 c -14.91397,-1.21674 -30.1621,-5.90905 -47.96764,-14.76109 -21.33591,-10.60717 -34.66742,-20.38762 -53.49608,-39.24654 -20.06024,-20.09249 -29.93469,-33.93102 -38.31568,-53.69737 -9.28788,-21.90523 -8.48222,-35.30575 4.64672,-77.28945 3.18613,-10.18859 3.29168,-10.77869 2.3902,-13.36242 -1.64745,-4.72175 -9.1048,-35.13072 -9.10213,-37.11593 0.005,-3.04093 2.34291,-6.0669 6.63425,-8.58342 3.81614,-2.23785 3.98166,-2.45026 3.91502,-5.02451 -0.0382,-1.47835 -0.41928,-10.85952 -0.84669,-20.84707 -1.37423,-32.11181 0.96642,-53.22395 8.18066,-73.78796 2.41392,-6.8808 9.00486,-20.49468 12.08744,-24.96716 2.96479,-4.30156 8.98244,-9.77708 12.96059,-11.79297 6.46247,-3.27478 18.07051,-5.37956 34.988,-6.34405 9.28622,-0.52942 9.87854,-0.35598 13.90869,4.07286 l 2.07361,2.27874 8.03941,0.14106 c 9.01563,0.15819 20.34462,1.46464 30.81565,3.55363 l 7.01544,1.39958 2.29646,-1.75159 c 4.40487,-3.35976 5.56938,-3.42519 14.21632,-0.7986 18.11323,5.50204 28.620547,11.17098 33.835507,18.255 9.19066,12.48463 19.19375,52.03779 21.56938,85.28731 0.37698,5.27645 0.88468,17.76516 1.12818,27.75271 l 0.44276,18.15919 7.17243,26.3822 c 14.0896,51.82545 17.72099,69.58929 18.49097,90.45327 0.84409,22.87208 -3.11115,40.91845 -13.66266,62.33779 -9.6728,19.6356 -21.73843,32.35059 -38.69282,40.77518 -14.135237,7.02376 -28.810297,9.81992 -44.723987,8.52161 z"
         style="display:inline;fill:url(#linearGradient4258);fill-opacity:1;stroke:none;stroke-width:0.99999994;stroke-opacity:1" />
      <path
         inkscape:connector-curvature="0"
         id="path18462"
         d="m -163.43625,462.90137 c -0.0241,-0.002 -0.049,-0.004 -0.0731,-0.006 -0.0668,-0.006 -0.1335,-0.0112 -0.20023,-0.017 -0.24701,-0.0212 -0.49396,-0.0432 -0.74085,-0.0658 -0.85307,-0.0779 -1.70555,-0.1623 -2.55741,-0.25249 v 0 c -2.38437,-0.25243 -4.76576,-0.54244 -7.13083,-0.93662 v 0 l -4e-5,-1e-5 c -2.06931,-0.34489 -4.09141,-1.09224 -5.75056,-2.37608 -2e-5,-2e-5 -4e-5,-3e-5 -6e-5,-5e-5 -2.21218,-1.71181 -3.95996,-3.94128 -5.75066,-6.09011 -2e-5,-2e-5 -3e-5,-4e-5 -5e-5,-6e-5 -1.83826,-2.20591 -3.66944,-4.43408 -5.79054,-6.36959 -1.34647,-1.22865 -2.87209,-2.29314 -4.59254,-2.8953 -1.16504,-0.40777 -2.4375,-0.36184 -3.67154,-0.33446 -1.78345,0.0396 -3.56162,0.2102 -5.3338,0.41432 -1e-5,0 -2e-5,10e-6 -3e-5,10e-6 -3.45552,0.39802 -6.88918,0.96365 -10.32316,1.51753 -2e-5,0 -5e-5,10e-6 -7e-5,10e-6 -1e-5,0 -2e-5,0 -4e-5,1e-5 -2.5027,0.40365 -5.06469,0.31688 -7.56767,0.71882 v 0 c -3.53413,0.56752 -6.85661,2.1017 -9.84401,4.07338 v 0 c -1.75889,1.16087 -3.48028,2.39536 -4.99439,3.86123 -1.52422,1.47566 -2.80906,3.1839 -3.93111,4.9844 -4.15117,6.66118 -7.03126,14.02417 -10.24336,21.18559 -0.12379,0.27598 -0.20788,0.58284 -0.15424,0.88052 0.0452,0.25078 0.19977,0.47275 0.39806,0.6328 0.58869,0.47516 1.38681,0.58812 2.13647,0.68988 2.45313,0.33298 4.94377,0.19962 7.4189,0.2493 10e-6,0 2e-5,0 3e-5,0 2.49689,0.0501 5.06826,0.0638 7.39343,0.97509 0.83535,0.32741 1.64921,0.82405 2.10465,1.59709 1e-5,10e-6 1e-5,2e-5 2e-5,4e-5 0.48555,0.82417 0.4542,1.86148 0.1993,2.78346 -1.987,7.18716 -3.86989,14.40841 -5.33416,21.72001 v 0 c -0.79839,3.98666 -1.48404,8.00042 -1.87376,12.04752 v 0 c -0.31417,3.26268 -0.50644,6.57539 0.0434,9.80672 v 0 c 0.41424,2.43451 1.00754,4.83467 1.59054,7.23437 0,10e-6 0,2e-5 0,3e-5 0.70358,2.89604 1.43173,5.78624 2.10048,8.69051 0,10e-6 1e-5,3e-5 1e-5,4e-5 0.6144,2.66821 1.20127,5.34686 1.56991,8.05996 0.24148,1.77727 0.58333,3.64699 -0.001,5.34267 -0.36997,1.07328 -1.42814,1.74275 -2.43307,2.2709 -1e-5,0 -2e-5,1e-5 -3e-5,2e-5 -1.63451,0.85903 -3.39898,1.43947 -5.14932,2.02758 -5.50933,1.85114 -11.05456,3.62962 -16.36468,5.99225 0.50187,6.84454 1.36739,13.67266 3.00071,20.33839 1.86693,7.61908 4.26663,15.09803 6.79645,22.52338 10e-6,1e-5 10e-6,2e-5 2e-5,4e-5 3.20405,9.4043 6.70131,18.708 10.43554,27.91466 3.85035,9.49291 7.95091,18.88741 12.44229,28.09437 3.85863,7.90984 7.95645,15.72546 12.81668,23.06254 v 0 c 8.57439,12.94403 15.76154,26.81766 21.32536,41.31289 v 0 l 2e-5,3e-5 v 0 c 2.43719,6.34954 4.56143,12.83687 5.94533,19.4958 0,10e-6 0,3e-5 0,4e-5 1.04031,5.0057 1.79567,10.17683 1.00337,15.22773 -1.05687,6.73754 -2.62705,13.53321 -6.09011,19.40847 -2.77049,4.70028 -7.0067,8.49607 -11.96055,10.78246 -1e-5,10e-6 -2e-5,10e-6 -3e-5,2e-5 10.57001,7.25547 22.18712,12.92131 34.18076,17.45118 6.71552,2.53638 13.59676,4.66258 20.62882,6.10538 6.50405,1.33448 13.16348,2.10992 19.78925,1.68245 13.54026,-0.87357 26.97134,-4.40734 38.916725,-10.84236 l 6.6e-5,-3e-5 v 0 c 13.432934,-7.23639 24.690987,-18.5685 31.369046,-32.28756 v 0 l -2.9e-5,-2e-5 v 0 c -6.978157,-5.84272 -11.529106,-13.97017 -16.293511,-21.72468 v 0 c -3.591151,-5.84493 -5.464234,-12.58444 -6.832179,-19.30666 v 0 c -1.736609,-8.53387 -2.533883,-17.23527 -2.959271,-25.93365 v 0 c -0.944491,-19.31307 -0.0237,-38.67488 1.48495,-57.95208 1.392304,-17.79055 2.907798,-35.57187 4.153253,-53.3733 0.978022,-13.979 1.964719,-27.98009 1.757138,-41.99173 0,-2e-5 -10e-7,-5e-5 -10e-7,-7e-5 -0.108791,-7.34339 -0.884533,-14.66136 -1.74596,-21.95486 -3e-6,-2e-5 -6e-6,-5e-5 -9e-6,-7e-5 -1.111568,-9.41137 -2.520144,-18.7877 -4.214472,-28.1118 -1.598413,-8.79626 -3.411677,-17.56439 -5.866733,-26.16101 -0.948259,-3.32042 -1.988523,-6.61991 -3.297877,-9.81522 -0.906661,-2.21259 -1.890612,-4.43637 -3.404792,-6.287 -1.6e-5,-2e-5 -3.1e-5,-4e-5 -4.7e-5,-6e-5 -1.120502,-1.36947 -2.116251,-2.8409 -3.294543,-4.16098 -1.7e-5,-10e-6 -3.3e-5,-3e-5 -5e-5,-5e-5 -1.229641,-1.37758 -2.734614,-2.49495 -4.372954,-3.34678 -7.17612,-3.73111 -14.7873,-6.5853 -22.52341,-8.94547 -1.73914,-0.53059 -3.51799,-1.03729 -5.33626,-1.04081 -3e-5,0 -5e-5,0 -8e-5,0 -1.04876,-0.002 -2.11306,0.25673 -2.97018,0.8611 -0.87289,0.6155 -1.5506,1.46275 -2.25134,2.26882 -0.98507,1.13313 -2.02368,2.22437 -3.17983,3.18233 -1.887,1.56352 -3.69663,3.22807 -5.69076,4.65244 -2e-5,2e-5 -4e-5,3e-5 -6e-5,4e-5 -1.01532,0.72523 -2.17622,1.26287 -3.41432,1.41765 v 0 l -7e-5,10e-6 v 0 c -1.01993,0.12749 -2.05379,0.0699 -3.08107,0.0352 v 0 c -1.43232,-0.0484 -2.86309,-0.13536 -4.29284,-0.23386 -3e-5,-1e-5 -5e-5,-1e-5 -8e-5,-1e-5 v 0 c -1.27432,-0.0878 -2.54785,-0.18694 -3.82068,-0.29425 -3e-5,0 -5e-5,-1e-5 -7e-5,-1e-5 -0.40236,-0.0339 -0.80465,-0.0687 -1.20684,-0.10455 -2e-5,-1e-5 -4e-5,-1e-5 -7e-5,-1e-5 v 0 l -7e-5,-10e-6 c -0.11184,-0.01 -0.22367,-0.02 -0.33548,-0.0302 v 0 c -0.0298,-0.003 -0.0595,-0.005 -0.0893,-0.008 -0.0108,-9.9e-4 -0.0218,-0.002 -0.0326,-0.003 l -8e-5,23.64159 h 7.10846 c 1.79608,0 3.77077,0.57069 4.65522,2.1339 0.74409,1.31512 0.77596,2.90442 0.77596,4.41545 v 47.92217 c 0,1.87662 -0.49231,3.97025 -2.09574,4.94527 -1.44487,0.87861 -3.24182,0.88526 -4.93285,0.88526 h -7e-5 -5.59084 l -0.0799,22.72302 v 7e-5 h 7.90716 c 1.35609,0 2.59098,0.92846 3.14945,2.16422 10e-6,2e-5 2e-5,4e-5 3e-5,7e-5 0.54293,1.20139 0.69715,2.5476 0.68429,3.86592 l -0.15974,16.3734 c -1.07227,1.88716 -2.62599,3.56513 -4.63248,4.39286 1.69236,0.77018 2.99584,2.28777 3.51429,4.07339 l 1.21176,16.99063 c 0.0663,0.92933 -0.10336,1.90389 -0.64286,2.66348 -0.59807,0.84206 -1.62109,1.29956 -2.64545,1.43163 -2e-5,0 -5e-5,10e-6 -7e-5,10e-6 h -7.20587 v 16.1245 h -1.85935 -7e-5 v -16.1245 h -7.55743 c -0.89328,0 -1.79974,-0.23952 -2.53067,-0.75303 -0.87,-0.6112 -1.33205,-1.69874 -1.29341,-2.76127 l 0.63896,-17.57145 c 0,-2e-5 0,-5e-5 10e-6,-7e-5 0.1425,-1.55253 0.94718,-2.99859 2.07661,-4.07332 -1.51132,-1.97092 -3.01842,-4.10751 -3.11493,-6.5893 l -0.5591,-14.37657 v -7e-5 c -0.0693,-1.78103 0.26185,-3.77699 1.67929,-4.85761 2e-5,-10e-6 4e-5,-3e-5 6e-5,-4e-5 1.04609,-0.79748 2.43636,-0.97287 3.75177,-0.97288 2e-5,0 5e-5,0 7e-5,0 h 5.39124 l 0.19967,-22.72309 h -8.14677 c -1.00954,0 -2.05065,-0.1644 -2.90584,-0.70089 -0.66024,-0.4142 -1.16118,-1.05614 -1.4653,-1.77377 -1e-5,-2e-5 -2e-5,-4e-5 -3e-5,-6e-5 -0.63231,-1.49206 -0.58079,-3.17299 -0.58079,-4.79349 v -44.72733 c 0,-2e-5 0,-5e-5 0,-7e-5 0,-1.98672 0.0642,-4.02793 0.80089,-5.87301 0.55154,-1.38134 1.86605,-2.48952 3.35237,-2.43343 h 8.46626 l 2e-5,-23.96108"
         style="display:inline;fill:url(#linearGradient4280);fill-opacity:1;fill-rule:evenodd;stroke:none;stroke-width:0.99999994px;stroke-linecap:butt;stroke-linejoin:miter;stroke-opacity:1" />
      <path
         inkscape:connector-curvature="0"
         id="path4216"
         d="m -267.89386,579.23455 10.57653,59.51853 c 0,0 -5.30186,-2.52659 -9.89881,-10.03349 -4.59694,-7.50691 -10.21594,-37.04173 -10.21594,-37.04173 -2.54335,-8.73381 9.53822,-12.44331 9.53822,-12.44331 z"
         style="display:inline;fill:url(#linearGradient4232);fill-opacity:1;fill-rule:evenodd;stroke:none;stroke-width:0.99999994px;stroke-linecap:butt;stroke-linejoin:miter;stroke-opacity:1" />
      <path
         inkscape:connector-curvature="0"
         id="path4234"
         d="m -256.80444,639.97375 c 0,0 -5.60177,6.92827 -5.83053,11.10197 2.9963,15.65932 12.64525,36.20107 15.17534,38.65721 2.5301,2.45615 14.29679,9.6643 14.29679,9.6643 z"
         style="display:inline;fill:url(#linearGradient4250);fill-opacity:1;fill-rule:evenodd;stroke:none;stroke-width:0.99999994px;stroke-linecap:butt;stroke-linejoin:miter;stroke-opacity:1" />
      <rect
         ry="9.3264446"
         rx="9.3264446"
         y="490.91617"
         x="-173.23875"
         height="54.556595"
         width="21.348232"
         id="rect4285"
         style="display:inline;opacity:1;fill:url(#linearGradient4301);fill-opacity:1;stroke:none;stroke-width:0.74800003;stroke-linecap:round;stroke-linejoin:round;stroke-miterlimit:4;stroke-dasharray:none;stroke-dashoffset:0;stroke-opacity:1" />
      <rect
         ry="4.1986637"
         rx="8.7952347"
         y="571.61047"
         x="-172.72847"
         height="23.751226"
         width="22.445896"
         id="rect4303"
         style="display:inline;opacity:1;fill:url(#linearGradient4313);fill-opacity:1;stroke:none;stroke-width:0.74800003;stroke-linecap:round;stroke-linejoin:round;stroke-miterlimit:4;stroke-dasharray:none;stroke-dashoffset:0;stroke-opacity:1" />
      <rect
         style="display:inline;opacity:1;fill:url(#linearGradient4323);fill-opacity:1;stroke:none;stroke-width:0.74800003;stroke-linecap:round;stroke-linejoin:round;stroke-miterlimit:4;stroke-dasharray:none;stroke-dashoffset:0;stroke-opacity:1"
         id="rect4321"
         width="22.445896"
         height="23.751226"
         x="-172.72847"
         y="598.1546"
         rx="8.7952347"
         ry="4.1986637" />
      <rect
         transform="rotate(8.615262)"
         ry="4.198667"
         rx="8.7952375"
         y="514.36487"
         x="-180.53149"
         height="23.268444"
         width="22.703676"
         id="rect4325"
         style="display:inline;opacity:1;fill:url(#linearGradient4333);fill-opacity:1;stroke:none;stroke-width:0.74800003;stroke-linecap:round;stroke-linejoin:round;stroke-miterlimit:4;stroke-dasharray:none;stroke-dashoffset:0;stroke-opacity:1" />
      <rect
         style="display:inline;opacity:1;fill:url(#linearGradient4337);fill-opacity:1;stroke:none;stroke-width:0.74799997;stroke-linecap:round;stroke-linejoin:round;stroke-miterlimit:4;stroke-dasharray:none;stroke-dashoffset:0;stroke-opacity:1"
         id="rect4335"
         width="22.703674"
         height="23.268444"
         x="-261.04742"
         y="512.37372"
         rx="8.7952366"
         ry="4.198667"
         transform="rotate(0.25246887)" />
      <rect
         transform="rotate(-12.478727)"
         ry="4.198667"
         rx="8.7952375"
         y="474.43335"
         x="-373.00192"
         height="23.268444"
         width="22.703676"
         id="rect4339"
         style="display:inline;opacity:1;fill:url(#linearGradient4341);fill-opacity:1;stroke:none;stroke-width:0.74800003;stroke-linecap:round;stroke-linejoin:round;stroke-miterlimit:4;stroke-dasharray:none;stroke-dashoffset:0;stroke-opacity:1" />
    </g>
  </g>
  <g
     inkscape:groupmode="layer"
     id="layer2"
     inkscape:label="Leaders">
    <path
       inkscape:connector-curvature="0"
       style="display:inline;fill:url(#linearGradient4562-5);fill-opacity:1;stroke:none;stroke-width:1.06666696"
       d="m 553.43718,434.10923 5.36289,3.09559 5.3597,3.09556 v -3.53049 h 11.33659 l -1.535,-2.66066 1.535,-2.66066 h -11.33659 v -3.53049 l -5.3597,3.09558 z"
       id="path4556" />
    <path
       inkscape:connector-curvature="0"
       style="fill:url(#linearGradient4623-9);fill-opacity:1;stroke:none;stroke-width:1.06666696"
       d="m 575.49637,488.12291 -5.36289,3.09559 -5.3597,3.09556 v -3.53049 h -11.33659 l 1.535,-2.66066 -1.535,-2.66066 h 11.33659 v -3.53049 l 5.3597,3.09559 z"
       id="use4558" />
    <path
       inkscape:connector-curvature="0"
       id="path4353"
       d="M 344.51537,259.69926 232.70631,131.50438"
       style="fill:none;stroke:#000000;stroke-width:2;stroke-linecap:butt;stroke-linejoin:miter;stroke-miterlimit:4;stroke-dasharray:none;stroke-opacity:1" />
    <path
       inkscape:connector-curvature="0"
       id="path4355"
       d="M 386.20311,327.17023 414.15538,299.21797 405.48054,134.396"
       style="fill:none;stroke:#000000;stroke-width:2;stroke-linecap:butt;stroke-linejoin:miter;stroke-miterlimit:4;stroke-dasharray:none;stroke-opacity:1" />
    <path
       inkscape:connector-curvature="0"
       id="path4357"
       d="M 442.34829,268.85603 546.44637,138.73342"
       style="fill:none;stroke:#000000;stroke-width:2;stroke-linecap:butt;stroke-linejoin:miter;stroke-miterlimit:4;stroke-dasharray:none;stroke-opacity:1" />
    <path
       inkscape:connector-curvature="0"
       id="path4359"
       d="M 286.68309,285.72378 176.80178,183.55343"
       style="fill:none;stroke:#000000;stroke-width:2;stroke-linecap:butt;stroke-linejoin:miter;stroke-miterlimit:4;stroke-dasharray:none;stroke-opacity:1" />
    <path
       inkscape:connector-curvature="0"
       id="path4361"
       d="M 281.86374,331.02572 177.76565,252.95215"
       style="fill:none;stroke:#000000;stroke-width:2;stroke-linecap:butt;stroke-linejoin:miter;stroke-miterlimit:4;stroke-dasharray:none;stroke-opacity:1" />
    <path
       inkscape:connector-curvature="0"
       id="path4363"
       d="m 143.98919,397.33992 116.54674,10.90495"
       style="fill:none;stroke:#000000;stroke-width:2;stroke-linecap:butt;stroke-linejoin:miter;stroke-miterlimit:4;stroke-dasharray:none;stroke-opacity:1" />
    <path
       inkscape:connector-curvature="0"
       id="path4365"
       d="M 146.71543,523.42849 254.40189,488.66894"
       style="fill:none;stroke:#000000;stroke-width:2;stroke-linecap:butt;stroke-linejoin:miter;stroke-miterlimit:4;stroke-dasharray:none;stroke-opacity:1" />
    <path
       inkscape:connector-curvature="0"
       id="path4367"
       d="m 148.07856,422.55763 112.45737,-3.4078"
       style="fill:none;stroke:#000000;stroke-width:2;stroke-linecap:butt;stroke-linejoin:miter;stroke-miterlimit:4;stroke-dasharray:none;stroke-opacity:1" />
    <text
       id="text4473"
       y="120.44142"
       x="193.05869"
       style="font-style:normal;font-variant:normal;font-weight:normal;font-stretch:normal;font-size:16px;line-height:0%;font-family:sans-serif;-inkscape-font-specification:'sans-serif, Normal';font-variant-ligatures:normal;font-variant-caps:normal;font-variant-numeric:normal;font-feature-settings:normal;text-align:start;letter-spacing:0px;word-spacing:0px;writing-mode:lr-tb;text-anchor:start;display:inline;fill:#000000;fill-opacity:1;stroke:none;stroke-width:1.06666696"
       xml:space="preserve"><tspan
         style="font-style:normal;font-variant:normal;font-weight:normal;font-stretch:normal;font-size:16px;line-height:1.25;font-family:sans-serif;-inkscape-font-specification:'sans-serif, Normal';font-variant-ligatures:normal;font-variant-caps:normal;font-variant-numeric:normal;font-feature-settings:normal;text-align:start;writing-mode:lr-tb;text-anchor:start;stroke-width:1.06666696"
         y="120.44142"
         x="193.05869"
         id="tspan4475">Button0</tspan></text>
    <text
       xml:space="preserve"
       style="font-style:normal;font-variant:normal;font-weight:normal;font-stretch:normal;font-size:16px;line-height:0%;font-family:sans-serif;-inkscape-font-specification:'sans-serif, Normal';font-variant-ligatures:normal;font-variant-caps:normal;font-variant-numeric:normal;font-feature-settings:normal;text-align:start;letter-spacing:0px;word-spacing:0px;writing-mode:lr-tb;text-anchor:start;display:inline;fill:#000000;fill-opacity:1;stroke:none;stroke-width:1.06666696"
       x="546.39136"
       y="130.37859"
       id="text4477"><tspan
         style="font-style:normal;font-variant:normal;font-weight:normal;font-stretch:normal;font-size:16px;line-height:1.25;font-family:sans-serif;-inkscape-font-specification:'sans-serif, Normal';font-variant-ligatures:normal;font-variant-caps:normal;font-variant-numeric:normal;font-feature-settings:normal;text-align:start;writing-mode:lr-tb;text-anchor:start;stroke-width:1.06666696"
         id="tspan4479"
         x="546.39136"
         y="130.37859">Button1</tspan></text>
    <text
       id="text4481"
       y="122.64947"
       x="377.80994"
       style="font-style:normal;font-variant:normal;font-weight:normal;font-stretch:normal;font-size:16px;line-height:0%;font-family:sans-serif;-inkscape-font-specification:'sans-serif, Normal';font-variant-ligatures:normal;font-variant-caps:normal;font-variant-numeric:normal;font-feature-settings:normal;text-align:start;letter-spacing:0px;word-spacing:0px;writing-mode:lr-tb;text-anchor:start;display:inline;fill:#000000;fill-opacity:1;stroke:none;stroke-width:1.06666696"
       xml:space="preserve"><tspan
         style="font-style:normal;font-variant:normal;font-weight:normal;font-stretch:normal;font-size:16px;line-height:1.25;font-family:sans-serif;-inkscape-font-specification:'sans-serif, Normal';font-variant-ligatures:normal;font-variant-caps:normal;font-variant-numeric:normal;font-feature-settings:normal;text-align:start;writing-mode:lr-tb;text-anchor:start;stroke-width:1.06666696"
         y="122.64947"
         x="377.80994"
         id="tspan4483">Button2</tspan></text>
    <text
       xml:space="preserve"
       style="font-style:normal;font-variant:normal;font-weight:normal;font-stretch:normal;font-size:16px;line-height:0%;font-family:sans-serif;-inkscape-font-specification:'sans-serif, Normal';font-variant-ligatures:normal;font-variant-caps:normal;font-variant-numeric:normal;font-feature-settings:normal;text-align:start;letter-spacing:0px;word-spacing:0px;writing-mode:lr-tb;text-anchor:start;display:inline;fill:#000000;fill-opacity:1;stroke:none;stroke-width:1.06666696"
       x="78.584717"
       y="394.39722"
       id="text4485"><tspan
         style="font-style:normal;font-variant:normal;font-weight:normal;font-stretch:normal;font-size:16px;line-height:1.25;font-family:sans-serif;-inkscape-font-specification:'sans-serif, Normal';font-variant-ligatures:normal;font-variant-caps:normal;font-variant-numeric:normal;font-feature-settings:normal;text-align:start;writing-mode:lr-tb;text-anchor:start;stroke-width:1.06666696"
         id="tspan4487"
         x="78.584717"
         y="394.39722">Button6</tspan></text>
    <text
       id="text4489"
       y="498.46405"
       x="79.262764"
       style="font-style:normal;font-variant:normal;font-weight:normal;font-stretch:normal;font-size:16px;line-height:0%;font-family:sans-serif;-inkscape-font-specification:'sans-serif, Normal';font-variant-ligatures:normal;font-variant-caps:normal;font-variant-numeric:normal;font-feature-settings:normal;text-align:start;letter-spacing:0px;word-spacing:0px;writing-mode:lr-tb;text-anchor:start;display:inline;fill:#000000;fill-opacity:1;stroke:none;stroke-width:1.06666696"
       xml:space="preserve"><tspan
         style="font-style:normal;font-variant:normal;font-weight:normal;font-stretch:normal;font-size:16px;line-height:1.25;font-family:sans-serif;-inkscape-font-specification:'sans-serif, Normal';font-variant-ligatures:normal;font-variant-caps:normal;font-variant-numeric:normal;font-feature-settings:normal;text-align:start;writing-mode:lr-tb;text-anchor:start;stroke-width:1.06666696"
         y="498.46405"
         x="79.262764"
         id="tspan4491">Button5</tspan></text>
    <text
       xml:space="preserve"
       style="font-style:normal;font-variant:normal;font-weight:normal;font-stretch:normal;font-size:16px;line-height:0%;font-family:sans-serif;-inkscape-font-specification:'sans-serif, Normal';font-variant-ligatures:normal;font-variant-caps:normal;font-variant-numeric:normal;font-feature-settings:normal;text-align:start;letter-spacing:0px;word-spacing:0px;writing-mode:lr-tb;text-anchor:start;display:inline;fill:#000000;fill-opacity:1;stroke:none;stroke-width:1.06666696"
       x="78.501495"
       y="435.30725"
       id="text4493"><tspan
         style="font-style:normal;font-variant:normal;font-weight:normal;font-stretch:normal;font-size:16px;line-height:1.25;font-family:sans-serif;-inkscape-font-specification:'sans-serif, Normal';font-variant-ligatures:normal;font-variant-caps:normal;font-variant-numeric:normal;font-feature-settings:normal;text-align:start;writing-mode:lr-tb;text-anchor:start;stroke-width:1.06666696"
         id="tspan4495"
         x="78.501495"
         y="435.30725">Button4</tspan></text>
    <text
       id="text4497"
       y="179.26828"
       x="106.50408"
       style="font-style:normal;font-variant:normal;font-weight:normal;font-stretch:normal;font-size:16px;line-height:0%;font-family:sans-serif;-inkscape-font-specification:'sans-serif, Normal';font-variant-ligatures:normal;font-variant-caps:normal;font-variant-numeric:normal;font-feature-settings:normal;text-align:start;letter-spacing:0px;word-spacing:0px;writing-mode:lr-tb;text-anchor:start;display:inline;fill:#000000;fill-opacity:1;stroke:none;stroke-width:1.06666696"
       xml:space="preserve"><tspan
         style="font-style:normal;font-variant:normal;font-weight:normal;font-stretch:normal;font-size:16px;line-height:1.25;font-family:sans-serif;-inkscape-font-specification:'sans-serif, Normal';font-variant-ligatures:normal;font-variant-caps:normal;font-variant-numeric:normal;font-feature-settings:normal;text-align:start;writing-mode:lr-tb;text-anchor:start;stroke-width:1.06666696"
         y="179.26828"
         x="106.50408"
         id="tspan4499">Button9</tspan></text>
    <text
       xml:space="preserve"
       style="font-style:normal;font-variant:normal;font-weight:normal;font-stretch:normal;font-size:16px;line-height:0%;font-family:sans-serif;-inkscape-font-specification:'sans-serif, Normal';font-variant-ligatures:normal;font-variant-caps:normal;font-variant-numeric:normal;font-feature-settings:normal;text-align:start;letter-spacing:0px;word-spacing:0px;writing-mode:lr-tb;text-anchor:start;display:inline;fill:#000000;fill-opacity:1;stroke:none;stroke-width:1.06666696"
       x="107.93927"
       y="249.28754"
       id="text4501"><tspan
         style="font-style:normal;font-variant:normal;font-weight:normal;font-stretch:normal;font-size:16px;line-height:1.25;font-family:sans-serif;-inkscape-font-specification:'sans-serif, Normal';font-variant-ligatures:normal;font-variant-caps:normal;font-variant-numeric:normal;font-feature-settings:normal;text-align:start;writing-mode:lr-tb;text-anchor:start;stroke-width:1.06666696"
         id="tspan4503"
         x="107.93927"
         y="249.28754">Button8</tspan></text>
    <text
       id="text4505"
       y="440.16504"
       x="584.81641"
       style="font-style:normal;font-variant:normal;font-weight:normal;font-stretch:normal;font-size:16px;line-height:0%;font-family:sans-serif;-inkscape-font-specification:'sans-serif, Normal';font-variant-ligatures:normal;font-variant-caps:normal;font-variant-numeric:normal;font-feature-settings:normal;text-align:start;letter-spacing:0px;word-spacing:0px;writing-mode:lr-tb;text-anchor:start;display:inline;fill:#000000;fill-opacity:1;stroke:none;stroke-width:1.06666696"
       xml:space="preserve"><tspan
         style="font-style:normal;font-variant:normal;font-weight:normal;font-stretch:normal;font-size:16px;line-height:1.25;font-family:sans-serif;-inkscape-font-specification:'sans-serif, Normal';font-variant-ligatures:normal;font-variant-caps:normal;font-variant-numeric:normal;font-feature-settings:normal;text-align:start;writing-mode:lr-tb;text-anchor:start;stroke-width:1.06666696"
         y="440.16504"
         x="584.81641"
         id="tspan4507">Button11</tspan></text>
    <text
       xml:space="preserve"
       style="font-style:normal;font-variant:normal;font-weight:normal;font-stretch:normal;font-size:16px;line-height:0%;font-family:sans-serif;-inkscape-font-specification:'sans-serif, Normal';font-variant-ligatures:normal;font-variant-caps:normal;font-variant-numeric:normal;font-feature-settings:normal;text-align:start;letter-spacing:0px;word-spacing:0px;writing-mode:lr-tb;text-anchor:start;display:inline;fill:#000000;fill-opacity:1;stroke:none;stroke-width:1.06666696"
       x="585.0177"
       y="494.99219"
       id="text4509"><tspan
         style="font-style:normal;font-variant:normal;font-weight:normal;font-stretch:normal;font-size:16px;line-height:1.25;font-family:sans-serif;-inkscape-font-specification:'sans-serif, Normal';font-variant-ligatures:normal;font-variant-caps:normal;font-variant-numeric:normal;font-feature-settings:normal;text-align:start;writing-mode:lr-tb;text-anchor:start;stroke-width:1.06666696"
         id="tspan4511"
         x="585.0177"
         y="494.99219">Button12</tspan></text>
    <text
       id="text4232"
       y="263.05823"
       x="563.48523"
       style="font-style:normal;font-variant:normal;font-weight:normal;font-stretch:normal;font-size:16px;line-height:0%;font-family:sans-serif;-inkscape-font-specification:'sans-serif, Normal';font-variant-ligatures:normal;font-variant-caps:normal;font-variant-numeric:normal;font-feature-settings:normal;text-align:start;letter-spacing:0px;word-spacing:0px;writing-mode:lr-tb;text-anchor:start;display:inline;fill:#000000;fill-opacity:1;stroke:none;stroke-width:1.06666696"
       xml:space="preserve"><tspan
         y="263.05823"
         x="563.48523"
         id="tspan4234"
         style="font-style:normal;font-variant:normal;font-weight:normal;font-stretch:normal;font-size:16px;line-height:1.25;font-family:sans-serif;-inkscape-font-specification:'sans-serif, Normal';font-variant-ligatures:normal;font-variant-caps:normal;font-variant-numeric:normal;font-feature-settings:normal;text-align:start;writing-mode:lr-tb;text-anchor:start;stroke-width:1.06666696">Button10</tspan></text>
    <path
       inkscape:connector-curvature="0"
       style="fill:none;stroke:#000000;stroke-width:2;stroke-linecap:butt;stroke-linejoin:miter;stroke-miterlimit:4;stroke-dasharray:none;stroke-opacity:1"
       d="M 398.72845,423.57011 558.0329,262.09576"
       id="path4236" />
    <text
       xml:space="preserve"
       style="font-style:normal;font-variant:normal;font-weight:normal;font-stretch:normal;font-size:16px;line-height:0%;font-family:sans-serif;-inkscape-font-specification:'sans-serif, Normal';font-variant-ligatures:normal;font-variant-caps:normal;font-variant-numeric:normal;font-feature-settings:normal;text-align:start;letter-spacing:0px;word-spacing:0px;writing-mode:lr-tb;text-anchor:start;display:inline;fill:#000000;fill-opacity:1;stroke:none;stroke-width:1.06666696"
       x="83.472565"
       y="539.97015"
       id="text4238"><tspan
         id="tspan4240"
         x="83.472565"
         y="539.97015"
         style="font-style:normal;font-variant:normal;font-weight:normal;font-stretch:normal;font-size:16px;line-height:1.25;font-family:sans-serif;-inkscape-font-specification:'sans-serif, Normal';font-variant-ligatures:normal;font-variant-caps:normal;font-variant-numeric:normal;font-feature-settings:normal;text-align:start;writing-mode:lr-tb;text-anchor:start;stroke-width:1.06666696">Button3</tspan></text>
    <text
       id="text4242"
       y="299.55533"
       x="105.99428"
       style="font-style:normal;font-variant:normal;font-weight:normal;font-stretch:normal;font-size:16px;line-height:0%;font-family:sans-serif;-inkscape-font-specification:'sans-serif, Normal';font-variant-ligatures:normal;font-variant-caps:normal;font-variant-numeric:normal;font-feature-settings:normal;text-align:start;letter-spacing:0px;word-spacing:0px;writing-mode:lr-tb;text-anchor:start;display:inline;fill:#000000;fill-opacity:1;stroke:none;stroke-width:1.06666696"
       xml:space="preserve"><tspan
         y="299.55533"
         x="105.99428"
         id="tspan4244"
         style="font-style:normal;font-variant:normal;font-weight:normal;font-stretch:normal;font-size:16px;line-height:1.25;font-family:sans-serif;-inkscape-font-specification:'sans-serif, Normal';font-variant-ligatures:normal;font-variant-caps:normal;font-variant-numeric:normal;font-feature-settings:normal;text-align:start;writing-mode:lr-tb;text-anchor:start;stroke-width:1.06666696">Button7</tspan></text>
    <path
       inkscape:connector-curvature="0"
       style="fill:none;stroke:#000000;stroke-width:2;stroke-linecap:butt;stroke-linejoin:miter;stroke-miterlimit:4;stroke-dasharray:none;stroke-opacity:1"
       d="M 283.90842,363.05903 173.6763,299.29822"
       id="path4246" />
    <path
       inkscape:connector-curvature="0"
       style="fill:none;stroke:#000000;stroke-width:2;stroke-linecap:butt;stroke-linejoin:miter;stroke-miterlimit:4;stroke-dasharray:none;stroke-opacity:1"
       d="m 149.44167,486.62426 107.0049,-9.54183"
       id="path4248" />
  </g>
</svg>
