<?xml version="1.0" encoding="UTF-8" standalone="no"?>
<!-- Created with Inkscape (http://www.inkscape.org/) -->

<svg
   xmlns:dc="http://purl.org/dc/elements/1.1/"
   xmlns:cc="http://creativecommons.org/ns#"
   xmlns:rdf="http://www.w3.org/1999/02/22-rdf-syntax-ns#"
   xmlns:svg="http://www.w3.org/2000/svg"
   xmlns="http://www.w3.org/2000/svg"
   xmlns:xlink="http://www.w3.org/1999/xlink"
   xmlns:sodipodi="http://sodipodi.sourceforge.net/DTD/sodipodi-0.dtd"
   xmlns:inkscape="http://www.inkscape.org/namespaces/inkscape"
   width="750"
   height="750"
   viewBox="0 0 198.4375 198.43751"
   version="1.1"
   id="svg124"
   inkscape:version="0.92.1 r"
   sodipodi:docname="g303_FINAL.svg">
  <defs
     id="defs118">
    <marker
       inkscape:isstock="true"
       style="overflow:visible;"
       id="marker10743"
       refX="0.0"
       refY="0.0"
       orient="auto"
       inkscape:stockid="Arrow2Mend">
      <path
         transform="scale(0.6) rotate(180) translate(0,0)"
         d="M 8.7185878,4.0337352 L -2.2072895,0.016013256 L 8.7185884,-4.0017078 C 6.9730900,-1.6296469 6.9831476,1.6157441 8.7185878,4.0337352 z "
         style="fill-rule:evenodd;stroke-width:0.625;stroke-linejoin:round;stroke:#000000;stroke-opacity:1;fill:#000000;fill-opacity:1"
         id="path10741" />
    </marker>
    <marker
       inkscape:stockid="Arrow2Mend"
       orient="auto"
       refY="0.0"
       refX="0.0"
       id="marker8938"
       style="overflow:visible;"
       inkscape:isstock="true"
       inkscape:collect="always">
      <path
         id="path8936"
         style="fill-rule:evenodd;stroke-width:0.625;stroke-linejoin:round;stroke:#000000;stroke-opacity:1;fill:#000000;fill-opacity:1"
         d="M 8.7185878,4.0337352 L -2.2072895,0.016013256 L 8.7185884,-4.0017078 C 6.9730900,-1.6296469 6.9831476,1.6157441 8.7185878,4.0337352 z "
         transform="scale(0.6) rotate(180) translate(0,0)" />
    </marker>
    <marker
       inkscape:isstock="true"
       style="overflow:visible;"
       id="marker8458"
       refX="0.0"
       refY="0.0"
       orient="auto"
       inkscape:stockid="Arrow2Mend"
       inkscape:collect="always">
      <path
         transform="scale(0.6) rotate(180) translate(0,0)"
         d="M 8.7185878,4.0337352 L -2.2072895,0.016013256 L 8.7185884,-4.0017078 C 6.9730900,-1.6296469 6.9831476,1.6157441 8.7185878,4.0337352 z "
         style="fill-rule:evenodd;stroke-width:0.625;stroke-linejoin:round;stroke:#000000;stroke-opacity:1;fill:#000000;fill-opacity:1"
         id="path8456" />
    </marker>
    <marker
       inkscape:stockid="Arrow2Mend"
       orient="auto"
       refY="0.0"
       refX="0.0"
       id="marker7654"
       style="overflow:visible;"
       inkscape:isstock="true"
       inkscape:collect="always">
      <path
         id="path7652"
         style="fill-rule:evenodd;stroke-width:0.625;stroke-linejoin:round;stroke:#000000;stroke-opacity:1;fill:#000000;fill-opacity:1"
         d="M 8.7185878,4.0337352 L -2.2072895,0.016013256 L 8.7185884,-4.0017078 C 6.9730900,-1.6296469 6.9831476,1.6157441 8.7185878,4.0337352 z "
         transform="scale(0.6) rotate(180) translate(0,0)" />
    </marker>
    <marker
       inkscape:isstock="true"
       style="overflow:visible;"
       id="marker7210"
       refX="0.0"
       refY="0.0"
       orient="auto"
       inkscape:stockid="Arrow2Mend"
       inkscape:collect="always">
      <path
         transform="scale(0.6) rotate(180) translate(0,0)"
         d="M 8.7185878,4.0337352 L -2.2072895,0.016013256 L 8.7185884,-4.0017078 C 6.9730900,-1.6296469 6.9831476,1.6157441 8.7185878,4.0337352 z "
         style="fill-rule:evenodd;stroke-width:0.625;stroke-linejoin:round;stroke:#000000;stroke-opacity:1;fill:#000000;fill-opacity:1"
         id="path7208" />
    </marker>
    <marker
       inkscape:stockid="Arrow2Mend"
       orient="auto"
       refY="0.0"
       refX="0.0"
       id="Arrow2Mend"
       style="overflow:visible;"
       inkscape:isstock="true"
       inkscape:collect="always">
      <path
         id="path5595"
         style="fill-rule:evenodd;stroke-width:0.625;stroke-linejoin:round;stroke:#000000;stroke-opacity:1;fill:#000000;fill-opacity:1"
         d="M 8.7185878,4.0337352 L -2.2072895,0.016013256 L 8.7185884,-4.0017078 C 6.9730900,-1.6296469 6.9831476,1.6157441 8.7185878,4.0337352 z "
         transform="scale(0.6) rotate(180) translate(0,0)" />
    </marker>
    <marker
       inkscape:stockid="Arrow2Lend"
       orient="auto"
       refY="0.0"
       refX="0.0"
       id="Arrow2Lend"
       style="overflow:visible;"
       inkscape:isstock="true">
      <path
         id="path5589"
         style="fill-rule:evenodd;stroke-width:0.625;stroke-linejoin:round;stroke:#000000;stroke-opacity:1;fill:#000000;fill-opacity:1"
         d="M 8.7185878,4.0337352 L -2.2072895,0.016013256 L 8.7185884,-4.0017078 C 6.9730900,-1.6296469 6.9831476,1.6157441 8.7185878,4.0337352 z "         transform="scale(1.1) rotate(180) translate(1,0)" />
    </marker>
    <marker
       inkscape:stockid="Arrow1Lend"
       orient="auto"
       refY="0.0"
       refX="0.0"
       id="Arrow1Lend"
       style="overflow:visible;"
       inkscape:isstock="true">
      <path
         id="path5571"
         d="M 0.0,0.0 L 5.0,-5.0 L -12.5,0.0 L 5.0,5.0 L 0.0,0.0 z "
         style="fill-rule:evenodd;stroke:#000000;stroke-width:1pt;stroke-opacity:1;fill:#000000;fill-opacity:1"
         transform="scale(0.8) rotate(180) translate(12.5,0)" />
    </marker>
    <marker
       inkscape:stockid="Arrow1Lstart"
       orient="auto"
       refY="0.0"
       refX="0.0"
       id="Arrow1Lstart"
       style="overflow:visible"
       inkscape:isstock="true">
      <path
         id="path5568"
         d="M 0.0,0.0 L 5.0,-5.0 L -12.5,0.0 L 5.0,5.0 L 0.0,0.0 z "
         style="fill-rule:evenodd;stroke:#000000;stroke-width:1pt;stroke-opacity:1;fill:#000000;fill-opacity:1"
         transform="scale(0.8) translate(12.5,0)" />
    </marker>
    <linearGradient
       gradientTransform="matrix(1.2281683,0,0,1.2458588,-19.641241,-24.549337)"
       inkscape:collect="always"
       xlink:href="#linearGradient4680-3"
       id="linearGradient4831"
       x1="85.155098"
       y1="123.48504"
       x2="71.876953"
       y2="109.32611"
       gradientUnits="userSpaceOnUse" />
    <linearGradient
       inkscape:collect="always"
       id="linearGradient4680-3">
      <stop
         style="stop-color:#212121;stop-opacity:1"
         offset="0"
         id="stop4676" />
      <stop
         style="stop-color:#525252;stop-opacity:1"
         offset="1"
         id="stop4678" />
    </linearGradient>
    <linearGradient
       gradientTransform="matrix(1.2281683,0,0,1.2458588,-19.641241,-24.549337)"
       inkscape:collect="always"
       xlink:href="#linearGradient4680-3"
       id="linearGradient4837"
       gradientUnits="userSpaceOnUse"
       x1="75.392632"
       y1="113.90072"
       x2="78.325882"
       y2="111.17885" />
    <linearGradient
       gradientTransform="matrix(1.2281683,0,0,1.2458588,-19.641241,-24.549337)"
       inkscape:collect="always"
       xlink:href="#linearGradient4680-3"
       id="linearGradient4820"
       gradientUnits="userSpaceOnUse"
       x1="58.802368"
       y1="98.166107"
       x2="67.821754"
       y2="105.06921" />
    <linearGradient
       gradientTransform="matrix(1.2281683,0,0,1.2458588,-19.641241,-24.549337)"
       inkscape:collect="always"
       xlink:href="#linearGradient4680-3"
       id="linearGradient4812"
       x1="65.554306"
       y1="101.39091"
       x2="57.845005"
       y2="94.387032"
       gradientUnits="userSpaceOnUse" />
    <linearGradient
       gradientTransform="matrix(1.2281683,0,0,1.2458588,-19.641241,-24.549337)"
       inkscape:collect="always"
       xlink:href="#linearGradient4680-3"
       id="linearGradient4801"
       gradientUnits="userSpaceOnUse"
       x1="93.544136"
       y1="74.89328"
       x2="97.026817"
       y2="75.489372" />
    <linearGradient
       gradientTransform="matrix(1.2281683,0,0,1.2458588,-19.641241,-24.549337)"
       inkscape:collect="always"
       xlink:href="#linearGradient4680-3"
       id="linearGradient4796"
       x1="100.40672"
       y1="76.753265"
       x2="102.15361"
       y2="76.166771"
       gradientUnits="userSpaceOnUse" />
    <linearGradient
       gradientTransform="matrix(1.2281683,0,0,1.2458588,-19.641241,-24.549337)"
       inkscape:collect="always"
       xlink:href="#linearGradient4680-3"
       id="linearGradient4682"
       x1="78.691124"
       y1="106.60219"
       x2="134.32263"
       y2="145.19518"
       gradientUnits="userSpaceOnUse" />
    <linearGradient
       inkscape:collect="always"
       xlink:href="#linearGradient4680-3"
       id="linearGradient4705"
       x1="63.324043"
       y1="92.412109"
       x2="52.236984"
       y2="73.76532"
       gradientUnits="userSpaceOnUse"
       gradientTransform="matrix(1.2281683,0,0,1.2458588,-20.199812,-21.797201)" />
    <radialGradient
       inkscape:collect="always"
       xlink:href="#linearGradient4680-3"
       id="radialGradient4695"
       cx="112.96842"
       cy="113.917"
       fx="112.96842"
       fy="113.917"
       r="41.164257"
       gradientTransform="matrix(1.2281683,0,0,1.296401,-19.641241,-30.306952)"
       gradientUnits="userSpaceOnUse" />
    <linearGradient
       inkscape:collect="always"
       xlink:href="#linearGradient4680-3"
       id="linearGradient4710"
       gradientUnits="userSpaceOnUse"
       x1="41.81852"
       y1="81.23703"
       x2="81.993874"
       y2="81.23703"
       gradientTransform="matrix(1.2281683,0,0,1.2458588,-20.199812,-21.716256)" />
    <linearGradient
       gradientTransform="matrix(1.2281683,0,0,1.2458588,-19.641241,-24.549337)"
       inkscape:collect="always"
       xlink:href="#linearGradient4680-3"
       id="linearGradient4763"
       x1="67.125862"
       y1="69.888031"
       x2="82.802811"
       y2="69.888031"
       gradientUnits="userSpaceOnUse" />
    <linearGradient
       gradientTransform="matrix(1.2281683,0,0,1.2458588,-19.641241,-24.549337)"
       inkscape:collect="always"
       xlink:href="#linearGradient4680-3"
       id="linearGradient4773"
       x1="77.743431"
       y1="69.896729"
       x2="74.04789"
       y2="65.264908"
       gradientUnits="userSpaceOnUse" />
    <linearGradient
       gradientTransform="matrix(1.2281683,0,0,1.2458588,-19.641241,-24.549337)"
       inkscape:collect="always"
       xlink:href="#linearGradient4680-3"
       id="linearGradient4747"
       x1="80.881615"
       y1="74.891853"
       x2="82.567528"
       y2="70.608902"
       gradientUnits="userSpaceOnUse" />
    <linearGradient
       gradientTransform="matrix(1.2281683,0,0,1.2458588,-19.641241,-24.549337)"
       inkscape:collect="always"
       xlink:href="#linearGradient4680-3"
       id="linearGradient4784"
       x1="89.6782"
       y1="82.01104"
       x2="124.02607"
       y2="82.01104"
       gradientUnits="userSpaceOnUse" />
    <linearGradient
       gradientTransform="matrix(1.2281683,0,0,1.2458588,-19.641241,-24.549337)"
       inkscape:collect="always"
       xlink:href="#linearGradient4680-3"
       id="linearGradient4735"
       gradientUnits="userSpaceOnUse"
       x1="81.290771"
       y1="69.214806"
       x2="58.49073"
       y2="60.248428" />
    <linearGradient
       gradientTransform="matrix(1.2281683,0,0,1.2458588,-19.641241,-24.549337)"
       inkscape:collect="always"
       xlink:href="#linearGradient4680-3"
       id="linearGradient4726"
       x1="58.34309"
       y1="66.386375"
       x2="116.9311"
       y2="66.386375"
       gradientUnits="userSpaceOnUse" />
  </defs>
  <sodipodi:namedview
     id="base"
     pagecolor="#ffffff"
     bordercolor="#666666"
     borderopacity="1.0"
     inkscape:pageopacity="0.0"
     inkscape:pageshadow="2"
     inkscape:zoom="0.92824696"
     inkscape:cx="267.03408"
     inkscape:cy="338.19237"
     inkscape:document-units="mm"
     inkscape:current-layer="layer7"
     showgrid="false"
     units="px"
     inkscape:snap-page="true"
     inkscape:snap-others="false"
     inkscape:window-width="1920"
     inkscape:window-height="1004"
     inkscape:window-x="0"
     inkscape:window-y="48"
     inkscape:window-maximized="1" />
  <metadata
     id="metadata121">
    <rdf:RDF>
      <cc:Work
         rdf:about="">
        <dc:format>image/svg+xml</dc:format>
        <dc:type
           rdf:resource="http://purl.org/dc/dcmitype/StillImage" />
        <dc:title></dc:title>
      </cc:Work>
    </rdf:RDF>
  </metadata>
  <g
     inkscape:groupmode="layer"
     id="layer7"
     inkscape:label="Device"
     style="display:inline">
    <path
       style="display:inline;fill:#000000;fill-opacity:1;stroke:none;stroke-width:0.32728478px;stroke-linecap:butt;stroke-linejoin:miter;stroke-opacity:1"
       d="m 33.641311,64.982766 -1.732765,5.398727 c 0,0 -0.629464,5.678443 3.26926,11.20272 5.812872,8.815493 5.94101,9.101914 13.151365,19.243577 7.210355,10.14167 20.613506,27.64865 32.12776,42.84454 3.87757,5.11741 16.967127,10.29767 21.949299,12.68881 11.002,5.28032 27.527,13.09076 40.11549,14.1146 15.07422,1.22601 22.74792,-23.13102 22.74792,-23.13102 L 141.75352,83.564426 123.90176,65.732277 102.89006,58.202973 62.293831,52.176488 45.213712,60.714006 Z"
       id="path4839"
       inkscape:connector-curvature="0"
       sodipodi:nodetypes="ccczsssccccccc" />
    <path
       sodipodi:nodetypes="cccssccsc"
       inkscape:connector-curvature="0"
       id="path4728"
       d="m 54.76863,55.588789 -2.295328,-2.726405 -0.27808,-2.350686 c 0,0 18.167671,-1.598465 22.431514,-0.940273 4.263843,0.658192 23.729205,5.171504 34.852264,9.590788 11.12306,4.419288 9.18583,4.11904 14.42276,6.57006 -8.85487,-3.133919 -23.66007,-1.760792 -33.812723,-1.477175 -0.158622,1.548423 -0.114268,2.600247 -0.114268,2.600247 C 82.7929,64.986082 54.76863,55.588789 54.76863,55.588789 Z"
       style="display:inline;fill:url(#linearGradient4726);fill-opacity:1;stroke:none;stroke-width:0.32780018;stroke-linecap:butt;stroke-linejoin:miter;stroke-miterlimit:4;stroke-dasharray:none;stroke-opacity:1" />
    <path
       style="display:inline;fill:url(#linearGradient4735);fill-opacity:1;stroke:none;stroke-width:0.32728478px;stroke-linecap:butt;stroke-linejoin:miter;stroke-opacity:1"
       d="m 54.856148,55.855125 -2.382846,-2.992741 -0.27808,-2.350686 c 18.481975,6.870889 20.73837,7.57628 37.893815,13.7434 -0.158622,1.548423 -0.114268,2.600247 -0.114268,2.600247 C 82.7929,64.986082 54.856148,55.855125 54.856148,55.855125 Z"
       id="path4716"
       inkscape:connector-curvature="0"
       sodipodi:nodetypes="ccccsc" />
    <path
       style="display:inline;fill:url(#linearGradient4784);fill-opacity:1;stroke:none;stroke-width:0.32728478px;stroke-linecap:butt;stroke-linejoin:miter;stroke-opacity:1"
       d="m 90.498682,64.587538 c 0.0014,2.415136 0.08886,3.214144 0.08886,3.214144 l 37.938998,22.41657 4.1571,0.443891 -3.58823,-15.047953 -32.119065,-9.854412 z"
       id="path4776"
       inkscape:connector-curvature="0" />
    <path
       style="display:inline;fill:url(#linearGradient4747);fill-opacity:1;stroke:none;stroke-width:0.32728478px;stroke-linecap:butt;stroke-linejoin:miter;stroke-opacity:1"
       d="m 48.926779,56.570799 c 0,0 5.569607,-2.071605 6.497874,-2.13438 4.641336,1.255515 31.870514,10.044141 37.068811,12.052968 9.897016,3.978673 20.493146,9.162891 28.404966,13.999022 5.31807,3.262227 8.52923,5.401083 8.10688,7.972533 -0.42234,2.571452 -4.45568,5.900935 -4.45568,5.900935 0,0 -13.11951,-3.389899 -13.49083,-3.641 -0.37131,-0.251104 -18.627219,-14.438453 -18.627219,-14.438453 0,0 -13.119512,-5.335949 -13.552706,-5.587054 C 78.445686,70.444268 64.831094,63.978353 64.521671,63.915577 64.212247,63.852802 48.926779,56.570799 48.926779,56.570799 Z"
       id="path4739"
       inkscape:connector-curvature="0"
       sodipodi:nodetypes="cccczcccccc" />
    <path
       inkscape:connector-curvature="0"
       id="path4765"
       d="m 62.800615,61.187683 c 0.06391,-0.129654 1.75539,-2.692898 4.595099,-4.082141 1.130065,-0.55285 4.463428,-1.655606 6.038322,-1.200179 4.493777,1.299505 7.905733,3.09382 12.483497,10.149265 -3.2066,1.658274 -3.2066,1.658274 -3.2066,1.658274 l -2.49426,0.310726 z"
       style="display:inline;fill:url(#linearGradient4773);fill-opacity:1;stroke:none;stroke-width:0.32728478px;stroke-linecap:butt;stroke-linejoin:miter;stroke-opacity:1"
       sodipodi:nodetypes="csscccc" />
    <path
       style="display:inline;fill:url(#linearGradient4763);fill-opacity:1;stroke:none;stroke-width:0.32728478px;stroke-linecap:butt;stroke-linejoin:miter;stroke-opacity:1"
       d="m 62.800615,61.187683 c 0.08752,-0.177557 3.063124,-5.903769 8.708027,-3.639918 5.644906,2.263853 10.545906,10.120748 10.545906,10.120748 l -1.837875,0.355115 z"
       id="path4755"
       inkscape:connector-curvature="0" />
    <path
       sodipodi:nodetypes="csscssscc"
       inkscape:connector-curvature="0"
       id="path4707"
       d="m 81.061034,68.55619 c 0,0 -6.675185,12.538586 -10.603076,22.010152 -1.049126,2.529831 -2.28668,5.867231 -2.803926,7.547057 -0.660926,2.146451 -0.08433,2.769521 -0.397665,4.358811 -3.844082,-2.632003 -32.505527,-27.735224 -34.22755,-29.787815 -0.242782,-0.289387 -1.233891,-1.962381 -1.42236,-4.307299 -0.05219,-0.649308 -0.04284,-1.350134 0.06099,-2.087368 0.836918,-5.94284 11.1851,-12.607804 11.1851,-12.607804 z"
       style="display:inline;fill:url(#linearGradient4710);fill-opacity:1;stroke:none;stroke-width:0.32728478px;stroke-linecap:butt;stroke-linejoin:miter;stroke-opacity:1" />
    <path
       sodipodi:nodetypes="cscssccsscsscscc"
       inkscape:connector-curvature="0"
       id="path4670"
       d="m 82.41522,69.014086 c 0,0 23.31399,10.073283 38.80002,21.370661 1.81334,1.322871 4.49209,1.676486 6.63621,-0.04062 2.14412,-1.717108 1.62492,-3.937097 -0.92121,-6.104499 -4.95885,-4.221241 -6.85739,-5.122344 -13.18638,-8.905281 -7.90195,-4.723139 -16.853771,-8.967037 -23.245174,-10.746814 9.140702,-0.572366 30.023744,-1.337857 33.403074,1.144738 8.87412,3.960851 24.30645,16.663516 31.24281,27.830947 8.63308,13.899132 12.33164,22.248122 14.23506,36.388812 2.80518,20.83995 -16.13732,43.5 -26.85791,40.5237 3.57946,-0.6342 7.33514,-2.175 6.9966,-5.15132 -0.74082,-6.51284 -8.57647,-16.59867 -48.52475,-38.11975 -18.315639,-9.86707 -32.387452,-23.46711 -32.387452,-23.46711 0,0 -0.214496,-1.83679 0.169271,-3.37698 C 71.534502,89.287367 82.41522,69.014083 82.41522,69.014083 Z"
       style="display:inline;fill:url(#radialGradient4695);fill-opacity:1;stroke:none;stroke-width:0.32728478px;stroke-linecap:butt;stroke-linejoin:miter;stroke-opacity:1" />
    <path
       style="display:inline;fill:url(#linearGradient4705);fill-opacity:1;stroke:none;stroke-width:0.32728478px;stroke-linecap:butt;stroke-linejoin:miter;stroke-opacity:1"
       d="m 67.336162,99.153458 -0.07979,3.237812 C 63.412286,99.759262 35.095451,75.716531 33.028818,72.77516 c -1.88514,-2.683054 -1.67797,-6.628929 -0.815272,-8.362198 -0.06626,1.61221 -0.485638,3.84076 1.152105,5.623249 7.675602,8.353979 25.95005,21.003692 33.970511,29.117247 z"
       id="path178"
       inkscape:connector-curvature="0"
       sodipodi:nodetypes="ccscsc" />
    <path
       style="display:inline;fill:url(#linearGradient4682);fill-opacity:1;stroke:none;stroke-width:0.32728478px;stroke-linecap:butt;stroke-linejoin:miter;stroke-opacity:1"
       d="m 142.52172,170.47574 c 3.57946,-0.6342 7.33514,-2.17499 6.9966,-5.15132 -0.74082,-6.51285 -8.57647,-16.59867 -48.52476,-38.11975 -18.315635,-9.86707 -32.387446,-23.46711 -32.387446,-23.46711 0,0 -0.214498,-1.8368 0.169271,-3.37698 3.725669,4.47916 22.509918,18.21415 41.851065,29.0174 55.62333,31.06912 43.85529,42.27142 31.89527,41.09776 z"
       id="path4672"
       inkscape:connector-curvature="0"
       sodipodi:nodetypes="cssccsc" />
    <path
       style="display:inline;fill:url(#linearGradient4796);fill-opacity:1;stroke:none;stroke-width:0.32728478px;stroke-linecap:butt;stroke-linejoin:miter;stroke-opacity:1"
       d="m 91.506481,71.019901 c 0.743609,0.908331 11.844809,6.076214 14.221649,7.257645 0.71803,0.356899 1.1815,0.799004 2.31924,0.621448 1.13772,-0.177558 2.35863,-1.316437 2.47237,-1.642404 0.12819,-0.367406 -2.52196,-5.346011 -2.73493,-5.570848 -0.15339,-0.161933 -11.5427,-4.126769 -11.902433,-4.194785 -0.229293,-0.04336 -1.679248,0.660653 -2.406747,1.242898 -0.758403,0.606982 -2.320732,1.856577 -1.969149,2.286046 z"
       id="path4788"
       inkscape:connector-curvature="0"
       sodipodi:nodetypes="sscsssss" />
    <path
       sodipodi:nodetypes="csssc"
       inkscape:connector-curvature="0"
       id="path4798"
       d="m 105.24679,73.239364 c 0.34525,0.02969 2.75099,-1.328785 2.53802,-1.553622 -0.15339,-0.161933 -11.5427,-4.126769 -11.902433,-4.194785 -0.229293,-0.04336 -2.23807,0.99583 -2.472384,1.487039 -0.208466,0.437022 10.535617,4.077407 11.836797,4.261368 z"
       style="display:inline;fill:url(#linearGradient4801);fill-opacity:1;stroke:none;stroke-width:0.32728478px;stroke-linecap:butt;stroke-linejoin:miter;stroke-opacity:1" />
    <path
       style="display:inline;fill:url(#linearGradient4812);fill-opacity:1;stroke:none;stroke-width:0.32728478px;stroke-linecap:butt;stroke-linejoin:miter;stroke-opacity:1"
       d="m 48.060396,93.734116 16.089967,15.317314 1.980305,-0.87885 1.732766,-3.76656 -17.080119,-14.81511 -1.856536,1.129967 z"
       id="path4804"
       inkscape:connector-curvature="0" />
    <path
       inkscape:connector-curvature="0"
       id="path4814"
       d="m 48.060396,93.734116 16.089967,15.317314 1.608998,-3.8921 C 61.694393,101.39187 50.213564,91.368976 48.926779,90.720877 Z"
       style="display:inline;fill:url(#linearGradient4820);fill-opacity:1;stroke:none;stroke-width:0.32728478px;stroke-linecap:butt;stroke-linejoin:miter;stroke-opacity:1"
       sodipodi:nodetypes="ccccc" />
    <path
       sodipodi:nodetypes="cccscssc"
       inkscape:connector-curvature="0"
       id="path4833"
       d="m 68.002673,113.587 c 2.885039,3.27285 9.816521,11.87315 14.171552,17.07503 0.376971,0.45027 0.479604,0.86316 1.593523,0.36097 1.113922,-0.50223 7.5516,-4.23009 10.658617,-6.2986 0.393265,-0.26182 1.06751,-0.26234 -0.417721,-1.26676 -1.485226,-1.0044 -15.684249,-10.57631 -21.967626,-16.10646 -0.272557,-0.23987 -2.024894,0.70814 -2.197279,1.00972 -0.968716,1.69477 -1.430234,3.61135 -1.841066,5.2261 z"
       style="display:inline;fill:url(#linearGradient4837);fill-opacity:1;stroke:none;stroke-width:0.32728478px;stroke-linecap:butt;stroke-linejoin:miter;stroke-opacity:1" />
    <path
       style="display:inline;fill:url(#linearGradient4831);fill-opacity:1;stroke:none;stroke-width:0.32728478px;stroke-linecap:butt;stroke-linejoin:miter;stroke-opacity:1"
       d="m 68.002673,113.587 c 2.885039,3.27285 9.816521,11.87315 14.171552,17.07503 0.376971,0.45027 0.479604,0.86316 1.593523,0.36097 1.113922,-0.50223 5.494927,-2.76524 8.601948,-4.83374 0.393264,-0.26183 1.067506,-0.70624 -0.417724,-1.71067 -1.485226,-1.0044 -14.896587,-10.13241 -21.179966,-15.66256 -0.272558,-0.23988 -0.755882,-0.75671 -0.928267,-0.45513 -0.968716,1.69477 -1.430234,3.61135 -1.841066,5.2261 z"
       id="path4823"
       inkscape:connector-curvature="0"
       sodipodi:nodetypes="cccscssc" />
  </g>
  <g
     inkscape:groupmode="layer"
     id="layer3"
     inkscape:label="Leaders"
     style="display:inline">
    <path
       style="fill:none;fill-opacity:1;stroke:none;stroke-width:0.26458332px;stroke-linecap:butt;stroke-linejoin:miter;stroke-opacity:1"
       d="m 87.372004,82.225427 c 0,0 19.527816,7.279613 31.390236,17.304521 0,0 3.8591,1.194482 5.60489,-0.183766 1.74578,-1.378252 1.19448,-3.032155 -0.64318,-4.686055 -1.83767,-1.6539 -20.39812,-13.414976 -29.770225,-15.987711 7.442555,-0.459415 24.445965,-1.073843 27.197485,0.918834 7.22549,3.179214 19.79081,13.375125 25.43853,22.33877 7.02923,11.15626 10.04068,17.85767 11.59048,29.20782 2.28404,16.72738 -13.13933,34.91569 -21.86825,32.52672 2.91447,-0.50904 5.97242,-1.74578 5.69677,-4.13475 -0.60319,-5.2276 -6.98314,-13.32309 -39.50986,-30.59717 -14.912972,-7.91989 -26.370532,-18.8361 -26.370532,-18.8361 0,0 -0.174647,-1.47432 0.137824,-2.71056 2.246527,-8.888015 11.105832,-25.160553 11.105832,-25.160553 z"
       id="path4668"
       inkscape:connector-curvature="0"
       sodipodi:nodetypes="csccccsscsscsc" />
    <text
       xml:space="preserve"
       style="font-style:normal;font-weight:normal;font-size:4.23333311px;line-height:1.25;font-family:sans-serif;letter-spacing:0px;word-spacing:0px;fill:#000000;fill-opacity:1;stroke:none;stroke-width:0.26458332"
       x="14.064545"
       y="42.284489"
       id="text4889"><tspan
         sodipodi:role="line"
         id="tspan4887"
         x="14.064545"
         y="42.284489"
         style="font-size:4.23333311px;stroke-width:0.26458332">Button 0</tspan></text>
    <text
       id="text4977"
       y="41.314796"
       x="99.894806"
       style="font-style:normal;font-weight:normal;font-size:4.23333311px;line-height:1.25;font-family:sans-serif;letter-spacing:0px;word-spacing:0px;fill:#000000;fill-opacity:1;stroke:none;stroke-width:0.26458332"
       xml:space="preserve"><tspan
         style="stroke-width:0.26458332"
         y="41.314796"
         x="99.894806"
         sodipodi:role="line"
         id="tspan4979">Button 2</tspan></text>
    <text
       xml:space="preserve"
       style="font-style:normal;font-weight:normal;font-size:4.23333311px;line-height:1.25;font-family:sans-serif;letter-spacing:0px;word-spacing:0px;fill:#000000;fill-opacity:1;stroke:none;stroke-width:0.26458332"
       x="55.512764"
       y="30.319952"
       id="text4985"><tspan
         sodipodi:role="line"
         x="55.512764"
         y="30.319952"
         style="stroke-width:0.26458332"
         id="tspan4987">Button 1</tspan></text>
    <text
       id="text4993"
       y="122.63442"
       x="20.689524"
       style="font-style:normal;font-weight:normal;font-size:4.23333311px;line-height:1.25;font-family:sans-serif;letter-spacing:0px;word-spacing:0px;fill:#000000;fill-opacity:1;stroke:none;stroke-width:0.26458332"
       xml:space="preserve"><tspan
         style="stroke-width:0.26458332"
         y="122.63442"
         x="20.689524"
         sodipodi:role="line"
         id="tspan4995">Button 4</tspan></text>
    <text
       xml:space="preserve"
       style="font-style:normal;font-weight:normal;font-size:4.23333311px;line-height:1.25;font-family:sans-serif;letter-spacing:0px;word-spacing:0px;fill:#000000;fill-opacity:1;stroke:none;stroke-width:0.26458332"
       x="55.262302"
       y="153.98589"
       id="text5001"><tspan
         sodipodi:role="line"
         x="55.262302"
         y="153.98589"
         style="stroke-width:0.26458332"
         id="tspan5003">Button 3</tspan></text>
    <text
       id="text5009"
       y="63.37672"
       x="141.62805"
       style="font-style:normal;font-weight:normal;font-size:4.23333311px;line-height:1.25;font-family:sans-serif;letter-spacing:0px;word-spacing:0px;fill:#000000;fill-opacity:1;stroke:none;stroke-width:0.26458332"
       xml:space="preserve"><tspan
         style="stroke-width:0.26458332"
         y="63.37672"
         x="141.62805"
         sodipodi:role="line"
         id="tspan5011">Button 5</tspan></text>
    <path
       style="fill:none;stroke:#000000;stroke-width:1;stroke-linecap:butt;stroke-linejoin:miter;stroke-miterlimit:3.9000001;stroke-dasharray:none;stroke-opacity:1;marker-end:url(#Arrow2Mend)"
       d="M 65.843199,148.27125 72.399014,138.295"
       id="path5023"
       inkscape:connector-curvature="0"
       sodipodi:nodetypes="cc" />
    <path
       sodipodi:nodetypes="cc"
       inkscape:connector-curvature="0"
       id="path7206"
       d="m 41.615182,120.90785 13.396667,-6.27079"
       style="fill:none;stroke:#000000;stroke-width:1;stroke-linecap:butt;stroke-linejoin:miter;stroke-miterlimit:3.9000001;stroke-dasharray:none;stroke-opacity:1;marker-end:url(#marker7210)" />
    <path
       style="fill:none;stroke:#000000;stroke-width:1;stroke-linecap:butt;stroke-linejoin:miter;stroke-miterlimit:3.9000001;stroke-dasharray:none;stroke-opacity:1;marker-end:url(#marker7654)"
       d="m 22.80284,45.37344 11.401419,9.121127"
       id="path7650"
       inkscape:connector-curvature="0"
       sodipodi:nodetypes="cc" />
    <path
       sodipodi:nodetypes="cc"
       inkscape:connector-curvature="0"
       id="path8454"
       d="m 66.128235,34.542092 4.275532,11.686446"
       style="fill:none;stroke:#000000;stroke-width:1;stroke-linecap:butt;stroke-linejoin:miter;stroke-miterlimit:3.9000001;stroke-dasharray:none;stroke-opacity:1;marker-end:url(#marker8458)" />
    <path
       style="fill:none;stroke:#000000;stroke-width:1;stroke-linecap:butt;stroke-linejoin:miter;stroke-miterlimit:3.9000001;stroke-dasharray:none;stroke-opacity:1;marker-end:url(#marker8938)"
       d="M 98.052209,43.663228 82.660292,57.629958"
       id="path8934"
       inkscape:connector-curvature="0"
       sodipodi:nodetypes="cc" />
    <path
       sodipodi:nodetypes="cc"
       inkscape:connector-curvature="0"
       id="path10739"
       d="m 140.23745,65.040889 -28.50355,5.13063"
       style="fill:none;stroke:#000000;stroke-width:1;stroke-linecap:butt;stroke-linejoin:miter;stroke-miterlimit:3.9000001;stroke-dasharray:none;stroke-opacity:1;marker-end:url(#marker10743)" />
  </g>
</svg>
