<?xml version="1.0" encoding="UTF-8" standalone="no"?>
<svg
   xmlns:dc="http://purl.org/dc/elements/1.1/"
   xmlns:cc="http://creativecommons.org/ns#"
   xmlns:rdf="http://www.w3.org/1999/02/22-rdf-syntax-ns#"
   xmlns:svg="http://www.w3.org/2000/svg"
   xmlns="http://www.w3.org/2000/svg"
   xmlns:xlink="http://www.w3.org/1999/xlink"
   xmlns:sodipodi="http://sodipodi.sourceforge.net/DTD/sodipodi-0.dtd"
   xmlns:inkscape="http://www.inkscape.org/namespaces/inkscape"
   version="1.1"
   id="svg2"
   viewBox="0 0 750.00004 749.99998"
   height="750"
   width="750"
   sodipodi:docname="logitech-mx_master.svg"
   inkscape:version="0.92+devel 15739 custom">
  <sodipodi:namedview
     pagecolor="#ffffff"
     bordercolor="#666666"
     inkscape:document-rotation="0"
     borderopacity="1"
     objecttolerance="10"
     gridtolerance="10"
     guidetolerance="10"
     inkscape:pageopacity="0"
     inkscape:pageshadow="2"
     inkscape:window-width="1920"
     inkscape:window-height="1053"
     id="namedview55"
     showgrid="false"
     inkscape:zoom="0.90533333"
     inkscape:cx="394.54153"
     inkscape:cy="346.39586"
     inkscape:window-x="0"
     inkscape:window-y="0"
     inkscape:window-maximized="1"
     inkscape:current-layer="layer2" />
  <defs
     id="defs4">
    <linearGradient
       id="linearGradient5204">
      <stop
         style="stop-color:#868686;stop-opacity:1;"
         offset="0"
         id="stop5206" />
      <stop
         style="stop-color:#868686;stop-opacity:0;"
         offset="1"
         id="stop5208" />
    </linearGradient>
    <linearGradient
       id="linearGradient5128">
      <stop
         style="stop-color:#3a3a3a;stop-opacity:1"
         offset="0"
         id="stop5130" />
      <stop
         style="stop-color:#aaaaaa;stop-opacity:1"
         offset="1"
         id="stop5132" />
    </linearGradient>
    <linearGradient
       xlink:href="#linearGradient5128"
       id="linearGradient3078"
       gradientUnits="userSpaceOnUse"
       spreadMethod="reflect"
       x1="230.63638"
       y1="432.30179"
       x2="238.061"
       y2="447.85815" />
    <linearGradient
       xlink:href="#linearGradient5204"
       id="linearGradient3080"
       gradientUnits="userSpaceOnUse"
       x1="196.63423"
       y1="468.17209"
       x2="170.13423"
       y2="402.67206" />
  </defs>
  <metadata
     id="metadata7">
    <rdf:RDF>
      <cc:Work
         rdf:about="">
        <dc:format>image/svg+xml</dc:format>
        <dc:type
           rdf:resource="http://purl.org/dc/dcmitype/StillImage" />
        <dc:title></dc:title>
        <cc:license
           rdf:resource="https://opensource.org/licenses/MIT" />
      </cc:Work>
    </rdf:RDF>
  </metadata>
  <g
     inkscape:groupmode="layer"
     id="layer1"
     inkscape:label="Device">
    <g
       id="layer1-0"
       transform="matrix(1.066667,0,0,1.066667,557.63834,-227.02703)"
       style="display:inline">
      <g
         style="stroke-width:1.03775251"
         id="g3058"
         transform="matrix(0.6738802,0,0,0.67794969,-190.55606,295.44166)">
        <path
           inkscape:connector-curvature="0"
           id="path5084"
           transform="translate(-522.78594,-97.359255)"
           d="m 921.14258,351.92188 c -10.71472,0.3561 17.48242,40.65039 17.48242,40.65039 l -0.99805,38.58007 c -0.0632,-0.10181 -0.1163,-0.2052 -0.18164,-0.30664 -0.41273,0.4635 -0.8827,0.9276 -1.47656,1.39063 C 883.92622,472.81347 836.5,478.32226 756.5,516.32227 c -80,37.99997 -316.69239,159.29807 -343.5,147.5 -0.19217,-0.0846 -0.3462,-0.18445 -0.50195,-0.28321 -0.14711,0.0864 -0.35538,0.19871 -0.49805,0.28321 -0.0138,-0.0118 -0.0272,-0.0234 -0.041,-0.0352 l -0.0273,0.0156 c 20.65212,21.99316 41.34778,28.42752 134.68945,6.01954 h 67.87891 c 0,0 31.685,6.41255 73,41.25 56.21397,47.40048 70.15272,37.94645 213.83008,7.3789 120.72766,-25.68496 98.22343,-76.56575 107.07816,-168.1289 5.6329,-58.24749 15.6725,-114.94915 -35.90824,-161 -31.61176,-28.22275 -46.12465,-37.57431 -51.35742,-37.40039 z"
           style="fill:#433737;fill-opacity:1;fill-rule:evenodd;stroke:#000000;stroke-width:1.47948277px;stroke-linecap:butt;stroke-linejoin:miter;stroke-opacity:1" />
        <path
           inkscape:connector-curvature="0"
           id="path5077"
           transform="translate(-522.78594,-97.359255)"
           d="m 766.6582,304.5 c -179.15881,0.002 -367.84961,155.86523 -367.84961,155.86523 -21.93235,32.98189 -41.23548,69.54864 -57.98242,109.60157 7.5036,28.04106 30.67382,59.21512 71.17383,93.85547 59.9519,-35.50497 512.63903,-236.02476 512.5,-244 95.7156,51.99999 -269.006,189 -269,189 -12.27104,5.04673 -14.55606,11.0677 -7.5,18 l 2.06445,1.76953 h 0.002 l 11.89062,10.1875 c -0.62249,0.15805 -1.26128,0.30706 -1.87305,0.48242 -47.26127,13.54738 -84.55325,23.64795 -114.41015,30.79101 L 615,669.82227 l 63.40625,-16.95508 38.59961,33.06445 c 38.18376,34.64823 37.84255,32.06806 141.42187,14.14258 C 964.16532,681.77523 962.3307,680.80807 974.39258,545.2168 984.45817,432.06647 1011.3318,377.81074 858.42773,320.35742 828.82733,309.23515 797.88772,304.49969 766.6582,304.5 Z"
           style="fill:#3d3d3d;fill-opacity:1;fill-rule:evenodd;stroke:#000000;stroke-width:1.47948277px;stroke-linecap:butt;stroke-linejoin:miter;stroke-opacity:1" />
        <path
           inkscape:connector-curvature="0"
           id="path5079"
           transform="translate(-522.78594,-97.359255)"
           d="m 924.5,419.82227 c 0.13868,7.95534 -450.25292,207.4789 -512.00586,243.71484 0.15695,0.0995 0.31224,0.19994 0.50586,0.28516 26.80761,11.79809 263.5,-109.50001 343.5,-147.5 80,-38.00001 127.42622,-43.50878 179.46875,-84.08594 0.5964,-0.46501 1.06842,-0.93101 1.48242,-1.39649 -2.56726,-3.98332 -6.80221,-7.67699 -12.95117,-11.01757 z"
           style="fill:#826c5e;fill-opacity:1;fill-rule:evenodd;stroke:none;stroke-width:1.03775251" />
        <path
           inkscape:connector-curvature="0"
           id="path5101"
           transform="translate(-522.78594,-97.359255)"
           d="m 633.2832,328.9668 c -128.50884,43.87332 -234.47461,131.39843 -234.47461,131.39843 -21.86064,32.87406 -41.10756,69.31169 -57.8164,109.21094 l 0.008,-0.004 61.25,-46.25 c -0.31467,-30.27892 8.67871,-33.61166 108.5,-91 105.67745,-60.75512 109.87649,-54.6167 115.74609,-80.49805 1.83541,-8.09301 4.52898,-16.4514 6.78711,-22.85742 z"
           style="fill:#000000;fill-opacity:1;fill-rule:evenodd;stroke:#ffffff;stroke-width:1.47948277px;stroke-linecap:butt;stroke-linejoin:miter;stroke-opacity:1" />
        <path
           inkscape:connector-curvature="0"
           id="path5107"
           transform="translate(-522.78594,-97.359255)"
           d="m 640.70703,428.57422 c -3.04651,0.0756 -6.31444,0.73835 -9.96875,2.0918 -19.09188,7.07104 -141.89935,74.20682 -175.71484,98.99414 -48.59449,35.62053 -48.4375,14.14257 -48.4375,14.14257 l -4.24219,-20.85937 c 0,0 -0.0901,0.0489 -0.0937,0.0508 9.1e-4,0.11168 -10e-4,0.2157 0,0.32813 l -61.25,46.25 -0.008,0.004 c -0.0548,0.13093 -0.11124,0.25961 -0.16602,0.39063 7.5036,28.04104 30.67382,59.21512 71.17383,93.85547 0.14966,-0.0886 0.33959,-0.19447 0.49414,-0.28516 0.0169,-0.01 0.0397,-0.0213 0.0566,-0.0312 1.02546,-0.60112 2.16407,-1.25057 3.39844,-1.93945 0.2066,-0.11531 0.43415,-0.23971 0.64648,-0.35743 1.08032,-0.59888 2.2254,-1.22479 3.45118,-1.88476 0.32998,-0.17769 0.67334,-0.36095 1.01367,-0.54297 1.22538,-0.65535 2.51457,-1.33647 3.87109,-2.04687 0.32591,-0.17069 0.65104,-0.34183 0.98438,-0.51563 0.98003,-0.51099 2.03888,-1.05627 3.08203,-1.59375 1.50441,-0.77516 3.19823,-1.63034 4.83007,-2.45898 2.6812,-1.36148 5.48308,-2.77245 8.49219,-4.27149 1.45002,-0.72234 2.95192,-1.46789 4.47461,-2.2207 3.14575,-1.55527 6.43566,-3.16851 9.87696,-4.84766 1.7505,-0.85415 3.50304,-1.70917 5.32617,-2.59375 3.69907,-1.79476 7.57491,-3.665 11.55664,-5.57812 1.62203,-0.77935 3.19102,-1.53607 4.85742,-2.33399 4.85137,-2.32297 9.91021,-4.73306 15.11328,-7.20312 1.05862,-0.50256 2.06054,-0.98002 3.13281,-1.48828 6.27234,-2.97314 12.74159,-6.02841 19.44532,-9.18164 0.19493,-0.0917 0.37504,-0.1777 0.57031,-0.26954 0.88374,-0.4156 1.84183,-0.86083 2.73242,-1.27929 8.89106,-4.17765 18.33343,-8.58591 27.83008,-13.01563 9.48674,-4.42512 19.20352,-8.94432 29.15625,-13.5625 5.63004,-2.6124 11.17539,-5.18811 16.91992,-7.84765 11.03955,-5.11098 22.24511,-10.28776 33.57227,-15.51563 4.59686,-2.12162 9.06381,-4.18813 13.6875,-6.32031 31.79772,-14.66333 64.04275,-29.4992 94.89648,-43.72656 0.64347,-0.29672 1.23671,-0.57103 1.87891,-0.86719 -0.0661,-2.523 -0.5325,-5.27289 -1.4043,-8.3125 -2.95973,-10.3194 -36.14133,-35.93502 -56.06055,-50.55859 C 663.08118,438.83704 654.18972,428.94451 642,428.57812 c -0.42664,-0.0128 -0.85775,-0.0147 -1.29297,-0.004 z"
           style="fill:#000000;fill-opacity:1;fill-rule:evenodd;stroke:#ffffff;stroke-width:1.47948277px;stroke-linecap:butt;stroke-linejoin:miter;stroke-opacity:1" />
        <rect
           transform="matrix(0.89707316,-0.44188205,0.39545007,0.91848747,0,0)"
           ry="4.5092516"
           rx="4.7671914"
           y="299.94894"
           x="-63.730179"
           height="22.140448"
           width="42.955582"
           id="rect5118"
           style="fill:#000000;fill-opacity:1;stroke:#ffffff;stroke-width:1.48045075;stroke-opacity:1" />
        <path
           inkscape:connector-curvature="0"
           id="path5120"
           d="m 275.08906,417.33778 4.375,22.875 80.75,-60.625 z"
           style="fill:#000000;fill-opacity:1;fill-rule:evenodd;stroke:#ffffff;stroke-width:1.47948277px;stroke-linecap:butt;stroke-linejoin:miter;stroke-opacity:1" />
        <path
           inkscape:connector-curvature="0"
           id="path5122"
           d="m 281.58906,443.33778 91.75,-68.625 c 10.87423,-8.13345 34.03844,-10.26653 -9.25,21.375 -37.38734,27.32814 -82.5,47.25 -82.5,47.25 z"
           style="fill:#000000;fill-opacity:1;fill-rule:evenodd;stroke:#ffffff;stroke-width:1.47948277px;stroke-linecap:butt;stroke-linejoin:miter;stroke-opacity:1" />
        <path
           inkscape:connector-curvature="0"
           id="path5124"
           d="m 197.58906,448.96278 c 6.125,13 10.625,29.125 10.625,29.125 0,0 57.34269,-25.16319 68.25,-30.75 -0.13843,-9.48681 -3.52264,-22.72856 -8.375,-27.875 -27.125,3.75 -70.5,29.5 -70.5,29.5 z"
           style="fill:url(#linearGradient3078);fill-opacity:1;fill-rule:evenodd;stroke:#000000;stroke-width:1.47948301;stroke-linecap:butt;stroke-linejoin:miter;stroke-miterlimit:4;stroke-dasharray:none;stroke-opacity:1" />
        <path
           inkscape:connector-curvature="0"
           id="path5138"
           d="m 3.47828,341.26173 c 0,0 6.886406,9.46214 7.95495,30.22881 -9.7125082,0.38797 -22.45064,-1.59098 -48.96714,10.78339 -26.5165,12.37437 -35.70889,37.29989 -35.70889,37.29989 l -6.84404,-0.46967 -8.1731,-22.75242 c 0,0 5.196794,-22.7334 30.485095,-40.41753 C -32.486544,338.25007 3.47828,341.26173 3.47828,341.26173 Z"
           style="fill:#797979;fill-opacity:1;fill-rule:evenodd;stroke:#000000;stroke-width:1.47948277px;stroke-linecap:butt;stroke-linejoin:miter;stroke-opacity:1" />
        <path
           inkscape:connector-curvature="0"
           id="path5140"
           transform="translate(-522.78594,-97.359255)"
           d="m 527.89648,441.94336 c -11.21543,-6.8e-4 -35.91089,1.15173 -54.02148,10.37891 -20.66776,10.53002 -34.76604,36.66892 -38.41016,44.00195 l 7.17383,19.9707 c 2.6388,-7.65898 11.92913,-28.82418 37.36133,-42.34765 27.46537,-14.60461 48.83613,-10.8705 53.86328,-9.67383 -1.11415,-11.22385 -3.86953,-18.48609 -5.74414,-22.32617 -0.0929,-1.7e-4 -0.12786,-0.004 -0.22266,-0.004 z"
           style="fill:#000000;fill-opacity:1;fill-rule:evenodd;stroke:none;stroke-width:1.03775251" />
        <path
           inkscape:connector-curvature="0"
           id="path5145"
           transform="translate(-522.78594,-97.359255)"
           d="m 485.25195,479.63281 c -26.5165,12.37437 -35.70886,37.34486 -35.70886,37.34486 9.75656,-6.29912 84.5483,-48.37571 84.5483,-48.37571 -6.04962,0.7682 -22.32294,-1.34352 -48.83944,11.03085 z"
           style="fill:#000000;fill-opacity:1;fill-rule:evenodd;stroke:none;stroke-width:1.03775251" />
        <path
           inkscape:connector-curvature="0"
           id="path5151"
           d="m -6.1035156,230.91992 c -19.3024674,3.60682 -35.0488854,16.31894 -52.6556354,24.21599 -51.094769,27.0536 -101.437299,55.94388 -149.051399,88.65901 -9.95415,5.51243 -22.54214,11.99271 -33.83984,6.61914 -6.38959,-3.90926 -7.96324,-11.94005 -8.66992,-18.82617 -15.28799,12.40039 -32.51253,23.07504 -46.6875,36.30469 11.43671,32.54466 37.53518,57.07166 61.90234,80.5625 1.79409,1.58773 4.14015,-3.28155 6.15485,-2.80815 C -144.1825,402.09598 -56.798635,363.92186 29.448769,323.50255 46.66114,315.61589 63.86767,307.71041 80.912109,299.46484 75.326356,287.31278 62.865961,280.7519 53.502952,271.87742 35.5688,257.98999 18.22755,242.94827 -1.484375,231.63672 c -1.4916064,-0.46547 -3.0527704,-0.75113 -4.6191406,-0.7168 z"
           style="display:inline;fill:#868686;fill-opacity:1;fill-rule:evenodd;stroke:none;stroke-width:1.03775251"
           transform="translate(124.57988,108.29077)" />
        <path
           inkscape:connector-curvature="0"
           id="path5162"
           d="m -28.414062,137.02148 c -76.907488,29.50803 -148.819988,71.80459 -213.308758,122.89206 -13.55128,17.43946 -23.11685,37.54603 -33.88323,56.82187 -3.7754,7.32186 -7.34192,14.58222 -10.84707,22.04584 11.21464,-8.37958 22.86793,-16.47415 33.20898,-25.8125 -0.25698,-17.631 11.68533,-33.06792 26.42383,-41.59375 31.52229,-22.08766 66.11652,-39.23093 99.04413,-59.05073 30.395219,-17.37588 61.961588,-32.92482 91.295711,-52.0313 6.692064,-6.28955 7.910236,-15.49613 9.814453,-23.93359 l -0.935164,0.35421 z"
           style="display:inline;fill:#868686;fill-opacity:1;fill-rule:evenodd;stroke:none;stroke-width:1.03775251"
           transform="translate(124.57988,108.29077)" />
        <path
           inkscape:connector-curvature="0"
           id="path5173"
           d="m 152.77364,310.2307 c 1.1582,6.05599 2.3164,12.11198 3.4746,18.16797 21.37631,-16.04948 42.75261,-32.09896 64.12891,-48.14843 -22.5345,9.99349 -45.06901,19.98697 -67.60351,29.98046 z"
           style="display:inline;fill:#868686;fill-opacity:1;fill-rule:evenodd;stroke:none;stroke-width:1.03775251"
           transform="translate(124.57988,108.29077)" />
        <path
           inkscape:connector-curvature="0"
           id="path5187"
           d="m 261.2834,263.28539 c -12.21657,2.16029 -20.42211,12.86093 -30.56476,19.12846 -18.40968,13.8199 -38.36778,28.59535 -55.81414,41.82076 29.28272,-15.22709 58.48771,-31.62916 82.88671,-54.0625 1.70896,-1.96865 4.73868,-4.48833 4.69532,-6.85547 -0.39767,-0.0641 -0.80252,-0.0596 -1.20313,-0.0312 z"
           style="display:inline;fill:#868686;fill-opacity:1;fill-rule:evenodd;stroke:none;stroke-width:1.03775251"
           transform="translate(124.57988,108.29077)" />
        <path
           inkscape:connector-curvature="0"
           id="path5192"
           d="m 42.546875,449.04102 c 19.339052,15.73498 36.723013,34.10436 57.603515,47.67578 20.60808,9.36671 43.55773,2.08926 64.83959,-0.49809 35.57938,-6.15258 71.49952,-11.18454 106.39931,-20.59787 15.04923,-4.60526 29.72058,-14.93837 34.46618,-30.81811 9.43121,-25.52623 9.54274,-53.05503 12.87313,-79.81517 -0.62149,-4.24546 3.55982,-14.72991 -0.52003,-14.51534 -91.88723,32.85626 -183.77446,65.71253 -275.661695,98.5688 z"
           style="display:inline;fill:url(#linearGradient3080);fill-opacity:1;fill-rule:evenodd;stroke:none;stroke-width:1.03775251"
           transform="translate(124.57988,108.29077)" />
        <path
           inkscape:connector-curvature="0"
           id="rect5212"
           d="m -27.103516,182.32422 c -10.397754,4.71799 -21.409505,9.91406 -30.929687,15.4375 2.508683,3.97971 3.88786,8.5168 5.707031,12.72266 10.007293,-5.84796 21.032198,-9.89858 31.039063,-15.81641 -1.598593,-4.02995 -3.118058,-9.77197 -5.816407,-12.34375 z"
           style="display:inline;fill:#868686;fill-opacity:1;stroke:none;stroke-width:1.03775251"
           transform="translate(124.57988,108.29077)" />
      </g>
    </g>
  </g>
  <g
     inkscape:groupmode="layer"
     id="layer2"
     inkscape:label="Leaders">
    <text
       id="text4473"
       y="565.3598"
       x="102.38671"
       style="font-style:normal;font-variant:normal;font-weight:normal;font-stretch:normal;font-size:16px;line-height:0%;font-family:sans-serif;-inkscape-font-specification:'sans-serif, Normal';font-variant-ligatures:normal;font-variant-caps:normal;font-variant-numeric:normal;font-feature-settings:normal;text-align:start;letter-spacing:0px;word-spacing:0px;writing-mode:lr-tb;text-anchor:start;display:inline;fill:#000000;fill-opacity:1;stroke:none;stroke-width:1.06666696"
       xml:space="preserve"
       transform="scale(0.99699417,1.0030149)"><tspan
         style="font-style:normal;font-variant:normal;font-weight:normal;font-stretch:normal;font-size:16px;line-height:1.25;font-family:sans-serif;-inkscape-font-specification:'sans-serif, Normal';font-variant-ligatures:normal;font-variant-caps:normal;font-variant-numeric:normal;font-feature-settings:normal;text-align:start;writing-mode:lr-tb;text-anchor:start;stroke-width:1.06666696"
         y="565.3598"
         x="102.38671"
         id="tspan4475">Button0</tspan></text>
    <text
       xml:space="preserve"
       style="font-style:normal;font-variant:normal;font-weight:normal;font-stretch:normal;font-size:16px;line-height:0%;font-family:sans-serif;-inkscape-font-specification:'sans-serif, Normal';font-variant-ligatures:normal;font-variant-caps:normal;font-variant-numeric:normal;font-feature-settings:normal;text-align:start;letter-spacing:0px;word-spacing:0px;writing-mode:lr-tb;text-anchor:start;display:inline;fill:#000000;fill-opacity:1;stroke:none;stroke-width:1.06666696"
       x="108.10234"
       y="242.15002"
       id="text4477"
       transform="scale(0.99699417,1.0030149)"><tspan
         style="font-style:normal;font-variant:normal;font-weight:normal;font-stretch:normal;font-size:16px;line-height:1.25;font-family:sans-serif;-inkscape-font-specification:'sans-serif, Normal';font-variant-ligatures:normal;font-variant-caps:normal;font-variant-numeric:normal;font-feature-settings:normal;text-align:start;writing-mode:lr-tb;text-anchor:start;stroke-width:1.06666696"
         id="tspan4479"
         x="108.10234"
         y="242.15002">Button1</tspan></text>
    <text
       id="text4481"
       y="371.8588"
       x="100.09487"
       style="font-style:normal;font-variant:normal;font-weight:normal;font-stretch:normal;font-size:16px;line-height:0%;font-family:sans-serif;-inkscape-font-specification:'sans-serif, Normal';font-variant-ligatures:normal;font-variant-caps:normal;font-variant-numeric:normal;font-feature-settings:normal;text-align:start;letter-spacing:0px;word-spacing:0px;writing-mode:lr-tb;text-anchor:start;display:inline;fill:#000000;fill-opacity:1;stroke:none;stroke-width:1.06666696"
       xml:space="preserve"
       transform="scale(0.99699417,1.0030149)"><tspan
         style="font-style:normal;font-variant:normal;font-weight:normal;font-stretch:normal;font-size:16px;line-height:1.25;font-family:sans-serif;-inkscape-font-specification:'sans-serif, Normal';font-variant-ligatures:normal;font-variant-caps:normal;font-variant-numeric:normal;font-feature-settings:normal;text-align:start;writing-mode:lr-tb;text-anchor:start;stroke-width:1.06666696"
         y="371.8588"
         x="100.09487"
         id="tspan4483">Button2</tspan></text>
    <text
       xml:space="preserve"
       style="font-style:normal;font-variant:normal;font-weight:normal;font-stretch:normal;font-size:16px;line-height:0%;font-family:sans-serif;-inkscape-font-specification:'sans-serif, Normal';font-variant-ligatures:normal;font-variant-caps:normal;font-variant-numeric:normal;font-feature-settings:normal;text-align:start;letter-spacing:0px;word-spacing:0px;writing-mode:lr-tb;text-anchor:start;display:inline;fill:#000000;fill-opacity:1;stroke:none;stroke-width:1.06666696"
       x="653.47821"
       y="157.51355"
       id="text4485"
       transform="scale(0.99699417,1.0030149)"><tspan
         style="font-style:normal;font-variant:normal;font-weight:normal;font-stretch:normal;font-size:16px;line-height:1.25;font-family:sans-serif;-inkscape-font-specification:'sans-serif, Normal';font-variant-ligatures:normal;font-variant-caps:normal;font-variant-numeric:normal;font-feature-settings:normal;text-align:start;writing-mode:lr-tb;text-anchor:start;stroke-width:1.06666696"
         id="tspan4487"
         x="653.47821"
         y="157.51355">Button3</tspan></text>
    <text
       id="text4489"
       y="93.571732"
       x="449.42313"
       style="font-style:normal;font-variant:normal;font-weight:normal;font-stretch:normal;font-size:16px;line-height:0%;font-family:sans-serif;-inkscape-font-specification:'sans-serif, Normal';font-variant-ligatures:normal;font-variant-caps:normal;font-variant-numeric:normal;font-feature-settings:normal;text-align:start;letter-spacing:0px;word-spacing:0px;writing-mode:lr-tb;text-anchor:start;display:inline;fill:#000000;fill-opacity:1;stroke:none;stroke-width:1.06666696"
       xml:space="preserve"
       transform="scale(0.99699417,1.0030149)"><tspan
         style="font-style:normal;font-variant:normal;font-weight:normal;font-stretch:normal;font-size:16px;line-height:1.25;font-family:sans-serif;-inkscape-font-specification:'sans-serif, Normal';font-variant-ligatures:normal;font-variant-caps:normal;font-variant-numeric:normal;font-feature-settings:normal;text-align:start;writing-mode:lr-tb;text-anchor:start;stroke-width:1.06666696"
         y="93.571732"
         x="449.42313"
         id="tspan4491">Button4</tspan></text>
    <text
       xml:space="preserve"
       style="font-style:normal;font-variant:normal;font-weight:normal;font-stretch:normal;font-size:16px;line-height:0%;font-family:sans-serif;-inkscape-font-specification:'sans-serif, Normal';font-variant-ligatures:normal;font-variant-caps:normal;font-variant-numeric:normal;font-feature-settings:normal;text-align:start;letter-spacing:0px;word-spacing:0px;writing-mode:lr-tb;text-anchor:start;display:inline;fill:#000000;fill-opacity:1;stroke:none;stroke-width:1.06666696"
       x="448.09875"
       y="620.54236"
       id="text4493"
       transform="scale(0.99699417,1.0030149)"><tspan
         style="font-style:normal;font-variant:normal;font-weight:normal;font-stretch:normal;font-size:16px;line-height:1.25;font-family:sans-serif;-inkscape-font-specification:'sans-serif, Normal';font-variant-ligatures:normal;font-variant-caps:normal;font-variant-numeric:normal;font-feature-settings:normal;text-align:start;writing-mode:lr-tb;text-anchor:start;stroke-width:1.06666696"
         id="tspan4495"
         x="448.09875"
         y="620.54236">Button5</tspan></text>
    <text
       id="text4497"
       y="123.03238"
       x="209.7597"
       style="font-style:normal;font-variant:normal;font-weight:normal;font-stretch:normal;font-size:16px;line-height:0%;font-family:sans-serif;-inkscape-font-specification:'sans-serif, Normal';font-variant-ligatures:normal;font-variant-caps:normal;font-variant-numeric:normal;font-feature-settings:normal;text-align:start;letter-spacing:0px;word-spacing:0px;writing-mode:lr-tb;text-anchor:start;display:inline;fill:#000000;fill-opacity:1;stroke:none;stroke-width:1.06666696"
       xml:space="preserve"
       transform="scale(0.99699417,1.0030149)"><tspan
         style="font-style:normal;font-variant:normal;font-weight:normal;font-stretch:normal;font-size:16px;line-height:1.25;font-family:sans-serif;-inkscape-font-specification:'sans-serif, Normal';font-variant-ligatures:normal;font-variant-caps:normal;font-variant-numeric:normal;font-feature-settings:normal;text-align:start;writing-mode:lr-tb;text-anchor:start;stroke-width:1.06666696"
         y="123.03238"
         x="209.7597"
         id="tspan4499">Button6</tspan></text>
    <path
       inkscape:connector-curvature="0"
       id="path3082"
       d="m 162.38897,251.08006 123.99755,90.72462"
       style="fill:none;stroke:#000000;stroke-width:2;stroke-linecap:butt;stroke-linejoin:miter;stroke-opacity:1;stroke-miterlimit:4;stroke-dasharray:none" />
    <path
       inkscape:connector-curvature="0"
       id="path3084"
       d="m 166.48807,366.54776 151.6664,-7.21673"
       style="fill:none;stroke:#000000;stroke-width:2;stroke-linecap:butt;stroke-linejoin:miter;stroke-opacity:1;stroke-miterlimit:4;stroke-dasharray:none" />
    <path
       inkscape:connector-curvature="0"
       id="path3086"
       d="M 154.19079,550.05892 287.41129,438.71507"
       style="fill:none;stroke:#000000;stroke-width:2;stroke-linecap:butt;stroke-linejoin:miter;stroke-opacity:1;stroke-miterlimit:4;stroke-dasharray:none" />
    <path
       inkscape:connector-curvature="0"
       id="path3088"
       d="M 274.08923,125.30276 410.38405,310.87584"
       style="fill:none;stroke:#000000;stroke-width:2;stroke-linecap:butt;stroke-linejoin:miter;stroke-opacity:1;stroke-miterlimit:4;stroke-dasharray:none" />
    <path
       inkscape:connector-curvature="0"
       id="path3092"
       d="m 487.24203,102.62161 83.00662,283.51442"
       style="fill:none;stroke:#000000;stroke-width:2;stroke-linecap:butt;stroke-linejoin:miter;stroke-opacity:1;stroke-miterlimit:4;stroke-dasharray:none" />
    <path
       inkscape:connector-curvature="0"
       id="path3094"
       d="M 694.24619,166.54122 625.5864,361.39295"
       style="fill:none;stroke:#000000;stroke-width:2;stroke-linecap:butt;stroke-linejoin:miter;stroke-opacity:1;stroke-miterlimit:4;stroke-dasharray:none" />
    <path
       inkscape:connector-curvature="0"
       id="path3096"
       d="m 502.61363,600.57604 87.10572,-89.69366"
       style="fill:none;stroke:#000000;stroke-width:2;stroke-linecap:butt;stroke-linejoin:miter;stroke-opacity:1;stroke-miterlimit:4;stroke-dasharray:none" />
  </g>
</svg>
