<?xml version="1.0" encoding="UTF-8" standalone="no"?>
<!-- Created with Inkscape (http://www.inkscape.org/) -->

<svg
   xmlns:dc="http://purl.org/dc/elements/1.1/"
   xmlns:cc="http://creativecommons.org/ns#"
   xmlns:rdf="http://www.w3.org/1999/02/22-rdf-syntax-ns#"
   xmlns:svg="http://www.w3.org/2000/svg"
   xmlns="http://www.w3.org/2000/svg"
   xmlns:sodipodi="http://sodipodi.sourceforge.net/DTD/sodipodi-0.dtd"
   xmlns:inkscape="http://www.inkscape.org/namespaces/inkscape"
   width="210mm"
   height="297mm"
   viewBox="0 0 210 297"
   version="1.1"
   id="svg8"
   inkscape:version="0.92.3 (2405546, 2018-03-11)"
   sodipodi:docname="logo.svg">
  <defs
     id="defs2" />
  <sodipodi:namedview
     id="base"
     pagecolor="#ffffff"
     bordercolor="#666666"
     borderopacity="1.0"
     inkscape:pageopacity="0.0"
     inkscape:pageshadow="2"
     inkscape:zoom="0.70710678"
     inkscape:cx="463.27182"
     inkscape:cy="305.39442"
     inkscape:document-units="mm"
     inkscape:current-layer="layer1"
     showgrid="false"
     inkscape:measure-start="0,0"
     inkscape:measure-end="0,0"
     inkscape:window-width="1920"
     inkscape:window-height="1136"
     inkscape:window-x="1920"
     inkscape:window-y="27"
     inkscape:window-maximized="1"
     showguides="true"
     inkscape:guide-bbox="true"
     inkscape:snap-to-guides="true">
    <inkscape:grid
       type="xygrid"
       id="grid1058" />
  </sodipodi:namedview>
  <metadata
     id="metadata5">
    <rdf:RDF>
      <cc:Work
         rdf:about="">
        <dc:format>image/svg+xml</dc:format>
        <dc:type
           rdf:resource="http://purl.org/dc/dcmitype/StillImage" />
        <dc:title></dc:title>
      </cc:Work>
    </rdf:RDF>
  </metadata>
  <g
     inkscape:label="sack"
     inkscape:groupmode="layer"
     id="layer1"
     style="display:inline">
    <rect
       ry="0.44884709"
       y="172.18915"
       x="1150"
       height="4.8108511"
       width="6.0803819"
       id="rect1075"
       style="fill:#000000;fill-opacity:1;stroke:none;stroke-width:3.16499996;stroke-linecap:square;stroke-linejoin:round;stroke-miterlimit:4;stroke-dasharray:none;stroke-opacity:1" />
  </g>
  <g
     inkscape:groupmode="layer"
     id="layer4"
     inkscape:label="rat right"
     style="opacity:1" />
  <g
     inkscape:groupmode="layer"
     id="layer2"
     inkscape:label="rat left"
     style="display:inline;opacity:1" />
  <g
     inkscape:groupmode="layer"
     id="layer6"
     inkscape:label="rat bottom"
     style="opacity:1">
    <g
       id="g1316"
       transform="translate(-11.599497)">
      <path
         sodipodi:nodetypes="sssssssssssssssccssscss"
         inkscape:connector-curvature="0"
         id="path1039"
         d="m 193.30268,96.247176 c -3.2499,1.244141 -5.70487,5.217704 -6.1731,8.640514 -0.46127,3.37194 1.06674,8.17528 5.17162,8.92716 1.88245,0.3448 5.75552,3.71382 1.56778,2.91866 -4.41092,-0.83753 -9.60561,-1.81767 -12.03434,-5.88833 -2.51189,-4.21004 -6.0824,-2.70094 -9.60946,-1.97697 -3.61649,0.74233 -3.34262,3.70961 -0.59483,4.79149 1.76651,0.69552 -4.7698,1.02182 -6.46586,-0.31589 -0.99074,-0.7814 -4.3093,0.86964 -6.03067,0.70651 -4.14705,-0.39301 -8.0988,0.0723 -12.42874,-0.59505 -2.75134,-0.42408 -6.23873,1.52773 -5.40472,-2.94355 0.41316,-2.21506 -1.53788,-7.95327 -0.25583,-12.089073 1.43935,-4.643227 2.78762,-6.554699 6.29989,-9.29157 2.96282,-2.308725 9.62529,-5.456849 13.27656,-6.171955 5.94327,-1.163997 13.69394,2.401773 15.47361,3.054918 2.51726,0.923848 7.67473,-3.278929 11.1961,-3.200515 2.07518,-1.437388 4.50939,-5.479552 6.03783,0.452639 3.26133,0.136438 5.00967,-0.06864 9.09359,2.312711 2.76398,1.611684 4.87236,1.538272 5.34391,2.873448 0.62005,1.755647 -2.69292,5.296382 -3.28547,5.288625 -0.8492,-0.01112 -0.81394,0.08191 -2.0197,0.176484 -0.32445,1.41613 -2.05245,1.970743 -5.1013,1.610476 -1.43172,-0.169179 -2.7495,0.218777 -4.05687,0.719268 z"
         style="opacity:1;fill:#000000;fill-opacity:1;stroke:none;stroke-width:0.26458332px;stroke-linecap:butt;stroke-linejoin:miter;stroke-opacity:1" />
      <path
         inkscape:connector-curvature="0"
         id="path1045"
         d="m 131.03246,112.78736 c -3.19754,-3.4816 -3.91548,-3.31073 -5.87228,-7.17694 -1.51881,-4.76902 -1.2579,-3.59102 -4.44899,-11.00551 2.31432,2.991399 3.84563,6.48434 5.56001,9.87159 2.19923,4.34517 4.03074,4.88595 7.22829,8.36756"
         style="display:inline;opacity:1;fill:#000000;fill-opacity:1;stroke:none;stroke-width:0.26458332px;stroke-linecap:butt;stroke-linejoin:miter;stroke-opacity:1"
         sodipodi:nodetypes="cccsc" />
      <path
         sodipodi:nodetypes="ccccsc"
         style="display:inline;opacity:1;fill:#000000;fill-opacity:1;stroke:none;stroke-width:0.26458332px;stroke-linecap:butt;stroke-linejoin:miter;stroke-opacity:1"
         d="m 120.09517,111.48321 c -0.24901,-4.72058 -0.43574,-9.98729 -1.82782,-14.090803 -4.0267,-10.295979 -4.72401,-12.49601 -0.0129,-13.556748 -2.07044,-0.256651 -5.41881,-0.421857 -5.48281,2.489527 0.517,3.746632 1.94024,7.284981 3.15986,10.880132 1.56453,4.611872 1.00424,9.358872 1.25325,14.079452"
         id="path955"
         inkscape:connector-curvature="0" />
      <path
         sodipodi:nodetypes="ccsccccccc"
         inkscape:connector-curvature="0"
         id="path1298"
         d="m 97.79837,109.10532 c -0.640498,-1.90396 -0.324058,-5.87792 -2.548937,-9.261177 1.761266,-3.582335 5.461967,-1.030595 3.345989,-4.716654 -1.27974,-2.229325 -5.394303,-0.545291 -6.437336,0.673406 -2.968786,0.408473 -6.280299,-3.592023 -8.586349,-4.613747 -3.902419,-1.141693 -9.722226,-2.223874 -12.939723,-3.303186 -2.646277,1.694635 -1.446947,6.207521 -1.598912,7.088293 1.30852,3.281643 1.243822,1.801413 2.493275,5.514775 2.008262,2.23089 4.855928,4.59155 5.686271,9.4289 7.349678,-0.38854 9.558907,-0.59389 20.585722,-0.81061 z"
         style="display:inline;opacity:1;fill:#000000;fill-opacity:1;stroke:#000000;stroke-width:0.26458332px;stroke-linecap:butt;stroke-linejoin:miter;stroke-opacity:1" />
      <path
         sodipodi:nodetypes="cccccczzcczc"
         inkscape:connector-curvature="0"
         id="path815"
         d="m 71.911001,151.04073 c -13.545552,17.75365 -48.518606,24.46129 -42.445015,52.8882 4.987974,25.22201 13.988429,29.44417 56.008367,27.90906 47.288497,0.24745 47.307997,0.7217 90.436597,0.28592 14.07598,2.60143 28.63685,-20.8018 23.94043,-35.61574 -4.77259,-20.1552 -28.81931,-24.18426 -36.25354,-41.43822 -7.52218,-23.58108 1.99039,-35.03297 22.19568,-25.38895 20.20529,9.64403 26.03755,-15.82001 -11.10418,-15.33498 -37.14173,0.48503 -66.18409,-5.57956 -84.958574,-4.07459 -15.461428,0.81842 -41.712504,-2.86861 -44.765236,21.70932 2.422297,6.71408 19.985082,-12.15526 27.605897,-5.44801 7.620815,6.70724 20.413185,4.32379 -0.660426,24.50799 z"
         style="display:inline;fill:none;fill-opacity:1;stroke:#000000;stroke-width:3.16499996;stroke-linecap:butt;stroke-linejoin:miter;stroke-miterlimit:4;stroke-dasharray:none;stroke-opacity:1" />
      <path
         sodipodi:nodetypes="ccccc"
         style="display:inline;fill:#000000;fill-opacity:1;stroke:#000000;stroke-width:1.16499996;stroke-linecap:butt;stroke-linejoin:miter;stroke-miterlimit:4;stroke-dasharray:none;stroke-opacity:1"
         d="m 79.716618,142.54753 c 0,0 63.912362,8.07113 81.488252,0.7006 0,0 -0.56974,-7.74657 1.60362,-10.91212 -17.57589,7.37053 -79.821755,-0.0115 -79.821755,-0.0115 3.474504,7.01583 -3.270117,10.22298 -3.270117,10.22298 z"
         id="path842"
         inkscape:connector-curvature="0" />
      <path
         sodipodi:nodetypes="cccccccccccccccccccccccccccccccccccccccccsccccccccccccccc"
         inkscape:connector-curvature="0"
         id="path1212"
         d="m 134.30378,237.00488 c 6.05524,1.14081 7.22067,1.31431 10.02264,2.72758 0,0.38071 -0.19945,0.89381 -1.01365,1.66697 -0.8142,0.77314 -2.6542,0.92241 -3.94953,1.25266 -0.67325,0.3643 -1.36184,1.00187 -1.50199,1.72727 3.97782,-1.45575 2.82486,-1.28103 2.75389,0.45072 0.20024,0.42037 1.54248,-1.05607 1.70256,-1.07661 1.00124,-0.41482 0.93822,0.001 1.55056,0.0319 0.20389,0.64546 -0.30382,1.34832 -0.26341,1.72391 0.84425,0.0769 1.57036,-1.33585 1.5884,-2.00591 0.34832,-0.5087 0.57096,-0.30966 1.0296,0 0.83149,0.862 0.93498,0.50569 1.95428,1.01599 2.24374,0.45044 -0.93235,-2.10713 -1.49797,-2.41992 -0.0737,-0.0369 1.39328,-2.39745 1.58909,-2.64425 2.32503,-0.403 4.75988,-1.00269 6.10414,-1.57594 v -1.2e-4 c 5.97825,1.84348 14.60207,1.47181 21.66926,1.7325 8.87347,0.60502 6.80866,4.81981 -11.94665,7.57383 29.43774,3.60709 24.29174,-11.42807 13.49975,-11.41332 -4.45874,0.0577 -12.7835,-0.12064 -21.26078,-1.9791 -1.35135,-2.33359 -1.8837,-5.9598 -1.12611,-9.63435 -2.49031,-11.667 -8.91489,-30.75707 -16.82134,-42.62455 -2.9074,-3.93147 -6.12061,-11.52979 -7.33913,-14.68828 7.81948,-5.62697 0.38705,-8.64346 -3.43515,-4.04735 -4.2835,-4.24158 -9.25924,-6.58986 -17.43646,-7.91069 -4.46939,6.75139 7.20116,21.8355 7.20116,21.8355 0.27261,11.69368 -1.47411,14.8979 -4.3435,23.39568 0.0471,0.3928 -0.49786,0.52092 -0.68357,0.83384 -0.19254,0.21312 -0.9241,1.82103 -1.17914,2.01487 -0.12771,0.23832 -0.38006,0.38366 -0.60384,0.59827 -0.23775,0.19619 -0.40433,0.49501 -0.42142,0.8292 -0.13385,0.31584 -0.17018,0.488 -0.19925,0.87639 -0.15645,0.29381 0.11002,0.40231 0.35386,0.34986 0.27783,-0.0135 0.56968,0.0505 0.82065,-0.10012 0.38688,-0.0135 0.82412,-0.32301 0.90134,-0.70099 0.0571,-0.34113 0.16568,-0.80155 0.62396,-0.6509 0.27636,0.006 0.58137,-0.16307 0.77806,0.15023 0.27193,0.12771 0.77421,0.23993 0.87876,-0.14883 0.16039,-0.42589 0.57357,-0.67322 0.67434,-1.12667 0.14254,-0.12321 0.37352,-0.19611 0.30974,-0.28545 0.26187,-0.26516 0.52474,-0.58479 0.89076,-0.74525 3.05534,-1.07719 3.51973,-4.67744 3.86462,-4.59812 0.67734,0.15577 -0.84342,6.82001 3.73079,20.85428 -1.4046,15.75023 6.7093,18.67126 6.7093,18.67126 0.17258,1.22487 -3.10226,1.32242 -3.80222,1.80721 -0.96512,0.31347 -2.42142,0.5571 -3.36241,0.16943 -0.41052,-0.20344 -1.14128,-0.10911 -0.6235,0.34889 -0.6851,0.62634 -1.75451,0.42589 -2.61368,0.63307 -0.84134,0.12395 -1.06409,1.07707 -0.0627,0.80147 -0.42125,1.18238 1.04775,0.72998 1.68923,0.70002 0.53648,-0.0399 0.30954,0.7577 0.96774,0.39958 0.92805,-0.19058 1.83353,-0.32154 2.75115,-0.51031 0.98245,-0.0454 1.60905,0.10657 2.586,0.18597 0.728,0.16342 2.43322,-0.53193 2.89833,-1.06277 0.62324,-0.55427 1.57699,-1.41676 2.07353,-2.11063 0.49656,-0.69386 0.66544,-0.53528 1.31986,-1.29795 z"
         style="fill:#000000;fill-opacity:1;stroke:none;stroke-width:0.39657527px;stroke-linecap:butt;stroke-linejoin:miter;stroke-opacity:1" />
    </g>
  </g>
</svg>
